<svg width="40" height="38" viewBox="0 0 40 38" fill="none" xmlns="http://www.w3.org/2000/svg">
<path d="M5.94849 5.94797C5.94849 4.29493 8.45407 0 13.2174 0C17.9535 0 20.5037 4.29493 20.5037 5.94797C20.4863 5.94797 20.4541 5.96531 20.4367 5.96531C17.661 6.70881 15.8593 3.68526 15.7948 3.55391C15.5024 3.07807 14.8828 3.02603 14.5061 3.37299C11.0043 6.62703 6.32767 5.99753 5.94849 5.94797Z" fill="#1565D8"/>
<path d="M14.9195 5.1897C11.1525 8.14633 6.70885 7.71758 5.7993 7.6011C5.59856 10.6123 8.51059 14.87 13.2169 14.87C17.9431 14.87 20.8477 10.5825 20.6345 7.6011C18.4462 8.17111 16.3545 6.984 14.9195 5.1897Z" fill="#1565D8"/>
<path d="M19.3408 18.176H6.1958C2.7782 18.176 0 20.9542 0 24.3718V30.1537C0 30.8378 0.555144 31.3929 1.23916 31.3929H16.3668C14.8179 26.7014 16.0099 21.6828 19.3408 18.176Z" fill="#1565D8"/>
<path d="M28.9146 16.5229C22.9939 16.5229 18.176 21.3408 18.176 27.2615C18.176 33.1822 22.9939 38.0001 28.9146 38.0001C34.8353 38.0001 39.6531 33.1847 39.6531 27.2615C39.6531 21.3383 34.8353 16.5229 28.9146 16.5229ZM28.7064 26.0223H29.1203C30.8278 26.0223 32.2182 27.4127 32.2182 29.1202C32.2182 30.4635 31.3533 31.601 30.1537 32.0273V33.4573C30.1537 34.1413 29.5986 34.6965 28.9146 34.6965C28.2306 34.6965 27.6754 34.1413 27.6754 33.4573V32.2181H26.8501C26.1661 32.2181 25.611 31.663 25.611 30.979C25.611 30.295 26.1661 29.7398 26.8501 29.7398H29.1228C29.4648 29.7398 29.7423 29.4623 29.7423 29.1202C29.7423 28.7782 29.4648 28.5007 29.1228 28.5007H28.7089C27.0013 28.5007 25.611 27.1103 25.611 25.4028C25.611 24.0595 26.4759 22.922 27.6754 22.4957V21.0657C27.6754 20.3817 28.2306 19.8265 28.9146 19.8265C29.5986 19.8265 30.1537 20.3817 30.1537 21.0657V22.3049H30.979C31.663 22.3049 32.2182 22.86 32.2182 23.544C32.2182 24.228 31.663 24.7832 30.979 24.7832H28.7064C28.3644 24.7832 28.0868 25.0608 28.0868 25.4028C28.0868 25.7448 28.3669 26.0223 28.7064 26.0223Z" fill="#1565D8" fill-opacity="0.4"/>
</svg>
