<svg width="36" height="36" viewBox="0 0 36 36" fill="none" xmlns="http://www.w3.org/2000/svg">
<g clip-path="url(#clip0)">
<path d="M18.5806 15.293C18.5806 13.8896 17.5778 12.6889 16.1965 12.4368L12.1935 11.7087V10.588C13.2539 9.73573 13.9355 8.43098 13.9355 6.96774V4.64516C13.9355 2.08386 11.8516 0 9.29032 0C6.72902 0 4.64516 2.08386 4.64516 4.64516V6.96774C4.64516 8.43098 5.32674 9.7363 6.3871 10.588V11.7087L2.38354 12.4368C1.0028 12.6889 0 13.8896 0 15.293V24.3871H18.5806V15.293ZM12.5658 12.9571L11.8499 15.8203L10.1596 14.4679L11.808 12.8196L12.5658 12.9571ZM9.23986 18H9.34022L9.81511 23.2258H8.76496L9.23986 18ZM9.56023 16.8387H9.02041L8.42758 15.9499L9.29032 15.2598L10.1531 15.9499L9.56023 16.8387ZM9.29032 1.16129C11.2058 1.16129 12.7643 2.71497 12.7736 4.629C12.1354 4.58817 11.5398 4.33159 11.0833 3.87513L10.4516 3.24345L9.81993 3.87513C9.32349 4.37157 8.66318 4.64516 7.96062 4.64516H5.80645C5.80645 2.72376 7.36892 1.16129 9.29032 1.16129ZM5.80645 6.96774V5.80645H7.96062C8.88631 5.80645 9.76125 5.47729 10.4516 4.87396C11.0992 5.44015 11.912 5.75372 12.7742 5.79199V6.96774C12.7742 8.88914 11.2117 10.4516 9.29032 10.4516C7.36892 10.4516 5.80645 8.88914 5.80645 6.96774ZM9.29032 11.6129C9.90641 11.6129 10.4941 11.4899 11.0323 11.271V11.9531L9.29032 13.6951L7.54839 11.9531V11.271C8.0865 11.4899 8.67424 11.6129 9.29032 11.6129ZM6.77268 12.8196L8.42106 14.4679L6.73072 15.8203L6.01484 12.9571L6.77268 12.8196ZM1.16129 15.293C1.16129 14.4512 1.76292 13.7305 2.59136 13.5791L4.86999 13.1649L6.04291 17.8571L7.51692 16.678L8.1123 17.571L7.59885 23.2258H4.64516V17.4194H3.48387V23.2258H1.16129V15.293ZM17.4194 23.2258H15.0968V17.4194H13.9355V23.2258H10.9818L10.4678 17.571L11.0632 16.678L12.5372 17.8571L13.7101 13.1649L15.9887 13.5791C16.8177 13.7299 17.4194 14.4512 17.4194 15.293V23.2258Z" fill="#5987E1"/>
<path d="M26.7097 4.64509C27.0295 4.64509 27.2904 4.90536 27.2904 5.22574H28.4517C28.4517 4.46988 27.9646 3.83111 27.2904 3.59069V2.32251H26.1291V3.4838H24.9678V5.22574C24.9678 6.18601 25.7494 6.96767 26.7097 6.96767C27.0295 6.96767 27.2904 7.22794 27.2904 7.54832V8.12896H26.7097C26.3899 8.12896 26.1291 7.86869 26.1291 7.54832H24.9678C24.9678 8.30418 25.4549 8.94294 26.1291 9.18337V10.4515H27.2904V9.29025H28.4517V7.54832C28.4517 6.58804 27.67 5.80638 26.7097 5.80638C26.3899 5.80638 26.1291 5.54611 26.1291 5.22574V4.64509H26.7097Z" fill="#5987E1"/>
<path d="M33.0969 25.5484V13.9355H31.9356V11.6129H30.3708C32.0164 10.4561 33.0969 8.54722 33.0969 6.3871C33.0969 2.86552 30.2313 0 26.7098 0C23.1882 0 20.3227 2.86552 20.3227 6.3871C20.3227 8.54722 21.4031 10.4561 23.0487 11.6129H21.484V13.9355H20.3227V25.5484H17.4194V36H36.0001V25.5484H33.0969ZM21.484 6.3871C21.484 3.50542 23.8286 1.16129 26.7098 1.16129C29.5909 1.16129 31.9356 3.50542 31.9356 6.3871C31.9356 9.26877 29.5909 11.6129 26.7098 11.6129C23.8286 11.6129 21.484 9.26877 21.484 6.3871ZM22.6452 12.7742H30.7743V13.9355H22.6452V12.7742ZM21.484 15.0968H31.9356V25.5484H21.484V15.0968ZM24.9678 34.8387H22.6452V29.0323H24.9678V34.8387ZM30.7743 34.8387H28.4517V29.0323H30.7743V34.8387ZM34.8388 34.8387H31.9356V27.871H27.2904V34.8387H26.1291V27.871H21.484V34.8387H18.5807V26.7097H34.8388V34.8387Z" fill="#5987E1"/>
<path d="M22.6453 16.2581V24.3871H30.7743V16.2581H22.6453ZM29.613 19.7419H27.2904V17.4193H29.613V19.7419ZM26.1291 17.4193V19.7419H23.8066V17.4193H26.1291ZM23.8066 20.9032H26.1291V23.2258H23.8066V20.9032ZM27.2904 23.2258V20.9032H29.613V23.2258H27.2904Z" fill="#5987E1"/>
<path d="M11.6129 27.871H0V29.0323H12.7742V27.972L15.3655 30.1936L12.7742 32.4153V31.3549H0V32.5162H11.6129V34.9397L17.1506 30.1936L11.6129 25.4475V27.871Z" fill="#5987E1"/>
<path d="M0 25.5486H1.16129V26.7099H0V25.5486Z" fill="#5987E1"/>
<path d="M2.32251 25.5486H3.4838V26.7099H2.32251V25.5486Z" fill="#5987E1"/>
<path d="M4.64526 25.5486H5.80655V26.7099H4.64526V25.5486Z" fill="#5987E1"/>
<path d="M0 33.6775H1.16129V34.8388H0V33.6775Z" fill="#5987E1"/>
<path d="M2.32251 33.6775H3.4838V34.8388H2.32251V33.6775Z" fill="#5987E1"/>
<path d="M4.64526 33.6775H5.80655V34.8388H4.64526V33.6775Z" fill="#5987E1"/>
</g>
<defs>
<clipPath id="clip0">
<rect width="36" height="36" fill="white"/>
</clipPath>
</defs>
</svg>
