<svg width="100" height="100" viewBox="0 0 100 100" fill="none" xmlns="http://www.w3.org/2000/svg">
<rect width="100" height="100" fill="#E5E5E5"/>
<g id="V1.0 web ">
<rect width="1280" height="3815" transform="translate(-150 -1844)" fill="white"/>
<g id="Group 3449">
<g id="Group 3443">
<rect id="Rectangle 18" x="-105" y="-79" width="1203" height="399" rx="9" fill="#F0F7FB"/>
</g>
</g>
<g id="Group 3466">
<g id="Group 31">
<rect id="Rectangle 20" x="-70" y="-49" width="243" height="270" rx="5" fill="white"/>
</g>
<g id="certificate 1">
<g id="Group">
<g id="Group_2">
<path id="Vector" d="M93.3333 5H16.6667C12.9848 5 10 7.98479 10 11.6667V65H1.66667C0.74625 65 0 65.7463 0 66.6667C0 70.3485 2.98479 73.3333 6.66667 73.3333H55V93.3333C55.0002 94.2538 55.7465 94.9998 56.6671 94.9996C57.109 94.9996 57.5325 94.824 57.845 94.5117L66.6667 85.69L75.4883 94.5117C75.8008 94.8242 76.2246 95 76.6667 95C76.8858 95.0006 77.1027 94.9577 77.305 94.8733C77.9277 94.6152 78.3335 94.0073 78.3333 93.3333V73.3333H83.3333C87.0152 73.3333 90 70.3485 90 66.6667V13.3333H98.3333C99.2537 13.3333 100 12.5871 100 11.6667C100 7.98479 97.0152 5 93.3333 5ZM86.6667 11.6667V65H80V68.3333H86.2183C85.6231 69.3642 84.5235 69.9994 83.3333 70H78.3333V68.3333H75V89.31L67.845 82.155C67.1942 81.5044 66.1392 81.5044 65.4883 82.155L58.3333 89.31V68.3333H55V70H6.66667C5.47646 69.9994 4.37687 69.3642 3.78167 68.3333H11.6667H53.3333V65H13.3333V11.6667C13.3333 9.82563 14.8256 8.33333 16.6667 8.33333H87.5933C86.9935 9.34229 86.6735 10.4929 86.6667 11.6667ZM90.4483 10C91.3704 8.40667 93.4096 7.8625 95.0031 8.78479C95.5075 9.07667 95.9265 9.49583 96.2183 10H90.4483Z" fill="#5987E1"/>
</g>
</g>
<g id="Group_3">
<g id="Group_4">
<path id="Vector_2" d="M82.3783 57.1585L80.2433 53.3335L82.3867 49.5118C82.8383 48.7097 82.5544 47.6935 81.7525 47.2418C81.7121 47.2191 81.6706 47.1978 81.6283 47.1785L77.65 45.3568L77.1367 41.0068C77.0281 40.0928 76.199 39.4399 75.285 39.5485C75.2425 39.5535 75.2002 39.5601 75.1583 39.5685L70.8617 40.4201L67.89 37.2018C67.2248 36.5262 66.1379 36.5176 65.4623 37.1828C65.4558 37.1891 65.4496 37.1955 65.4433 37.2018L62.4717 40.4201L58.175 39.5685C57.2721 39.3899 56.3952 39.9772 56.2167 40.8801C56.2083 40.922 56.2017 40.9643 56.1967 41.0068L55.6833 45.3568L51.705 47.1818C50.8681 47.5649 50.5002 48.5541 50.8833 49.391C50.9027 49.4333 50.9237 49.4747 50.9467 49.5151L53.09 53.3335L50.9467 57.1551C50.495 57.9572 50.7789 58.9735 51.5808 59.4251C51.6212 59.4478 51.6627 59.4691 51.705 59.4885L55.6833 61.3135L56.1967 65.6668C56.3052 66.5808 57.1344 67.2337 58.0483 67.1251C58.0908 67.1201 58.1331 67.1135 58.175 67.1051L62.4717 66.2535L65.4433 69.4718C66.0685 70.1474 67.1229 70.1883 67.7985 69.5633C67.8302 69.5339 67.8606 69.5035 67.89 69.4718L70.8617 66.2535L75.1583 67.1051C75.6138 67.1982 76.0873 67.0941 76.4617 66.8185C76.8342 66.5439 77.0756 66.1266 77.1283 65.6668L77.6417 61.3168L81.62 59.4918C82.4569 59.1087 82.8248 58.1195 82.4417 57.2826C82.4223 57.2403 82.401 57.1989 82.3783 57.1585ZM76.88 54.1468L78.595 57.2068L75.4083 58.6685C74.88 58.911 74.5163 59.4112 74.4483 59.9885L74.0383 63.4768L70.5933 62.7951C70.0256 62.6772 69.4379 62.8672 69.0467 63.2951L66.6667 65.8751L64.2867 63.2985C63.9712 62.9574 63.5279 62.7635 63.0633 62.7635C62.9546 62.7628 62.8462 62.7741 62.74 62.7968L59.295 63.4785L58.885 59.9901C58.8171 59.4128 58.4533 58.9126 57.925 58.6701L54.7383 57.2085L56.4533 54.1485C56.74 53.6401 56.7469 53.0228 56.4533 52.5185V52.5251L54.7383 49.4651L57.925 48.0035C58.4533 47.761 58.8171 47.2608 58.885 46.6835L59.295 43.1951L62.74 43.8768C63.3075 43.9933 63.8946 43.8035 64.2867 43.3768L66.6667 40.7918L69.0467 43.3685C69.4377 43.7966 70.0256 43.9866 70.5933 43.8685L74.0383 43.1868L74.4483 46.6751C74.5163 47.2524 74.88 47.7526 75.4083 47.9951L78.595 49.4568L76.88 52.5168C76.5963 53.023 76.5963 53.6405 76.88 54.1468Z" fill="#5987E1"/>
</g>
</g>
<g id="Group_5">
<g id="Group_6">
<path id="Vector_3" d="M66.6666 45C62.0643 45 58.3333 48.731 58.3333 53.3333C58.3387 57.9333 62.0666 61.661 66.6666 61.6667C71.2689 61.6667 74.9999 57.9356 74.9999 53.3333C74.9999 48.731 71.2689 45 66.6666 45ZM66.6666 58.3333C63.9051 58.3333 61.6666 56.0948 61.6666 53.3333C61.6666 50.5719 63.9051 48.3333 66.6666 48.3333C69.428 48.3333 71.6666 50.5719 71.6666 53.3333C71.6666 56.0948 69.428 58.3333 66.6666 58.3333Z" fill="#5987E1"/>
</g>
</g>
<g id="Group_7">
<g id="Group_8">
<path id="Vector_4" d="M63.3334 15H36.6667V18.3333H63.3334V15Z" fill="#5987E1"/>
</g>
</g>
<g id="Group_9">
<g id="Group_10">
<path id="Vector_5" d="M80 25H20V28.3333H80V25Z" fill="#5987E1"/>
</g>
</g>
<g id="Group_11">
<g id="Group_12">
<path id="Vector_6" d="M80 31.6667H20V35.0001H80V31.6667Z" fill="#5987E1"/>
</g>
</g>
<g id="Group_13">
<g id="Group_14">
<path id="Vector_7" d="M43.3334 53.3333H21.6667V56.6666H43.3334V53.3333Z" fill="#5987E1"/>
</g>
</g>
</g>
</g>
</g>
</svg>
