<svg width="35" height="35" viewBox="0 0 35 35" fill="none" xmlns="http://www.w3.org/2000/svg">
<g clip-path="url(#clip0)">
<path d="M23.3353 18.0017V19.4163C23.3353 20.4483 24.9483 19.5092 25.3169 19.3535C29.6635 21.3508 34.8161 18.0083 34.7593 13.2186C34.7594 9.51729 31.7475 6.50586 28.0455 6.50586C22.0761 6.49861 19.0807 13.8286 23.3353 18.0017ZM28.0455 7.53281C31.1813 7.53281 33.7324 10.0835 33.7324 13.2187C33.7831 17.3596 29.247 20.1911 25.5526 18.3303C25.4117 18.265 25.27 18.2611 25.1274 18.3187L24.3622 18.6419V17.7818C24.3622 17.6381 24.302 17.5011 24.1963 17.4039C20.4056 13.9248 22.8963 7.52994 28.0455 7.53281Z" fill="#5987E1"/>
<path d="M26.4344 12.3275C26.7181 12.3275 26.9479 12.0976 26.9479 11.814C26.9479 11.2166 27.4717 10.7076 28.0685 10.7166C28.6405 10.7281 29.112 11.1842 29.1416 11.7549C29.1739 12.3755 28.6677 12.9117 28.0455 12.9117C27.7619 12.9117 27.532 13.1415 27.532 13.4251V15.1098C27.5553 15.789 28.5355 15.7898 28.559 15.1098V13.8749C29.5336 13.6306 30.2193 12.706 30.1672 11.7017C30.1098 10.5959 29.1969 9.71217 28.0891 9.68992C26.9139 9.66513 25.9209 10.6399 25.9209 11.814C25.921 12.0976 26.1508 12.3275 26.4344 12.3275Z" fill="#5987E1"/>
<path d="M28.0456 16.1711C27.3848 16.1711 27.3837 17.1981 28.0456 17.1981C28.7064 17.1981 28.7075 16.1711 28.0456 16.1711Z" fill="#5987E1"/>
<path d="M7.28341 26.5713H3.35307C3.06943 26.5713 2.8396 26.8011 2.8396 27.0848V29.0535C2.8396 29.3371 3.06943 29.567 3.35307 29.567H7.28341C7.56706 29.567 7.79689 29.3371 7.79689 29.0535V27.0848C7.79689 26.8012 7.56706 26.5713 7.28341 26.5713ZM6.76994 28.54H3.86655V27.5982H6.76994V28.54Z" fill="#5987E1"/>
<path d="M34.6437 22.6025C34.3532 22.2498 33.9246 22.0475 33.4677 22.0475H18.8976C18.689 22.0475 18.4871 22.083 18.2983 22.1486C17.6832 21.2716 16.9289 20.4963 16.0694 19.8574H19.4383C19.7219 19.8574 19.9518 19.6276 19.9518 19.344V9.8381C20.0404 2.70601 12.188 -2.17159 5.78015 0.973546C5.18041 1.25828 5.62077 2.18596 6.22064 1.90129C11.9635 -0.915698 19.0036 3.44836 18.9248 9.83824C18.9248 9.83817 18.9248 18.8304 18.9248 18.8304H15.3375C16.0671 18.0051 16.6097 17.0217 16.8139 16.1959C16.8975 16.2039 16.9814 16.2091 17.0654 16.2116C18.0827 16.2116 18.9102 15.384 18.9102 14.3668V12.6912C18.9102 11.8501 18.3443 11.1386 17.5732 10.9176C17.9271 6.41781 14.621 2.57148 10.0197 2.54272C5.41846 2.57162 2.11216 6.41795 2.46618 10.9176C1.79846 11.109 1.28458 11.6682 1.15881 12.3608L1.17483 9.83817C1.17483 7.3585 2.23943 4.98125 4.09568 3.31588C4.58985 2.87244 3.90412 2.10819 3.40981 2.55142C1.33674 4.41129 0.147742 7.06719 0.147742 9.83482V19.3406C0.175538 19.6553 0.286449 19.8275 0.600901 19.8574H4.03057C1.52536 21.7194 0.00732422 24.7096 0.00732422 27.8329V29.263C0.00732422 29.9269 1.03427 29.9269 1.03427 29.263V27.8329C1.03427 25.506 1.97304 23.2368 3.60753 21.5816L7.2046 24.0424C7.44079 24.1857 7.66617 24.1572 7.88081 23.9569L9.54768 22.0535V29.2629C9.54768 29.9268 10.5746 29.9268 10.5746 29.2629V22.0535L12.2416 23.9569C12.4562 24.1573 12.6816 24.1857 12.9178 24.0425L16.5016 21.5908C16.8516 21.9463 17.1726 22.3314 17.4608 22.7429C17.2829 22.9668 17.1555 23.2344 17.0977 23.5298L15.4396 32.0157H8.66868C8.38504 32.0157 8.15521 32.2455 8.15521 32.5292V33.414C8.15521 34.2885 8.86675 35 9.74123 35H31.2763C32.1514 35 32.9084 34.3766 33.0762 33.5178L33.3726 32.001C33.5 31.3496 32.4921 31.1522 32.3648 31.8041L32.0683 33.3208C31.9945 33.6988 31.6614 33.973 31.2763 33.973H16.706C16.396 33.973 16.1595 33.6858 16.2189 33.3815L18.1055 23.7268C18.1794 23.3488 18.5125 23.0744 18.8976 23.0744H33.4677C33.7777 23.0744 34.0143 23.3618 33.9549 23.666L32.8888 29.1217C32.7614 29.7732 33.7693 29.9704 33.8966 29.3187L34.9628 23.863C35.0504 23.4146 34.9341 22.9551 34.6437 22.6025ZM10.0611 20.1742C10.0601 20.1742 10.0591 20.1742 10.0581 20.1742C7.319 20.1728 4.92189 18.3109 4.25171 15.7069C4.60758 15.3704 4.82995 14.8941 4.82995 14.3668V12.7031C6.48162 12.6985 9.89445 12.2773 11.6653 9.11355C12.2392 10.132 13.3583 11.633 15.2368 12.3719C15.1836 12.5586 15.2184 14.1404 15.209 14.3668C15.209 14.9264 15.4596 15.4287 15.8544 15.7673C15.8532 15.7717 15.8521 15.7761 15.8508 15.7804C15.1601 16.7109 14.0599 17.2715 12.8719 17.2715H11.9032C11.3359 15.351 8.53723 15.6977 8.48561 17.7234C8.5232 19.674 11.195 20.1023 11.8644 18.2985H12.8718C13.5398 18.2985 14.1862 18.1593 14.7758 17.9021C13.6479 19.3259 11.8793 20.1742 10.0611 20.1742ZM10.2246 18.4248C9.83215 18.4248 9.51277 18.1101 9.51277 17.7233C9.55172 16.7926 10.8978 16.7929 10.9367 17.7233C10.9366 18.1101 10.6172 18.4248 10.2246 18.4248ZM17.8832 12.6912V14.3668C17.8832 14.8178 17.5163 15.1846 17.0653 15.1846C16.6325 15.1674 16.2361 14.8402 16.2361 14.3668V12.6912C16.2799 11.6048 17.8393 11.6048 17.8832 12.6912ZM10.0196 3.56967C13.6183 3.56967 16.5461 6.47067 16.5461 10.0364V10.9176C16.2143 11.0127 15.9205 11.1987 15.6934 11.4466C13.1452 10.4874 12.1554 7.76366 12.1455 7.73601C11.9922 7.29709 11.3461 7.28593 11.1805 7.72375C10.5483 9.39583 9.38385 10.5587 7.71937 11.1801C6.46615 11.6479 5.23662 11.6964 4.52193 11.6717C4.28203 11.3112 3.91877 11.0396 3.493 10.9175V10.0364C3.49306 6.47067 6.42083 3.56967 10.0196 3.56967ZM2.15598 12.6912C2.15598 12.2403 2.52287 11.8734 2.97384 11.8734H2.9852C3.43617 11.8734 3.803 12.2403 3.803 12.6912V14.3668C3.803 14.8178 3.43617 15.1846 2.9852 15.1846H2.97384C2.52287 15.1846 2.15598 14.8178 2.15598 14.3668V12.6912ZM1.1445 14.6057C1.26479 15.632 2.28523 16.3833 3.31746 16.1816C3.60986 17.1795 4.12005 18.0783 4.78894 18.8304H1.1445V14.6057ZM7.40834 22.9376L4.39281 20.8746C4.87342 20.4904 5.39415 20.155 5.94795 19.8742C6.83852 20.5138 7.88108 20.9498 8.99943 21.1206L7.40834 22.9376ZM12.7139 22.9376L11.1228 21.1206C12.22 20.9535 13.2681 20.5299 14.1707 19.8837C14.7215 20.1646 15.2393 20.4996 15.7175 20.8828L12.7139 22.9376ZM9.74109 33.973C9.4328 33.973 9.18202 33.7223 9.18202 33.414V33.0426H15.2388C15.1603 33.3468 15.1622 33.6743 15.2653 33.973H9.74109Z" fill="#5987E1"/>
<path d="M22.9695 28.5238C22.9695 29.6918 23.9197 30.642 25.0877 30.642C27.8978 30.5256 27.897 26.5214 25.0877 26.4055C23.9197 26.4055 22.9695 27.3557 22.9695 28.5238ZM26.179 28.5238C26.179 29.1255 25.6895 29.615 25.0877 29.615C23.64 29.555 23.6404 27.4922 25.0877 27.4325C25.6895 27.4325 26.179 27.922 26.179 28.5238Z" fill="#5987E1"/>
</g>
<defs>
<clipPath id="clip0">
<rect width="35" height="35" fill="white"/>
</clipPath>
</defs>
</svg>
