<svg width="36" height="36" viewBox="0 0 36 36" fill="none" xmlns="http://www.w3.org/2000/svg">
<path d="M8.4375 32.0625H12.9375V33.1875H8.4375V32.0625Z" fill="#5987E1"/>
<path d="M26.4375 14.4101L32.7578 11.25L26.4375 8.08984V14.4101ZM27.5625 9.91009L30.2423 11.25L27.5625 12.5898V9.91009Z" fill="#5987E1"/>
<path d="M33.75 5.625H24.75C23.8196 5.625 23.0625 6.38212 23.0625 7.3125V15.1875C23.0625 16.1179 23.8196 16.875 24.75 16.875H28.125V21.9375C28.125 22.5579 27.6204 23.0625 27 23.0625H24.1251C24.8569 22.347 25.3125 21.3514 25.3125 20.25C25.3125 18.0793 23.5457 16.3125 21.375 16.3125C21.1838 16.3125 20.997 16.3311 20.8125 16.3575V3.375C20.8125 1.82419 19.5508 0.5625 18 0.5625H3.375C1.82419 0.5625 0.5625 1.82419 0.5625 3.375V32.625C0.5625 34.1758 1.82419 35.4375 3.375 35.4375H14.0625H15.1554H25.875V28.7364C25.875 28.3281 26.1664 27.9788 26.5674 27.9056L28.3669 27.5783C30.5083 27.1896 32.0625 25.3271 32.0625 23.1514V16.875H33.75C34.6804 16.875 35.4375 16.1179 35.4375 15.1875V7.3125C35.4375 6.38212 34.6804 5.625 33.75 5.625ZM21.9206 29.034L21.375 29.5796L20.8294 29.034L21.1753 24.1875H21.5752L21.9206 29.034ZM14.3021 27.5625H3.9375V6.1875H17.4375V20.25C17.4375 21.4442 17.9741 22.5141 18.8167 23.2369C16.641 23.7555 14.9108 25.4228 14.3021 27.5625ZM24.1875 20.25C24.1875 21.8008 22.9258 23.0625 21.375 23.0625C19.8242 23.0625 18.5625 21.8008 18.5625 20.25C18.5625 18.6992 19.8242 17.4375 21.375 17.4375C22.9258 17.4375 24.1875 18.6992 24.1875 20.25ZM7.3125 1.6875H14.0625V2.25C14.0625 2.5605 13.8105 2.8125 13.5 2.8125H7.875C7.5645 2.8125 7.3125 2.5605 7.3125 2.25V1.6875ZM3.375 1.6875H6.1875V2.25C6.1875 3.18038 6.94462 3.9375 7.875 3.9375H13.5C14.4304 3.9375 15.1875 3.18038 15.1875 2.25V1.6875H18C18.9304 1.6875 19.6875 2.44463 19.6875 3.375V16.6978C19.2662 16.8986 18.8854 17.1698 18.5625 17.4999V6.1875C18.5625 5.56706 18.0579 5.0625 17.4375 5.0625H3.9375C3.31706 5.0625 2.8125 5.56706 2.8125 6.1875V27.5625C2.8125 28.1829 3.31706 28.6875 3.9375 28.6875H14.0912C14.0743 28.8731 14.0625 29.0599 14.0625 29.25V29.8125H1.6875V3.375C1.6875 2.44463 2.44463 1.6875 3.375 1.6875ZM3.375 34.3125C2.44463 34.3125 1.6875 33.5554 1.6875 32.625V30.9375H14.0625V34.3125H3.375ZM30.9375 23.1514C30.9375 24.7832 29.772 26.1799 28.1661 26.4718L26.3666 26.7986C25.4301 26.9691 24.75 27.7841 24.75 28.7364V34.3125H18V27H16.875V34.3125H15.1875V29.25C15.1875 26.5269 17.3498 24.3056 20.0469 24.1976L19.6706 29.4654L21.375 31.1698L23.0794 29.4654L22.7025 24.1875H27C28.2409 24.1875 29.25 23.1784 29.25 21.9375V16.5938C29.25 16.1286 29.6286 15.75 30.0938 15.75C30.5589 15.75 30.9375 16.1286 30.9375 16.5938V23.1514ZM34.3125 15.1875C34.3125 15.498 34.0605 15.75 33.75 15.75H31.8651C31.5478 15.0874 30.8762 14.625 30.0938 14.625C29.3113 14.625 28.6397 15.0874 28.3224 15.75H24.75C24.4395 15.75 24.1875 15.498 24.1875 15.1875V7.3125C24.1875 7.002 24.4395 6.75 24.75 6.75H33.75C34.0605 6.75 34.3125 7.002 34.3125 7.3125V15.1875Z" fill="#5987E1"/>
<path d="M5.0625 19.6875H10.6875V14.0625H5.0625V19.6875ZM6.1875 15.1875H9.5625V18.5625H6.1875V15.1875Z" fill="#5987E1"/>
<path d="M5.0625 26.4375H10.6875V20.8125H5.0625V26.4375ZM6.1875 21.9375H9.5625V25.3125H6.1875V21.9375Z" fill="#5987E1"/>
<path d="M12.2102 7.71017L11.4148 6.91479L10.6875 7.64211V7.31248H5.0625V12.9375H10.6875V9.23286L12.2102 7.71017ZM6.1875 8.43748H9.5625V8.76711L7.875 10.4546L7.14769 9.72729L6.35231 10.5227L7.64213 11.8125H6.1875V8.43748ZM9.5625 11.8125H8.10787L9.5625 10.3579V11.8125Z" fill="#5987E1"/>
<path d="M11.8125 11.8125H16.3125V12.9375H11.8125V11.8125Z" fill="#5987E1"/>
<path d="M11.8125 9.5625H16.3125V10.6875H11.8125V9.5625Z" fill="#5987E1"/>
<path d="M12.9375 7.3125H16.3125V8.4375H12.9375V7.3125Z" fill="#5987E1"/>
<path d="M11.8125 14.0625H16.3125V15.1875H11.8125V14.0625Z" fill="#5987E1"/>
<path d="M11.8125 16.3125H16.3125V17.4375H11.8125V16.3125Z" fill="#5987E1"/>
<path d="M11.8125 18.5625H12.9375V19.6875H11.8125V18.5625Z" fill="#5987E1"/>
<path d="M14.0625 18.5625H15.1875V19.6875H14.0625V18.5625Z" fill="#5987E1"/>
<path d="M11.8125 20.8125H16.3125V21.9375H11.8125V20.8125Z" fill="#5987E1"/>
<path d="M11.8125 23.0625H14.0625V24.1875H11.8125V23.0625Z" fill="#5987E1"/>
<path d="M11.8125 25.3125H14.0625V26.4375H11.8125V25.3125Z" fill="#5987E1"/>
</svg>
