<svg width="64" height="64" viewBox="0 0 64 64" fill="none" xmlns="http://www.w3.org/2000/svg">
<circle cx="32" cy="32" r="32" fill="#F6F9FF"/>
<path d="M32 43.6675H26.5825C25.8925 43.6675 25.3325 43.1075 25.3325 42.4175C25.3325 41.7275 25.8925 41.1675 26.5825 41.1675H30.75V31.1675C30.75 30.4775 31.31 29.9175 32 29.9175C32.69 29.9175 33.25 30.4775 33.25 31.1675V42.4175C33.25 43.1075 32.69 43.6675 32 43.6675Z" fill="#1565D8"/>
<path d="M37.4175 43.6675H32C31.31 43.6675 30.75 43.1075 30.75 42.4175C30.75 41.7275 31.31 41.1675 32 41.1675H37.4175C38.1075 41.1675 38.6675 41.7275 38.6675 42.4175C38.6675 43.1075 38.1075 43.6675 37.4175 43.6675Z" fill="#1565D8"/>
<path d="M45.3325 43.665C47.173 43.665 48.665 42.173 48.665 40.3325C48.665 38.492 47.173 37 45.3325 37C43.492 37 42 38.492 42 40.3325C42 42.173 43.492 43.665 45.3325 43.665Z" fill="#1565D8"/>
<path d="M47.4175 45.3325H43.25C40.7225 45.3325 38.6675 47.3875 38.6675 49.915V50.75C38.6675 51.44 39.2275 52 39.9175 52H50.75C51.44 52 52 51.44 52 50.75V49.9175C52 47.39 49.945 45.3325 47.4175 45.3325Z" fill="#1565D8"/>
<path d="M18.6675 43.665C20.508 43.665 22 42.173 22 40.3325C22 38.492 20.508 37 18.6675 37C16.827 37 15.335 38.492 15.335 40.3325C15.335 42.173 16.827 43.665 18.6675 43.665Z" fill="#1565D8"/>
<path d="M20.75 45.3325H16.5825C14.055 45.3325 12 47.39 12 49.9175V50.75C12 51.44 12.56 52 13.25 52H24.0825C24.7725 52 25.3325 51.44 25.3325 50.75V49.9175C25.3325 47.39 23.2775 45.3325 20.75 45.3325Z" fill="#1565D8"/>
<path d="M32 12C26.485 12 22 16.485 22 22C22 27.515 26.485 32 32 32C37.515 32 42 27.515 42 22C42 16.485 37.515 12 32 12ZM31.7925 20.75H32.21C33.9325 20.75 35.335 22.1525 35.335 23.875C35.335 25.23 34.4625 26.3775 33.2525 26.8075V27.415C33.2525 28.105 32.6925 28.665 32.0025 28.665C31.3125 28.665 30.7525 28.105 30.7525 27.415V27H29.92C29.23 27 28.67 26.44 28.67 25.75C28.67 25.06 29.23 24.5 29.92 24.5H32.2125C32.5575 24.5 32.8375 24.22 32.8375 23.875C32.8375 23.53 32.5575 23.25 32.2125 23.25H31.795C30.0725 23.25 28.67 21.8475 28.67 20.125C28.67 18.77 29.5425 17.6225 30.7525 17.1925V16.5825C30.7525 15.8925 31.3125 15.3325 32.0025 15.3325C32.6925 15.3325 33.2525 15.8925 33.2525 16.5825V17H34.085C34.775 17 35.335 17.56 35.335 18.25C35.335 18.94 34.775 19.5 34.085 19.5H31.7925C31.4475 19.5 31.1675 19.78 31.1675 20.125C31.1675 20.47 31.4475 20.75 31.7925 20.75Z" fill="#1565D8" fill-opacity="0.4"/>
</svg>
