<svg width="40" height="40" viewBox="0 0 40 40" fill="none" xmlns="http://www.w3.org/2000/svg">
<path d="M9.38653 7.33664H22.4555L25.2752 5.0794C26.2363 4.31394 26.5934 3.06916 26.1874 1.90753C25.7815 0.745891 24.7299 0 23.5022 0H8.33983C7.11462 0 6.05814 0.750783 5.65218 1.90997C5.24622 3.06916 5.60327 4.31394 6.56437 5.0794L9.38653 7.33664Z" fill="#1565D8"/>
<path d="M28.9654 19.8579L27.8893 20.9339C27.2046 21.6358 26.2753 22.01 25.2971 22.01C24.3188 22.01 23.3895 21.6358 22.7048 20.9339C21.2692 19.4984 21.2692 17.1849 22.7048 15.7494L25.3949 13.0593C24.5634 11.8365 23.6512 10.7287 22.673 9.78223H9.17357C4.70556 14.1524 1.25 21.8314 1.25 28.1238C1.25 33.6018 4.15286 39.1288 10.6238 39.1288H21.6287C27.1557 39.1288 30.5965 34.9053 30.5965 28.1238C30.5941 25.4998 29.9925 22.6287 28.9654 19.8579ZM15.3021 23.2327H16.542C18.4495 23.2327 19.9976 24.7808 19.9976 26.6883C19.9976 28.4002 18.7577 29.8186 17.1436 30.0949V31.3837C17.1436 32.0514 16.5885 32.6065 15.9208 32.6065C15.2532 32.6065 14.6981 32.0514 14.6981 31.3837V30.161H13.0669C12.3992 30.161 11.8441 29.6058 11.8441 28.9382C11.8441 28.2706 12.3992 27.7154 13.0669 27.7154H16.5396C17.0947 27.7154 17.5496 27.2581 17.5496 26.7054C17.5496 26.1356 17.0922 25.6783 16.5396 25.6783H15.3021C13.3946 25.6783 11.8465 24.1302 11.8465 22.2227C11.8465 20.5108 13.0864 19.0924 14.7005 18.8161V17.5273C14.7005 16.8596 15.2556 16.3045 15.9233 16.3045C16.5909 16.3045 17.146 16.8596 17.146 17.5273V18.75H18.7748C19.4424 18.75 19.9976 19.3052 19.9976 19.9728C19.9976 20.6404 19.4424 21.1956 18.7748 21.1956H15.3021C14.747 21.1956 14.2921 21.6529 14.2921 22.2056C14.2921 22.7754 14.747 23.2327 15.3021 23.2327Z" fill="#1565D8"/>
<path d="M37.5248 9.78223H33.4481C32.9541 9.78223 32.509 10.0806 32.3183 10.5379C32.13 10.9952 32.2327 11.521 32.5824 11.8707L33.6389 12.9272L32.0542 14.3921L29.9779 13.206C29.4986 12.9321 28.897 13.0128 28.5057 13.4041L24.429 17.4808C23.9521 17.9577 23.9521 18.7329 24.429 19.2098C24.6711 19.4446 24.9841 19.5644 25.2971 19.5644C25.6101 19.5644 25.9232 19.4446 26.1628 19.2074L29.5793 15.7934L31.6213 16.9599C32.086 17.2265 32.6655 17.158 33.0568 16.7961L35.3728 14.6586L36.6616 15.9474C36.8963 16.1822 37.2094 16.3045 37.5273 16.3045C37.6838 16.3045 37.8452 16.2752 37.9944 16.2116C38.4517 16.0233 38.7501 15.5757 38.7501 15.0817V11.005C38.7476 10.33 38.1998 9.78223 37.5248 9.78223Z" fill="#1565D8" fill-opacity="0.4"/>
</svg>
