<svg width="426" height="280" viewBox="0 0 426 280" fill="none" xmlns="http://www.w3.org/2000/svg">
<rect width="426" height="280" fill="white" fill-opacity="0.24"/>
<path d="M381.233 31.3032L401.137 9.61072L386.982 29.2635L381.233 31.3032Z" fill="#E5E8EC"/>
<path d="M390.984 33.1658L401.138 9.61072L386.983 29.2635L390.984 33.1658Z" fill="#CDD5D7"/>
<path d="M381.288 31.2597L391.132 23.5074L387.191 28.9914L381.288 31.2597Z" fill="#88B4DD"/>
<path d="M381.233 31.3034L390.922 23.7791L386.983 29.2636L381.233 31.3034Z" fill="#5987E1"/>
<path d="M390.984 33.1658L393.311 27.3664L391.132 23.5074L386.983 29.2634L390.984 33.1658Z" fill="#726E65"/>
<path d="M390.983 33.1658L401.137 9.61072L391.437 28.352L390.983 33.1658Z" fill="#B7BEC0"/>
<path d="M401.88 30.3915L401.137 9.61072L391.437 28.352L401.88 30.3915Z" fill="#E5E8EC"/>
<path d="M401.88 30.3924L393.818 23.8076L391.52 28.1715L401.88 30.3924Z" fill="#88B4DD"/>
<path d="M401.88 30.3916L393.734 23.9879L391.437 28.3518L401.88 30.3916Z" fill="#5987E1"/>
<path d="M51.5498 163.864C17.7298 157.425 22.3929 114.974 50.6236 78.2447C71.8972 50.5691 140.877 3.98266 183.37 23.0329C202.033 31.4008 235.188 70.381 227.947 88.0711C219.617 108.414 197.758 105.927 204.464 90.1739C212.595 71.0721 289.162 2.07667 330.661 10.1593C389.621 21.6467 342.578 76.1098 331.07 82.9332C312.528 93.9279 310.347 74.412 356.089 70.1759C367.096 69.1553 380.858 62.0041 388.077 39.795" stroke="#88B4DD" stroke-width="1.245" stroke-miterlimit="10" stroke-dasharray="6.37 6.37"/>
<path d="M198.306 229.913C136.832 228.01 83.1344 221.841 47.9678 215.176C12.5003 208.396 -4.41049 201.121 0.9858 194.415C6.39926 187.644 32.7098 182.177 67.8797 177.199C103.277 172.328 147.54 167.941 194.577 165.936C286.258 161.441 371.633 172.358 391.916 194.259C412.376 216.04 323.908 234.448 198.306 229.913Z" fill="#EDF6F8"/>
<path d="M118.405 68.424V97.7999H72.1277V114.157H105.42V142.031H72.1277V186.595H35.1711V68.424H118.405Z" fill="#647AA6"/>
<path d="M181.303 191.02H142.018L136.192 208.879H97.4067L140.519 90.7094H183.133L226.079 208.879H187.128L181.303 191.02ZM172.313 163.146L161.659 130.266L151.006 163.146H172.313Z" fill="#647AA6"/>
<path d="M289.093 176.075L277.774 157.383C274.857 157.856 271.906 158.079 268.951 158.05C258.261 158.157 247.73 155.452 238.407 150.207C229.249 145.086 221.631 137.592 216.35 128.508C210.912 119.271 208.193 108.868 208.194 97.2974C208.194 85.7269 210.913 75.3228 216.35 66.085C221.62 57.0142 229.242 49.5446 238.407 44.4704C247.747 39.2773 258.271 36.6035 268.951 36.7101C279.606 36.5971 290.105 39.2718 299.414 44.4704C308.529 49.5528 316.095 57.0241 321.302 66.085C326.684 75.3217 329.375 85.7258 329.376 97.2974C329.472 106.302 327.597 115.219 323.882 123.418C320.354 131.196 315.186 138.114 308.735 143.697L332.705 176.08L289.093 176.075ZM251.81 116.406C255.805 121.136 261.52 123.501 268.955 123.499C276.279 123.499 281.939 121.135 285.934 116.406C289.929 111.677 291.927 105.307 291.927 97.295C291.927 89.1738 289.929 82.7478 285.934 78.0169C281.938 73.286 276.279 70.9215 268.955 70.9237C261.519 70.9237 255.804 73.2882 251.81 78.0169C247.816 82.7457 245.818 89.1716 245.818 97.295C245.815 105.306 247.811 111.677 251.806 116.406H251.81Z" fill="#647AA6"/>
<path d="M57.666 31.6985C58.5595 33.4423 60.1019 34.7633 61.9593 35.3759C63.8166 35.9885 65.8393 35.8434 67.5908 34.972C68.4647 34.5678 69.2499 33.9936 69.9007 33.2827C70.5516 32.5718 71.0556 31.7384 71.3827 30.8308C71.7097 29.9233 71.8532 28.9595 71.8058 27.9957C71.7585 27.0318 71.5216 26.0871 71.1072 25.2162C70.2138 23.472 68.6714 22.1505 66.8139 21.5378C64.9564 20.925 62.9325 21.0701 61.1808 21.9417C60.307 22.3461 59.5224 22.9205 58.8717 23.6316C58.221 24.3426 57.7175 25.176 57.3905 26.0836C57.0636 26.9912 56.9192 27.9549 56.9665 28.9188C57.0139 29.8826 57.2517 30.8275 57.666 31.6985Z" fill="#F4B7B7"/>
<path d="M53.9155 40.9477C55.0433 43.1492 56.9898 44.8172 59.3346 45.5904C61.6793 46.3637 64.2332 46.1801 66.444 45.0796C67.548 44.5691 68.5404 43.8437 69.3624 42.9456C70.1844 42.0475 70.8204 40.9948 71.2332 39.8482C71.646 38.7017 71.8269 37.4842 71.7666 36.2667C71.7063 35.0492 71.4059 33.8559 70.8819 32.7561C69.7542 30.5538 67.8065 28.8854 65.4611 28.1119C63.1158 27.3385 60.5614 27.5221 58.3501 28.6233C57.2464 29.1342 56.2543 29.8599 55.4325 30.7581C54.6108 31.6564 53.9751 32.7093 53.5626 33.8559C53.15 35.0025 52.9687 36.2198 53.0292 37.4372C53.0897 38.6546 53.3913 39.8479 53.9155 40.9477Z" fill="#F4B7B7"/>
<path d="M61.7739 50.9863C61.7739 50.9863 62.0471 52.198 56.148 53.6843C50.2488 55.1707 41.2136 55.898 41.2136 55.898L54.5031 51.2151C54.5031 51.2151 59.6734 49.6672 61.7739 50.9863Z" fill="#E2C59C"/>
<path d="M45.9663 55.1651C43.1864 55.9563 42.3874 57.6771 41.4087 58.4182C40.7429 58.9441 40.1101 59.5112 39.5148 60.1161C39.792 58.7617 40.6805 58.4764 41.0215 57.9641C41.3624 57.4517 41.2999 57.6796 40.2861 57.887C39.7138 58.0067 39.0056 59.2707 38.4489 60.0184C38.2349 60.3522 37.9399 60.6258 37.5913 60.8136C37.8893 60.0243 38.2649 59.2666 38.7123 58.5517C39.3536 57.5648 40.1102 56.6585 40.9664 55.852C42.1388 55.2426 43.4063 54.8381 44.7143 54.6559C46.2686 54.4305 47.9719 54.5945 45.9663 55.1651Z" fill="#E2C59C"/>
<path d="M41.1319 55.8645C40.333 56.3068 39.5743 56.8179 38.8635 57.3919C38.6599 57.6599 37.8982 59.102 37.8982 59.102C38.3343 58.8942 38.712 58.5799 38.9953 58.1879C39.6584 57.3693 40.3717 56.5933 41.1319 55.8645Z" fill="#E2C59C"/>
<path d="M58.4778 49.2066C58.4778 49.2066 63.9565 47.999 64.5149 51.2652C64.8321 53.1229 63.7785 54.1003 62.1187 54.4364C59.0273 55.0644 55.4732 55.6111 55.4732 55.6111L52.5061 51.1341L58.4778 49.2066Z" fill="#A7A7A7"/>
<path d="M58.1683 46.5103L59.6942 31.6632C59.6942 31.6632 59.5859 27.7806 61.0029 27.8617C63.0371 27.9749 63.4276 31.3287 63.6066 32.5347C64.2772 35.6855 64.5598 38.907 64.4474 42.1268C64.422 45.9349 64.6925 50.2356 64.453 52.8041C64.2895 54.5757 62.5473 52.608 60.733 52.4416C57.3464 52.1227 58.1683 46.5103 58.1683 46.5103Z" fill="#101C1D"/>
<path d="M25.2824 88.0932L20.2792 98.8476L13.3375 98.9985L9.82983 98.2942L17.3784 96.5168L21.4202 86.5338L25.2824 88.0932Z" fill="#0A0909"/>
<path d="M19.5112 100.543L18.5898 100.328L18.0756 99.2166L12.4752 99.4626L7.96631 98.632C8.01225 98.4516 8.11892 98.2928 8.26813 98.1821C9.06449 97.7566 12.5662 97.5508 12.5662 97.5508C12.5662 97.5508 12.1992 98.5132 12.5958 98.7157C12.9923 98.9182 17.3143 98.6534 18.3526 98.5107C20.1375 98.2582 21.0597 97.8155 20.9795 98.0492C20.8651 98.391 19.5112 100.543 19.5112 100.543Z" fill="#5987E1"/>
<path d="M52.9976 66.2336L36.6356 65.7999L24.4432 92.2384L19.3945 90.2627L31.2875 58.4535C31.2875 58.4535 32.2312 56.44 37.1746 56.44C41.9838 56.44 61.3967 55.9162 63.6035 56.5221C68.8329 57.9641 52.0998 61.8402 52.9976 66.2336Z" fill="#5987E1"/>
<path d="M64.6387 22.2804C65.5312 24.0253 67.0729 25.3475 68.9304 25.9612C70.7878 26.5749 72.8121 26.4307 74.5643 25.5597C75.4387 25.1554 76.2238 24.5808 76.875 23.8694C77.5262 23.1581 78.0298 22.3242 78.3569 21.416C78.684 20.5078 78.8286 19.5434 78.7809 18.579C78.7333 17.6146 78.4949 16.6694 78.0799 15.7981C77.1865 14.0541 75.6439 12.7329 73.7866 12.1201C71.9292 11.5073 69.9058 11.6522 68.1543 12.5236C67.2803 12.9279 66.4952 13.5023 65.8443 14.2133C65.1935 14.9243 64.6902 15.7577 64.3632 16.6654C64.0361 17.573 63.8919 18.5366 63.9392 19.5005C63.9865 20.4644 64.2243 21.4094 64.6387 22.2804Z" fill="#F4B7B7"/>
<path d="M57.0059 19.9536C57.6712 21.2858 58.8324 22.3021 60.2389 22.7827C61.6454 23.2633 63.1844 23.1697 64.5226 22.5221L64.6168 19.533C65.2775 19.2184 65.8689 18.7753 66.3575 18.2294C66.846 17.6836 67.2218 17.0459 67.4625 16.3534C67.7033 15.6609 67.8038 14.9274 67.7595 14.1954C67.7152 13.4633 67.5263 12.7472 67.2038 12.089L66.2816 10.2133C65.6173 8.8806 64.4567 7.86371 63.0503 7.38299C61.6438 6.90227 60.1051 6.99636 58.7673 7.64479L57.5042 8.25226C56.8431 8.567 56.2508 9.01036 55.7619 9.55645C55.2731 10.1025 54.8971 10.7406 54.6561 11.4335C54.4151 12.1264 54.314 12.8604 54.3583 13.5929C54.4025 14.3254 54.5914 15.0416 54.914 15.7003L57.0059 19.9536Z" fill="#F4B7B7"/>
<path d="M55.4056 11.6176C55.6448 12.0871 55.918 12.5386 56.2232 12.968C58.3139 15.9366 61.487 17.4245 63.7878 16.6834C64.5062 17.9706 65.3882 19.1589 66.4115 20.2185C67.3424 20.9996 68.427 21.5744 69.595 21.9056C71.0667 23.9748 70.2331 29.9299 64.9791 30.5423C61.8223 30.9096 62.4693 27.6133 63.5706 25.5572C64.0874 24.5914 64.5833 23.4822 64.4705 22.9338C64.0731 21.0367 63.3718 20.7783 62.2476 20.1306C61.6703 19.8919 61.0507 19.7723 60.4263 19.779C59.8019 19.7856 59.1852 19.9183 58.613 20.1693C58.5329 20.2081 58.4456 20.23 58.3567 20.2335C58.2678 20.237 58.1793 20.222 58.0964 20.1897C57.8239 19.9034 57.5963 19.5773 57.4217 19.2223L55.3937 15.0946C55.1266 14.5538 54.9892 13.9581 54.9912 13.3547C54.9932 12.7513 55.135 12.1565 55.4056 11.6176Z" fill="#0A0909"/>
<path d="M71.8908 60.9973C71.8908 60.9973 69.4911 61.4891 68.8255 61.735C67.9359 62.0629 65.3299 61.6481 65.3299 61.6481C65.3299 61.6481 64.9981 48.9114 64.3685 44.4663C63.739 40.0212 62.5766 38.8094 62.584 37.4231C62.5615 35.9138 62.7625 34.4097 63.1796 32.9593C63.5762 31.2377 62.4167 28.942 62.8099 29.379C63.4444 30.0882 65.8224 31.1827 68.043 28.7519C68.4208 28.3322 71.8908 60.9973 71.8908 60.9973Z" fill="#6C7577"/>
<path d="M63.3784 24.2151C63.3784 24.2151 60.1145 27.4705 60.2453 28.5412C60.3761 29.6119 60.0457 34.1087 60.7938 38.8956C61.5419 43.6826 62.146 44.8698 62.2662 48.363C62.3864 51.8563 61.5726 52.6368 61.8685 56.9286C62.1016 60.2898 62.6327 63.2534 62.6327 63.2534C63.1154 63.364 63.619 63.3467 64.093 63.2029C64.567 63.0592 64.9956 62.7939 65.3362 62.4335C66.4989 61.1841 66.0776 49.4993 65.6508 46.6225C65.224 43.7458 63.5166 36.2001 63.618 34.1957C63.7193 32.1912 64.3753 27.4059 64.7334 26.7762C65.6287 25.2038 63.636 24.3791 63.3784 24.2151Z" fill="#A7A7A7"/>
<path d="M63.3655 23.911C63.4736 24.0778 63.6098 24.2246 63.7679 24.3447C64.112 24.6034 64.4328 24.8915 64.7268 25.2062C64.7268 25.2062 64.0731 24.898 63.8278 25.4522C63.5865 26.1775 63.4224 26.9264 63.3375 27.6863C63.3375 27.6863 62.1315 25.7137 62.4177 25.0849C62.9312 23.9568 63.3655 23.911 63.3655 23.911Z" fill="#101C1D"/>
<path d="M67.8385 31.6723C68.4834 33.614 69.867 35.2219 71.6878 36.1467C73.5086 37.0714 75.6201 37.2383 77.5629 36.6108C78.5296 36.3307 79.4313 35.8614 80.2161 35.23C81.001 34.5985 81.6534 33.8174 82.1356 32.9318C82.6178 32.0462 82.9205 31.0737 83.0259 30.0703C83.1313 29.0668 83.0373 28.0523 82.7496 27.0854C82.1047 25.1441 80.7216 23.5364 78.9011 22.612C77.0805 21.6875 74.97 21.521 73.0276 22.1484C72.0608 22.4281 71.1586 22.8971 70.3736 23.5283C69.5885 24.1595 68.9357 24.9403 68.4533 25.8258C67.9708 26.7113 67.6677 27.6839 67.5622 28.6874C67.4567 29.6909 67.5507 30.7054 67.8385 31.6723Z" fill="#F4B7B7"/>
<path d="M41.4278 90.4371L41.1818 97.968L39.6328 99.7758L35.5064 102.133L32.4443 101.582L37.8403 97.6L38.2355 89.6984L41.4278 90.4371Z" fill="#0A0909"/>
<path d="M40.9439 99.62L39.5585 100.604L39.133 100.269L34.5378 102.766C34.5378 102.766 32.112 103.978 31.4382 103.191C31.2216 102.94 31.4943 102.116 32.271 101.543C32.5823 101.305 32.9139 101.095 33.2619 100.916C33.2619 100.916 33.4205 101.505 34.7981 101.729C35.2397 101.803 37.9676 100.013 38.9038 99.5502C39.8031 99.0405 40.6244 98.403 41.3415 97.6573C41.5614 97.9435 40.9439 99.62 40.9439 99.62Z" fill="#5987E1"/>
<path d="M73.8166 50.733L71.8412 55.3561L68.451 55.7661L41.0655 57.4942C41.0655 57.4942 38.6125 56.744 37.0549 60.5791C34.8351 66.0375 37.7376 93.3656 37.7376 93.3656L41.7905 93.3048L43.9807 67.5378C43.9807 67.5378 70.3022 72.1009 77.8839 69.7939C80.7939 68.9093 83.0141 63.8191 82.6004 58.6797C82.2734 54.6511 79.5599 50.9438 79.5599 50.9438L73.8166 50.733Z" fill="#D9D6CD"/>
<path d="M70.0947 60.4357C70.0947 60.4357 68.8237 49.0657 68.1025 43.6835C67.3814 38.3014 67.5395 29.2661 67.3728 27.9724C67.1838 26.8965 66.8995 25.8396 66.5232 24.8144C66.5232 24.8144 67.8432 21.8745 69.5725 21.9704C71.0933 22.0524 75.8865 23.6487 78.2094 24.5808C79.8136 25.2285 78.9742 43.3547 79.1172 44.3122C79.6364 47.7555 81.3422 51.699 82.4484 54.4257C83.0978 56.1861 83.619 57.991 84.0094 59.8266C84.0094 59.8266 75.2408 58.8042 70.0947 60.4357Z" fill="#A7A7A7"/>
<path d="M69.2467 21.0801L67.958 22.519C67.958 22.519 66.1597 24.985 66.7451 24.6374C67.4859 24.198 68.338 26.7688 68.338 26.7688L70.7318 21.9015L69.2467 21.0801Z" fill="#101C1D"/>
<path d="M79.746 48.7131C79.746 48.7131 81.7495 50.1216 74.18 50.8906C66.6105 51.6596 55.3188 51.1085 55.3188 51.1085L72.631 47.8589C72.631 47.8589 77.4052 46.9021 79.746 48.7131Z" fill="#0A0909"/>
<path d="M61.3265 51.0054C57.7371 51.4719 56.4212 53.2911 55.0713 53.9764C54.1497 54.463 53.2581 55.0058 52.4029 55.6021C53.0088 54.1182 54.1641 53.9248 54.6817 53.4026C55.1993 52.8804 55.0809 53.1247 53.789 53.2042C53.0573 53.2485 51.9409 54.5684 51.1094 55.3251C50.7708 55.6732 50.3552 55.936 49.8958 56.0916C50.4213 55.2393 51.0316 54.4426 51.7178 53.714C52.7125 52.6894 53.822 51.7835 55.0242 51.0144C56.5919 50.5019 58.2308 50.2409 59.8797 50.2406C61.8419 50.2234 63.9118 50.6709 61.3265 51.0054Z" fill="#0A0909"/>
<path d="M55.2228 51.0544C54.1559 51.4282 53.1208 51.888 52.128 52.4293C51.8238 52.6974 50.6069 54.2074 50.6069 54.2074C51.1764 54.0434 51.6998 53.748 52.1352 53.345C53.118 52.5203 54.1488 51.7555 55.2228 51.0544Z" fill="#0A0909"/>
<path d="M75.2678 46.5897L72.8053 30.0702C72.8053 30.0702 73.4151 26.6681 74.4821 25.5031C75.7453 24.1209 78.155 24.5315 78.155 24.5315C78.155 24.5315 80.9712 26.8204 81.174 39.8966C81.3113 48.8475 82.1395 52.5277 78.2468 52.9179C74.6141 53.2819 70.4667 53.5032 70.4667 53.5032L67.708 48.1015L75.2678 46.5897Z" fill="#101C1D"/>
<path d="M54.7179 55.5249H30.8254V56.0111H54.7179V55.5249Z" fill="#CDD5D7"/>
<path d="M44.1734 55.4963C44.1826 55.667 44.1238 55.8343 44.0105 55.962C43.8972 56.0898 43.7383 56.1674 43.5682 56.1782H31.3159C30.9831 56.1782 30.5309 55.9372 30.1238 54.9813L24.0659 44.0244C24.0564 43.9299 24.0685 43.8345 24.101 43.7453C24.1336 43.6562 24.1863 43.5756 24.2543 43.5096C24.3224 43.4435 24.4039 43.3937 24.4939 43.3641C24.5838 43.3344 24.6795 43.3256 24.7733 43.3382L37.3426 43.7103C37.5354 43.7684 37.7102 43.8755 37.8496 44.0212C37.989 44.1668 38.0879 44.3462 38.1379 44.5418L44.1734 55.4963Z" fill="#CDD5D7"/>
<path d="M42.6909 56.0103H54.7763C54.1598 56.2796 53.4906 56.4071 52.8185 56.3833H32.6855C32.0137 56.4072 31.3454 56.2797 30.7292 56.0103H42.6909Z" fill="#B7BEC0"/>
<path d="M46.1075 27.7806C46.1038 28.3526 45.9884 28.9181 45.7666 29.4451C45.5448 29.9721 45.2209 30.4502 44.8148 30.852C44.4088 31.2537 43.9284 31.5712 43.4 31.7865C42.8715 32.0018 42.3056 32.1106 41.7352 32.1067H18.0658C17.4955 32.1105 16.9301 32.0017 16.4018 31.7863C15.8735 31.5709 15.3927 31.2533 14.9869 30.8516C14.5811 30.4498 14.2583 29.9718 14.0367 29.4449C13.8152 28.918 13.6993 28.3525 13.6958 27.7806V4.33361C13.6992 3.7616 13.8153 3.19589 14.0367 2.66874C14.2582 2.14159 14.5811 1.6633 14.9869 1.26127C15.3927 0.859237 15.8734 0.541466 16.4018 0.325758C16.9301 0.110049 17.4953 0.000657448 18.0658 0.00411298H41.7352C42.8876 -0.00308503 43.9956 0.448951 44.8156 1.26087C45.6356 2.07279 46.1002 3.1781 46.1075 4.33361V27.7806Z" fill="#5987E1"/>
<path d="M40.7341 40.1353V28.9521H29.4431L40.7341 40.1353Z" fill="#5987E1"/>
<path d="M28.814 19.5757C28.8114 20.0498 28.7156 20.5188 28.5321 20.9558C28.3486 21.3928 28.0812 21.7893 27.7448 22.1225C27.4084 22.4557 27.0099 22.719 26.5719 22.8976C26.1339 23.0762 25.665 23.1665 25.1922 23.1632C24.7193 23.1665 24.2505 23.0762 23.8124 22.8976C23.3744 22.719 22.9759 22.4557 22.6395 22.1225C22.3031 21.7893 22.0349 21.3928 21.8514 20.9558C21.668 20.5188 21.5721 20.0498 21.5696 19.5757C21.572 19.1015 21.668 18.6323 21.8514 18.1953C22.0349 17.7582 22.3023 17.3617 22.6387 17.0284C22.9751 16.6951 23.3736 16.4316 23.8116 16.253C24.2497 16.0743 24.7193 15.9841 25.1922 15.9874C25.6651 15.9841 26.1338 16.0743 26.5719 16.253C27.01 16.4316 27.4084 16.6951 27.7448 17.0284C28.0813 17.3617 28.3487 17.7582 28.5321 18.1953C28.7155 18.6323 28.8115 19.1015 28.814 19.5757V19.5757Z" stroke="white" stroke-width="4.903" stroke-miterlimit="10"/>
<path d="M27.9089 16.8841L38.7767 6.11902" stroke="white" stroke-width="4.903" stroke-miterlimit="10"/>
<path d="M34.2488 10.606L36.9657 13.2966" stroke="white" stroke-width="4.903" stroke-miterlimit="10"/>
<path d="M36.9648 7.91357L39.6818 10.6059" stroke="white" stroke-width="4.903" stroke-miterlimit="10"/>
<path d="M267.487 145.998C270.556 146.771 276.21 149.528 277.392 154.243C279.168 161.322 275.615 171.715 281.243 181.879C283.042 185.12 250.15 189.474 250.15 189.474L243.804 153.705C243.804 153.705 251.734 145.943 253.352 145.418C256.712 144.337 261.359 144.449 267.487 145.998Z" fill="#A7A7A7"/>
<path d="M243.752 153.726C242.607 156.586 239.726 173.589 242.942 177.599C243.314 178.061 241.273 178.785 241.642 180.896C241.704 181.252 242.318 182.939 242.318 182.939L244.946 183.624L252.891 179.091L251.368 177.235L250.649 177.25C250.461 177.07 250.317 176.848 250.232 176.602C250.147 176.355 250.121 176.091 250.159 175.833C250.348 175.054 248.338 173.784 245.301 160.59C244.404 156.707 244.005 153.095 243.752 153.726Z" fill="#101C1D"/>
<path d="M246.825 176.792L249.175 176.273L250.127 176.121C250.157 176.549 250.343 176.95 250.65 177.249L248.829 177.306L246.693 177.766L244.115 179.241L246.825 176.792Z" fill="#DBDAC6"/>
<path d="M250.185 178.99C249.003 179.012 247.846 179.334 246.821 179.923C245.644 180.649 244.561 182.23 245.644 183.085C246.508 183.72 247.428 184.274 248.393 184.741C248.393 184.741 252.529 184.854 250.185 178.99Z" fill="#C4D1E1"/>
<path d="M245.648 183.148L246.754 182.911C246.754 182.911 250.564 182.564 251.105 182.862C251.646 183.159 253.394 184.345 253.394 184.345L253.752 184.673C253.429 184.828 253.068 184.884 252.714 184.836C252.359 184.788 252.026 184.637 251.756 184.402C250.607 183.598 250.511 184.213 250.511 184.213L250.704 185.233L250.69 186.534L250.868 187.08C250.868 187.08 251.031 187.378 250.902 187.49C250.808 187.581 250.691 187.644 250.563 187.672C250.436 187.701 250.303 187.695 250.179 187.654L249.019 185.624L248.703 187.83C248.648 187.926 248.573 188.009 248.483 188.074C248.394 188.139 248.292 188.185 248.184 188.208C247.843 188.281 247.841 188.191 247.841 188.191L247.579 187.63C247.548 187.781 247.467 187.917 247.349 188.017C247.146 188.155 246.904 188.223 246.659 188.21L246.766 185.886L246.291 187.066C246.172 187.254 245.985 187.389 245.77 187.444C245.386 187.534 245.279 187.564 245.279 187.564L245.648 183.148Z" fill="#E4EEF3"/>
<path d="M265.381 174.053C265.381 174.053 262.616 181.077 255.971 182.957C254.819 183.285 254.113 184.528 254.667 184.93C255.38 185.442 256.352 185.552 258.019 185.547C261.495 185.539 266.224 184.456 269.493 181.284C274.336 176.587 275.862 174.452 275.369 172.085C274.877 169.718 265.381 174.053 265.381 174.053Z" fill="#0A0909"/>
<path d="M276.45 151.879C277.854 154.195 278.671 157.921 278.658 163.249C278.649 167.371 275.098 174.126 274.556 176.202C274.465 176.551 274.248 178.037 274.248 178.037L270.315 181.906L262.424 176.546L264.823 172.856L265.539 172.933C265.759 172.005 265.87 171.055 265.87 170.101C265.747 169.309 268.055 158.671 269.196 151.852C269.855 147.918 275.055 149.579 276.45 151.879Z" fill="#101C1D"/>
<path d="M269.388 172.795L267.09 172.082L266.154 171.849C266.088 172.272 265.87 172.656 265.54 172.929L267.349 173.137L269.438 173.777L271.884 175.464L269.388 172.795Z" fill="#6B6B6B"/>
<path d="M256.476 182.935L252.457 181.832C252.457 181.832 251.318 183.363 251.534 183.745C251.644 184.624 251.644 185.512 251.534 186.391L253.482 188.048L255.066 187.522C255.066 187.522 255.175 186.83 254.634 186.761C254.092 186.691 254.999 186.3 255.288 186.137C255.577 185.974 257.897 184.77 256.476 182.935Z" fill="#0A0909"/>
<path d="M254.368 139.428L258.294 138.048C258.69 137.909 259.126 137.933 259.505 138.116C259.883 138.298 260.174 138.624 260.313 139.022L262.92 146.48C262.989 146.677 263.018 146.886 263.007 147.094C262.995 147.303 262.943 147.507 262.853 147.695C262.762 147.883 262.636 148.051 262.481 148.19C262.326 148.329 262.145 148.436 261.949 148.505L258.023 149.885C257.826 149.954 257.618 149.983 257.411 149.972C257.203 149.96 257 149.908 256.812 149.817C256.625 149.727 256.457 149.6 256.318 149.444C256.18 149.289 256.073 149.108 256.004 148.911L253.397 141.452C253.258 141.054 253.282 140.618 253.464 140.238C253.647 139.858 253.972 139.567 254.368 139.428V139.428Z" fill="#E2C59C"/>
<path d="M252.683 150.761C252.795 151.168 253.063 151.513 253.429 151.72C253.794 151.928 254.227 151.982 254.632 151.87L261.514 149.971C261.919 149.858 262.264 149.589 262.471 149.222C262.678 148.855 262.732 148.421 262.62 148.014L259.813 137.796C259.701 137.39 259.432 137.045 259.067 136.837C258.701 136.629 258.269 136.575 257.864 136.687L250.983 138.587C250.783 138.642 250.595 138.737 250.43 138.865C250.266 138.993 250.129 139.153 250.026 139.334C249.923 139.515 249.857 139.715 249.831 139.922C249.806 140.129 249.821 140.34 249.876 140.541L252.683 150.761Z" fill="#0A0909"/>
<path d="M250.444 142.646C249.865 142.303 249.347 141.866 248.912 141.352C248.802 140.979 248.786 140.585 248.865 140.204C248.944 139.823 249.114 139.467 249.362 139.168C250.003 138.512 250.868 139.164 250.868 139.164C250.868 139.164 249.833 140.182 249.841 140.456C249.85 140.73 250.444 142.646 250.444 142.646Z" fill="#C4C4C4"/>
<path d="M261.778 142.201C261.778 142.201 261.74 137.985 261.231 136.89C260.723 135.796 260.377 135.029 258.942 135.291C256.794 135.678 256.89 136.131 255.694 135.776C254.498 135.421 252.246 134.382 251.575 134.404C251.224 134.387 250.874 134.455 250.554 134.602C250.235 134.749 249.956 134.972 249.741 135.251C249.525 135.529 249.38 135.856 249.318 136.203C249.256 136.55 249.278 136.907 249.383 137.243C249.496 137.606 249.516 137.991 249.442 138.364C249.367 138.736 249.201 139.084 248.957 139.375C249.089 139.532 249.519 139.594 250.276 139.742C252.451 140.175 253.649 140.05 255.008 139.262C256.367 138.473 258.869 136.884 259.485 137.885C260.101 138.886 260.888 142.242 261.085 142.462C261.282 142.683 261.574 142.464 261.778 142.201Z" fill="#1D2022"/>
<path d="M260.453 145.865C260.471 145.932 260.502 145.995 260.545 146.051C260.588 146.106 260.642 146.152 260.703 146.186C260.763 146.221 260.83 146.243 260.9 146.251C260.969 146.259 261.039 146.254 261.107 146.234L262.592 145.824C262.659 145.806 262.722 145.775 262.777 145.732C262.832 145.69 262.878 145.637 262.912 145.576C262.947 145.516 262.969 145.449 262.977 145.38C262.986 145.311 262.98 145.241 262.962 145.173L262.213 142.449C262.194 142.382 262.163 142.318 262.12 142.263C262.077 142.208 262.024 142.161 261.963 142.127C261.902 142.092 261.835 142.07 261.766 142.062C261.696 142.054 261.626 142.059 261.559 142.078L260.074 142.488C259.939 142.526 259.825 142.615 259.756 142.737C259.686 142.859 259.668 143.003 259.705 143.138L260.453 145.865Z" fill="#0A0909"/>
<path d="M251.358 144.896L252.541 144.57C252.716 144.521 252.904 144.545 253.062 144.635C253.22 144.725 253.336 144.875 253.384 145.05L254.048 147.47C254.096 147.645 254.073 147.832 253.984 147.99C253.894 148.149 253.745 148.264 253.571 148.313L252.389 148.639C252.214 148.687 252.027 148.664 251.869 148.574C251.711 148.484 251.595 148.336 251.546 148.16L250.881 145.738C250.833 145.563 250.857 145.376 250.946 145.218C251.036 145.06 251.184 144.944 251.358 144.896V144.896Z" fill="#0A0909"/>
<path d="M261.363 143.278C261.363 143.278 262.47 147.3 262.834 148.643C263.166 149.855 263.416 152.649 256.584 154.536C252.541 155.654 251.868 152.632 251.6 151.654C251.445 150.392 251.559 149.112 251.934 147.897C251.943 147.879 252.39 149.555 252.39 149.555C252.537 148.991 252.828 148.474 253.234 148.056C253.641 147.639 254.149 147.334 254.708 147.173C257.809 146.32 259.013 147.943 260.372 147.535C261.42 147.219 261.74 145.28 261.363 143.278Z" fill="#1D2022"/>
<path d="M256.711 149.464L254.59 150.047C254.523 150.066 254.453 150.073 254.383 150.065C254.314 150.057 254.246 150.035 254.185 150C254.124 149.966 254.071 149.919 254.028 149.864C253.985 149.808 253.954 149.745 253.936 149.677L253.854 149.382L256.996 148.512L257.078 148.81C257.097 148.877 257.102 148.947 257.094 149.016C257.086 149.086 257.064 149.152 257.03 149.213C256.996 149.274 256.95 149.327 256.895 149.37C256.841 149.413 256.778 149.445 256.711 149.464Z" fill="#0A0909"/>
<path d="M223.154 190.273C224.135 192.985 241.293 202.98 247.047 202.386L264.38 203.215C279.121 201.412 286.095 178.445 286.095 178.445C285.508 172.679 270.987 181.04 265.812 183.627C257.613 187.726 252.431 187.936 252.431 187.936C246.947 188.5 240.589 184.258 233.667 184.111C226.063 183.948 221.611 185.993 223.154 190.273Z" fill="#081832"/>
<path d="M260.864 187.515C260.868 187.507 260.873 187.499 260.878 187.492V186.771L231.042 186.226L231.028 186.949C231.026 186.956 231.026 186.965 231.028 186.972L231.103 187.107C231.313 187.39 231.595 187.612 231.92 187.748C232.245 187.885 232.6 187.931 232.949 187.882L258.912 188.356C259.258 188.42 259.615 188.387 259.945 188.264C260.274 188.14 260.564 187.929 260.784 187.653L260.864 187.515Z" fill="#B6C2C9"/>
<path d="M253.672 187.505C253.672 187.505 253.672 187.519 253.672 187.525L253.743 187.635C253.855 187.793 254.002 187.921 254.173 188.011L258.71 188.093C259.033 188.15 259.365 188.128 259.678 188.03C259.991 187.932 260.276 187.76 260.509 187.529L260.584 187.421C260.584 187.414 260.593 187.409 260.598 187.401V187.048L253.684 186.921L253.672 187.505Z" fill="#D8E5ED"/>
<path d="M249.65 187.24L234.741 186.969L234.751 186.46L249.659 186.732L249.65 187.24Z" fill="#879BA6"/>
<path d="M253.522 186.609L249.925 171.835C249.871 171.64 249.758 171.466 249.602 171.338C249.445 171.209 249.253 171.133 249.052 171.118L228.121 170.736C228.035 170.731 227.949 170.746 227.871 170.782C227.792 170.817 227.724 170.872 227.672 170.94C227.619 171.009 227.585 171.089 227.571 171.174C227.557 171.259 227.565 171.347 227.593 171.428L231.194 186.199L253.522 186.609Z" fill="#D9E1E4"/>
<path d="M241.824 178.689C241.879 178.847 241.894 179.016 241.868 179.181C241.841 179.346 241.775 179.502 241.674 179.635C241.572 179.768 241.44 179.874 241.288 179.943C241.136 180.013 240.969 180.043 240.803 180.032C240.412 180.004 240.039 179.855 239.736 179.605C239.434 179.356 239.217 179.018 239.114 178.638C239.06 178.48 239.045 178.311 239.071 178.146C239.098 177.981 239.165 177.825 239.266 177.692C239.368 177.559 239.5 177.453 239.652 177.385C239.804 177.316 239.971 177.286 240.137 177.298C240.528 177.325 240.9 177.473 241.203 177.723C241.505 177.972 241.722 178.31 241.824 178.689Z" fill="#B6C2C9"/>
<path d="M267.032 207.042C264.964 207.396 263.392 204.993 263.392 204.993L258.057 200.784L259.186 197.937L269.57 202.618C269.57 202.618 269.097 206.688 267.032 207.042Z" fill="#0A0909"/>
<path d="M263.384 204.83C263.454 205.294 263.586 205.747 263.775 206.177C264.174 207.273 264.662 207.652 265.176 207.808C267.168 208.396 268.601 208.098 273.392 209.024C278.182 209.949 279.617 209.253 281.02 207.039C282.423 204.826 280.968 203.089 278.632 202.909C275.25 202.654 273.368 203.042 271.608 202.771C269.762 202.49 269.646 202.077 268.567 201.41C267.553 200.787 266.622 204.502 267.58 205.366C268.424 206.122 264.102 206.24 263.384 204.83Z" fill="#B0BFDE"/>
<path d="M264.405 206.965C266.398 207.554 267.832 207.255 272.622 208.182C277.412 209.108 278.848 208.409 280.251 206.197C280.539 205.826 280.72 205.382 280.774 204.914C280.827 204.446 280.75 203.973 280.552 203.546C281.606 204.272 281.966 205.544 281.017 207.039C279.615 209.252 278.18 209.949 273.389 209.024C268.598 208.098 267.165 208.396 265.174 207.808C264.93 207.729 264.706 207.601 264.514 207.43C264.323 207.26 264.168 207.052 264.061 206.819C264.17 206.881 264.285 206.93 264.405 206.965Z" fill="white"/>
<path d="M263.39 204.896C263.387 204.874 263.385 204.852 263.384 204.83C263.398 204.856 263.413 204.881 263.431 204.905L263.39 204.896Z" fill="#0A0909"/>
<path d="M273.737 206.559C273.891 206.615 274.029 206.324 274.077 205.917C274.171 205.074 274.356 204.244 274.63 203.442C274.771 203.038 274.766 202.679 274.598 202.632C274.429 202.586 274.159 202.879 274.025 203.274C273.763 204.068 273.587 204.888 273.502 205.72C273.462 206.126 273.584 206.5 273.737 206.559Z" fill="white"/>
<path d="M272.253 206.287C272.417 206.322 272.562 206.041 272.607 205.653C272.701 204.86 272.885 204.079 273.155 203.327C273.291 202.945 273.281 202.615 273.104 202.593C272.928 202.571 272.647 202.857 272.519 203.237C272.26 203.982 272.087 204.755 272.003 205.54C271.965 205.919 272.094 206.251 272.253 206.287Z" fill="white"/>
<path d="M270.697 206.218C270.861 206.242 271.029 205.94 271.09 205.544C271.224 204.723 271.443 203.917 271.745 203.142C271.894 202.748 271.896 202.415 271.71 202.405C271.523 202.394 271.231 202.707 271.084 203.096C270.795 203.865 270.588 204.662 270.468 205.474C270.408 205.863 270.528 206.198 270.697 206.218Z" fill="white"/>
<path d="M266.667 200.167C266.667 200.167 230.004 185.054 227.912 185.032C220.83 184.964 222.454 192.151 226.041 195.534C230.276 199.521 262.464 206.815 262.464 206.815L266.667 200.167Z" fill="#C4C4C4"/>
<path d="M252.123 202.795L262.132 193.279L257.867 189.041L246.937 200.562L252.123 202.795Z" fill="#0A0909"/>
<path d="M250.05 195.312C250.05 195.312 275.519 171.902 277.237 171.203C283.052 168.837 286.656 175.276 286.45 177.497C286.186 180.382 260.308 203.829 260.308 203.829L250.05 195.312Z" fill="#1D2022"/>
<path d="M234.954 203.537C234.358 204.088 234.255 205.71 234.255 205.71C234.255 205.71 242.759 208.936 245.741 208.989C246.932 208.906 248.11 208.681 249.248 208.32C249.475 208.26 249.992 207.675 250.212 207.61C250.621 207.492 250.711 207.887 251.062 207.774C251.601 207.622 252.128 207.428 252.637 207.194C254.431 203.364 253.825 201.48 253.825 201.48C253.825 201.48 249.918 202.603 250.587 201.726C252.02 199.851 247.924 197.932 247.014 198.932C243.376 202.933 236.68 201.94 234.954 203.537Z" fill="#B0BFDE"/>
<path d="M234.485 204.331C237.102 205.372 242.588 207.522 243.68 207.599C248.153 207.918 251.279 206.323 253.368 205.385C253.159 206.002 252.916 206.607 252.64 207.196C252.131 207.431 251.605 207.625 251.065 207.777C250.715 207.888 250.622 207.492 250.215 207.613C249.995 207.679 249.48 208.262 249.251 208.323C248.113 208.684 246.936 208.908 245.745 208.992C242.759 208.935 234.259 205.713 234.259 205.713C234.279 205.245 234.355 204.781 234.485 204.331Z" fill="white"/>
<path d="M240.492 201.851C240.41 201.996 240.745 202.172 241.222 202.272C242.203 202.473 243.164 202.765 244.092 203.143C244.558 203.334 244.981 203.378 245.045 203.215C245.11 203.053 244.789 202.742 244.329 202.56C243.41 202.194 242.459 201.913 241.489 201.72C241.02 201.63 240.571 201.702 240.492 201.851Z" fill="white"/>
<path d="M242.398 201.172C242.327 201.324 242.653 201.539 243.115 201.672C244.071 201.953 245 202.319 245.89 202.769C246.337 202.993 246.743 203.062 246.802 202.893C246.862 202.724 246.557 202.381 246.112 202.161C245.23 201.726 244.309 201.372 243.363 201.105C242.902 200.976 242.473 201.024 242.398 201.172Z" fill="white"/>
<path d="M244.233 200.58C244.165 200.738 244.478 200.984 244.933 201.154C245.862 201.508 246.757 201.945 247.608 202.459C248.038 202.718 248.426 202.81 248.484 202.63C248.543 202.45 248.246 202.081 247.82 201.831C246.976 201.328 246.087 200.904 245.166 200.561C244.719 200.399 244.299 200.421 244.233 200.58Z" fill="white"/>
<path d="M345.151 169.832C345.151 173.548 337.638 223.151 313.346 198.497C300.849 185.815 329.445 187.348 330.568 176.254C330.942 172.557 333.251 159.169 337.782 169.526C339.38 173.185 345.151 166.117 345.151 169.832Z" fill="#C4C4C4"/>
<path d="M328.045 170.671C328.045 170.671 329.114 170.107 326.126 164.589C323.5 160.086 320.6 155.749 317.442 151.603L323.202 164.895C323.202 164.895 325.638 169.888 328.045 170.671Z" fill="#0A0909"/>
<path d="M333.433 177.641L325.137 162.222L324.749 161.291L320.04 163.381C320.04 163.381 326.601 175.223 327.059 175.741C328.348 177.819 329.495 179.983 330.493 182.217C330.812 183.176 332.964 187.75 335.981 186.07C338.998 184.391 333.433 177.641 333.433 177.641Z" fill="#D9D6CD"/>
<path d="M320.383 155.692C318.919 153.091 319.539 151.347 319.345 150.117C319.228 149.273 319.164 148.421 319.155 147.568C318.414 148.684 318.857 149.536 318.746 150.136C318.636 150.736 318.751 150.532 318.163 149.64C317.827 149.133 318.196 147.754 318.314 146.844C318.389 146.453 318.366 146.05 318.247 145.67C317.911 146.425 317.655 147.213 317.485 148.021C317.263 149.169 317.18 150.34 317.239 151.508C317.666 152.8 318.301 154.013 319.12 155.098C320.092 156.41 321.44 157.568 320.383 155.692Z" fill="#0A0909"/>
<path d="M351.361 169.919C351.361 169.919 350.292 169.353 353.28 163.836C355.905 159.333 358.804 154.997 361.962 150.852L356.203 164.143C356.203 164.143 353.769 169.135 351.361 169.919Z" fill="#0A0909"/>
<path d="M345.972 176.888L354.269 161.469L354.657 160.535L359.365 162.626C359.365 162.626 352.806 174.469 352.346 174.989C351.887 175.509 349.443 180.597 348.912 181.466C347.166 184.335 347.166 185.938 346.772 185.565C344.3 183.206 345.972 176.888 345.972 176.888Z" fill="#D9D6CD"/>
<path d="M359.021 154.941C360.487 152.336 359.865 150.596 360.059 149.366C360.177 148.522 360.241 147.67 360.251 146.817C360.987 147.932 360.548 148.79 360.66 149.385C360.771 149.98 360.66 149.78 361.243 148.888C361.579 148.38 361.209 147.003 361.091 146.093C361.017 145.702 361.04 145.299 361.158 144.919C361.494 145.673 361.75 146.461 361.92 147.269C362.143 148.417 362.225 149.588 362.165 150.756C361.738 152.048 361.103 153.261 360.284 154.347C359.313 155.658 357.967 156.816 359.021 154.941Z" fill="#0A0909"/>
<path d="M325.016 264.497L323.308 272.566C323.308 272.566 319.518 275.463 318.292 275.803C317.065 276.142 317.32 275.68 317.455 275.415C317.59 275.15 319.878 273.488 320.421 272.424C320.964 271.36 321.82 264.368 321.974 264.033C322.129 263.699 325.016 264.497 325.016 264.497Z" fill="#0A0909"/>
<path d="M351.41 266.464C352.052 268.483 352.582 270.535 352.999 272.613C353.171 274.18 352.904 274.697 353.385 275.17C353.866 275.643 357.263 279.394 358.014 279.351C358.111 279.351 358.206 279.331 358.295 279.293C358.384 279.254 358.464 279.198 358.53 279.127C358.596 279.056 358.647 278.972 358.68 278.881C358.712 278.789 358.726 278.692 358.719 278.595C358.719 278.595 356.055 275.737 355.612 274.614C355.17 273.491 354.692 267.137 354.652 266.493C354.612 265.848 351.41 266.464 351.41 266.464Z" fill="#0A0909"/>
<path d="M339.973 208.565L332.873 237.609L325.346 265.539L320.99 264.859C320.99 264.859 326.52 236.235 326.666 233.729C326.811 231.224 327.902 210.822 331.525 206.477C335.148 202.132 339.973 208.565 339.973 208.565Z" fill="#1D2022"/>
<path d="M337.111 209.832C337.111 209.832 332.965 205.686 330.461 208.171C330.187 208.964 329.964 209.774 329.794 210.596C332.084 214.433 334.165 217.603 334.662 218.445C334.88 218.814 335.467 219.894 336.281 221.406L337.207 216.21L337.111 209.832Z" fill="#C4C4C4"/>
<path d="M347.266 204.774C347.266 204.774 350.992 220.508 351.528 229.079C352.064 237.651 354.534 262.654 354.534 262.654L354.809 267.035L351.402 267.135L344.097 235.43L337.181 206.28L347.266 204.774Z" fill="#1D2022"/>
<path d="M345.096 168.95C345.102 169.787 344.943 170.617 344.629 171.393C344.315 172.168 343.852 172.874 343.265 173.47C342.679 174.066 341.982 174.54 341.212 174.866C340.443 175.191 339.618 175.362 338.783 175.368C337.948 175.362 337.123 175.191 336.354 174.866C335.585 174.54 334.887 174.066 334.301 173.47C333.714 172.874 333.251 172.168 332.937 171.393C332.623 170.617 332.464 169.787 332.469 168.95C332.458 167.26 333.117 165.634 334.301 164.431C335.485 163.228 337.097 162.546 338.783 162.534C339.618 162.54 340.443 162.71 341.212 163.036C341.981 163.361 342.679 163.835 343.265 164.431C343.851 165.027 344.314 165.732 344.629 166.508C344.943 167.283 345.102 168.113 345.096 168.95Z" fill="#C4C4C4"/>
<path d="M337.681 170.835C337.681 170.835 338.283 174.271 337.781 175.223C337.278 176.176 333.875 178.375 333.372 179.041C332.869 179.708 334.375 184.862 339.285 184.1C344.195 183.337 346.231 180.943 346.231 180.178C346.231 179.413 348.502 178.087 346.9 177.515C345.299 176.943 342.692 176.561 341.99 175.793C341.462 175.15 341.089 174.395 340.898 173.585C340.707 172.775 340.703 171.932 340.888 171.12C341.389 169.118 337.681 170.835 337.681 170.835Z" fill="#0A0909"/>
<path d="M340.35 163.991C340.248 163.962 340.144 163.942 340.037 163.923C339.604 165.44 338.634 166.746 337.308 167.595C336.948 167.853 336.57 168.084 336.177 168.288V169.397C336.219 170.222 336.585 170.998 337.195 171.553C337.805 172.109 338.61 172.4 339.433 172.362C340.257 172.4 341.062 172.11 341.672 171.554C342.283 170.998 342.649 170.222 342.69 169.397V166.901C341.65 166.173 340.838 165.164 340.35 163.991Z" fill="#0A0909"/>
<path d="M345.883 206.091L330.968 210.224L333.301 197.182L332.771 181.882C334.592 182.532 336.485 182.955 338.408 183.142C340.134 183.246 343.82 181.882 343.82 181.882L345.883 206.091Z" fill="#6C7577"/>
<path d="M330.712 180.984C330.712 180.984 331.928 189.532 332.12 192.975C332.467 199.182 326.718 205.395 326.417 207.404C326.116 209.413 328.216 211.301 328.216 211.301C328.842 211.676 329.516 211.965 330.219 212.16C330.92 212.253 332.259 211.612 332.725 209.297C333.302 206.432 335.078 196.575 335.431 194.791C335.931 192.263 335.531 184.871 335.931 183.913C336.331 182.954 337.785 179.856 337.585 179.095C337.165 178.286 336.605 177.559 335.931 176.946C335.931 176.946 331.512 179.172 330.712 180.984Z" fill="#D9D6CD"/>
<path d="M344.569 176.656C344.569 176.656 342.615 177.443 342.014 177.73C341.413 178.017 341.714 181.166 342.014 181.594C342.314 182.023 342.84 191.687 342.914 193.974C342.987 196.26 343.29 205.281 343.666 206.927C344.042 208.573 343.817 210.503 345.619 211.149C347.421 211.795 350.807 208.765 350.807 208.765C350.807 208.765 348.331 203.948 347.881 202.015C347.43 200.083 346.447 197.622 346.296 194.688C346.264 191.414 346.614 188.147 347.34 184.955C347.955 182.357 348.248 178.799 348.399 178.369C348.55 177.939 345.171 176.871 344.569 176.656Z" fill="#D9D6CD"/>
<path d="M323.471 272.159C323.576 272.502 323.572 272.869 323.458 273.21C323.295 273.619 322.66 274.776 322.66 274.776L321.775 274.964L321.899 274.405C321.052 275.054 320.154 275.631 319.213 276.132C318.368 276.474 316.557 277.387 315.739 276.899C315.674 276.852 315.62 276.791 315.583 276.72C315.545 276.649 315.525 276.569 315.523 276.489C315.523 276.489 317.245 275.298 317.514 275.132C317.783 274.966 318.202 275.489 318.868 275.257C320 274.737 321.086 274.123 322.116 273.421C322.609 273.047 323.063 272.625 323.471 272.159Z" fill="#5987E1"/>
<path d="M353.068 274.102C352.991 274.453 352.984 274.815 353.048 275.168C353.164 275.55 353.324 275.917 353.526 276.261L354.305 276.622C354.997 277.363 355.746 278.048 356.545 278.672C357.272 279.132 358.812 280.294 359.63 279.93C359.699 279.891 359.757 279.837 359.802 279.773C359.847 279.708 359.876 279.634 359.888 279.556C359.888 279.556 358.47 278.13 358.247 277.928C358.024 277.727 357.564 278.182 356.983 277.857C356.011 277.175 355.097 276.411 354.253 275.575C353.828 275.109 353.432 274.617 353.068 274.102Z" fill="#5987E1"/>
<path d="M344.194 176.37L342.015 177.731C342.41 177.896 342.73 178.202 342.914 178.589C343.127 179.076 343.303 179.578 343.441 180.091L345.395 176.942C345.395 176.942 344.194 176.155 344.194 176.37Z" fill="#B7B7B7"/>
<path d="M336.154 176.586L336.506 177.14L337.631 179.042C337.631 179.042 337.394 178.445 336.528 179.091C336.104 179.506 335.795 180.024 335.629 180.594L335.027 177.159L336.154 176.586Z" fill="#B7B7B7"/>
<path d="M363.478 74.0928C338.867 64.8985 313.398 72.3058 303.394 99.2263C293.391 126.147 307.817 148.461 332.428 157.654C351.622 164.827 363.303 153.822 383.481 148.316C387.473 147.226 398.998 154.113 398.998 154.113L411.507 120.453C411.507 120.453 398.295 118.102 395.991 114.655C384.319 97.2488 382.675 81.2622 363.478 74.0928Z" fill="#5987E1"/>
<path d="M396.01 136.992C368.129 144.601 351.985 159.809 325.459 149.899C319.918 147.847 314.612 145.208 309.629 142.028C315.253 148.81 323.107 154.175 332.428 157.656C351.622 164.828 363.303 153.824 383.481 148.317C387.473 147.228 398.998 154.115 398.998 154.115L404.735 138.676C401.298 137.331 397.985 136.453 396.01 136.992Z" fill="#726E65"/>
<path d="M398.782 154.691L403.409 156.419C405.233 157.101 407.173 157.416 409.118 157.346C411.063 157.276 412.976 156.822 414.746 156.011C416.517 155.199 418.111 154.046 419.437 152.617C420.763 151.188 421.795 149.512 422.475 147.683L425.064 140.719C426.435 137.025 426.288 132.936 424.653 129.351C423.019 125.766 420.031 122.979 416.348 121.602L411.721 119.874L398.782 154.691Z" fill="#19191A"/>
<path d="M339.656 133.775L334.688 125.857L343.617 123.113L338.653 115.189L347.582 112.444L342.622 104.509L351.55 101.764L346.592 93.8244L355.528 91.0607" stroke="#D9D6CD" stroke-width="8.211" stroke-miterlimit="10"/>
<path d="M348.017 129.892L373.835 130.752L402.97 141.636" stroke="#D9D6CD" stroke-width="8.211" stroke-miterlimit="10"/>
<path d="M357.721 103.775L377.804 120.068L406.938 130.953" stroke="#D9D6CD" stroke-width="8.211" stroke-miterlimit="10"/>
<path d="M412.776 124.346L404.693 146.106L408.3 147.453L416.383 125.693L412.776 124.346Z" fill="#A2AAB0"/>
<path d="M417.024 132.875L411.205 148.54L414.811 149.887L420.63 134.222L417.024 132.875Z" fill="#A2AAB0"/>
<path d="M127.095 250.67C127.315 250.409 127.154 249.722 127.154 249.722C127.154 249.722 123.334 249.301 122.103 249.587C121.624 249.743 121.166 249.957 120.738 250.222C120.652 250.27 120.501 250.559 120.415 250.607C120.262 250.697 120.181 250.545 120.051 250.626C119.846 250.743 119.65 250.876 119.467 251.024C119.131 252.753 119.577 253.451 119.577 253.451C119.577 253.451 122.723 254.416 123.44 253.774C125.264 252.149 126.617 251.241 127.095 250.67Z" fill="#5987E1"/>
<path d="M139.183 252.098L139.73 254.907H142.634C142.634 254.907 142.797 254.509 143.043 254.509C143.25 254.509 143.518 254.907 143.8 254.907H151.185C151.185 254.907 151.315 254.317 151.154 254.113C150.881 253.936 150.58 253.809 150.263 253.736C148.764 253.32 144.472 252.022 143.722 250.608C142.813 248.888 139.183 252.098 139.183 252.098Z" fill="#5987E1"/>
<path d="M141.493 157.41L142.188 154.006C142.188 154.006 144.641 154.192 145.115 152.889C146.078 150.278 145.272 146.107 144.692 144.936C143.039 141.607 142.34 135.778 134.614 140.413C131.675 142.177 136.213 150.724 136.551 152.576C136.683 153.938 136.454 155.312 135.884 156.557L137.692 157.895L141.493 157.41Z" fill="#0A0909"/>
<path d="M127.753 189.626L127.497 200.359C127.497 200.359 123.399 195.898 123 190.825C122.602 185.751 127.494 189.229 127.753 189.626Z" fill="#E2C59C"/>
<path d="M132.357 211.743C132.357 211.743 133.489 212.23 130.158 227.835C127.755 239.071 125.703 247.291 124.744 251.013C124.371 252.458 123.955 252.197 123.955 252.197L120.778 252.547L119.265 251.254L123.804 225.792L132.357 211.743Z" fill="#C4C4C4"/>
<path d="M153.138 182.634L146.637 194.931C146.637 194.931 159.043 186.077 158.265 181.206C157.487 176.334 153.138 182.634 153.138 182.634Z" fill="#0A0909"/>
<path d="M127.682 160.728C127.682 160.728 125.046 162.318 123.149 175.232C121.252 188.147 122.461 187.654 122.461 187.654L122.806 190.596L127.731 191.119L130.395 179.969L127.682 160.728Z" fill="#D9D6CD"/>
<path d="M139.787 194.269C139.787 194.269 132.514 223.979 126.807 237.299C123.462 245.098 123.432 230.124 123.432 230.124L128.629 186.98L143.805 186.255C143.805 186.255 142.087 186.779 139.787 194.269Z" fill="#C4C4C4"/>
<path d="M134.492 186.338C134.492 186.338 139.987 224.803 140.564 226.54C142.519 232.413 145.531 224.713 146.22 222.757C146.908 220.802 148.061 206.309 147.831 195.737L147.601 185.161L134.492 186.338Z" fill="#C4C4C4"/>
<path d="M140.013 216.919C140.013 216.919 139.181 221.511 138.491 227.368C137.983 231.672 137.969 243.966 138.775 252.506C138.822 253.027 144.326 251.44 144.326 251.44C144.326 251.44 146.333 227.54 146.793 222.19C147.254 216.84 143.462 213.097 140.013 216.919Z" fill="#C4C4C4"/>
<path d="M127.519 160.754L134.01 157.849L135.798 156.177L142.698 156.013L143.906 157.975L149.254 160.263C149.254 160.263 150.573 162.313 149.424 169.908C148.154 178.327 147.884 191.052 147.884 191.052L127.665 192.015C127.665 192.015 129.416 164.839 127.519 160.754Z" fill="#5987E1"/>
<path d="M147.534 160.278C147.534 160.278 148.736 158.955 151.668 162.55C156.666 168.68 159.084 176.281 159.599 177.754C160.113 179.227 160.781 181.307 158.736 183.752C157.173 185.624 156.667 186.254 156.667 186.254L152.181 183.495L152.887 182.17L153.391 181.514C153.391 181.514 150.974 176.281 148.388 171.541C145.802 166.8 147.534 160.278 147.534 160.278Z" fill="#5987E1"/>
<path d="M142.508 145.915C142.508 145.915 141.633 145.384 141.499 146.046C141.365 146.707 141.837 148.168 142.235 148.3C142.633 148.433 142.769 150.222 142.769 150.222L141.696 152.21H136.256C136.256 152.21 134.576 151.483 134.44 150.288C134.305 149.094 132.965 140.678 132.965 140.678L136.793 138.689C137.9 138.142 139.045 137.677 140.219 137.296C142.383 136.683 142.836 137.825 142.77 138.421C142.705 139.016 143.376 139.085 144.249 139.085C145.121 139.085 146.199 139.746 145.728 140.146C145.532 140.31 146.401 140.833 146.055 141.466C145.564 142.368 143.912 142.665 143.777 144.123C143.726 144.787 143.449 146.974 142.508 145.915Z" fill="#1D2022"/>
<path d="M108.665 132.709C120.432 132.709 129.971 123.144 129.971 111.345C129.971 99.5461 120.432 89.9812 108.665 89.9812C96.8976 89.9812 87.3584 99.5461 87.3584 111.345C87.3584 123.144 96.8976 132.709 108.665 132.709Z" fill="#EDF6F8"/>
<path d="M124.028 123.044C124.542 124.02 129.933 134.984 129.933 134.984L116.731 126.725L124.028 123.044Z" fill="#EDF6F8"/>
<path d="M114.891 122.8H105.067V109.084H106.96V120.902H114.891L114.891 122.8Z" fill="#C4C4C4"/>
<path d="M111.996 121.851H110.104V110.033H101.825V108.135H111.996V121.851Z" fill="#C4C4C4"/>
<path d="M108.629 105.629C107.583 105.628 106.581 105.211 105.841 104.469C105.102 103.728 104.686 102.723 104.685 101.674C104.686 100.626 105.102 99.6203 105.841 98.8787C106.581 98.1371 107.583 97.7199 108.629 97.7186C109.675 97.7199 110.677 98.1372 111.417 98.8787C112.156 99.6203 112.572 100.626 112.574 101.674C112.572 102.723 112.156 103.728 111.417 104.47C110.677 105.211 109.674 105.628 108.629 105.629ZM108.629 99.6167C108.085 99.6173 107.563 99.8343 107.179 100.22C106.794 100.606 106.578 101.129 106.577 101.674C106.578 102.22 106.794 102.743 107.179 103.128C107.563 103.514 108.085 103.731 108.629 103.731C109.173 103.731 109.695 103.514 110.079 103.128C110.464 102.743 110.681 102.22 110.681 101.674C110.681 101.128 110.465 100.605 110.08 100.218C109.695 99.832 109.173 99.6147 108.629 99.6141V99.6167Z" fill="#C4C4C4"/>
</svg>
