<svg width="487" height="466" viewBox="0 0 487 466" fill="none" xmlns="http://www.w3.org/2000/svg">
<path d="M274.521 463.749C255.547 454.769 247.986 433.418 245.312 413.531C244.861 410.229 243.914 406.795 244.993 403.625C246.071 400.456 249.395 397.87 252.587 398.761C255.239 399.498 256.791 402.162 258.563 404.264C260.919 407.1 264.034 409.207 267.543 410.339C269.833 411.076 272.551 411.307 274.433 409.811C277.008 407.753 276.634 403.769 276.106 400.489C275.027 394.406 273.971 388.324 272.936 382.242C272.19 378.996 271.971 375.652 272.287 372.336C272.771 369.035 274.543 365.733 277.514 364.368C280.486 363.004 284.657 364.115 285.857 367.219C286.211 368.553 286.475 369.91 286.649 371.28C286.968 372.634 287.86 374.031 289.213 374.196C290.567 374.361 291.745 373.206 292.57 372.072C295.388 368.187 296.972 363.532 298.403 358.921C299.834 354.309 301.177 349.61 303.642 345.472C306.107 341.334 309.871 337.768 314.526 336.667C319.182 335.567 324.685 337.658 326.633 342.071C328.581 346.484 326.699 351.646 324.431 355.894C320.988 362.184 316.655 367.945 311.566 372.997C310.551 373.805 309.819 374.915 309.475 376.166C309.134 378.478 311.577 380.305 313.877 380.657C316.452 381.053 319.072 380.349 321.68 380.217C324.288 380.084 327.249 380.745 328.636 383.001C330.54 386.127 328.327 390.122 325.961 392.906C321.209 398.453 315.539 403.144 309.2 406.773C306.933 408.061 304.522 409.271 302.86 411.296C301.199 413.321 300.527 416.469 302.09 418.582C303.653 420.695 306.811 420.926 309.255 420.024C311.698 419.121 313.734 417.372 315.99 416.062C320.216 413.597 326.093 412.914 329.648 416.326C330.757 417.519 331.573 418.953 332.034 420.515C332.494 422.077 332.585 423.725 332.301 425.329C331.715 428.523 330.491 431.566 328.702 434.276C323.002 444.074 314.807 452.185 304.952 457.784C295.101 463.177 285.571 465.807 274.532 463.76" fill="#F2F7FF"/>
<path d="M277.525 450.476C278.985 439.15 281.094 427.916 283.843 416.832L285.956 408.105C286.649 405.232 287.342 402.393 288.157 399.663C289.802 394.425 291.735 389.281 293.946 384.255C296.026 379.435 298.172 374.923 300.208 370.729C302.244 366.536 304.236 362.662 306.195 359.217C309.253 353.754 312.742 348.543 316.628 343.634C318.004 341.895 319.116 340.585 319.875 339.705C320.238 339.286 320.535 338.956 320.745 338.703C320.954 338.45 321.053 338.373 321.064 338.384C320.984 338.511 320.896 338.632 320.8 338.747L319.963 339.782C319.237 340.684 318.158 341.983 316.816 343.777C313.014 348.734 309.589 353.969 306.569 359.438C304.643 362.893 302.684 366.767 300.659 370.961C298.634 375.154 296.521 379.666 294.463 384.486C292.271 389.512 290.361 394.656 288.74 399.894C287.893 402.613 287.21 405.397 286.539 408.303L284.426 417.041C281.684 428.103 279.564 439.309 278.076 450.608" fill="#E0E0E0"/>
<path d="M288.344 399.62C288.105 399.191 287.917 398.737 287.782 398.266C287.452 397.396 287.023 396.065 286.517 394.513C285.504 391.321 284.25 386.864 282.885 381.956C281.52 377.047 280.21 372.612 279.143 369.453C278.615 367.868 278.174 366.581 277.866 365.711C277.681 365.259 277.538 364.791 277.437 364.313C277.703 364.724 277.92 365.163 278.086 365.623C278.472 366.471 278.967 367.736 279.55 369.299C280.728 372.447 282.103 376.86 283.479 381.79C284.855 386.721 286.01 391.035 286.935 394.381C287.364 395.9 287.716 397.176 288.035 398.2C288.18 398.663 288.283 399.138 288.344 399.62Z" fill="#E0E0E0"/>
<path d="M329.229 384.585C328.698 384.807 328.145 384.973 327.579 385.081C326.478 385.356 324.97 385.752 323.077 386.302C319.28 387.403 314.097 389.032 308.451 391.123C302.805 393.214 297.775 395.338 294.143 396.967C292.339 397.77 290.897 398.464 289.895 398.937C289.392 399.211 288.865 399.439 288.322 399.619C288.777 399.268 289.267 398.966 289.785 398.717C290.754 398.177 292.174 397.429 293.956 396.516C297.511 394.777 302.53 392.587 308.187 390.484C313.015 388.678 317.934 387.124 322.923 385.829C324.838 385.323 326.401 384.993 327.491 384.784C328.063 384.664 328.645 384.597 329.229 384.585Z" fill="#E0E0E0"/>
<path d="M277.91 449.629C277.769 449.485 277.644 449.326 277.536 449.156L276.557 447.758C275.709 446.525 274.532 444.732 273.112 442.486C270.25 437.996 266.508 431.668 262.469 424.624C258.43 417.581 254.765 411.23 251.981 406.696L248.679 401.314L247.799 399.851C247.682 399.688 247.59 399.511 247.524 399.322C247.524 399.322 247.667 399.465 247.898 399.785C248.129 400.104 248.492 400.621 248.877 401.193C249.725 402.415 250.902 404.209 252.333 406.465C255.184 410.955 258.937 417.272 262.976 424.316C267.015 431.36 270.68 437.71 273.453 442.255L276.755 447.626C277.107 448.209 277.404 448.727 277.635 449.09C277.753 449.255 277.846 449.437 277.91 449.629Z" fill="#E0E0E0"/>
<path d="M330.935 422.06C330.781 422.195 330.606 422.306 330.418 422.39L328.888 423.204L323.209 426.165C318.411 428.674 311.83 432.207 304.566 436.07C297.302 439.933 290.688 443.466 285.856 445.865C283.435 447.064 281.454 448.066 280.089 448.649L278.438 449.376C278.257 449.472 278.065 449.546 277.866 449.596C278.024 449.464 278.197 449.353 278.383 449.266L279.924 448.451L285.603 445.48C290.391 442.981 296.972 439.448 304.236 435.574C311.499 431.701 318.125 428.19 322.945 425.79C325.367 424.591 327.348 423.589 328.712 423.006L330.297 422.28C330.497 422.174 330.713 422.1 330.935 422.06Z" fill="#E0E0E0"/>
<path d="M136.906 227.513C136.906 227.513 123.831 229.329 131.172 257.966C138.513 286.602 144.742 301.372 144.742 301.372C144.742 301.372 145.721 307.854 140.494 307.656C135.266 307.458 124.601 303.254 120.981 308.856C117.239 314.711 120.518 321.754 128.685 329.139C136.851 336.524 154.262 353.352 155.824 354.881C157.387 356.411 158.532 359.559 154.944 359.988C151.356 360.417 125.911 357.435 125.229 369.596C124.546 381.757 150.773 398.574 153.601 400.467C156.43 402.36 156.903 403.834 156.243 405.485C155.582 407.136 147.152 405.32 139.877 404.759C132.603 404.198 124.062 404.847 124.249 411.891C124.436 418.934 138.215 436.763 178.386 450.014L197.415 454.934L211.469 441.089C239.753 409.623 242.846 387.315 239.511 381.108C236.177 374.901 228.506 378.588 222.409 382.682C216.311 386.776 209.928 392.587 208.563 391.486C207.199 390.386 206.847 388.867 208.365 385.818C209.884 382.77 224.29 355.146 217.643 344.932C210.996 334.719 190.393 349.929 187.091 351.327C183.79 352.724 183.195 349.401 183.79 347.332C184.384 345.262 191.097 322.019 194.553 311.508C198.009 300.998 197.349 293.272 191.186 290.058C185.242 286.966 178.1 295.946 173.654 298.72C169.207 301.493 166.852 295.418 166.852 295.418C166.852 295.418 164.915 279.515 157.057 251.01C149.199 222.506 136.664 227.612 136.664 227.612" fill="#F2F7FF"/>
<path d="M197.404 459.666C191.714 438.755 182.216 401.336 173.907 369.211C165.597 337.085 158.048 308.118 152.457 287.142C149.661 276.664 147.394 268.19 145.853 262.302C145.083 259.385 144.478 257.107 144.059 255.544L143.597 253.784C143.498 253.387 143.465 253.178 143.465 253.178C143.465 253.178 143.542 253.365 143.663 253.762C143.784 254.158 143.949 254.763 144.169 255.511C144.621 257.074 145.27 259.33 146.084 262.236C147.735 268.08 150.068 276.543 152.908 287.021C158.598 307.931 166.225 336.997 174.534 369.057C182.843 401.116 192.264 438.568 197.855 459.545" fill="#E0E0E0"/>
<path d="M135.663 315.393C136.102 315.574 136.523 315.799 136.917 316.064C137.699 316.527 138.821 317.231 140.219 318.111C142.959 319.883 146.69 322.426 150.751 325.298L161.119 332.694L164.277 334.895C164.676 335.143 165.045 335.434 165.378 335.764C164.934 335.585 164.51 335.36 164.112 335.093C163.331 334.631 162.208 333.927 160.81 333.035C158.092 331.241 154.394 328.633 150.333 325.771L139.911 318.453L136.741 316.252C136.352 316.005 135.99 315.717 135.663 315.393Z" fill="#E0E0E0"/>
<path d="M166.973 334.851C166.83 334.763 171.728 326.85 177.902 317.176C184.076 307.502 189.216 299.732 189.359 299.82C189.502 299.908 184.604 307.832 178.419 317.506C172.234 327.18 167.116 334.917 166.973 334.851Z" fill="#E0E0E0"/>
<path d="M177.516 384.685C177.821 384.305 178.172 383.964 178.562 383.672L181.522 381.075C184.021 378.874 187.465 375.836 191.141 372.336C194.817 368.836 198.053 365.568 200.364 363.18C201.465 362.079 202.367 361.099 203.104 360.351C203.438 359.982 203.806 359.647 204.205 359.35C203.961 359.77 203.666 360.159 203.325 360.505C202.73 361.221 201.839 362.233 200.716 363.466C198.515 365.942 195.301 369.277 191.604 372.776C187.906 376.276 184.428 379.292 181.853 381.405C180.554 382.505 179.497 383.298 178.749 383.859C178.37 384.179 177.956 384.456 177.516 384.685Z" fill="#E0E0E0"/>
<path d="M145.325 373.316C145.769 373.369 146.206 373.476 146.624 373.635L150.113 374.736C153.04 375.671 157.079 377.003 161.525 378.5C165.972 379.996 169.989 381.405 172.883 382.451L176.306 383.705C176.732 383.839 177.142 384.019 177.528 384.245C177.083 384.199 176.646 384.096 176.229 383.936L172.74 382.836C169.813 381.9 165.774 380.569 161.327 379.061C156.881 377.553 152.864 376.155 149.97 375.121L146.547 373.855C146.117 373.731 145.706 373.55 145.325 373.316Z" fill="#E0E0E0"/>
<path d="M149.046 418.494C149.612 418.579 150.169 418.719 150.708 418.912L155.176 420.277C158.94 421.455 164.123 423.117 169.846 424.998C175.569 426.88 180.731 428.597 184.462 429.885L188.864 431.426C189.412 431.601 189.945 431.818 190.46 432.075C189.89 431.991 189.329 431.851 188.787 431.657L184.319 430.292C180.555 429.115 175.371 427.453 169.648 425.571C163.925 423.689 158.764 421.961 155.044 420.684L150.641 419.132C150.091 418.968 149.557 418.755 149.046 418.494Z" fill="#E0E0E0"/>
<path d="M189.556 431.47C189.944 430.994 190.375 430.556 190.844 430.16L194.487 426.737C197.557 423.843 201.784 419.826 206.329 415.259C210.874 410.691 214.891 406.454 217.775 403.372L221.187 399.719C221.588 399.252 222.026 398.818 222.496 398.42C222.176 398.937 221.807 399.424 221.396 399.873C220.647 400.786 219.525 402.074 218.094 403.659C215.288 406.828 211.326 411.12 206.758 415.688C202.191 420.255 197.954 424.239 194.784 427.057C193.199 428.454 191.912 429.588 190.998 430.358C190.549 430.768 190.067 431.14 189.556 431.47Z" fill="#E0E0E0"/>
<path d="M80.1169 56.7388L69.3754 53.4371C69.3754 53.4371 66.5579 62.4618 57.1371 59.6993C55.3133 59.1971 53.6906 58.1404 52.4938 56.6754C51.2969 55.2104 50.5851 53.4095 50.4567 51.5222C50.3157 49.9305 50.5567 48.3283 51.1597 46.8486C51.7626 45.3689 52.7102 44.0545 53.9235 43.0148C56.6859 40.5715 61.5284 39.0858 68.3629 42.6186L75.9237 18.4062L65.3033 15.1045L60.901 29.2908C60.901 29.2908 44.7888 28.4874 39.6712 44.8968C34.7737 60.6018 47.7163 68.6469 53.7474 70.5289C58.3257 71.9596 74.405 75.7456 80.1169 56.7388Z" fill="#F2F7FF"/>
<path d="M66.7416 10.0647L77.5208 13.4282L80.6614 3.36344L69.8822 -9.90819e-05L66.7416 10.0647Z" fill="#F2F7FF"/>
<path d="M109.755 29.4008L114.058 28.3002C113.927 27.8115 113.895 27.3014 113.965 26.8002C114.035 26.2989 114.204 25.8168 114.464 25.3826C114.724 24.9483 115.068 24.5706 115.477 24.2721C115.886 23.9736 116.35 23.7603 116.843 23.6448C117.56 23.4284 118.326 23.4403 119.036 23.6789C119.746 23.9175 120.364 24.371 120.805 24.9765C121.179 25.4793 121.429 26.0635 121.534 26.6813C121.639 27.2991 121.597 27.933 121.41 28.5313C121.003 29.929 119.693 31.4478 116.656 31.7009L119.22 41.3969L123.468 40.2964L121.971 34.6174C123.582 33.6458 124.829 32.1712 125.519 30.421C126.209 28.6708 126.305 26.7422 125.79 24.9325C124.139 18.6373 118.086 18.6703 115.698 19.2976C113.849 19.7268 107.675 21.8289 109.755 29.4008Z" fill="#F2F7FF"/>
<path d="M124.967 41.7103L120.633 42.8721L121.717 46.9181L126.051 45.7563L124.967 41.7103Z" fill="#F2F7FF"/>
<path d="M465.029 140.788L469.211 142.296C469.386 141.823 469.655 141.389 470 141.021C470.346 140.652 470.762 140.357 471.223 140.152C471.685 139.947 472.183 139.836 472.687 139.826C473.192 139.817 473.694 139.908 474.163 140.095C474.868 140.322 475.485 140.761 475.93 141.352C476.375 141.943 476.627 142.657 476.651 143.397C476.676 144.028 476.552 144.656 476.288 145.23C476.024 145.804 475.628 146.307 475.132 146.698C474.031 147.612 472.061 148.107 469.42 146.588L465.997 156.02L470.135 157.517L472.138 152.014C474.017 152.13 475.881 151.627 477.446 150.581C479.011 149.536 480.189 148.005 480.8 146.225C483.001 140.106 478.037 136.705 475.693 135.858C473.899 135.153 467.626 133.382 465.029 140.788Z" fill="#F2F7FF"/>
<path d="M469.516 159.429L465.315 157.908L463.894 161.83L468.096 163.351L469.516 159.429Z" fill="#F2F7FF"/>
<path d="M21.1928 188.685L29.9973 185.273C29.9973 185.273 27.1359 177.845 34.8068 174.73C36.2749 174.109 37.8996 173.958 39.4568 174.299C41.014 174.64 42.4271 175.456 43.5013 176.634C44.4151 177.613 45.0848 178.795 45.4558 180.082C45.8269 181.369 45.8887 182.725 45.6364 184.041C45.0861 187.1 42.6648 190.644 36.2926 191.866L43.9965 211.819L52.801 208.451L48.2887 196.763C48.2887 196.763 59.2944 188.861 54.1327 175.324C49.1252 162.382 36.3146 163.857 31.3951 165.761C27.5981 167.224 15.0077 173.134 21.1928 188.685Z" fill="#F2F7FF"/>
<path d="M54.4686 212.513L45.5852 215.936L48.7821 224.234L57.6655 220.811L54.4686 212.513Z" fill="#F2F7FF"/>
<path d="M468.473 222.264L462.2 224.674C462.2 224.674 464.225 229.946 458.788 232.147C457.747 232.582 456.597 232.686 455.495 232.446C454.393 232.206 453.391 231.633 452.625 230.804C451.978 230.11 451.504 229.272 451.241 228.36C450.979 227.448 450.937 226.486 451.117 225.554C451.513 223.353 453.23 220.888 457.721 220.052L452.328 205.865L446.121 208.253L449.312 216.541C447.053 218.269 445.425 220.691 444.677 223.435C443.929 226.18 444.104 229.093 445.174 231.728C448.707 240.896 457.754 239.862 461.275 238.508C463.939 237.462 472.853 233.28 468.473 222.264Z" fill="#F2F7FF"/>
<path d="M444.892 205.379L451.188 202.953L448.925 197.079L442.629 199.504L444.892 205.379Z" fill="#F2F7FF"/>
<path d="M486.192 465.631C486.192 465.796 377.402 465.917 243.232 465.917C109.062 465.917 0.249512 465.796 0.249512 465.631C0.249512 465.466 109.018 465.345 243.232 465.345C377.446 465.345 486.192 465.477 486.192 465.631Z" fill="#263238"/>
<path d="M70.0364 437.049C71.137 432.999 68.4186 428.938 65.4471 426.044C62.4755 423.149 58.9207 420.486 57.3689 416.601C54.8596 410.306 58.2274 402.162 53.9572 396.912C51.4369 393.83 46.9246 392.796 44.6904 389.494C43.6574 387.674 42.9743 385.677 42.6764 383.606C40.3016 373.15 35.1585 363.525 27.7858 355.74C27.2888 365.053 29.3074 374.329 33.6298 382.593C35.3576 385.895 37.4927 389.109 38.032 392.796C38.9675 398.772 35.6218 404.902 37.0965 410.801C38.7804 417.514 46.3193 422.016 46.6714 428.927C46.9796 434.771 41.884 439.933 42.2692 445.744C42.5778 448.232 43.4799 450.61 44.8995 452.677C49.4118 460.194 56.0593 465.367 66.1184 465.202L78.4447 465.631L70.0364 437.049Z" fill="#C5DDFF"/>
<g opacity="0.3">
<path opacity="0.3" d="M70.0364 437.049C71.137 432.999 68.4186 428.938 65.4471 426.044C62.4755 423.149 58.9207 420.486 57.3689 416.601C54.8596 410.306 58.2274 402.162 53.9572 396.912C51.4369 393.83 46.9246 392.796 44.6904 389.494C43.6574 387.674 42.9743 385.677 42.6764 383.606C40.3016 373.15 35.1585 363.525 27.7858 355.74C27.2888 365.053 29.3074 374.329 33.6298 382.593C35.3576 385.895 37.4927 389.109 38.032 392.796C38.9675 398.772 35.6218 404.902 37.0965 410.801C38.7804 417.514 46.3193 422.016 46.6714 428.927C46.9796 434.771 41.884 439.933 42.2692 445.744C42.5778 448.232 43.4799 450.61 44.8995 452.677C49.4118 460.194 56.0593 465.367 66.1184 465.202L78.4447 465.631L70.0364 437.049Z" fill="black"/>
</g>
<path d="M80.9321 465.884C82.061 466.058 83.2115 466.036 84.3328 465.818C85.6942 465.611 87.0322 465.272 88.3279 464.806C90.1172 464.183 91.7908 463.268 93.2804 462.098C94.1767 461.377 94.8769 460.443 95.3165 459.38C95.6846 458.189 95.8774 456.95 95.8888 455.704C95.9135 454.371 96.0128 453.041 96.1859 451.72C96.4178 450.313 96.9265 448.966 97.6827 447.758C99.1354 445.204 101.557 442.783 102.327 439.316C103.097 435.85 102.569 432.218 101.997 428.52C101.425 424.822 100.896 420.816 102.283 416.942C103.67 413.068 106.311 409.601 107.665 405.265C109.018 400.929 108.38 396.152 108.666 391.497C108.751 389.132 109.297 386.807 110.273 384.651C111.264 382.45 112.65 380.414 113.729 378.125C115.93 373.481 116.304 368.22 116.899 363.058C117.196 360.461 117.482 357.831 117.779 355.189C117.966 352.519 118.427 349.875 119.155 347.298C119.99 344.701 120.975 342.155 122.104 339.671C122.686 338.387 123.164 337.059 123.535 335.698C123.742 334.29 123.875 332.872 123.931 331.45C124.062 328.603 123.952 325.75 123.601 322.921C123.271 320.081 122.754 317.264 122.445 314.413C122.445 314.237 122.445 314.072 122.445 313.918L122.379 313.357L121.884 313.599C119.282 314.934 117.022 316.851 115.281 319.201C113.573 321.502 112.198 324.032 111.198 326.718C109.14 332.011 108.402 337.558 107.368 342.852C106.333 348.146 105.012 353.351 102.305 357.754C100.951 359.955 99.3115 361.958 97.9028 364.093C96.3731 366.177 95.3278 368.575 94.8432 371.115C94.1058 376.331 96.9783 380.91 96.384 385.532C96.1159 387.796 95.3653 389.977 94.1829 391.926C93.0823 393.896 91.7506 395.723 90.496 397.55C89.2243 399.342 88.1192 401.247 87.1943 403.24C86.3238 405.191 85.8094 407.282 85.6755 409.414C85.3784 413.574 85.9617 417.514 85.6755 421.234C85.3319 424.78 84.2962 428.224 82.627 431.37C81.1412 434.397 79.4793 437.137 78.0926 439.801C77.3993 441.121 76.7499 442.42 76.2217 443.73C75.7218 444.987 75.353 446.293 75.1211 447.626C74.7528 449.953 74.7231 452.322 75.0331 454.658C75.3564 457.916 76.5754 461.021 78.5549 463.628C78.8575 464.022 79.1925 464.39 79.5564 464.729C79.7994 464.984 80.0687 465.212 80.3598 465.411C80.822 465.752 81.0642 465.906 81.0642 465.906C80.1843 465.211 79.3835 464.421 78.6759 463.551C76.7864 460.934 75.645 457.852 75.3742 454.636C75.094 452.33 75.1459 449.995 75.5283 447.703C75.7601 446.402 76.129 445.129 76.6289 443.906C77.1865 442.582 77.8148 441.289 78.5108 440.032C79.9086 437.39 81.5814 434.661 83.1002 431.613C84.8192 428.416 85.889 424.912 86.2478 421.3C86.578 417.503 86.0057 413.541 86.3138 409.491C86.4556 407.428 86.9585 405.405 87.7996 403.515C88.7302 401.563 89.8353 399.699 91.1013 397.946C92.3559 396.119 93.6876 394.292 94.8322 392.278C96.0884 390.255 96.8919 387.983 97.1874 385.62C97.7817 380.7 94.9313 376.1 95.6686 371.247C96.151 368.819 97.1618 366.527 98.6292 364.533C100.027 362.431 101.678 360.428 103.031 358.172C105.838 353.649 107.192 348.344 108.215 343.028C109.239 337.712 109.998 332.21 112.023 327.015C112.997 324.404 114.335 321.944 115.996 319.707C117.671 317.452 119.845 315.614 122.346 314.336L121.785 314.017C121.785 314.182 121.785 314.347 121.84 314.524C122.148 317.407 122.665 320.224 122.941 323.042C123.288 325.827 123.395 328.636 123.26 331.439C123.204 332.817 123.079 334.19 122.886 335.555C122.53 336.872 122.066 338.156 121.499 339.396C120.363 341.906 119.371 344.478 118.527 347.1C117.794 349.717 117.329 352.401 117.141 355.112C116.855 357.765 116.557 360.395 116.271 362.992C115.677 368.176 115.292 373.349 113.19 377.828C112.089 380.029 110.768 382.131 109.745 384.376C108.738 386.612 108.177 389.024 108.094 391.475C107.819 396.229 108.435 400.885 107.148 405.089C105.86 409.293 103.185 412.793 101.832 416.766C100.478 420.739 100.973 424.943 101.568 428.63C102.162 432.317 102.756 435.949 101.964 439.217C101.171 442.486 98.9043 444.929 97.4295 447.549C96.652 448.81 96.1321 450.213 95.8998 451.676C95.7335 453.012 95.6453 454.357 95.6356 455.704C95.6374 456.919 95.4594 458.128 95.1074 459.292C94.6997 460.3 94.0449 461.189 93.2034 461.878C91.7537 463.047 90.1213 463.969 88.3719 464.607C87.0933 465.1 85.7702 465.469 84.4209 465.708C83.5963 465.858 82.7606 465.939 81.9226 465.95C81.2292 465.884 80.9321 465.884 80.9321 465.884Z" fill="#263238"/>
<path d="M119.87 320.72C119.811 320.838 119.77 320.964 119.749 321.094L119.484 322.195C119.242 323.174 118.945 324.638 118.483 326.465C118.021 328.292 116.887 330.361 115.93 332.903C114.808 335.765 113.831 338.682 113.002 341.642C112.056 344.944 111.23 348.575 110.35 352.493C109.601 356.667 108.275 360.715 106.41 364.523C105.397 366.526 104.209 368.551 103.361 370.774C102.472 373.044 101.877 375.419 101.589 377.839C100.963 382.854 100.074 387.831 98.9259 392.752C96.4606 402.844 94.1054 412.463 91.9593 421.224C89.8132 429.984 87.7882 437.82 86.1153 444.446C84.4424 451.071 83.1768 456.354 82.2523 460.129C81.8231 461.934 81.4819 463.353 81.2398 464.399C81.1408 464.85 81.0527 465.213 80.9867 465.499C80.9745 465.628 80.9745 465.756 80.9867 465.885C81.0506 465.771 81.0987 465.648 81.1297 465.521C81.2068 465.224 81.3168 464.872 81.4489 464.421C81.7241 463.397 82.1092 461.978 82.6045 460.184C83.595 456.442 84.9927 451.126 86.7206 444.578C88.4485 438.029 90.4625 430.105 92.7187 421.4C94.9748 412.694 97.264 403.009 99.7513 392.906C100.892 387.972 101.759 382.979 102.349 377.95C102.63 375.587 103.207 373.268 104.065 371.049C104.935 368.848 106.047 366.878 107.059 364.853C109.26 360.836 110.13 356.522 110.999 352.637C111.868 348.752 112.639 345.076 113.541 341.796C114.444 338.516 115.39 335.589 116.337 333.058C117.283 330.526 118.329 328.435 118.78 326.542C119.231 324.649 119.44 323.241 119.638 322.228C119.712 321.773 119.778 321.406 119.837 321.127C119.87 320.852 119.892 320.72 119.87 320.72Z" fill="#263238"/>
<path d="M83.1109 465.939C91.1561 461.152 93.4672 446.624 90.1105 437.886C86.7538 429.148 80.8768 421.157 79.9743 411.836C79.27 404.671 81.6252 397.319 79.9743 390.32C77.7182 380.866 68.4954 373.547 68.6055 363.829C68.6605 358.381 71.7641 353.253 71.511 347.805C71.2138 341.135 66.0852 335.831 62.9156 329.954C58.0511 320.94 57.7319 310.298 56.0701 300.238C54.4082 290.179 50.5673 279.328 41.6087 274.364C40.288 282.938 38.0318 288.815 38.7362 300.426C39.0003 304.597 43.8428 312.532 44.5032 321.722C44.8994 327.224 45.1635 332.661 45.5047 338.12C45.8458 343.579 46.176 348.861 48.08 353.836C49.5437 357.655 51.8879 361.122 52.9775 365.062C55.0135 372.469 52.3282 380.47 53.979 387.997C55.3767 394.359 59.779 399.829 60.6814 406.278C61.9361 415.335 56.0811 424.756 59.0746 433.396C60.5714 437.688 64.0932 441.1 65.0947 445.557C65.8761 448.991 65.0287 452.634 65.733 456.078C66.8336 461.647 77.465 465.983 83.1329 465.62" fill="#C5DDFF"/>
<path d="M43.8096 282.828C43.7946 282.989 43.7946 283.151 43.8096 283.312C43.8096 283.675 43.9197 284.137 43.9857 284.721C44.1728 285.964 44.3819 287.78 44.8001 290.135C45.2183 292.491 46.473 295.154 47.4415 298.368C48.41 301.581 49.4885 305.257 50.391 309.373C51.2934 313.489 52.0858 318.079 52.8893 322.998C53.6927 327.918 54.5731 333.277 57.0164 338.406C58.1169 340.97 59.4156 343.546 60.3181 346.297C61.2428 349.113 61.8121 352.034 62.0129 354.992C62.4629 361.266 63.2528 367.512 64.3791 373.701C66.8444 386.402 69.1886 398.497 71.3237 409.514C73.4588 420.53 75.6049 430.358 77.3218 438.678C79.0387 446.999 80.4474 453.646 81.4269 458.335L82.5274 463.672C82.6595 464.245 82.7586 464.696 82.8466 465.048C82.8764 465.209 82.9206 465.368 82.9787 465.521C82.9982 465.36 82.9982 465.198 82.9787 465.037C82.9126 464.674 82.8356 464.223 82.7366 463.639C82.4944 462.363 82.1533 460.558 81.724 458.269C80.7996 453.569 79.5229 446.856 77.8611 438.568C76.1992 430.281 74.2292 420.343 72.0391 409.37C69.8489 398.398 67.6368 386.259 65.1605 373.569C64.0335 367.38 63.2399 361.134 62.7833 354.86C62.5739 351.841 61.986 348.861 61.0334 345.989C60.0539 343.194 58.7663 340.607 57.6327 338.054C55.2115 333.002 54.331 327.731 53.4946 322.833C52.6581 317.936 51.8547 313.335 50.8972 309.197C49.9397 305.059 48.8942 301.361 47.8157 298.192C46.7371 295.022 45.5375 292.336 45.0532 290.036C44.569 287.736 44.3379 285.887 44.1068 284.666C43.9967 284.093 43.9087 283.631 43.8426 283.268C43.8403 283.121 43.8293 282.974 43.8096 282.828Z" fill="#263238"/>
<path d="M415.525 41.1684H419.927C419.924 40.6691 420.021 40.1743 420.213 39.7132C420.405 39.2522 420.687 38.8343 421.043 38.4843C421.399 38.1343 421.822 37.8594 422.286 37.6758C422.751 37.4922 423.247 37.4037 423.746 37.4155C424.483 37.3891 425.21 37.5933 425.826 37.9997C426.441 38.4061 426.915 38.9944 427.18 39.6827C427.412 40.2558 427.505 40.8756 427.451 41.4916C427.398 42.1075 427.199 42.702 426.872 43.2265C426.124 44.4591 424.495 45.5707 421.545 45.0534V54.9585H425.87V49.1695C427.645 48.647 429.2 47.5566 430.295 46.0655C431.391 44.5745 431.966 42.7652 431.935 40.9153C431.935 34.51 426.19 33.0243 423.724 33.0243C421.842 32.9802 415.437 33.4315 415.525 41.1684Z" fill="#1565D8"/>
<path d="M425.904 56.9614H421.513V61.0665H425.904V56.9614Z" fill="#1565D8"/>
<path d="M455.938 47.0647C455.952 46.8779 455.952 46.6903 455.938 46.5035C455.938 46.1073 455.938 45.568 455.938 44.8746C455.938 44.5224 455.938 44.1152 455.883 43.675C455.828 43.2348 455.762 42.7505 455.685 42.2443C455.608 41.738 455.531 41.1437 455.443 40.5604L454.98 38.6894C454.163 35.4674 452.824 32.4005 451.018 29.6098C448.396 25.4769 444.86 22.0005 440.684 19.4477C436.507 16.8949 431.801 15.3338 426.927 14.8842C425.463 14.755 423.992 14.7256 422.525 14.7962C421.787 14.7962 421.028 14.7962 420.324 14.9393L418.056 15.2805C414.946 15.8586 411.935 16.8855 409.12 18.329C406.18 19.8844 403.479 21.8524 401.097 24.173C398.658 26.6447 396.619 29.4815 395.055 32.5813C393.371 35.777 392.268 39.2463 391.797 42.8276C391.659 43.7349 391.582 44.6504 391.566 45.568C391.492 46.4869 391.474 47.4093 391.511 48.3304C391.75 54.2343 393.596 59.9611 396.849 64.8939V64.5527C395.319 68.3717 393.811 72.1246 392.336 75.7785L392.072 76.4498L392.765 76.2517L404.762 72.95L404.475 72.884C408.516 75.9426 413.222 78.0017 418.211 78.8931C420.524 79.3244 422.883 79.4685 425.232 79.3223C426.365 79.3054 427.495 79.1987 428.611 79.0031L430.251 78.75C430.79 78.6509 431.351 78.4858 431.835 78.3648C439.228 76.4915 445.712 72.0477 450.127 65.8294C451.773 63.5385 453.096 61.0312 454.056 58.3785C454.265 57.7952 454.463 57.278 454.65 56.7057C454.837 56.1334 454.936 55.6051 455.057 55.1099C455.178 54.6146 455.311 54.1083 455.421 53.6461C455.531 53.1839 455.564 52.7326 455.63 52.3034C455.729 51.456 455.883 50.7076 455.916 50.1023C455.949 49.497 455.916 48.9137 455.916 48.4514C455.916 47.9892 455.916 47.7031 455.916 47.4499C455.916 47.1968 455.916 47.1088 455.916 47.1088C455.899 47.2219 455.899 47.3368 455.916 47.4499C455.916 47.7031 455.916 48.0332 455.839 48.4514C455.762 48.8697 455.773 49.453 455.729 50.0913C455.685 50.7296 455.52 51.478 455.388 52.2924C454.338 58.3836 451.542 64.0389 447.34 68.5715C443.137 73.1041 437.709 76.3189 431.714 77.8255C431.197 77.9466 430.68 78.1006 430.152 78.1997L428.534 78.4418C427.442 78.624 426.339 78.7234 425.232 78.739C422.926 78.8605 420.613 78.7091 418.343 78.2877C413.471 77.3912 408.876 75.3673 404.927 72.3777L404.795 72.2677H404.63L392.622 75.5693L393.041 76.0426L397.564 64.8278L397.63 64.6518L397.531 64.4867C395.364 61.2078 393.826 57.554 392.997 53.7121C392.617 51.9297 392.388 50.1183 392.314 48.2974C392.277 47.3983 392.296 46.4978 392.369 45.601C392.376 44.7053 392.45 43.8114 392.589 42.9266C393.012 39.4293 394.052 36.0346 395.66 32.9005C397.19 29.8711 399.175 27.0947 401.548 24.6683C403.879 22.39 406.525 20.4589 409.406 18.9343C412.159 17.5025 415.107 16.4828 418.155 15.9078L420.357 15.5666C421.094 15.4565 421.831 15.4675 422.558 15.4125C423.992 15.3443 425.43 15.37 426.861 15.4896C431.655 15.9092 436.291 17.4158 440.415 19.8949C444.54 22.374 448.046 25.7604 450.666 29.7969C452.482 32.5389 453.843 35.5568 454.694 38.7335L455.189 40.5824C455.289 41.1657 455.377 41.683 455.465 42.2333C455.553 42.7835 455.619 43.2238 455.696 43.664C455.773 44.1042 455.751 44.5004 455.784 44.8526C455.784 45.535 455.872 46.0742 455.905 46.4704C455.884 46.669 455.895 46.8697 455.938 47.0647Z" fill="#263238"/>
<path d="M127.739 176.854H191.296C191.296 176.854 191.296 123.488 246.754 122.541C275.556 122.035 290.49 140.91 296.565 155.36C303.609 172.144 301.474 191.271 292.031 206.844C281.257 224.619 258.035 242.481 215.201 234.931L214.793 376.54H277.647V292.589C277.647 292.589 365.791 269.808 365.791 172.628C365.791 79.6853 290.633 59.611 250.232 58.3123C227.758 57.597 219.614 56.6285 191.814 60.5795C156.386 65.6421 126.99 106.781 127.739 176.854Z" fill="#70ABFF"/>
<path d="M278.406 406.058H214.617V465.631H278.406V406.058Z" fill="#70ABFF"/>
<path opacity="0.1" d="M278.406 406.058H214.617V465.631H278.406V406.058Z" fill="black"/>
<path opacity="0.1" d="M127.739 176.854H191.296C191.296 176.854 191.296 123.488 246.754 122.541C275.556 122.035 290.49 140.91 296.565 155.36C303.609 172.144 301.474 191.271 292.031 206.844C281.257 224.619 258.035 242.481 215.201 234.931L214.793 376.54H277.647V292.589C277.647 292.589 365.791 269.808 365.791 172.628C365.791 79.6853 290.633 59.611 250.232 58.3123C227.758 57.597 219.614 56.6285 191.814 60.5795C156.386 65.6421 126.99 106.781 127.739 176.854Z" fill="black"/>
<path d="M101.402 176.854H164.971C164.971 176.854 164.971 123.488 220.428 122.542C249.23 122.035 264.165 140.91 270.229 155.36C277.283 172.144 275.148 191.272 265.705 206.845C254.931 224.619 231.302 240.775 188.468 233.258V376.541H251.321V292.59C251.321 292.59 339.465 269.808 339.465 172.628C339.465 79.6856 256.108 58.1035 220.439 58.1035C193.156 58.1365 100.203 64.7289 101.402 176.854Z" fill="#70ABFF"/>
<path opacity="0.3" d="M101.402 176.854H164.971C164.971 176.854 164.971 123.488 220.428 122.542C249.23 122.035 264.165 140.91 270.229 155.36C277.283 172.144 275.148 191.272 265.705 206.845C254.931 224.619 231.302 240.775 188.468 233.258V376.541H251.321V292.59C251.321 292.59 339.465 269.808 339.465 172.628C339.465 79.6856 256.108 58.1035 220.439 58.1035C193.156 58.1365 100.203 64.7289 101.402 176.854Z" fill="black"/>
<path d="M252.08 406.058H188.292V465.631H252.08V406.058Z" fill="#70ABFF"/>
<path opacity="0.3" d="M252.08 406.058H188.292V465.631H252.08V406.058Z" fill="black"/>
<path d="M227.604 122.827C227.289 122.855 226.972 122.855 226.657 122.827C226.03 122.827 225.128 122.618 223.95 122.607C220.62 122.444 217.283 122.584 213.979 123.026C209.079 123.646 204.258 124.778 199.594 126.404C196.845 127.365 194.168 128.52 191.582 129.86C188.787 131.257 186.156 132.958 183.735 134.934C181.331 136.927 179.177 139.203 177.319 141.713C175.558 144.034 173.951 146.467 172.51 148.999C170.103 153.31 168.194 157.881 166.82 162.624C165.888 165.825 165.247 169.103 164.905 172.419C164.773 173.585 164.74 174.51 164.707 175.126C164.707 175.444 164.678 175.761 164.618 176.073C164.59 175.758 164.59 175.441 164.618 175.126C164.618 174.499 164.618 173.574 164.718 172.397C164.971 169.045 165.557 165.727 166.467 162.492C167.791 157.694 169.675 153.069 172.08 148.713C173.525 146.153 175.139 143.694 176.912 141.35C178.785 138.799 180.966 136.489 183.405 134.471C185.855 132.469 188.52 130.745 191.351 129.332C193.953 127.967 196.649 126.79 199.418 125.81C204.124 124.19 208.991 123.083 213.935 122.508C217.261 122.1 220.619 122.022 223.961 122.277C224.869 122.335 225.773 122.445 226.668 122.607C226.985 122.659 227.297 122.732 227.604 122.827Z" fill="#263238"/>
<path d="M323.374 111.503C323.374 111.503 323.297 111.426 323.165 111.261C323.033 111.095 322.835 110.809 322.615 110.49L320.513 107.519C320.061 106.88 319.577 106.143 319.005 105.384L317.024 102.973L314.757 100.189C313.931 99.2204 312.963 98.2849 311.994 97.2614C311.026 96.2379 310.035 95.1483 308.913 94.1028C307.79 93.0573 306.591 91.9897 305.358 90.8891C304.742 90.3389 304.136 89.7886 303.476 89.2053L301.429 87.5874C300.031 86.4869 298.644 85.3863 297.137 84.2858C290.565 79.5838 283.594 75.4666 276.303 71.9814L270.503 69.3621L264.747 67.161C262.865 66.3796 260.95 65.8293 259.101 65.213C257.252 64.5967 255.447 63.9693 253.598 63.5401L248.338 62.1644C246.632 61.7132 244.937 61.438 243.319 61.0639C241.701 60.6897 240.139 60.3595 238.609 60.1724L234.206 59.5341C231.422 59.0608 228.869 58.9618 226.646 58.7417C225.545 58.6536 224.444 58.5326 223.531 58.4885L220.912 58.4225L217.28 58.3014H216.333H216.014C216.12 58.2849 216.228 58.2849 216.333 58.3014H217.28H220.912H223.542C224.5 58.3014 225.545 58.4335 226.668 58.5105C228.869 58.6976 231.466 58.7747 234.251 59.2259L238.653 59.8202C240.183 59.9963 241.745 60.3925 243.374 60.6897C245.003 60.9868 246.676 61.295 248.426 61.7902L253.708 63.1549C255.535 63.5731 257.34 64.2555 259.211 64.8168C261.082 65.3781 262.986 65.9173 264.868 66.7538L270.657 68.9549L276.49 71.5853C283.819 75.0783 290.818 79.2259 297.401 83.9776C298.92 85.0782 300.306 86.2558 301.704 87.3453L303.751 88.8311C304.411 89.3814 305.017 89.9317 305.633 90.526L309.177 93.8276C310.277 94.9282 311.268 96.0288 312.247 97.0303C313.227 98.0318 314.162 99.0113 314.988 99.9908L317.189 102.797L319.148 105.24C319.709 106.011 320.183 106.759 320.623 107.442C321.481 108.729 322.153 109.742 322.626 110.468L323.143 111.272C323.23 111.338 323.307 111.416 323.374 111.503Z" fill="#263238"/>
<path d="M316.75 247.973C316.619 248.211 316.46 248.433 316.277 248.633L314.758 250.427C314.131 251.23 313.338 252.188 312.359 253.255C311.379 254.323 310.334 255.578 309.057 256.876C307.781 258.175 306.416 259.628 304.864 261.091C303.312 262.555 301.628 264.096 299.834 265.703C291.966 272.57 283.341 278.519 274.125 283.433C271.99 284.533 269.976 285.634 268.028 286.481C266.08 287.329 264.264 288.198 262.591 288.903C260.919 289.607 259.378 290.19 258.035 290.708C256.692 291.225 255.515 291.643 254.546 291.951L252.345 292.667C252.09 292.768 251.824 292.842 251.553 292.887C251.79 292.751 252.041 292.64 252.301 292.557L254.502 291.742C255.46 291.401 256.615 290.961 257.947 290.41C259.279 289.86 260.819 289.31 262.47 288.528C264.121 287.747 265.948 287.01 267.852 286.052C269.756 285.095 271.792 284.082 273.916 282.971C278.109 280.659 282.633 277.952 287.2 274.826C291.767 271.701 295.872 268.41 299.526 265.307C301.32 263.722 303.037 262.236 304.567 260.739C306.097 259.242 307.527 257.889 308.793 256.59C310.059 255.291 311.17 254.092 312.161 253.035C313.151 251.979 313.966 251.054 314.626 250.284L316.167 248.534C316.346 248.331 316.541 248.144 316.75 247.973Z" fill="#263238"/>
<path d="M250.209 371.544C250.044 371.544 249.912 353.869 249.912 332.066C249.912 310.264 250.044 292.578 250.209 292.578C250.374 292.578 250.495 310.253 250.495 332.066C250.495 353.88 250.363 371.544 250.209 371.544Z" fill="#263238"/>
<path d="M252.631 461.592C252.466 461.592 252.344 449.189 252.344 433.891C252.344 418.593 252.466 406.179 252.631 406.179C252.796 406.179 252.917 418.582 252.917 433.891C252.917 449.2 252.785 461.592 252.631 461.592Z" fill="#263238"/>
<path d="M315.198 168.413C314.098 170.614 318.203 172.419 320.569 173.134C322.983 173.727 325.482 173.898 327.954 173.64C331.256 173.464 334.634 173.156 337.485 171.527C339.981 169.981 341.976 167.745 343.23 165.089C344.466 162.442 345.442 159.681 346.146 156.846C346.146 156.846 320.14 158.541 315.198 168.413Z" fill="#7FB3FF"/>
<g opacity="0.4">
<path opacity="0.4" d="M315.198 168.413C314.098 170.614 318.203 172.419 320.569 173.134C322.983 173.727 325.482 173.898 327.954 173.64C331.256 173.464 334.634 173.156 337.485 171.527C339.981 169.981 341.976 167.745 343.23 165.089C344.466 162.442 345.442 159.681 346.146 156.846C346.146 156.846 320.14 158.541 315.198 168.413Z" fill="black"/>
</g>
<path d="M388.65 161.369C392.937 164.41 398.075 166.02 403.331 165.969C405.851 166.11 408.335 165.327 410.32 163.768C411.167 162.987 411.806 161.996 412.675 161.248C413.269 160.742 413.963 160.356 414.524 159.817C414.82 159.562 415.049 159.238 415.189 158.873C415.329 158.508 415.377 158.114 415.327 157.726C415.11 156.77 414.575 155.917 413.809 155.305C410.826 153.61 407.26 153.676 403.826 153.753C400.39 153.902 396.995 154.566 393.756 155.723C391.093 156.626 388.309 157.924 386.955 160.345" fill="#7FB3FF"/>
<g opacity="0.4">
<path opacity="0.4" d="M415.327 157.726C414.938 156.798 414.253 156.024 413.379 155.525C410.397 153.83 407.26 153.676 403.826 153.753C400.39 153.902 396.995 154.566 393.756 155.723C391.093 156.626 388.309 157.924 386.955 160.346L388.65 161.369C392.937 164.41 398.075 166.02 403.331 165.97C405.851 166.11 408.335 165.327 410.32 163.768C411.167 162.987 411.806 161.997 412.675 161.248C413.269 160.742 413.963 160.357 414.524 159.817C414.82 159.562 415.049 159.238 415.189 158.873C415.329 158.508 415.377 158.114 415.327 157.726Z" fill="black"/>
</g>
<path d="M337.87 200.868L392.733 201.594C392.845 201.594 392.955 201.568 393.054 201.517C393.154 201.467 393.241 201.394 393.307 201.304C393.373 201.214 393.418 201.11 393.436 201C393.455 200.89 393.448 200.777 393.415 200.67L386.977 180.596C386.977 180.596 387.924 170.559 389.233 158.496C391.225 140.172 393.878 117.137 393.911 117.203C390.158 106.682 368.014 104.899 368.014 104.899L342.778 106.396L341.898 104.91L334.634 108.289C333.05 109.026 331.527 109.887 330.078 110.864C325.28 114.067 313.724 121.429 311.611 129.629C306.735 148.613 314.989 169.799 314.989 169.799L320.294 165.65C321.63 164.62 323.035 163.683 324.498 162.844L335.13 191.337C334.497 191.736 333.961 192.271 333.561 192.903C333.161 193.535 332.908 194.249 332.818 194.991C332.73 197.302 333.919 200.076 337.87 200.868Z" fill="#7FB3FF"/>
<g opacity="0.3">
<path opacity="0.3" d="M361.411 167.279C363.15 157.924 362.237 148.305 361.301 138.84C358.264 146.544 358.374 155.349 355.149 162.987C354.754 163.793 354.465 164.648 354.291 165.529C354.207 165.971 354.229 166.428 354.355 166.86C354.481 167.292 354.708 167.689 355.017 168.016C355.898 168.82 357.218 168.379 358.385 168.247C359.429 168.048 360.445 167.723 361.411 167.279Z" fill="black"/>
</g>
<g opacity="0.4">
<path opacity="0.4" d="M341.171 188.938C345.573 190.468 350.262 187.617 354.917 187.111C357.999 186.781 361.08 187.485 364.14 187.981C370.327 188.981 376.621 189.137 382.849 188.443C383.805 188.39 384.741 188.147 385.601 187.727C386.045 187.424 386.409 187.017 386.66 186.542C386.912 186.066 387.043 185.536 387.043 184.998C376.675 183.897 366.319 183.303 355.952 182.236C353.371 181.795 350.728 181.881 348.182 182.489C345.056 183.457 342.679 185.912 340.478 188.344" fill="black"/>
</g>
<path d="M413.743 154.116C409.264 144.024 393.471 116.114 393.471 116.114L381.243 131.445L384.094 161.545C384.094 161.545 390.554 154.336 408.614 154.193C409.927 154.246 411.211 154.591 412.373 155.204C413.534 155.818 414.544 156.683 415.328 157.737L413.743 154.116Z" fill="#7FB3FF"/>
<path d="M340.325 148.779C339.452 146.639 338.76 144.43 338.256 142.175C337.572 139.979 337.071 137.73 336.759 135.451C337.618 137.594 338.306 139.802 338.817 142.054C339.501 144.251 340.005 146.5 340.325 148.779Z" fill="#263238"/>
<path d="M380.319 129.409C380.717 129.69 381.086 130.011 381.419 130.366C382.392 131.305 383.303 132.305 384.149 133.36C386.994 136.838 388.995 140.93 389.993 145.312C390.511 147.734 390.626 150.226 390.334 152.686C390.059 154.942 389.629 156.923 389.343 158.596C389.057 160.268 388.881 161.633 388.793 162.58C388.791 163.072 388.739 163.562 388.639 164.043C388.561 163.552 388.539 163.054 388.573 162.558C388.621 161.209 388.746 159.864 388.947 158.53C389.178 156.846 389.563 154.843 389.817 152.631C390.071 150.226 389.941 147.796 389.431 145.433C388.446 141.132 386.534 137.099 383.829 133.613C381.815 130.905 380.231 129.497 380.319 129.409Z" fill="#263238"/>
<path d="M369.115 198.447C368.733 198.617 368.329 198.736 367.916 198.799C367.445 198.923 366.967 199.015 366.485 199.074C365.924 199.151 365.285 199.272 364.57 199.305C362.893 199.459 361.206 199.459 359.529 199.305C357.478 199.094 355.451 198.689 353.476 198.095C351.511 197.463 349.61 196.649 347.797 195.662C346.328 194.842 344.932 193.896 343.626 192.834C343.054 192.394 342.592 191.931 342.173 191.546C341.813 191.221 341.471 190.876 341.15 190.512C340.844 190.228 340.581 189.902 340.368 189.543C340.445 189.466 341.623 190.787 343.879 192.515C345.197 193.518 346.592 194.415 348.05 195.2C349.843 196.142 351.713 196.926 353.641 197.544C355.582 198.129 357.571 198.542 359.584 198.777C361.229 198.954 362.884 199.005 364.537 198.931C367.365 198.777 369.093 198.359 369.115 198.447Z" fill="#263238"/>
<path d="M386.052 192.196C386.311 192.694 386.458 193.242 386.482 193.803C386.657 195.144 386.556 196.508 386.184 197.809C385.806 199.14 385.04 200.327 383.983 201.22C383.18 201.892 382.564 202.101 382.531 202.046C382.498 201.991 383.015 201.628 383.708 200.945C384.598 200.017 385.245 198.883 385.59 197.644C386.471 194.738 385.843 192.207 386.052 192.196Z" fill="#263238"/>
<path d="M383.07 196.07C383.309 197.202 383.213 198.379 382.795 199.457C382.377 200.536 381.654 201.47 380.715 202.145C380.594 202.024 381.617 200.934 382.256 199.25C382.894 197.567 382.905 196.081 383.07 196.07Z" fill="#263238"/>
<path d="M373.253 159.861C372.67 160.847 372.015 161.789 371.294 162.679C370.725 163.673 370.081 164.622 369.368 165.518C369.579 164.357 370.079 163.267 370.82 162.349C371.407 161.327 372.244 160.471 373.253 159.861Z" fill="#263238"/>
<path d="M335.592 133.206C334.753 132.713 333.941 132.177 333.159 131.599C329.245 129.027 324.803 127.369 320.162 126.745C319.19 126.675 318.224 126.546 317.267 126.36C318.242 126.226 319.231 126.226 320.206 126.36C324.974 126.767 329.54 128.468 333.413 131.28C334.225 131.818 334.958 132.466 335.592 133.206Z" fill="#263238"/>
<path d="M393.47 115.75C391.5 117.337 389.66 119.077 387.967 120.956C386.408 122.961 385.014 125.089 383.796 127.317C383.926 126.568 384.183 125.846 384.556 125.182C385.352 123.532 386.35 121.987 387.527 120.582C388.707 119.18 390.061 117.934 391.555 116.873C392.124 116.391 392.772 116.012 393.47 115.75Z" fill="#263238"/>
<path d="M370.821 106.682C370.921 106.841 371.002 107.011 371.063 107.188C371.278 107.687 371.451 108.202 371.58 108.729C372.044 110.69 372.044 112.733 371.58 114.694C370.896 117.622 369.328 120.269 367.09 122.277C364.265 124.67 360.666 125.953 356.965 125.887C353.26 125.9 349.651 124.715 346.675 122.508C344.303 120.698 342.379 118.367 341.051 115.696C340.156 113.907 339.526 111.998 339.18 110.028C339.079 109.497 339.013 108.96 338.982 108.421C338.951 108.232 338.951 108.038 338.982 107.849C338.982 107.849 339.103 108.619 339.411 109.984C339.839 111.898 340.516 113.748 341.425 115.487C342.768 118.077 344.674 120.334 347.005 122.09C349.873 124.214 353.342 125.37 356.91 125.392C360.477 125.457 363.95 124.239 366.694 121.958C368.856 120.023 370.389 117.486 371.096 114.672C371.586 112.773 371.653 110.789 371.294 108.861C371.085 107.409 370.755 106.704 370.821 106.682Z" fill="#263238"/>
<g opacity="0.3">
<path opacity="0.3" d="M374.672 161.809C374.672 161.259 374.584 160.61 374.1 160.335C373.947 160.257 373.777 160.217 373.605 160.217C373.433 160.217 373.263 160.257 373.11 160.335C372.802 160.501 372.529 160.725 372.306 160.995C371.012 162.341 370.012 163.941 369.368 165.694L374.76 165.221C374.727 164.109 374.705 162.943 374.672 161.809Z" fill="black"/>
</g>
<g opacity="0.3">
<path opacity="0.3" d="M392.579 150.462C392.037 147.376 390.685 144.49 388.661 142.098C390.994 149.714 390.213 154.017 388.903 159.234L389.189 158.508C390.697 155.459 392.986 153.544 392.579 150.462Z" fill="black"/>
</g>
<path d="M381.804 406.3L378.514 455.66L357.053 455.407L353.674 404.087L381.804 406.3Z" fill="#FFBE9D"/>
<path d="M379.119 449.167V450.597C379.119 450.597 403.332 460.326 403.563 464.905L355.479 464.641L356.227 448.649C363.392 452.006 370.887 452.424 379.119 449.167Z" fill="#7FB3FF"/>
<path d="M361.102 453.778C360.646 453.916 360.255 454.216 360.004 454.621C359.753 455.026 359.658 455.509 359.738 455.979C359.855 456.448 360.15 456.854 360.561 457.111C360.971 457.367 361.465 457.455 361.939 457.355C362.428 457.208 362.846 456.885 363.111 456.448C363.375 456.01 363.467 455.49 363.369 454.988C363.195 454.513 362.842 454.124 362.386 453.905C361.93 453.685 361.407 453.651 360.926 453.811" fill="white"/>
<path d="M355.479 464.64L355.655 460.799L401.703 462.472C401.703 462.472 403.838 463.419 403.585 464.915L355.479 464.64Z" fill="#263238"/>
<path d="M379.295 450.729C379.295 450.96 378.106 451.06 376.951 451.83C375.795 452.6 375.168 453.558 374.959 453.47C374.749 453.382 375.102 452.017 376.521 451.137C377.941 450.256 379.35 450.476 379.295 450.729Z" fill="#263238"/>
<path d="M384.325 452.843C384.38 453.074 383.356 453.459 382.553 454.449C381.749 455.44 381.518 456.485 381.276 456.474C381.034 456.463 380.902 455.132 381.925 453.932C382.949 452.732 384.314 452.677 384.325 452.843Z" fill="#263238"/>
<path d="M387.153 458.895C386.933 458.895 386.614 457.795 387.23 456.485C387.847 455.175 388.936 454.702 389.035 454.889C389.134 455.076 388.452 455.77 387.935 456.837C387.417 457.905 387.395 458.873 387.153 458.895Z" fill="#263238"/>
<path d="M377.886 45.3035C379.13 42.2219 377.622 38.491 374.948 36.499C372.129 34.6436 368.692 33.9752 365.384 34.6391C362.12 35.3234 358.96 36.4335 355.985 37.9407C354.602 36.5456 352.858 35.5625 350.948 35.101C349.039 34.6396 347.038 34.7181 345.17 35.3277C343.303 35.9374 341.641 37.0541 340.372 38.5533C339.102 40.0525 338.274 41.8752 337.98 43.8178C336.79 43.5182 335.541 43.5484 334.367 43.905C333.193 44.2615 332.138 44.9311 331.315 45.8417C330.493 46.7524 329.934 47.8698 329.699 49.074C329.463 50.2783 329.56 51.5239 329.979 52.6773L344.858 57.905L361.103 86.5196C363.504 88.5678 366.567 89.6727 369.723 89.6279C372.878 89.5832 375.91 88.3921 378.251 86.2767C380.593 84.1613 382.085 81.2661 382.45 78.1315C382.814 74.9968 382.025 71.8367 380.231 69.2408C381.141 68.4314 381.914 67.4799 382.52 66.4233C383.818 65.6557 384.95 64.6377 385.852 63.4285C386.753 62.2193 387.405 60.8431 387.769 59.3797C389.211 53.0075 384.281 46.0519 377.886 45.3035Z" fill="#263238"/>
<path d="M368.036 104.899C367.112 100.244 366.474 97.0522 366.485 97.0852C366.496 97.1182 375.289 93.6735 374.651 81.4242C374.343 75.3271 372.02 65.7192 369.863 57.9272C367.926 50.9056 361.378 43.1686 354.455 45.4028L333.468 55.638C331.366 56.3203 331.002 58.3014 331.498 60.4475V61.548L339.653 95.2913L343.098 110.369C343.832 113.465 345.699 116.174 348.33 117.962C350.962 119.751 354.168 120.489 357.317 120.032C359.037 119.79 360.689 119.199 362.172 118.296C363.655 117.393 364.938 116.196 365.942 114.778C366.945 113.361 367.649 111.754 368.009 110.055C368.369 108.356 368.379 106.602 368.036 104.899Z" fill="#FFBE9D"/>
<path d="M369.786 66.071C369.874 66.4615 369.809 66.871 369.604 67.215C369.399 67.5591 369.07 67.8114 368.685 67.9199C368.491 67.9742 368.287 67.9886 368.087 67.9623C367.887 67.9359 367.694 67.8693 367.52 67.7665C367.346 67.6637 367.195 67.5267 367.076 67.364C366.956 67.2012 366.871 67.016 366.825 66.8194C366.737 66.4303 366.802 66.0223 367.007 65.68C367.212 65.3378 367.541 65.0876 367.926 64.9814C368.119 64.9254 368.322 64.9093 368.523 64.9343C368.723 64.9592 368.916 65.0247 369.09 65.1266C369.264 65.2286 369.415 65.3649 369.535 65.5272C369.654 65.6896 369.74 65.8746 369.786 66.071Z" fill="#263238"/>
<path d="M368.829 63.727C368.675 63.9691 367.343 63.3638 365.714 63.727C364.086 64.0901 363.051 65.1467 362.831 64.9816C362.611 64.8165 362.831 64.5084 363.282 64.0241C363.888 63.3843 364.675 62.9463 365.538 62.7695C366.39 62.5859 367.278 62.6824 368.07 63.0446C368.686 63.2977 368.895 63.6279 368.829 63.727Z" fill="#263238"/>
<path d="M353.806 69.681C353.894 70.0701 353.829 70.4781 353.624 70.8204C353.419 71.1626 353.09 71.4128 352.705 71.519C352.515 71.5743 352.316 71.5914 352.119 71.5692C351.923 71.5471 351.732 71.4861 351.559 71.3899C351.386 71.2937 351.234 71.1641 351.112 71.0087C350.989 70.8533 350.899 70.6751 350.845 70.4844C350.757 70.0939 350.822 69.6844 351.027 69.3404C351.232 68.9964 351.561 68.7441 351.946 68.6355C352.137 68.5804 352.337 68.5637 352.534 68.5866C352.731 68.6095 352.922 68.6714 353.095 68.7687C353.268 68.866 353.42 68.9968 353.542 69.1534C353.664 69.31 353.754 69.4894 353.806 69.681Z" fill="#263238"/>
<path d="M353.003 67.6122C352.86 67.8543 351.517 67.238 349.888 67.6122C348.259 67.9864 347.225 69.0209 347.005 68.8668C346.784 68.7127 347.005 68.3936 347.456 67.8983C348.064 67.2642 348.851 66.8304 349.712 66.6547C350.563 66.4739 351.448 66.5663 352.243 66.9188C352.827 67.1829 353.08 67.4801 353.003 67.6122Z" fill="#263238"/>
<path d="M361.29 77.9573C362.097 77.5121 362.954 77.1649 363.843 76.9228C364.251 76.7907 364.636 76.6256 364.647 76.3285C364.589 75.8907 364.401 75.4804 364.108 75.1509L362.204 72.2233C359.54 68.0522 357.515 64.5964 357.68 64.5194C357.845 64.4424 360.146 67.711 362.809 71.8822L364.669 74.8317C365.034 75.2831 365.233 75.8468 365.23 76.4275C365.197 76.5858 365.13 76.735 365.033 76.8643C364.936 76.9937 364.812 77.1 364.669 77.1759C364.454 77.2899 364.224 77.375 363.987 77.429C363.116 77.7271 362.209 77.9048 361.29 77.9573Z" fill="#263238"/>
<path d="M366.485 97.0851C360.918 98.3432 355.112 98.0307 349.712 96.1826C349.712 96.1826 355.479 103.71 367.112 100.112L366.485 97.0851Z" fill="#EB996E"/>
<path d="M353.278 65.2787C353.168 65.7519 351.484 65.7409 349.569 66.2142C347.654 66.6874 346.136 67.4028 345.827 67.0286C345.695 66.8525 345.915 66.3903 346.499 65.928C347.274 65.2751 348.195 64.8184 349.184 64.5963C350.165 64.3637 351.186 64.3637 352.167 64.5963C352.948 64.7394 353.355 65.0586 353.278 65.2787Z" fill="#263238"/>
<path d="M368.201 58.5325C367.937 58.9727 366.528 58.8626 364.899 59.1818C363.27 59.501 361.983 60.0512 361.597 59.7321C361.421 59.567 361.597 59.1488 362.071 58.6315C362.797 58.0204 363.676 57.6172 364.613 57.4649C365.535 57.2792 366.49 57.3477 367.375 57.663C368.047 57.9712 368.311 58.3124 368.201 58.5325Z" fill="#263238"/>
<path d="M338.651 47.7575C338.894 48.9497 339.397 50.0737 340.124 51.0496C340.851 52.0254 341.784 52.8292 342.857 53.4039C343.929 53.9785 345.115 54.3099 346.33 54.3745C347.546 54.4391 348.76 54.2353 349.888 53.7776C351.626 53.0732 353.431 51.7526 355.192 52.3909C356.953 53.0292 357.679 55.5385 359.363 56.474C361.84 57.8607 364.866 55.4615 367.629 55.7036C369.83 55.8907 371.492 57.5745 373.197 59.0053C374.903 60.436 377.259 61.5146 379.185 60.48C378.744 58.6421 378.09 56.8619 377.236 55.1753C376.376 53.4774 374.952 52.1313 373.208 51.3674C372.24 50.9822 371.194 50.8501 370.27 50.3769C368.278 49.3643 367.386 47.0752 365.945 45.3473C364.998 44.2584 363.805 43.4109 362.465 42.875C361.126 42.3391 359.677 42.1302 358.241 42.2657C355.864 42.5078 353.607 43.7074 351.208 43.6084C349.436 43.5313 347.741 42.7389 345.969 42.772C342.525 42.772 339.938 45.8535 338.023 48.726" fill="#263238"/>
<path d="M350.251 50.2779C348.667 50.1569 345.431 49.8267 344.363 48.7041C343.279 47.4911 341.895 46.5842 340.349 46.0743C338.804 45.5644 337.152 45.4694 335.559 45.7986C333.978 46.27 332.589 47.2366 331.599 48.5562C330.608 49.8757 330.067 51.4784 330.056 53.1284C328.13 53.5983 326.367 54.5796 324.953 55.9685C323.539 57.3575 322.526 59.1025 322.022 61.0194C321.51 63.0261 321.492 65.1273 321.972 67.1421C322.451 69.1569 323.412 71.0252 324.773 72.5864C325.434 73.4131 326.038 74.2846 326.578 75.1947C325.832 76.1205 325.176 77.1155 324.619 78.1662C322.099 83.7351 328.933 85.8702 328.933 85.8702C328.933 89.6121 332.4 89.5901 334.612 89.5791C336.824 89.5681 338.046 95.4781 339.774 95.247L338.024 77.0106C338.28 77.1103 338.553 77.1625 338.827 77.1647C342.999 77.2418 341.909 69.3397 340.566 67.2596C341.809 65.7126 342.859 64.0199 343.692 62.2191C344.448 59.466 344.5 56.5675 343.846 53.7887C345.244 53.6126 350.934 50.322 350.251 50.2779Z" fill="#263238"/>
<path d="M338.575 77.9794C338.433 77.3999 338.146 76.8659 337.742 76.4271C337.337 75.9883 336.829 75.659 336.263 75.47C335.697 75.281 335.092 75.2384 334.505 75.3462C333.918 75.454 333.369 75.7086 332.907 76.0864C331.806 77.0329 331.223 78.6177 331.883 81.27C333.666 88.3577 340.413 85.111 340.369 84.9129C340.324 84.7148 339.345 80.9069 338.575 77.9794Z" fill="#FFBE9D"/>
<path d="M337.529 82.7666C337.529 82.7666 337.43 82.8877 337.243 83.0307C336.982 83.2303 336.655 83.321 336.329 83.2839C335.515 83.1958 334.579 82.1833 334.227 80.8957C334.059 80.294 334.025 79.6629 334.128 79.0467C334.139 78.8074 334.208 78.5743 334.329 78.3673C334.449 78.1603 334.618 77.9856 334.821 77.8581C334.955 77.7861 335.11 77.7631 335.258 77.7933C335.407 77.8235 335.541 77.9048 335.636 78.0232C335.779 78.1883 335.768 78.3423 335.812 78.3534C335.856 78.3644 335.933 78.1883 335.812 77.9131C335.727 77.7499 335.592 77.6186 335.427 77.5389C335.194 77.4447 334.933 77.4447 334.7 77.5389C334.424 77.6702 334.185 77.8692 334.006 78.1174C333.827 78.3656 333.714 78.655 333.677 78.9587C333.534 79.6518 333.56 80.369 333.754 81.0497C333.877 81.6888 334.185 82.2774 334.642 82.7415C335.098 83.2055 335.681 83.5244 336.318 83.6581C336.525 83.6665 336.732 83.6283 336.922 83.5464C337.113 83.4645 337.282 83.341 337.419 83.1848C337.562 82.9427 337.562 82.7776 337.529 82.7666Z" fill="#EB996E"/>
<path d="M376.576 68.0851C376.576 68.0851 377.226 67.5899 378.128 66.4893C379.373 64.9035 380.137 62.9936 380.329 60.9865C380.475 59.6163 380.34 58.2308 379.933 56.9144C379.463 55.4044 378.592 54.0503 377.413 52.9964C376.051 51.8074 374.403 50.995 372.631 50.6398C370.858 50.2846 369.024 50.3989 367.31 50.9713C366.979 51.0814 366.671 51.2465 366.363 51.3786C366.055 51.5106 365.78 51.7087 365.494 51.8738L365.053 52.1159V51.6317C365.044 50.7791 364.728 49.9586 364.162 49.3205C363.583 48.7012 362.872 48.2198 362.082 47.9118C360.587 47.2889 358.931 47.1653 357.361 47.5596C354.323 48.2529 351.748 49.6397 349.315 49.9258C347.408 50.2573 345.446 49.8648 343.813 48.8252C343.382 48.5287 343.009 48.1557 342.712 47.7247C342.536 47.4275 342.448 47.2624 342.47 47.2514C342.869 47.7949 343.356 48.2674 343.912 48.6491C345.518 49.5767 347.406 49.8932 349.227 49.5406C350.495 49.3022 351.734 48.9333 352.925 48.44C354.324 47.8809 355.758 47.414 357.217 47.0423C358.031 46.8454 358.868 46.7603 359.705 46.7892C360.588 46.8358 361.456 47.037 362.269 47.3835C363.111 47.743 363.862 48.2842 364.47 48.9683C365.121 49.7134 365.487 50.6646 365.505 51.6537L365.064 51.4116L365.978 50.8833C366.319 50.7512 366.638 50.5751 366.99 50.4541C368.797 49.8353 370.736 49.7058 372.609 50.0789C374.482 50.452 376.223 51.3143 377.655 52.5782C378.893 53.6987 379.799 55.1378 380.274 56.7383C380.768 58.4346 380.835 60.2267 380.468 61.955C380.101 63.6832 379.312 65.2939 378.172 66.6434C377.81 67.057 377.4 67.4264 376.951 67.7439C376.84 67.8724 376.714 67.987 376.576 68.0851Z" fill="#455A64"/>
<path d="M375.146 43.2017C374.423 42.8349 373.653 42.5718 372.857 42.4203C371.947 42.2959 371.02 42.3825 370.149 42.6734C369.021 43.0185 368.041 43.7314 367.365 44.6984L367.09 45.0836L366.925 44.6434C366.35 43.2905 365.425 42.1153 364.245 41.239C363.065 40.3626 361.673 39.8168 360.211 39.6578C357.916 39.5715 355.655 40.2276 353.762 41.5288C352.15 42.5798 350.435 43.4648 348.644 44.1701C347.41 44.6371 346.08 44.7958 344.77 44.6324C344.421 44.5679 344.079 44.4722 343.747 44.3462C343.527 44.2472 343.406 44.1922 343.417 44.1701C343.428 44.1481 343.912 44.3132 344.803 44.4013C346.069 44.4804 347.337 44.2735 348.512 43.796C350.252 43.0371 351.921 42.1237 353.498 41.0666C354.472 40.4618 355.504 39.9566 356.579 39.5588C357.761 39.1278 359.025 38.9661 360.277 39.0855C361.838 39.256 363.324 39.8465 364.576 40.7941C365.828 41.7418 366.799 43.0113 367.387 44.4673H366.958C367.714 43.433 368.795 42.6815 370.028 42.3322C370.965 42.0606 371.953 42.0116 372.912 42.1891C373.519 42.3044 374.101 42.5281 374.629 42.8495C374.817 42.9416 374.991 43.0602 375.146 43.2017Z" fill="#455A64"/>
<path d="M361.202 84.638C361.113 84.638 361.014 84.3078 360.717 83.8566C360.359 83.2517 359.825 82.7711 359.185 82.4798C358.545 82.1886 357.832 82.1006 357.14 82.2278C356.601 82.3048 356.271 82.4589 356.238 82.3818C356.205 82.3048 356.458 82.0407 357.052 81.8316C357.83 81.5812 358.673 81.6283 359.419 81.9636C360.171 82.2984 360.765 82.909 361.08 83.6695C361.312 84.2418 361.279 84.627 361.202 84.638Z" fill="#263238"/>
<path d="M338.74 86.0024C338.74 86.0024 339.059 86.5527 338.641 87.3891C338.404 87.8896 337.987 88.2826 337.474 88.4897C337.153 88.6044 336.811 88.6432 336.473 88.6031C336.135 88.563 335.811 88.4451 335.526 88.2586C335.236 88.0825 334.991 87.8419 334.81 87.5555C334.629 87.2692 334.516 86.9448 334.48 86.6077C334.447 86.0641 334.607 85.5262 334.932 85.0889C335.504 84.3626 336.142 84.3405 336.142 84.4066C336.142 84.4726 335.658 84.6597 335.273 85.3201C335.05 85.69 334.957 86.1239 335.009 86.5527C335.05 86.8039 335.145 87.0431 335.287 87.254C335.43 87.4649 335.616 87.6424 335.834 87.7743C336.049 87.9117 336.29 88.0024 336.542 88.0403C336.795 88.0782 337.052 88.0626 337.298 87.9944C337.704 87.849 338.055 87.5795 338.299 87.224C338.729 86.5417 338.652 86.0024 338.74 86.0024Z" fill="#7FB3FF"/>
<path d="M335.03 85.5734C335.085 85.5734 335.03 85.9476 334.513 86.1897C334.259 86.2953 333.98 86.3259 333.709 86.278C333.438 86.2301 333.186 86.1056 332.983 85.9193C332.781 85.733 332.636 85.4926 332.566 85.2265C332.495 84.9604 332.503 84.6798 332.587 84.4178C332.695 84.1201 332.9 83.8679 333.17 83.7024C333.621 83.4273 333.962 83.5373 333.951 83.6034C333.94 83.6694 333.687 83.7464 333.412 84.0216C333.277 84.1907 333.194 84.396 333.175 84.6118C333.156 84.8276 333.201 85.0443 333.304 85.2347C333.408 85.4251 333.565 85.5807 333.756 85.682C333.948 85.7834 334.165 85.826 334.381 85.8045C334.755 85.7274 334.953 85.5293 335.03 85.5734Z" fill="#7FB3FF"/>
<path d="M347.125 183.314C347.125 183.314 374.375 184.899 390.488 185.042C402.957 185.163 408.526 181.851 411.013 173.827C413.104 167.103 408.614 154.193 408.614 154.193C400.173 154.193 394.967 155.404 389.541 157.946L390.983 163.845L347.048 167.631L347.125 183.314Z" fill="#FFBE9D"/>
<path d="M400.14 170.14C398.958 168.604 397.578 167.231 396.035 166.057C394.379 165.045 392.595 164.26 390.73 163.724C391.317 163.64 391.916 163.692 392.48 163.878C393.865 164.205 395.178 164.784 396.354 165.584C397.532 166.387 398.551 167.402 399.358 168.578C399.975 169.48 400.206 170.107 400.14 170.14Z" fill="#EB996E"/>
<path d="M337.154 157.902C337.154 157.902 328.724 159.927 322.528 164.065L329.131 181.96C331.332 187.837 338.057 190.765 343.438 187.683C351.726 182.94 354.653 169.117 354.653 169.117L363.755 129.629L348.666 120.175L337.209 157.902" fill="#FFBE9D"/>
<path d="M348.611 120.175L349.228 107.188L345.849 93.9816C345.662 93.2552 345.574 92.3418 346.168 91.9015C346.463 91.6756 346.827 91.5586 347.198 91.5707C347.569 91.5827 347.925 91.723 348.204 91.9676C349.118 92.9141 353.52 104.459 353.52 104.459C353.52 104.459 360.2 100.453 361.389 100.255C362.577 100.057 364.063 103.656 364.162 103.931C364.206 104.737 364.206 105.545 364.162 106.352C364.162 106.352 368.289 106.473 368.664 107.034C368.964 108.181 369.123 109.36 369.137 110.545C369.137 110.545 370.887 111.106 371.162 112.427C371.437 113.748 372.009 115.927 371.162 116.411C370.314 116.895 368.598 117.842 368.598 117.842C368.598 117.842 367.904 124.577 367.717 125.194C367.53 125.81 363.667 129.596 363.667 129.596L348.611 120.175Z" fill="#FFBE9D"/>
<path d="M334.569 187.948C334.569 187.948 334.976 188.19 335.834 188.465C337.09 188.859 338.418 188.964 339.719 188.773C341.81 188.475 343.769 187.572 345.354 186.176C347.449 184.275 349.219 182.045 350.593 179.572C351.402 178.119 352.083 176.598 352.629 175.027C353.201 173.298 353.675 171.538 354.049 169.755C354.907 166.046 355.843 162.051 356.833 157.803C358.814 149.318 361.037 139.831 363.436 129.607V129.53H363.491C364.251 128.781 365.01 128.022 365.77 127.229C366.144 126.833 366.518 126.437 366.87 126.03C367.046 125.821 367.233 125.612 367.376 125.403C367.488 125.195 367.552 124.966 367.564 124.731C367.861 122.53 368.092 120.252 368.334 117.952V117.809L368.466 117.743L370.568 116.565C370.722 116.466 370.964 116.356 371.063 116.268C371.169 116.173 371.238 116.045 371.261 115.905C371.313 115.54 371.313 115.169 371.261 114.804C371.155 113.997 370.989 113.199 370.766 112.416C370.392 111.731 369.763 111.221 369.016 110.996L368.829 110.93V110.743C368.829 110.105 368.763 109.444 368.686 108.795C368.656 108.47 368.608 108.147 368.543 107.827C368.517 107.686 368.473 107.549 368.411 107.419C368.411 107.342 368.411 107.419 368.345 107.353C368.285 107.322 368.222 107.296 368.158 107.276C366.834 106.988 365.484 106.837 364.13 106.825H363.844V106.539C363.844 105.857 363.844 105.097 363.844 104.338C363.798 104.079 363.709 103.829 363.579 103.6C363.469 103.336 363.337 103.083 363.205 102.819C362.948 102.309 362.646 101.823 362.303 101.366C362.147 101.153 361.957 100.967 361.742 100.816C361.662 100.748 361.564 100.706 361.46 100.694C361.356 100.683 361.251 100.702 361.158 100.75C360.626 100.954 360.107 101.193 359.606 101.465C357.559 102.566 355.556 103.666 353.597 104.855L353.311 105.031L353.19 104.723C352.156 102.115 351.121 99.5393 350.109 97.019C349.602 95.7534 349.107 94.4877 348.601 93.2441C348.523 92.9655 348.368 92.7145 348.154 92.5198C347.94 92.3252 347.675 92.1948 347.39 92.1435C347.127 92.0562 346.842 92.061 346.582 92.157C346.322 92.253 346.103 92.4345 345.959 92.6718C345.822 92.9079 345.764 93.1818 345.794 93.4532C345.794 93.6953 345.948 94.0695 346.014 94.3667C346.191 95.005 346.356 95.6323 346.521 96.2596C346.851 97.5253 347.17 98.7689 347.5 100.002C348.146 102.481 348.781 104.903 349.404 107.265V107.342C349.184 111.862 348.975 116.191 348.777 120.329V120.307L338.751 152.928L335.922 162.007C335.592 163.031 335.339 163.834 335.163 164.396C334.987 164.957 334.877 165.199 334.877 165.199C334.877 165.199 334.932 164.913 335.086 164.374L335.779 161.963C336.418 159.839 337.331 156.769 338.487 152.851C340.864 144.971 344.243 133.723 348.326 120.164V120.219C348.516 116.095 348.711 111.767 348.909 107.232V107.309C348.282 104.943 347.632 102.522 346.983 100.057L345.992 96.3147C345.827 95.6873 345.662 95.049 345.486 94.4217C345.392 94.0922 345.314 93.7579 345.255 93.4202C345.214 93.0381 345.295 92.653 345.486 92.3196C345.69 91.9763 346.004 91.7124 346.378 91.5712C346.747 91.4631 347.138 91.4509 347.513 91.5356C347.889 91.6203 348.237 91.7992 348.524 92.0555C348.8 92.3146 349.005 92.6406 349.118 93.002L350.626 96.7769C351.649 99.3082 352.673 101.884 353.718 104.481L353.311 104.338C355.281 103.171 357.262 102.005 359.353 100.915C359.882 100.639 360.426 100.393 360.982 100.178C361.156 100.105 361.345 100.079 361.532 100.101C361.721 100.128 361.901 100.195 362.061 100.299C362.326 100.489 362.56 100.719 362.754 100.981C363.122 101.463 363.443 101.979 363.712 102.522C363.855 102.797 363.987 103.061 364.108 103.336C364.264 103.628 364.369 103.944 364.416 104.272C364.416 105.053 364.416 105.779 364.416 106.473L364.141 106.176C365.555 106.185 366.965 106.348 368.345 106.66C368.44 106.693 368.532 106.734 368.62 106.781C368.741 106.847 368.84 106.946 368.906 107.067C368.992 107.246 369.054 107.434 369.093 107.628C369.159 107.981 369.203 108.311 369.247 108.652C369.313 109.323 369.357 109.984 369.39 110.644L369.192 110.38C369.642 110.512 370.061 110.734 370.422 111.033C370.784 111.332 371.08 111.701 371.294 112.119C371.536 112.955 371.712 113.809 371.823 114.672C371.899 115.113 371.899 115.563 371.823 116.004C371.775 116.271 371.635 116.512 371.426 116.686C371.246 116.807 371.059 116.917 370.865 117.016L368.774 118.106L368.917 117.897C368.664 120.197 368.433 122.453 368.125 124.687L368.059 125.116C368.033 125.29 367.961 125.454 367.85 125.59C367.688 125.831 367.507 126.059 367.31 126.272C366.936 126.69 366.562 127.097 366.21 127.494C365.45 128.286 364.691 129.045 363.921 129.794L363.998 129.662C361.576 139.875 359.331 149.362 357.317 157.847C356.316 162.084 355.358 166.079 354.478 169.777C354.101 171.573 353.616 173.345 353.025 175.082C352.459 176.668 351.759 178.203 350.934 179.671C349.528 182.175 347.717 184.429 345.574 186.341C343.942 187.746 341.933 188.642 339.796 188.916C338.466 189.095 337.113 188.959 335.845 188.52C335.523 188.401 335.21 188.258 334.91 188.091L334.569 187.948Z" fill="#EB996E"/>
<path d="M364.173 106.385C364.173 106.462 363.799 106.506 363.216 106.528C362.475 106.542 361.738 106.63 361.015 106.792C360.317 106.964 359.674 107.308 359.144 107.794C358.748 108.168 358.572 108.487 358.484 108.454C358.395 108.421 358.484 108.025 358.847 107.518C359.359 106.878 360.073 106.428 360.872 106.242C361.642 106.052 362.442 106.014 363.227 106.132C363.821 106.209 364.173 106.308 364.173 106.385Z" fill="#EB996E"/>
<path d="M360.982 106.507C360.839 106.452 360.828 106.11 360.982 105.747C361.136 105.383 361.357 105.13 361.5 105.185C361.643 105.24 361.665 105.582 361.5 105.945C361.334 106.308 361.092 106.562 360.982 106.507Z" fill="#EB996E"/>
<path d="M369.323 110.501C368.255 110.831 367.14 110.984 366.022 110.952C365.67 110.94 365.32 111.013 365.002 111.164C364.685 111.316 364.408 111.541 364.195 111.821C363.909 112.273 364.008 112.647 363.92 112.669C363.832 112.691 363.567 112.306 363.843 111.645C363.994 111.274 364.27 110.966 364.624 110.776C365.031 110.552 365.482 110.417 365.945 110.38C367.069 110.208 368.215 110.249 369.323 110.501Z" fill="#EB996E"/>
<path d="M368.598 114.463C368.752 114.463 368.84 115.277 368.796 116.279C368.752 117.28 368.587 118.073 368.433 118.073C368.278 118.073 368.179 117.247 368.223 116.246C368.267 115.244 368.433 114.452 368.598 114.463Z" fill="#EB996E"/>
<path d="M315.859 124.709C315.859 124.709 315.451 125.128 314.879 126.019C314.111 127.289 313.606 128.7 313.393 130.168C313.08 132.355 313.013 134.57 313.195 136.772C313.316 139.27 313.514 141.999 313.823 144.861C314.344 149.748 315.119 154.604 316.145 159.41C316.53 161.259 316.882 162.712 317.124 163.813C317.234 164.275 317.333 164.66 317.41 164.99C317.487 165.32 317.498 165.408 317.498 165.408C317.498 165.408 317.443 165.276 317.366 165.012C317.289 164.748 317.168 164.286 317.047 163.835C316.772 162.811 316.398 161.336 315.947 159.487C314.877 154.683 314.079 149.821 313.558 144.927C313.25 142.065 313.063 139.325 312.953 136.827C312.786 134.623 312.868 132.408 313.195 130.223C313.432 128.735 313.971 127.312 314.78 126.041C315.078 125.551 315.441 125.103 315.859 124.709Z" fill="white"/>
<path d="M339.026 109.719L338.773 109.851L338.046 110.204C337.419 110.501 336.505 110.941 335.416 111.546C332.576 113.13 329.817 114.857 327.151 116.719C324.003 118.92 321.219 120.923 319.183 122.376L316.772 124.082L316.101 124.533C316.026 124.593 315.945 124.644 315.859 124.687C315.922 124.613 315.996 124.55 316.079 124.5L316.717 124.016L319.084 122.244C321.098 120.758 323.871 118.689 327.019 116.532C329.69 114.662 332.468 112.949 335.339 111.403C336.439 110.82 337.364 110.402 338.013 110.127L338.751 109.818C338.971 109.741 338.971 109.708 339.026 109.719Z" fill="white"/>
<path d="M391.512 116.884C391.443 116.846 391.38 116.798 391.325 116.741L390.829 116.312C390.216 115.794 389.573 115.313 388.903 114.87C386.669 113.446 384.299 112.247 381.827 111.293C379.362 110.317 376.846 109.479 374.288 108.784C373.297 108.509 372.505 108.311 371.944 108.179L371.316 108.014C371.24 107.998 371.166 107.972 371.096 107.937H371.327L371.966 108.058C372.527 108.168 373.33 108.344 374.321 108.597C376.903 109.249 379.44 110.069 381.915 111.051C384.401 112.005 386.774 113.23 388.991 114.705C389.914 115.33 390.76 116.061 391.512 116.884Z" fill="white"/>
<path d="M339.334 200.89C339.185 200.864 339.04 200.815 338.905 200.747C338.523 200.579 338.155 200.38 337.804 200.153C337.212 199.797 336.695 199.329 336.283 198.774C335.871 198.218 335.573 197.588 335.405 196.917C335.103 195.564 335.254 194.148 335.834 192.889C336.002 192.498 336.217 192.128 336.473 191.788C336.649 191.557 336.77 191.447 336.781 191.458C336.481 191.928 336.212 192.417 335.977 192.922C335.466 194.159 335.347 195.523 335.636 196.829C335.952 198.119 336.736 199.245 337.837 199.988C338.751 200.648 339.356 200.846 339.334 200.89Z" fill="white"/>
<path d="M335.833 188.971C336.067 189.408 336.241 189.874 336.351 190.358C336.523 190.821 336.627 191.307 336.659 191.8C336.409 191.373 336.23 190.908 336.13 190.424C335.95 189.96 335.849 189.469 335.833 188.971Z" fill="white"/>
<path d="M350.714 435.729L384.281 435.563L383.675 319.509L383.356 201.451L337.87 200.868L329.693 216.276C326.347 222.47 324.214 229.246 323.408 236.24C322.858 241.589 326.864 258.978 328.251 263.38L340.764 303.067L350.714 435.729Z" fill="#263238"/>
<path d="M393.206 201.595L430.097 302.153C432.282 308.633 433.008 315.515 432.223 322.307C431.437 329.1 429.159 335.635 425.552 341.444L382.718 425.086L358.637 394.953L394.472 320.115L362.885 268.883L368.201 201.749L383.081 201.507L393.206 201.595Z" fill="#263238"/>
<path d="M380.297 235.283C380.297 235.283 380.297 235.459 380.297 235.8C380.297 236.142 380.352 236.67 380.396 237.319C380.473 238.673 380.572 240.621 380.704 243.141C380.957 248.237 381.309 255.556 381.804 264.591C382.3 273.627 382.718 284.401 383.268 296.398C383.532 302.385 383.818 308.669 384.105 315.184C384.314 318.486 384.226 321.788 384.259 325.089C384.292 328.391 384.259 331.869 384.259 335.324C384.259 362.982 384.347 388.019 384.38 406.168C384.38 415.214 384.38 422.544 384.38 427.64C384.38 430.16 384.38 432.119 384.38 433.484C384.38 434.122 384.38 434.584 384.38 435.003C384.38 435.421 384.38 435.52 384.38 435.52C384.38 435.52 384.38 435.344 384.38 435.003V433.484C384.38 432.119 384.38 430.182 384.314 427.64C384.314 422.544 384.226 415.225 384.16 406.179C384.083 388.03 383.984 362.993 383.873 335.335C383.873 331.88 383.873 328.468 383.873 325.1C383.873 321.732 383.94 318.409 383.73 315.195C383.455 308.691 383.18 302.407 382.927 296.42C382.421 284.445 381.958 273.671 381.584 264.602C381.21 255.534 380.935 248.248 380.726 243.152C380.638 240.643 380.572 238.684 380.528 237.319C380.528 236.67 380.528 236.219 380.528 235.8C380.528 235.382 380.297 235.283 380.297 235.283Z" fill="#455A64"/>
<path d="M379.45 203.576C379.578 203.93 379.656 204.3 379.681 204.676C379.802 205.381 379.934 206.404 380.088 207.681C380.374 210.223 380.682 213.756 380.858 217.663C381.034 221.57 381.045 225.114 380.99 227.678C380.99 228.955 380.913 230 380.858 230.716C380.869 231.087 380.825 231.458 380.726 231.816C380.588 230.441 380.54 229.059 380.583 227.678C380.583 225.114 380.462 221.592 380.286 217.685C380.11 213.778 379.868 210.267 379.681 207.78C379.524 206.384 379.447 204.98 379.45 203.576Z" fill="#455A64"/>
<path d="M372.053 205.843C372.108 205.92 371.481 206.206 371.305 207.097C371.256 207.339 371.269 207.59 371.344 207.825C371.419 208.06 371.554 208.272 371.734 208.44C371.952 208.642 372.223 208.778 372.516 208.831C372.809 208.883 373.11 208.851 373.385 208.737C373.649 208.601 373.869 208.394 374.021 208.139C374.172 207.884 374.25 207.592 374.243 207.295C374.233 207.049 374.16 206.809 374.031 206.599C373.902 206.389 373.721 206.216 373.506 206.096C373.058 205.879 372.559 205.791 372.064 205.843C372.064 205.843 372.174 205.7 372.46 205.611C372.873 205.511 373.308 205.553 373.693 205.733C374 205.86 374.266 206.071 374.46 206.341C374.655 206.611 374.77 206.93 374.794 207.262C374.837 207.672 374.751 208.085 374.548 208.444C374.344 208.802 374.034 209.087 373.66 209.26C373.285 209.433 372.866 209.483 372.462 209.405C372.057 209.327 371.687 209.124 371.404 208.825C371.17 208.593 371.004 208.3 370.925 207.98C370.845 207.66 370.855 207.324 370.953 207.009C371.063 206.597 371.312 206.236 371.657 205.986C371.877 205.832 372.042 205.81 372.053 205.843Z" fill="#455A64"/>
<path d="M354.444 203.851C354.606 204.197 354.707 204.57 354.741 204.951C354.918 205.939 354.952 206.947 354.84 207.945C354.682 209.43 354.253 210.873 353.574 212.204C352.755 213.859 351.542 215.287 350.041 216.364C348.54 217.44 346.798 218.132 344.968 218.378C343.503 218.597 342.01 218.541 340.566 218.213C339.589 218.001 338.647 217.649 337.77 217.167C337.439 217.011 337.134 216.803 336.868 216.551C338.084 217.098 339.353 217.522 340.654 217.817C342.219 218.142 343.835 218.14 345.399 217.809C346.964 217.479 348.442 216.828 349.742 215.897C351.042 214.966 352.135 213.776 352.952 212.402C353.769 211.027 354.292 209.498 354.488 207.912C354.617 206.56 354.603 205.199 354.444 203.851Z" fill="#455A64"/>
<path d="M397.63 213.492C396.912 213.575 396.185 213.488 395.506 213.239C393.844 212.715 392.351 211.758 391.181 210.465C390.001 209.179 389.191 207.596 388.837 205.887C388.663 205.189 388.663 204.46 388.837 203.763C388.936 203.763 388.947 204.566 389.277 205.799C389.723 207.391 390.534 208.858 391.646 210.083C392.758 211.308 394.14 212.256 395.682 212.853C396.827 213.305 397.641 213.382 397.63 213.492Z" fill="#455A64"/>
<path d="M410.738 321.897C410.187 322.526 409.527 323.052 408.79 323.449C408.018 323.939 407.175 324.31 406.292 324.549C405.181 324.844 404.008 324.813 402.913 324.461C400.991 323.737 399.344 322.428 398.203 320.72C397.679 320.077 397.246 319.366 396.915 318.606C397.509 319.173 398.047 319.796 398.522 320.466C399.691 322.016 401.269 323.209 403.078 323.911C404.002 324.158 404.966 324.214 405.913 324.076C406.859 323.937 407.767 323.608 408.581 323.108C409.277 322.663 409.997 322.259 410.738 321.897Z" fill="#455A64"/>
<path d="M402.33 328.314C401.029 326.967 399.868 325.492 398.863 323.911C397.706 322.44 396.696 320.859 395.847 319.19C397.157 320.532 398.322 322.008 399.325 323.592C400.492 325.055 401.499 326.637 402.33 328.314Z" fill="#455A64"/>
<path d="M345.937 239.168C345.783 239.223 345.398 238.595 345.057 237.748C344.716 236.9 344.572 236.185 344.716 236.119C344.859 236.053 345.255 236.691 345.585 237.539C345.915 238.386 346.08 239.168 345.937 239.168Z" fill="#FAFAFA"/>
<path d="M367.244 242.228C367.079 242.228 366.958 241.688 366.958 241.017C366.958 240.346 367.079 239.795 367.244 239.795C367.409 239.795 367.53 240.346 367.53 241.017C367.53 241.688 367.398 242.228 367.244 242.228Z" fill="#FAFAFA"/>
<path d="M358.484 253.806C358.329 253.806 358.153 253.145 358.098 252.298C358.043 251.45 358.098 250.768 358.274 250.757C358.451 250.746 358.616 251.417 358.671 252.265C358.726 253.112 358.638 253.795 358.484 253.806Z" fill="#FAFAFA"/>
<path d="M342.481 262.28C342.349 262.379 341.898 261.972 341.304 261.553C340.709 261.135 340.203 260.816 340.203 260.662C340.203 260.508 340.93 260.596 341.601 261.08C342.272 261.564 342.613 262.28 342.481 262.28Z" fill="#FAFAFA"/>
<path d="M370.689 273.077C370.557 272.989 370.689 272.515 371.063 271.976C371.438 271.436 371.779 271.128 371.911 271.216C372.043 271.304 371.911 271.789 371.537 272.317C371.162 272.846 370.821 273.165 370.689 273.077Z" fill="#FAFAFA"/>
<path d="M353.278 276.125C353.124 276.125 352.992 275.212 352.992 274.1C352.992 272.988 353.124 272.064 353.278 272.064C353.432 272.064 353.564 272.977 353.564 274.1C353.564 275.223 353.399 276.125 353.278 276.125Z" fill="#FAFAFA"/>
<path d="M347.577 288.473C347.489 288.594 346.916 288.341 346.3 287.89C345.684 287.438 345.2 286.976 345.343 286.844C345.486 286.712 346.014 286.976 346.63 287.427C347.247 287.879 347.676 288.341 347.577 288.473Z" fill="#FAFAFA"/>
<path d="M365.209 292.765C365.275 292.908 364.923 293.206 364.416 293.437C363.91 293.668 363.447 293.723 363.381 293.58C363.315 293.437 363.678 293.139 364.185 292.908C364.691 292.677 365.154 292.622 365.209 292.765Z" fill="#FAFAFA"/>
<path d="M353.278 312.906C353.146 312.972 352.574 312.124 352.012 311.002C351.451 309.879 351.11 308.911 351.253 308.801C351.396 308.691 351.968 309.582 352.519 310.705C353.069 311.827 353.377 312.785 353.278 312.906Z" fill="#FAFAFA"/>
<path d="M372.725 311.035C372.582 310.958 372.835 310.22 373.275 309.373C373.715 308.525 374.211 307.909 374.376 307.986C374.541 308.063 374.266 308.8 373.814 309.648C373.363 310.495 372.857 311.112 372.725 311.035Z" fill="#FAFAFA"/>
<path d="M364.195 328.082C364.03 328.082 364.052 327.191 363.876 326.156C363.7 325.122 363.436 324.296 363.59 324.219C363.744 324.142 364.272 324.923 364.449 326.068C364.625 327.213 364.35 328.115 364.195 328.082Z" fill="#FAFAFA"/>
<path d="M355.061 337.823C354.951 337.933 354.401 337.514 353.839 336.898C353.278 336.282 352.915 335.698 353.036 335.588C353.157 335.478 353.696 335.897 354.258 336.513C354.819 337.129 355.182 337.713 355.061 337.823Z" fill="#FAFAFA"/>
<path d="M377.225 341.52C377.115 341.41 377.523 340.816 378.139 340.189C378.755 339.561 379.328 339.154 379.449 339.264C379.57 339.374 379.151 339.979 378.546 340.596C377.941 341.212 377.347 341.63 377.225 341.52Z" fill="#FAFAFA"/>
<path d="M364.481 356.103C364.327 356.103 364.327 355.233 364.481 354.221C364.635 353.208 364.877 352.416 365.043 352.438C365.208 352.46 365.197 353.296 365.043 354.309C364.889 355.321 364.635 356.125 364.481 356.103Z" fill="#FAFAFA"/>
<path d="M355.908 363.179C355.765 363.256 355.281 362.684 354.808 361.903C354.335 361.121 354.092 360.428 354.225 360.351C354.357 360.274 354.841 360.835 355.325 361.616C355.809 362.398 356.04 363.091 355.908 363.179Z" fill="#FAFAFA"/>
<path d="M376.566 372.105C376.665 372.237 376.104 372.798 375.312 373.36C374.519 373.921 373.826 374.273 373.727 374.141C373.628 374.009 374.2 373.448 374.981 372.886C375.763 372.325 376.478 371.984 376.566 372.105Z" fill="#FAFAFA"/>
<path d="M359.353 383.694C359.199 383.639 359.353 382.758 359.496 381.658C359.639 380.557 359.551 379.655 359.716 379.633C359.881 379.611 360.167 380.535 360.057 381.713C359.947 382.89 359.496 383.76 359.353 383.694Z" fill="#FAFAFA"/>
<path d="M366.231 400.334C366.099 400.433 365.637 400.059 365.185 399.498C364.734 398.936 364.481 398.397 364.602 398.298C364.723 398.199 365.185 398.573 365.637 399.135C366.088 399.696 366.352 400.235 366.231 400.334Z" fill="#FAFAFA"/>
<path d="M358.715 411.494C358.583 411.582 357.977 410.933 357.361 410.03C356.745 409.128 356.36 408.335 356.481 408.247C356.602 408.159 357.218 408.809 357.834 409.711C358.451 410.613 358.847 411.406 358.715 411.494Z" fill="#FAFAFA"/>
<path d="M379.417 397.485C379.273 397.43 379.284 397.023 379.417 396.582C379.549 396.142 379.846 395.811 380 395.866C380.154 395.921 380.132 396.329 380 396.78C379.868 397.232 379.571 397.551 379.417 397.485Z" fill="#FAFAFA"/>
<path d="M370.281 424.063C370.138 423.986 370.413 423.204 370.633 422.225C370.853 421.245 370.931 420.42 371.096 420.409C371.261 420.398 371.426 421.289 371.195 422.346C370.964 423.402 370.413 424.151 370.281 424.063Z" fill="#FAFAFA"/>
<path d="M376.225 253.981C376.082 254.047 375.73 253.607 375.444 252.991C375.158 252.374 375.037 251.824 375.18 251.758C375.323 251.692 375.675 252.132 375.961 252.749C376.247 253.365 376.39 253.915 376.225 253.981Z" fill="#FAFAFA"/>
<path d="M360.982 219.71C361.07 219.842 360.3 220.458 359.474 221.339C358.649 222.219 358.088 223.034 357.945 222.957C357.801 222.879 358.176 221.856 359.045 220.953C359.915 220.051 360.872 219.567 360.982 219.71Z" fill="#FAFAFA"/>
<path d="M374.552 219.358C374.387 219.358 374.134 218.73 373.748 217.982C373.363 217.234 373.011 216.617 373.132 216.507C373.253 216.397 373.848 216.881 374.233 217.718C374.618 218.554 374.695 219.27 374.552 219.358Z" fill="#FAFAFA"/>
<path d="M332.18 230.484C332.037 230.418 332.18 229.692 332.522 228.856C332.863 228.019 333.237 227.37 333.391 227.436C333.545 227.502 333.391 228.217 333.05 229.065C332.709 229.912 332.367 230.539 332.18 230.484Z" fill="#FAFAFA"/>
<path d="M333.556 247.103C333.446 247.224 332.819 246.872 332.147 246.311C331.476 245.749 331.047 245.21 331.113 245.078C331.179 244.946 331.85 245.309 332.522 245.87C333.193 246.432 333.655 246.982 333.556 247.103Z" fill="#FAFAFA"/>
<path d="M361.356 206.514C361.213 206.514 360.905 206.162 360.684 205.601C360.464 205.039 360.398 204.5 360.541 204.5C360.684 204.5 360.993 204.852 361.213 205.413C361.433 205.975 361.499 206.459 361.356 206.514Z" fill="#FAFAFA"/>
<path d="M387.979 214.636C387.825 214.636 387.836 213.943 387.979 213.161C388.122 212.38 388.408 211.764 388.562 211.797C388.716 211.83 388.705 212.501 388.562 213.282C388.419 214.064 388.133 214.669 387.979 214.636Z" fill="#FAFAFA"/>
<path d="M394.23 227.216C394.087 227.15 394.285 226.335 394.681 225.378C395.078 224.42 395.507 223.705 395.65 223.76C395.793 223.815 395.65 224.64 395.21 225.598C394.77 226.555 394.384 227.271 394.23 227.216Z" fill="#FAFAFA"/>
<path d="M389.773 237.363C389.63 237.429 389.101 236.67 388.595 235.668C388.089 234.667 387.803 233.775 387.946 233.709C388.089 233.643 388.606 234.402 389.112 235.404C389.619 236.405 389.916 237.286 389.773 237.363Z" fill="#FAFAFA"/>
<path d="M399.304 247.51C399.161 247.455 399.304 246.817 399.546 246.091C399.788 245.364 400.173 244.814 400.327 244.869C400.481 244.924 400.327 245.562 400.085 246.289C399.843 247.015 399.502 247.565 399.304 247.51Z" fill="#FAFAFA"/>
<path d="M390.786 257.449C390.654 257.537 390.312 257.24 390.037 256.799C389.762 256.359 389.63 255.918 389.773 255.83C389.916 255.742 390.235 256.04 390.522 256.491C390.808 256.943 390.918 257.372 390.786 257.449Z" fill="#FAFAFA"/>
<path d="M392.6 277.963C392.49 278.062 391.797 277.522 391.071 276.73C390.344 275.938 389.849 275.222 389.97 275.112C390.091 275.002 390.774 275.552 391.5 276.345C392.226 277.137 392.722 277.853 392.6 277.963Z" fill="#FAFAFA"/>
<path d="M403.771 266.176C403.65 266.275 403.045 265.724 402.428 264.932C401.812 264.139 401.416 263.435 401.537 263.336C401.658 263.237 402.263 263.798 402.88 264.58C403.496 265.361 403.903 266.087 403.771 266.176Z" fill="#FAFAFA"/>
<path d="M409.902 282.431C409.759 282.365 410.012 281.539 410.463 280.593C410.914 279.646 411.388 278.92 411.564 278.986C411.74 279.052 411.465 279.889 411.013 280.835C410.562 281.782 410.045 282.508 409.902 282.431Z" fill="#FAFAFA"/>
<path d="M396.872 295.814C396.728 295.891 396.222 295.286 395.518 294.636C394.814 293.987 394.164 293.536 394.23 293.371C394.296 293.206 395.133 293.503 395.903 294.218C396.673 294.933 397.004 295.737 396.872 295.814Z" fill="#FAFAFA"/>
<path d="M397.685 309.604C397.685 309.758 397.135 309.89 396.464 309.89C395.792 309.89 395.253 309.758 395.253 309.604C395.253 309.45 395.792 309.318 396.464 309.318C397.135 309.318 397.685 309.45 397.685 309.604Z" fill="#FAFAFA"/>
<path d="M411.079 305.752C410.936 305.675 411.222 304.981 411.431 304.123C411.64 303.264 411.728 302.516 411.894 302.505C412.059 302.494 412.235 303.297 411.993 304.255C411.75 305.212 411.2 305.84 411.079 305.752Z" fill="#FAFAFA"/>
<path d="M424.385 310.386C424.242 310.441 423.835 309.659 423.483 308.658C423.131 307.656 422.966 306.798 423.109 306.754C423.252 306.71 423.67 307.469 424.022 308.471C424.374 309.472 424.54 310.331 424.385 310.386Z" fill="#FAFAFA"/>
<path d="M422.261 329.315C422.129 329.238 422.47 328.313 423.021 327.246C423.571 326.178 424.121 325.375 424.286 325.452C424.451 325.529 424.088 326.453 423.527 327.51C422.966 328.566 422.404 329.414 422.261 329.315Z" fill="#FAFAFA"/>
<path d="M410.122 340.419C409.979 340.475 409.527 339.715 409.109 338.714C408.691 337.712 408.482 336.854 408.636 336.788C408.79 336.722 409.23 337.492 409.637 338.493C410.045 339.495 410.265 340.419 410.122 340.419Z" fill="#FAFAFA"/>
<path d="M396.673 344.723C396.673 344.877 396.211 345.009 395.649 345.009C395.088 345.009 394.637 344.877 394.637 344.723C394.637 344.569 395.099 344.437 395.649 344.437C396.2 344.437 396.673 344.569 396.673 344.723Z" fill="#FAFAFA"/>
<path d="M404.377 362.431C404.234 362.431 403.926 361.826 403.694 360.989C403.463 360.153 403.419 359.426 403.573 359.393C403.728 359.36 404.025 359.999 404.256 360.835C404.487 361.671 404.531 362.343 404.377 362.431Z" fill="#FAFAFA"/>
<path d="M394.637 356.488C394.505 356.411 394.637 355.894 395 355.332C395.363 354.771 395.727 354.386 395.859 354.463C395.991 354.54 395.859 355.068 395.495 355.63C395.132 356.191 394.78 356.576 394.637 356.488Z" fill="#FAFAFA"/>
<path d="M394.439 375.979C394.285 375.979 394.065 375.242 393.954 374.284C393.844 373.327 393.877 372.545 394.031 372.523C394.186 372.501 394.406 373.261 394.516 374.218C394.626 375.176 394.593 375.957 394.439 375.979Z" fill="#FAFAFA"/>
</svg>
