<svg width="326" height="214" viewBox="0 0 326 214" fill="none" xmlns="http://www.w3.org/2000/svg">
<rect width="326" height="214" fill="white" fill-opacity="0.24"/>
<path d="M291.742 23.9246L306.973 7.34534L296.141 22.3656L291.742 23.9246Z" fill="#E5E8EC"/>
<path d="M299.204 25.3482L306.974 7.34534L296.142 22.3656L299.204 25.3482Z" fill="#CDD5D7"/>
<path d="M291.784 23.8914L299.318 17.9664L296.301 22.1577L291.784 23.8914Z" fill="#88B4DD"/>
<path d="M291.742 23.9247L299.156 18.174L296.142 22.3657L291.742 23.9247Z" fill="#5987E1"/>
<path d="M299.204 25.3482L300.984 20.9158L299.317 17.9664L296.142 22.3656L299.204 25.3482Z" fill="#726E65"/>
<path d="M299.203 25.3482L306.973 7.34534L299.55 21.669L299.203 25.3482Z" fill="#B7BEC0"/>
<path d="M307.542 23.2278L306.973 7.34534L299.55 21.669L307.542 23.2278Z" fill="#E5E8EC"/>
<path d="M307.542 23.2285L301.372 18.1958L299.614 21.5311L307.542 23.2285Z" fill="#88B4DD"/>
<path d="M307.542 23.2278L301.309 18.3336L299.55 21.6689L307.542 23.2278Z" fill="#5987E1"/>
<path d="M39.4489 125.239C13.5679 120.318 17.1363 87.8733 38.7401 59.8013C55.02 38.6492 107.807 3.04389 140.325 17.6037C154.607 23.9992 179.98 53.7912 174.438 67.3115C168.064 82.8594 151.336 80.9584 156.468 68.9186C162.69 54.3194 221.283 1.58717 253.041 7.76461C298.161 16.5442 262.16 58.1697 253.354 63.3847C239.164 71.7877 237.496 56.872 272.5 53.6345C280.923 52.8544 291.455 47.3888 296.979 30.4148" stroke="#88B4DD" stroke-width="1.245" stroke-miterlimit="10" stroke-dasharray="6.37 6.37"/>
<path d="M151.755 175.719C104.711 174.265 63.6193 169.55 36.7077 164.456C9.56592 159.274 -3.37516 153.714 0.754391 148.589C4.89708 143.414 25.0314 139.235 51.9455 135.431C79.0334 131.708 112.906 128.355 148.901 126.823C219.061 123.387 284.395 131.731 299.917 148.469C315.574 165.116 247.873 179.185 151.755 175.719Z" fill="#EDF6F8"/>
<path d="M90.6101 52.2955V74.7471H55.1963V87.2487H80.6736V108.552H55.1963V142.612H26.915V52.2955H90.6101Z" fill="#647AA6"/>
<path d="M138.743 145.994H108.68L104.222 159.644H74.5413L107.533 69.3279H140.144L173.009 159.644H143.201L138.743 145.994ZM131.864 124.691L123.711 99.5603L115.559 124.691H131.864Z" fill="#647AA6"/>
<path d="M221.231 134.572L212.569 120.286C210.337 120.647 208.078 120.818 205.817 120.796C197.637 120.877 189.577 118.81 182.443 114.801C175.434 110.887 169.605 105.16 165.564 98.217C161.402 91.1575 159.322 83.2062 159.322 74.3631C159.323 65.5199 161.403 57.5682 165.564 50.5079C169.596 43.5752 175.429 37.8663 182.443 33.9882C189.591 30.0191 197.644 27.9756 205.817 28.0571C213.971 27.9707 222.005 30.0149 229.129 33.9882C236.104 37.8726 241.894 43.5827 245.879 50.5079C249.998 57.5674 252.057 65.5191 252.057 74.3631C252.131 81.2454 250.696 88.0601 247.854 94.3265C245.153 100.271 241.199 105.559 236.262 109.826L254.605 134.576L221.231 134.572ZM192.7 88.9674C195.757 92.5828 200.13 94.3898 205.82 94.3885C211.425 94.3885 215.756 92.5815 218.813 88.9674C221.87 85.3533 223.399 80.4846 223.4 74.3612C223.4 68.1543 221.871 63.243 218.813 59.6273C215.756 56.0115 211.425 54.2044 205.82 54.206C200.13 54.206 195.756 56.0132 192.7 59.6273C189.643 63.2414 188.114 68.1526 188.114 74.3612C188.112 80.4841 189.639 85.3529 192.696 88.9674H192.7Z" fill="#647AA6"/>
<path d="M44.1294 24.2267C44.8132 25.5595 45.9935 26.5691 47.4149 27.0373C48.8362 27.5055 50.3841 27.3946 51.7244 26.7286C52.3932 26.4197 52.9941 25.9808 53.4921 25.4375C53.9902 24.8942 54.3759 24.2572 54.6262 23.5636C54.8765 22.8699 54.9862 22.1334 54.95 21.3967C54.9138 20.6601 54.7325 19.9381 54.4154 19.2724C53.7317 17.9393 52.5514 16.9294 51.1299 16.461C49.7084 15.9927 48.1596 16.1036 46.8191 16.7697C46.1504 17.0789 45.55 17.5179 45.052 18.0613C44.5541 18.6047 44.1688 19.2417 43.9186 19.9354C43.6684 20.629 43.5579 21.3656 43.5941 22.1022C43.6303 22.8389 43.8123 23.561 44.1294 24.2267Z" fill="#F4B7B7"/>
<path d="M41.2591 31.2957C42.1221 32.9783 43.6118 34.2531 45.4061 34.8441C47.2004 35.4351 49.1548 35.2948 50.8467 34.4537C51.6915 34.0635 52.4509 33.5091 53.08 32.8227C53.709 32.1363 54.1957 31.3317 54.5116 30.4554C54.8275 29.5792 54.9659 28.6486 54.9198 27.7181C54.8736 26.7876 54.6438 25.8756 54.2428 25.035C53.3798 23.3518 51.8893 22.0767 50.0945 21.4855C48.2997 20.8944 46.3449 21.0348 44.6527 21.8764C43.8081 22.2668 43.0489 22.8215 42.42 23.508C41.7912 24.1945 41.3047 24.9993 40.989 25.8756C40.6733 26.7519 40.5346 27.6823 40.5808 28.6127C40.6271 29.5432 40.858 30.4552 41.2591 31.2957Z" fill="#F4B7B7"/>
<path d="M47.2728 38.9681C47.2728 38.9681 47.4819 39.8942 42.9676 41.0302C38.4532 42.1662 31.5389 42.7221 31.5389 42.7221L41.7088 39.143C41.7088 39.143 45.6654 37.96 47.2728 38.9681Z" fill="#E2C59C"/>
<path d="M35.176 42.1619C33.0487 42.7665 32.4372 44.0817 31.6883 44.6482C31.1787 45.0501 30.6945 45.4835 30.2389 45.9458C30.451 44.9107 31.131 44.6927 31.3919 44.3011C31.6528 43.9095 31.605 44.0837 30.8292 44.2422C30.3912 44.3337 29.8493 45.2998 29.4232 45.8712C29.2595 46.1263 29.0337 46.3354 28.767 46.479C28.995 45.8757 29.2824 45.2966 29.6248 44.7502C30.1156 43.996 30.6946 43.3033 31.3498 42.6869C32.247 42.2211 33.2169 41.912 34.2179 41.7727C35.4074 41.6004 36.7108 41.7258 35.176 42.1619Z" fill="#E2C59C"/>
<path d="M31.4765 42.6964C30.8651 43.0345 30.2845 43.425 29.7406 43.8638C29.5848 44.0686 29.0018 45.1708 29.0018 45.1708C29.3356 45.012 29.6246 44.7717 29.8414 44.4721C30.3489 43.8465 30.8947 43.2534 31.4765 42.6964Z" fill="#E2C59C"/>
<path d="M44.7505 37.608C44.7505 37.608 48.9431 36.685 49.3705 39.1813C49.6133 40.6011 48.8069 41.3481 47.5368 41.605C45.1711 42.085 42.4512 42.5028 42.4512 42.5028L40.1807 39.0811L44.7505 37.608Z" fill="#A7A7A7"/>
<path d="M44.5138 35.5471L45.6815 24.1997C45.6815 24.1997 45.5986 21.2323 46.683 21.2943C48.2397 21.3808 48.5385 23.9441 48.6755 24.8658C49.1887 27.2739 49.4049 29.7361 49.3189 32.1969C49.2995 35.1073 49.5065 38.3943 49.3232 40.3574C49.1981 41.7114 47.8648 40.2075 46.4764 40.0803C43.8848 39.8366 44.5138 35.5471 44.5138 35.5471Z" fill="#101C1D"/>
<path d="M19.3474 67.3284L15.5187 75.5478L10.2065 75.6632L7.52222 75.1249L13.2989 73.7665L16.3919 66.1366L19.3474 67.3284Z" fill="#0A0909"/>
<path d="M14.931 76.8436L14.2259 76.6795L13.8324 75.8298L9.54665 76.0178L6.09619 75.383C6.13135 75.2452 6.21298 75.1238 6.32716 75.0391C6.93658 74.7139 9.61631 74.5566 9.61631 74.5566C9.61631 74.5566 9.33546 75.2922 9.63892 75.4469C9.94238 75.6017 13.2498 75.3993 14.0444 75.2903C15.4103 75.0973 16.116 74.759 16.0547 74.9375C15.9671 75.1988 14.931 76.8436 14.931 76.8436Z" fill="#5987E1"/>
<path d="M40.5567 50.6214L28.0355 50.2899L18.7052 70.4965L14.8417 68.9865L23.9429 44.6752C23.9429 44.6752 24.6651 43.1363 28.448 43.1363C32.1283 43.1363 46.9842 42.736 48.6729 43.199C52.6748 44.3012 39.8697 47.2636 40.5567 50.6214Z" fill="#5987E1"/>
<path d="M49.4651 17.0286C50.1481 18.3621 51.3279 19.3727 52.7493 19.8418C54.1708 20.3108 55.7199 20.2006 57.0607 19.5349C57.7299 19.2259 58.3307 18.7867 58.829 18.2431C59.3274 17.6994 59.7128 17.062 59.9631 16.3679C60.2134 15.6738 60.324 14.9367 60.2876 14.1997C60.2511 13.4626 60.0687 12.7402 59.7511 12.0742C59.0674 10.7414 57.887 9.73152 56.4656 9.2632C55.0442 8.79488 53.4958 8.90563 52.1554 9.5716C51.4866 9.8806 50.8858 10.3196 50.3877 10.863C49.8897 11.4064 49.5046 12.0434 49.2543 12.7371C49.004 13.4308 48.8936 14.1673 48.9298 14.9039C48.966 15.6406 49.148 16.3629 49.4651 17.0286Z" fill="#F4B7B7"/>
<path d="M43.6241 15.2502C44.1332 16.2685 45.0218 17.0452 46.0981 17.4125C47.1745 17.7799 48.3522 17.7083 49.3763 17.2133L49.4484 14.9288C49.954 14.6884 50.4066 14.3497 50.7804 13.9325C51.1543 13.5154 51.4419 13.028 51.6261 12.4987C51.8103 11.9694 51.8873 11.4088 51.8534 10.8493C51.8195 10.2899 51.6749 9.74255 51.4281 9.23945L50.7224 7.80594C50.214 6.78734 49.3259 6.01015 48.2496 5.64274C47.1733 5.27533 45.9958 5.34724 44.972 5.84283L44.0054 6.3071C43.4995 6.54766 43.0463 6.88651 42.6721 7.30388C42.298 7.72125 42.0103 8.20888 41.8259 8.73846C41.6415 9.26805 41.5641 9.82906 41.598 10.3889C41.6318 10.9487 41.7764 11.4961 42.0232 11.9996L43.6241 15.2502Z" fill="#F4B7B7"/>
<path d="M42.3995 8.87915C42.5825 9.23805 42.7917 9.58311 43.0252 9.91126C44.6251 12.1801 47.0534 13.3173 48.8141 12.7509C49.3639 13.7347 50.0388 14.6429 50.8219 15.4527C51.5342 16.0497 52.3643 16.4891 53.2581 16.7421C54.3843 18.3236 53.7464 22.875 49.7257 23.3431C47.3099 23.6238 47.8051 21.1044 48.6479 19.533C49.0433 18.7949 49.4228 17.9471 49.3365 17.528C49.0324 16.0781 48.4957 15.8806 47.6354 15.3856C47.1936 15.2031 46.7195 15.1117 46.2417 15.1168C45.7638 15.1219 45.2918 15.2233 44.854 15.4151C44.7927 15.4448 44.7259 15.4615 44.6579 15.4642C44.5898 15.4669 44.5221 15.4554 44.4587 15.4307C44.2502 15.2119 44.076 14.9626 43.9424 14.6914L42.3904 11.5366C42.186 11.1233 42.0809 10.668 42.0824 10.2068C42.0839 9.74562 42.1925 9.29108 42.3995 8.87915Z" fill="#0A0909"/>
<path d="M55.0149 46.6194C55.0149 46.6194 53.1785 46.9953 52.6692 47.1832C51.9884 47.4339 49.9941 47.1169 49.9941 47.1169C49.9941 47.1169 49.7402 37.3823 49.2584 33.985C48.7766 30.5877 47.8872 29.6616 47.8928 28.602C47.8756 27.4485 48.0294 26.2989 48.3486 25.1904C48.6521 23.8746 47.7647 22.12 48.0657 22.454C48.5512 22.996 50.371 23.8326 52.0704 21.9747C52.3594 21.6539 55.0149 46.6194 55.0149 46.6194Z" fill="#6C7577"/>
<path d="M48.5008 18.5072C48.5008 18.5072 46.003 20.9953 46.1032 21.8136C46.2033 22.6319 45.9504 26.0687 46.5229 29.7273C47.0954 33.3859 47.5577 34.2933 47.6497 36.9631C47.7416 39.633 47.1189 40.2295 47.3454 43.5096C47.5237 46.0786 47.9301 48.3436 47.9301 48.3436C48.2995 48.4282 48.6849 48.4149 49.0477 48.3051C49.4104 48.1952 49.7384 47.9925 49.999 47.717C50.8888 46.7621 50.5664 37.8316 50.2398 35.6329C49.9132 33.4342 48.6065 27.6672 48.6841 26.1352C48.7617 24.6032 49.2637 20.9459 49.5377 20.4647C50.2228 19.2629 48.6979 18.6325 48.5008 18.5072Z" fill="#A7A7A7"/>
<path d="M48.4908 18.2748C48.5735 18.4022 48.6778 18.5144 48.7988 18.6063C49.0621 18.804 49.3076 19.0242 49.5326 19.2647C49.5326 19.2647 49.0323 19.0291 48.8446 19.4527C48.66 20.007 48.5344 20.5794 48.4694 21.1602C48.4694 21.1602 47.5466 19.6526 47.7655 19.172C48.1585 18.3098 48.4908 18.2748 48.4908 18.2748Z" fill="#101C1D"/>
<path d="M51.9138 24.2066C52.4074 25.6906 53.4661 26.9195 54.8595 27.6263C56.2529 28.3331 57.8687 28.4606 59.3555 27.9811C60.0953 27.767 60.7853 27.4083 61.3859 26.9257C61.9865 26.4431 62.4858 25.8461 62.8548 25.1693C63.2238 24.4924 63.4554 23.7491 63.5361 22.9822C63.6168 22.2153 63.5448 21.4399 63.3247 20.7009C62.8311 19.2172 61.7727 17.9885 60.3795 17.282C58.9864 16.5754 57.3713 16.4481 55.8848 16.9277C55.1449 17.1414 54.4546 17.4998 53.8538 17.9823C53.253 18.4647 52.7535 19.0615 52.3843 19.7383C52.0151 20.415 51.7831 21.1584 51.7024 21.9253C51.6217 22.6922 51.6936 23.4676 51.9138 24.2066Z" fill="#F4B7B7"/>
<path d="M31.7028 69.1198L31.5146 74.8756L30.3292 76.2572L27.1714 78.0587L24.8281 77.6375L28.9574 74.5943L29.2599 68.5552L31.7028 69.1198Z" fill="#0A0909"/>
<path d="M31.3326 76.1382L30.2725 76.8901L29.9468 76.6345L26.4304 78.5424C26.4304 78.5424 24.5739 79.4691 24.0584 78.8676C23.8925 78.6759 24.1012 78.0455 24.6957 77.6082C24.9339 77.4264 25.1876 77.2659 25.4539 77.1287C25.4539 77.1287 25.5753 77.5788 26.6295 77.7504C26.9674 77.8068 29.055 76.4389 29.7714 76.0849C30.4596 75.6953 31.0882 75.2081 31.6369 74.6382C31.8052 74.8569 31.3326 76.1382 31.3326 76.1382Z" fill="#5987E1"/>
<path d="M56.4886 38.7745L54.977 42.3079L52.3825 42.6212L31.4256 43.942C31.4256 43.942 29.5484 43.3686 28.3564 46.2998C26.6577 50.4715 28.8788 71.358 28.8788 71.358L31.9804 71.3115L33.6565 51.6182C33.6565 51.6182 53.7992 55.1057 59.6012 53.3425C61.828 52.6664 63.5271 48.7761 63.2105 44.848C62.9602 41.769 60.8837 38.9356 60.8837 38.9356L56.4886 38.7745Z" fill="#D9D6CD"/>
<path d="M53.6405 46.1902C53.6405 46.1902 52.6678 37.5003 52.116 33.3868C51.5641 29.2733 51.6851 22.3678 51.5575 21.379C51.4129 20.5567 51.1953 19.749 50.9073 18.9654C50.9073 18.9654 51.9175 16.7185 53.2409 16.7918C54.4046 16.8545 58.0727 18.0745 59.8503 18.7869C61.0779 19.2819 60.4355 33.1355 60.545 33.8673C60.9424 36.4989 62.2477 39.5129 63.0942 41.5969C63.5912 42.9423 63.9901 44.3218 64.2888 45.7247C64.2888 45.7247 57.5786 44.9433 53.6405 46.1902Z" fill="#A7A7A7"/>
<path d="M52.9915 16.1112L52.0053 17.2109C52.0053 17.2109 50.6291 19.0957 51.0771 18.83C51.644 18.4942 52.2961 20.459 52.2961 20.459L54.128 16.739L52.9915 16.1112Z" fill="#101C1D"/>
<path d="M61.0261 37.2307C61.0261 37.2307 62.5593 38.3071 56.7666 38.8949C50.974 39.4826 42.333 39.0615 42.333 39.0615L55.5813 36.5778C55.5813 36.5778 59.2347 35.8465 61.0261 37.2307Z" fill="#0A0909"/>
<path d="M46.9304 38.9826C44.1836 39.3391 43.1767 40.7295 42.1436 41.2533C41.4383 41.6252 40.7561 42.0401 40.1016 42.4958C40.5652 41.3617 41.4494 41.2139 41.8455 40.8147C42.2415 40.4156 42.1509 40.6024 41.1623 40.6632C40.6023 40.697 39.7481 41.7057 39.1117 42.2841C38.8526 42.5502 38.5346 42.751 38.183 42.8699C38.5852 42.2185 39.0522 41.6096 39.5773 41.0528C40.3385 40.2696 41.1876 39.5773 42.1076 38.9895C43.3073 38.5978 44.5614 38.3983 45.8232 38.3981C47.3249 38.3849 48.9089 38.7269 46.9304 38.9826Z" fill="#0A0909"/>
<path d="M42.2596 39.0201C41.4432 39.3058 40.6511 39.6572 39.8913 40.0709C39.6585 40.2758 38.7273 41.4299 38.7273 41.4299C39.1631 41.3045 39.5637 41.0788 39.8968 40.7708C40.6489 40.1405 41.4377 39.5559 42.2596 39.0201Z" fill="#0A0909"/>
<path d="M57.5991 35.6079L55.7147 22.9823C55.7147 22.9823 56.1814 20.3821 56.9979 19.4917C57.9646 18.4353 59.8086 18.7492 59.8086 18.7492C59.8086 18.7492 61.9637 20.4985 62.1189 30.4925C62.224 37.3335 62.8578 40.1462 59.8789 40.4445C57.0989 40.7227 53.9251 40.8918 53.9251 40.8918L51.814 36.7633L57.5991 35.6079Z" fill="#101C1D"/>
<path d="M41.8731 42.4369H23.5892V42.8084H41.8731V42.4369Z" fill="#CDD5D7"/>
<path d="M33.8039 42.415C33.8109 42.5455 33.766 42.6734 33.6793 42.771C33.5926 42.8686 33.471 42.928 33.3408 42.9362H23.9646C23.7099 42.9362 23.3639 42.752 23.0523 42.0214L18.4165 33.6472C18.4092 33.575 18.4184 33.5021 18.4433 33.434C18.4683 33.3658 18.5086 33.3042 18.5607 33.2538C18.6127 33.2033 18.6751 33.1652 18.744 33.1425C18.8128 33.1199 18.886 33.1132 18.9578 33.1228L28.5766 33.4072C28.7241 33.4516 28.8579 33.5334 28.9646 33.6448C29.0713 33.7561 29.147 33.8932 29.1852 34.0426L33.8039 42.415Z" fill="#CDD5D7"/>
<path d="M32.6694 42.8079H41.9179C41.4461 43.0137 40.9339 43.1112 40.4196 43.093H25.0126C24.4985 43.1112 23.9872 43.0138 23.5156 42.8079H32.6694Z" fill="#B7BEC0"/>
<path d="M35.2843 21.2323C35.2814 21.6695 35.1931 22.1017 35.0234 22.5044C34.8537 22.9072 34.6058 23.2726 34.295 23.5797C33.9843 23.8867 33.6167 24.1294 33.2123 24.2939C32.8079 24.4585 32.3748 24.5417 31.9383 24.5387H13.8251C13.3887 24.5416 12.956 24.4584 12.5517 24.2938C12.1474 24.1292 11.7796 23.8864 11.469 23.5794C11.1584 23.2723 10.9114 22.907 10.7419 22.5043C10.5723 22.1016 10.4837 21.6693 10.481 21.2323V3.31209C10.4836 2.87491 10.5724 2.44254 10.7419 2.03965C10.9114 1.63676 11.1584 1.27121 11.469 0.963943C11.7795 0.656675 12.1474 0.413808 12.5517 0.248945C12.9561 0.0840816 13.3885 0.000475448 13.8251 0.00311647H31.9383C32.8202 -0.00238488 33.6681 0.3431 34.2957 0.963637C34.9232 1.58417 35.2787 2.42895 35.2843 3.31209V21.2323Z" fill="#5987E1"/>
<path d="M31.1722 30.6748V22.1277H22.5317L31.1722 30.6748Z" fill="#5987E1"/>
<path d="M22.0501 14.9614C22.0481 15.3238 21.9748 15.6822 21.8344 16.0162C21.694 16.3502 21.4893 16.6532 21.2319 16.9079C20.9745 17.1625 20.6695 17.3638 20.3343 17.5003C19.9991 17.6368 19.6403 17.7058 19.2784 17.7033C18.9166 17.7058 18.5578 17.6368 18.2226 17.5003C17.8874 17.3638 17.5824 17.1625 17.325 16.9079C17.0676 16.6532 16.8623 16.3502 16.7219 16.0162C16.5815 15.6822 16.5082 15.3238 16.5062 14.9614C16.5081 14.599 16.5815 14.2404 16.7219 13.9064C16.8623 13.5723 17.0669 13.2693 17.3244 13.0146C17.5818 12.7598 17.8867 12.5585 18.222 12.4219C18.5572 12.2854 18.9165 12.2165 19.2784 12.2189C19.6404 12.2165 19.9991 12.2854 20.3343 12.4219C20.6695 12.5585 20.9745 12.7598 21.2319 13.0146C21.4893 13.2693 21.694 13.5723 21.8344 13.9064C21.9747 14.2404 22.0482 14.599 22.0501 14.9614V14.9614Z" stroke="white" stroke-width="4.903" stroke-miterlimit="10"/>
<path d="M21.3574 12.9042L29.6741 4.67664" stroke="white" stroke-width="4.903" stroke-miterlimit="10"/>
<path d="M26.2091 8.10596L28.2883 10.1624" stroke="white" stroke-width="4.903" stroke-miterlimit="10"/>
<path d="M28.2876 6.04822L30.3668 8.1059" stroke="white" stroke-width="4.903" stroke-miterlimit="10"/>
<path d="M204.696 111.584C207.045 112.175 211.372 114.282 212.277 117.886C213.636 123.296 210.916 131.239 215.224 139.007C216.6 141.485 191.429 144.812 191.429 144.812L186.573 117.474C186.573 117.474 192.642 111.542 193.88 111.141C196.451 110.315 200.007 110.4 204.696 111.584Z" fill="#A7A7A7"/>
<path d="M186.533 117.491C185.657 119.677 183.452 132.672 185.913 135.736C186.197 136.089 184.636 136.642 184.918 138.257C184.966 138.528 185.436 139.817 185.436 139.817L187.447 140.341L193.527 136.877L192.361 135.458L191.811 135.47C191.667 135.332 191.557 135.162 191.492 134.974C191.426 134.786 191.407 134.584 191.436 134.387C191.58 133.792 190.043 132.82 187.718 122.737C187.032 119.769 186.726 117.009 186.533 117.491Z" fill="#101C1D"/>
<path d="M188.885 135.119L190.683 134.723L191.412 134.607C191.434 134.934 191.577 135.241 191.811 135.469L190.418 135.513L188.784 135.864L186.811 136.992L188.885 135.119Z" fill="#DBDAC6"/>
<path d="M191.456 136.799C190.552 136.816 189.666 137.062 188.881 137.513C187.981 138.067 187.152 139.276 187.981 139.929C188.642 140.414 189.346 140.838 190.084 141.195C190.084 141.195 193.249 141.281 191.456 136.799Z" fill="#C4D1E1"/>
<path d="M187.984 139.978L188.83 139.796C188.83 139.796 191.746 139.531 192.16 139.758C192.574 139.986 193.912 140.892 193.912 140.892L194.186 141.143C193.938 141.261 193.662 141.304 193.391 141.268C193.12 141.231 192.865 141.115 192.658 140.936C191.779 140.321 191.706 140.792 191.706 140.792L191.853 141.571L191.843 142.565L191.978 142.983C191.978 142.983 192.103 143.21 192.005 143.296C191.932 143.365 191.843 143.413 191.746 143.435C191.648 143.457 191.547 143.453 191.452 143.421L190.564 141.87L190.322 143.556C190.279 143.629 190.222 143.692 190.154 143.742C190.085 143.792 190.007 143.827 189.924 143.845C189.663 143.901 189.662 143.832 189.662 143.832L189.462 143.403C189.438 143.518 189.376 143.622 189.286 143.698C189.13 143.804 188.945 143.856 188.757 143.846L188.84 142.07L188.476 142.972C188.385 143.116 188.242 143.219 188.077 143.26C187.783 143.329 187.702 143.352 187.702 143.352L187.984 139.978Z" fill="#E4EEF3"/>
<path d="M203.085 133.026C203.085 133.026 200.969 138.394 195.883 139.831C195.002 140.082 194.462 141.032 194.886 141.339C195.431 141.731 196.176 141.815 197.451 141.811C200.111 141.805 203.73 140.977 206.232 138.553C209.938 134.963 211.105 133.331 210.729 131.522C210.352 129.713 203.085 133.026 203.085 133.026Z" fill="#0A0909"/>
<path d="M211.556 116.079C212.63 117.849 213.255 120.697 213.245 124.769C213.238 127.919 210.521 133.082 210.106 134.669C210.036 134.935 209.871 136.071 209.871 136.071L206.86 139.028L200.822 134.931L202.658 132.112L203.206 132.17C203.374 131.461 203.459 130.735 203.459 130.006C203.365 129.4 205.131 121.27 206.005 116.058C206.509 113.052 210.488 114.321 211.556 116.079Z" fill="#101C1D"/>
<path d="M206.151 132.065L204.393 131.519L203.676 131.342C203.626 131.665 203.459 131.959 203.206 132.167L204.591 132.326L206.19 132.815L208.061 134.105L206.151 132.065Z" fill="#6B6B6B"/>
<path d="M196.27 139.815L193.195 138.971C193.195 138.971 192.323 140.141 192.488 140.434C192.573 141.105 192.573 141.784 192.488 142.456L193.979 143.722L195.192 143.32C195.192 143.32 195.275 142.792 194.86 142.738C194.446 142.685 195.14 142.386 195.361 142.262C195.583 142.137 197.357 141.217 196.27 139.815Z" fill="#0A0909"/>
<path d="M194.657 106.563L197.661 105.508C197.965 105.402 198.298 105.42 198.588 105.56C198.878 105.699 199.1 105.949 199.207 106.253L201.202 111.953C201.254 112.103 201.277 112.263 201.268 112.422C201.259 112.581 201.219 112.737 201.15 112.881C201.081 113.025 200.984 113.153 200.866 113.26C200.747 113.366 200.608 113.448 200.458 113.5L197.454 114.555C197.304 114.608 197.144 114.63 196.985 114.621C196.827 114.612 196.671 114.572 196.527 114.503C196.384 114.434 196.256 114.337 196.149 114.218C196.043 114.099 195.962 113.961 195.909 113.81L193.914 108.109C193.808 107.806 193.826 107.472 193.966 107.182C194.105 106.892 194.354 106.669 194.657 106.563V106.563Z" fill="#E2C59C"/>
<path d="M193.367 115.225C193.453 115.535 193.658 115.799 193.938 115.958C194.218 116.117 194.549 116.158 194.859 116.072L200.126 114.621C200.436 114.535 200.699 114.329 200.858 114.048C201.017 113.768 201.058 113.436 200.972 113.125L198.824 105.316C198.738 105.005 198.533 104.741 198.253 104.582C197.973 104.423 197.642 104.382 197.332 104.468L192.067 105.92C191.913 105.962 191.769 106.035 191.644 106.133C191.518 106.23 191.413 106.352 191.334 106.491C191.256 106.63 191.205 106.782 191.185 106.941C191.166 107.099 191.177 107.259 191.22 107.413L193.367 115.225Z" fill="#0A0909"/>
<path d="M191.654 109.022C191.211 108.76 190.815 108.426 190.481 108.033C190.398 107.748 190.386 107.447 190.446 107.156C190.506 106.865 190.637 106.593 190.826 106.364C191.317 105.863 191.979 106.361 191.979 106.361C191.979 106.361 191.187 107.139 191.193 107.349C191.199 107.558 191.654 109.022 191.654 109.022Z" fill="#C4C4C4"/>
<path d="M200.329 108.682C200.329 108.682 200.299 105.46 199.91 104.623C199.521 103.787 199.256 103.201 198.158 103.401C196.515 103.697 196.588 104.043 195.673 103.772C194.757 103.5 193.034 102.706 192.521 102.723C192.252 102.71 191.984 102.762 191.739 102.874C191.495 102.987 191.281 103.157 191.117 103.37C190.952 103.583 190.841 103.833 190.794 104.098C190.746 104.363 190.763 104.636 190.843 104.893C190.93 105.17 190.945 105.465 190.888 105.75C190.831 106.034 190.704 106.3 190.517 106.522C190.618 106.642 190.947 106.69 191.526 106.803C193.191 107.134 194.108 107.039 195.148 106.436C196.188 105.833 198.103 104.619 198.574 105.384C199.045 106.149 199.647 108.713 199.798 108.882C199.949 109.051 200.173 108.883 200.329 108.682Z" fill="#1D2022"/>
<path d="M199.313 111.482C199.327 111.534 199.351 111.582 199.384 111.625C199.417 111.667 199.458 111.702 199.505 111.728C199.551 111.755 199.602 111.771 199.655 111.778C199.709 111.784 199.762 111.78 199.814 111.765L200.951 111.452C201.002 111.438 201.05 111.414 201.092 111.381C201.134 111.349 201.169 111.308 201.196 111.262C201.222 111.216 201.239 111.165 201.245 111.112C201.252 111.059 201.248 111.005 201.233 110.954L200.66 108.872C200.646 108.82 200.622 108.772 200.589 108.73C200.557 108.687 200.516 108.652 200.469 108.626C200.422 108.599 200.371 108.582 200.318 108.576C200.265 108.57 200.211 108.574 200.16 108.589L199.024 108.902C198.921 108.93 198.833 108.999 198.78 109.092C198.727 109.185 198.713 109.295 198.741 109.399L199.313 111.482Z" fill="#0A0909"/>
<path d="M192.354 110.742L193.259 110.493C193.393 110.456 193.536 110.473 193.657 110.542C193.778 110.611 193.867 110.726 193.904 110.86L194.412 112.709C194.449 112.843 194.431 112.986 194.363 113.107C194.294 113.228 194.181 113.316 194.047 113.353L193.142 113.602C193.009 113.639 192.865 113.622 192.745 113.553C192.624 113.484 192.535 113.371 192.498 113.237L191.989 111.385C191.952 111.251 191.97 111.108 192.038 110.988C192.107 110.867 192.22 110.779 192.354 110.742V110.742Z" fill="#0A0909"/>
<path d="M200.01 109.505C200.01 109.505 200.857 112.579 201.136 113.606C201.39 114.532 201.581 116.667 196.352 118.109C193.259 118.964 192.744 116.655 192.539 115.907C192.42 114.943 192.507 113.964 192.794 113.036C192.801 113.022 193.143 114.303 193.143 114.303C193.256 113.871 193.478 113.477 193.789 113.157C194.101 112.838 194.489 112.605 194.917 112.482C197.29 111.83 198.212 113.071 199.252 112.759C200.053 112.517 200.298 111.035 200.01 109.505Z" fill="#1D2022"/>
<path d="M196.45 114.233L194.827 114.678C194.776 114.694 194.722 114.698 194.669 114.692C194.615 114.686 194.564 114.669 194.517 114.643C194.471 114.617 194.43 114.581 194.397 114.539C194.364 114.496 194.34 114.448 194.327 114.396L194.264 114.17L196.668 113.505L196.731 113.734C196.745 113.785 196.749 113.838 196.743 113.891C196.737 113.944 196.72 113.995 196.694 114.041C196.668 114.088 196.633 114.129 196.591 114.161C196.549 114.194 196.501 114.219 196.45 114.233Z" fill="#0A0909"/>
<path d="M170.77 145.423C171.521 147.496 184.651 155.135 189.054 154.681L202.319 155.314C213.599 153.936 218.936 136.383 218.936 136.383C218.487 131.976 207.375 138.366 203.415 140.344C197.14 143.477 193.175 143.637 193.175 143.637C188.978 144.068 184.113 140.826 178.816 140.713C172.996 140.589 169.589 142.152 170.77 145.423Z" fill="#081832"/>
<path d="M199.628 143.315C199.631 143.309 199.635 143.303 199.639 143.297V142.747L176.807 142.33L176.796 142.882C176.795 142.888 176.795 142.894 176.796 142.9L176.853 143.003C177.014 143.219 177.23 143.389 177.479 143.493C177.727 143.597 177.999 143.633 178.266 143.596L198.135 143.958C198.399 144.006 198.672 143.982 198.925 143.887C199.177 143.792 199.399 143.631 199.567 143.42L199.628 143.315Z" fill="#B6C2C9"/>
<path d="M194.125 143.307C194.125 143.307 194.125 143.318 194.125 143.322L194.179 143.407C194.264 143.527 194.377 143.625 194.508 143.694L197.98 143.757C198.227 143.8 198.481 143.783 198.721 143.708C198.96 143.633 199.178 143.502 199.357 143.325L199.414 143.243C199.414 143.238 199.421 143.234 199.424 143.228V142.958L194.134 142.861L194.125 143.307Z" fill="#D8E5ED"/>
<path d="M191.046 143.104L179.637 142.898L179.645 142.509L191.053 142.717L191.046 143.104Z" fill="#879BA6"/>
<path d="M194.01 142.623L191.257 131.331C191.216 131.182 191.129 131.049 191.01 130.951C190.89 130.853 190.743 130.794 190.589 130.783L174.571 130.491C174.505 130.487 174.44 130.499 174.38 130.526C174.32 130.553 174.267 130.595 174.227 130.647C174.187 130.699 174.161 130.761 174.15 130.826C174.14 130.891 174.146 130.958 174.167 131.02L176.923 142.309L194.01 142.623Z" fill="#D9E1E4"/>
<path d="M185.058 136.569C185.1 136.69 185.111 136.819 185.091 136.945C185.071 137.072 185.02 137.191 184.942 137.293C184.865 137.394 184.763 137.475 184.647 137.528C184.531 137.581 184.403 137.604 184.276 137.596C183.977 137.575 183.692 137.461 183.46 137.27C183.228 137.079 183.062 136.82 182.984 136.53C182.942 136.41 182.931 136.28 182.951 136.154C182.971 136.028 183.023 135.909 183.1 135.807C183.178 135.706 183.279 135.625 183.396 135.572C183.512 135.52 183.639 135.497 183.767 135.506C184.066 135.527 184.351 135.64 184.582 135.831C184.814 136.021 184.98 136.28 185.058 136.569Z" fill="#B6C2C9"/>
<path d="M204.348 158.239C202.766 158.509 201.563 156.673 201.563 156.673L197.48 153.457L198.344 151.28L206.29 154.858C206.29 154.858 205.928 157.969 204.348 158.239Z" fill="#0A0909"/>
<path d="M201.556 156.548C201.61 156.903 201.711 157.249 201.856 157.578C202.161 158.416 202.534 158.706 202.928 158.825C204.453 159.274 205.549 159.046 209.215 159.754C212.881 160.461 213.979 159.929 215.052 158.237C216.126 156.545 215.013 155.218 213.225 155.08C210.637 154.885 209.197 155.182 207.85 154.975C206.437 154.76 206.348 154.444 205.523 153.935C204.747 153.459 204.035 156.298 204.768 156.958C205.414 157.536 202.106 157.626 201.556 156.548Z" fill="#B0BFDE"/>
<path d="M202.338 158.181C203.863 158.63 204.961 158.402 208.626 159.11C212.291 159.818 213.391 159.284 214.464 157.593C214.685 157.31 214.823 156.97 214.864 156.613C214.905 156.255 214.846 155.893 214.695 155.567C215.501 156.122 215.776 157.094 215.051 158.237C213.978 159.929 212.879 160.461 209.213 159.754C205.546 159.047 204.45 159.274 202.926 158.825C202.74 158.764 202.568 158.666 202.421 158.536C202.275 158.406 202.157 158.247 202.075 158.069C202.158 158.116 202.246 158.153 202.338 158.181Z" fill="white"/>
<path d="M201.561 156.599C201.559 156.582 201.557 156.565 201.556 156.548C201.567 156.568 201.579 156.588 201.592 156.606L201.561 156.599Z" fill="#0A0909"/>
<path d="M209.48 157.87C209.597 157.913 209.703 157.691 209.74 157.379C209.811 156.735 209.953 156.101 210.163 155.488C210.271 155.179 210.267 154.905 210.138 154.869C210.009 154.833 209.802 155.057 209.7 155.359C209.499 155.966 209.365 156.593 209.3 157.229C209.269 157.539 209.362 157.825 209.48 157.87Z" fill="white"/>
<path d="M208.344 157.662C208.469 157.689 208.58 157.474 208.615 157.178C208.687 156.571 208.827 155.975 209.034 155.4C209.138 155.108 209.13 154.856 208.995 154.839C208.86 154.822 208.646 155.041 208.547 155.331C208.349 155.901 208.217 156.492 208.153 157.092C208.123 157.381 208.222 157.635 208.344 157.662Z" fill="white"/>
<path d="M207.153 157.61C207.278 157.628 207.407 157.397 207.454 157.094C207.556 156.466 207.724 155.851 207.955 155.259C208.069 154.957 208.071 154.703 207.928 154.695C207.785 154.687 207.562 154.926 207.449 155.224C207.228 155.811 207.07 156.42 206.977 157.041C206.932 157.338 207.024 157.594 207.153 157.61Z" fill="white"/>
<path d="M204.069 152.985C204.069 152.985 176.013 141.434 174.411 141.417C168.992 141.366 170.234 146.858 172.98 149.444C176.22 152.491 200.853 158.066 200.853 158.066L204.069 152.985Z" fill="#C4C4C4"/>
<path d="M192.939 154.993L200.599 147.72L197.335 144.482L188.971 153.286L192.939 154.993Z" fill="#0A0909"/>
<path d="M191.353 149.274C191.353 149.274 210.843 131.382 212.158 130.848C216.608 129.04 219.366 133.961 219.209 135.659C219.006 137.864 199.203 155.784 199.203 155.784L191.353 149.274Z" fill="#1D2022"/>
<path d="M179.8 155.56C179.344 155.982 179.266 157.221 179.266 157.221C179.266 157.221 185.773 159.687 188.055 159.727C188.967 159.663 189.868 159.492 190.739 159.216C190.912 159.17 191.308 158.723 191.477 158.674C191.789 158.583 191.859 158.885 192.127 158.799C192.54 158.683 192.943 158.534 193.332 158.355C194.705 155.429 194.241 153.988 194.241 153.988C194.241 153.988 191.252 154.846 191.764 154.176C192.86 152.743 189.726 151.277 189.029 152.041C186.245 155.098 181.121 154.34 179.8 155.56Z" fill="#B0BFDE"/>
<path d="M179.442 156.167C181.444 156.963 185.642 158.606 186.478 158.665C189.901 158.909 192.293 157.689 193.892 156.973C193.732 157.444 193.546 157.906 193.335 158.357C192.946 158.536 192.542 158.685 192.13 158.801C191.861 158.885 191.791 158.583 191.479 158.676C191.311 158.726 190.916 159.172 190.742 159.218C189.87 159.494 188.969 159.665 188.058 159.729C185.774 159.686 179.268 157.223 179.268 157.223C179.284 156.865 179.342 156.511 179.442 156.167Z" fill="white"/>
<path d="M184.038 154.272C183.976 154.383 184.232 154.517 184.597 154.594C185.348 154.747 186.083 154.97 186.793 155.259C187.15 155.405 187.473 155.439 187.523 155.315C187.572 155.19 187.326 154.952 186.975 154.813C186.271 154.534 185.544 154.319 184.802 154.172C184.442 154.103 184.099 154.158 184.038 154.272Z" fill="white"/>
<path d="M185.497 153.753C185.443 153.869 185.692 154.033 186.046 154.135C186.778 154.349 187.488 154.63 188.169 154.973C188.511 155.145 188.822 155.197 188.868 155.068C188.913 154.939 188.68 154.677 188.339 154.509C187.664 154.176 186.96 153.906 186.235 153.702C185.882 153.603 185.554 153.64 185.497 153.753Z" fill="white"/>
<path d="M186.901 153.301C186.849 153.421 187.089 153.609 187.437 153.739C188.148 154.01 188.832 154.344 189.484 154.736C189.813 154.934 190.11 155.005 190.155 154.867C190.2 154.729 189.972 154.447 189.647 154.256C189 153.872 188.32 153.548 187.616 153.286C187.273 153.162 186.952 153.178 186.901 153.301Z" fill="white"/>
<path d="M264.13 129.8C264.13 132.64 258.38 170.551 239.791 151.709C230.227 142.016 252.11 143.187 252.97 134.708C253.256 131.882 255.023 121.65 258.49 129.567C259.713 132.363 264.13 126.961 264.13 129.8Z" fill="#C4C4C4"/>
<path d="M251.039 130.441C251.039 130.441 251.857 130.01 249.57 125.793C247.561 122.351 245.342 119.037 242.925 115.868L247.333 126.027C247.333 126.027 249.197 129.843 251.039 130.441Z" fill="#0A0909"/>
<path d="M255.163 135.769L248.814 123.984L248.516 123.273L244.913 124.87C244.913 124.87 249.934 133.92 250.285 134.316C251.271 135.905 252.149 137.559 252.912 139.266C253.156 139.998 254.804 143.495 257.112 142.211C259.421 140.927 255.163 135.769 255.163 135.769Z" fill="#D9D6CD"/>
<path d="M245.176 118.993C244.055 117.005 244.529 115.672 244.381 114.732C244.291 114.087 244.243 113.436 244.236 112.784C243.669 113.637 244.008 114.288 243.923 114.747C243.839 115.205 243.926 115.049 243.477 114.368C243.219 113.98 243.502 112.926 243.592 112.231C243.65 111.932 243.632 111.624 243.541 111.334C243.284 111.91 243.088 112.512 242.958 113.13C242.788 114.008 242.724 114.903 242.77 115.796C243.096 116.783 243.583 117.71 244.209 118.539C244.953 119.542 245.984 120.427 245.176 118.993Z" fill="#0A0909"/>
<path d="M268.882 129.867C268.882 129.867 268.064 129.434 270.351 125.217C272.36 121.776 274.578 118.462 276.994 115.294L272.587 125.452C272.587 125.452 270.725 129.268 268.882 129.867Z" fill="#0A0909"/>
<path d="M264.758 135.193L271.107 123.408L271.404 122.695L275.007 124.293C275.007 124.293 269.988 133.344 269.636 133.741C269.284 134.139 267.414 138.028 267.008 138.691C265.671 140.884 265.672 142.109 265.37 141.824C263.479 140.022 264.758 135.193 264.758 135.193Z" fill="#D9D6CD"/>
<path d="M274.744 118.419C275.865 116.428 275.39 115.098 275.538 114.158C275.628 113.513 275.677 112.862 275.685 112.21C276.248 113.062 275.913 113.718 275.998 114.173C276.083 114.628 275.998 114.475 276.444 113.793C276.701 113.405 276.418 112.352 276.328 111.656C276.271 111.358 276.289 111.05 276.379 110.76C276.636 111.336 276.832 111.938 276.962 112.556C277.133 113.433 277.196 114.328 277.149 115.22C276.823 116.208 276.337 117.135 275.71 117.965C274.967 118.967 273.937 119.852 274.744 118.419Z" fill="#0A0909"/>
<path d="M248.721 202.151L247.414 208.318C247.414 208.318 244.514 210.532 243.575 210.792C242.637 211.051 242.832 210.698 242.935 210.496C243.038 210.293 244.789 209.023 245.205 208.21C245.62 207.396 246.275 202.052 246.393 201.797C246.512 201.541 248.721 202.151 248.721 202.151Z" fill="#0A0909"/>
<path d="M268.92 203.654C269.411 205.197 269.816 206.766 270.135 208.354C270.267 209.552 270.063 209.947 270.431 210.308C270.799 210.67 273.398 213.537 273.973 213.504C274.047 213.504 274.12 213.489 274.188 213.459C274.256 213.43 274.317 213.387 274.368 213.332C274.419 213.278 274.458 213.214 274.483 213.144C274.507 213.074 274.518 213 274.513 212.926C274.513 212.926 272.474 210.742 272.135 209.883C271.797 209.025 271.431 204.169 271.4 203.677C271.37 203.184 268.92 203.654 268.92 203.654Z" fill="#0A0909"/>
<path d="M260.167 159.403L254.734 181.601L248.973 202.948L245.64 202.428C245.64 202.428 249.872 180.551 249.984 178.636C250.095 176.721 250.93 161.129 253.702 157.808C256.475 154.487 260.167 159.403 260.167 159.403Z" fill="#1D2022"/>
<path d="M257.977 160.372C257.977 160.372 254.804 157.203 252.888 159.102C252.678 159.709 252.508 160.328 252.378 160.956C254.13 163.888 255.723 166.311 256.103 166.954C256.27 167.237 256.719 168.062 257.342 169.218L258.05 165.246L257.977 160.372Z" fill="#C4C4C4"/>
<path d="M265.748 156.506C265.748 156.506 268.599 168.531 269.01 175.082C269.42 181.633 271.31 200.743 271.31 200.743L271.52 204.091L268.913 204.167L263.323 179.935L258.031 157.657L265.748 156.506Z" fill="#1D2022"/>
<path d="M264.088 129.126C264.092 129.766 263.971 130.4 263.73 130.993C263.49 131.586 263.135 132.125 262.687 132.581C262.238 133.036 261.704 133.399 261.116 133.647C260.527 133.896 259.895 134.027 259.257 134.031C258.618 134.027 257.986 133.896 257.398 133.647C256.809 133.399 256.275 133.036 255.826 132.581C255.378 132.125 255.023 131.586 254.783 130.993C254.542 130.4 254.421 129.766 254.425 129.126C254.416 127.834 254.921 126.592 255.827 125.672C256.733 124.753 257.967 124.231 259.257 124.223C259.895 124.227 260.527 124.357 261.115 124.606C261.704 124.854 262.238 125.217 262.686 125.672C263.135 126.128 263.49 126.667 263.73 127.26C263.97 127.852 264.092 128.486 264.088 129.126Z" fill="#C4C4C4"/>
<path d="M258.413 130.566C258.413 130.566 258.873 133.192 258.489 133.921C258.105 134.649 255.5 136.329 255.115 136.839C254.731 137.348 255.883 141.287 259.641 140.705C263.398 140.122 264.956 138.292 264.956 137.708C264.956 137.123 266.694 136.109 265.468 135.672C264.243 135.235 262.248 134.943 261.71 134.356C261.307 133.865 261.021 133.287 260.875 132.668C260.729 132.049 260.726 131.405 260.867 130.785C261.251 129.254 258.413 130.566 258.413 130.566Z" fill="#0A0909"/>
<path d="M260.456 125.336C260.378 125.314 260.298 125.298 260.216 125.284C259.885 126.443 259.142 127.441 258.128 128.09C257.852 128.287 257.563 128.464 257.262 128.62V129.467C257.294 130.098 257.574 130.691 258.041 131.116C258.508 131.54 259.124 131.763 259.754 131.734C260.384 131.763 261 131.541 261.467 131.116C261.934 130.691 262.214 130.099 262.246 129.467V127.56C261.45 127.004 260.829 126.232 260.456 125.336Z" fill="#0A0909"/>
<path d="M264.689 157.513L253.276 160.671L255.061 150.703L254.656 139.01C256.049 139.506 257.498 139.83 258.969 139.973C260.29 140.052 263.111 139.01 263.111 139.01L264.689 157.513Z" fill="#6C7577"/>
<path d="M253.08 138.324C253.08 138.324 254.011 144.856 254.158 147.488C254.423 152.232 250.024 156.98 249.793 158.516C249.563 160.052 251.17 161.494 251.17 161.494C251.649 161.781 252.165 162.002 252.703 162.151C253.239 162.222 254.264 161.732 254.62 159.962C255.062 157.773 256.421 150.239 256.691 148.876C257.074 146.944 256.768 141.294 257.074 140.562C257.38 139.829 258.492 137.461 258.34 136.879C258.018 136.261 257.589 135.705 257.074 135.237C257.074 135.237 253.692 136.938 253.08 138.324Z" fill="#D9D6CD"/>
<path d="M263.684 135.016C263.684 135.016 262.189 135.617 261.729 135.837C261.269 136.056 261.499 138.462 261.729 138.79C261.959 139.118 262.361 146.504 262.417 148.251C262.474 149.999 262.705 156.893 262.993 158.151C263.281 159.409 263.109 160.884 264.488 161.378C265.867 161.872 268.458 159.556 268.458 159.556C268.458 159.556 266.563 155.874 266.218 154.397C265.874 152.92 265.122 151.039 265.006 148.798C264.981 146.295 265.249 143.798 265.805 141.358C266.275 139.373 266.499 136.654 266.615 136.325C266.731 135.996 264.145 135.18 263.684 135.016Z" fill="#D9D6CD"/>
<path d="M247.539 208.007C247.619 208.269 247.616 208.55 247.529 208.81C247.404 209.123 246.918 210.007 246.918 210.007L246.241 210.151L246.336 209.724C245.688 210.22 245 210.661 244.28 211.044C243.634 211.305 242.248 212.003 241.622 211.63C241.572 211.594 241.531 211.547 241.502 211.493C241.473 211.438 241.458 211.378 241.457 211.316C241.457 211.316 242.774 210.406 242.98 210.279C243.186 210.153 243.507 210.552 244.016 210.375C244.882 209.977 245.714 209.508 246.502 208.972C246.879 208.686 247.227 208.363 247.539 208.007Z" fill="#5987E1"/>
<path d="M270.188 209.492C270.129 209.76 270.124 210.037 270.173 210.307C270.261 210.599 270.384 210.879 270.539 211.142L271.134 211.419C271.665 211.984 272.238 212.508 272.849 212.985C273.406 213.336 274.584 214.224 275.21 213.946C275.262 213.917 275.307 213.876 275.341 213.826C275.375 213.777 275.398 213.72 275.407 213.661C275.407 213.661 274.322 212.571 274.151 212.417C273.981 212.263 273.629 212.61 273.184 212.362C272.44 211.841 271.741 211.257 271.095 210.618C270.77 210.262 270.467 209.886 270.188 209.492Z" fill="#5987E1"/>
<path d="M263.397 134.797L261.73 135.837C262.032 135.963 262.277 136.197 262.418 136.493C262.581 136.865 262.716 137.249 262.821 137.641L264.317 135.234C264.317 135.234 263.397 134.632 263.397 134.797Z" fill="#B7B7B7"/>
<path d="M257.244 134.962L257.514 135.385L258.375 136.839C258.375 136.839 258.193 136.383 257.531 136.877C257.207 137.194 256.969 137.59 256.842 138.025L256.382 135.4L257.244 134.962Z" fill="#B7B7B7"/>
<path d="M278.154 56.6281C259.321 49.601 239.83 55.2623 232.175 75.8373C224.52 96.4123 235.559 113.467 254.393 120.493C269.082 125.975 278.02 117.564 293.462 113.356C296.517 112.523 305.336 117.787 305.336 117.787L314.909 92.0606C314.909 92.0606 304.799 90.2635 303.035 87.6294C294.103 74.3259 292.845 62.1075 278.154 56.6281Z" fill="#5987E1"/>
<path d="M303.05 104.701C281.714 110.516 269.36 122.14 249.06 114.565C244.82 112.997 240.759 110.981 236.946 108.55C241.25 113.733 247.26 117.833 254.393 120.494C269.082 125.976 278.021 117.565 293.462 113.357C296.517 112.524 305.336 117.788 305.336 117.788L309.727 105.988C307.097 104.96 304.562 104.289 303.05 104.701Z" fill="#726E65"/>
<path d="M305.171 118.228L308.712 119.549C310.108 120.07 311.592 120.311 313.081 120.257C314.57 120.203 316.033 119.857 317.388 119.237C318.743 118.617 319.963 117.735 320.977 116.643C321.992 115.551 322.782 114.27 323.302 112.872L325.283 107.55C326.333 104.726 326.22 101.601 324.969 98.8612C323.718 96.1212 321.432 93.991 318.613 92.9389L315.073 91.6182L305.171 118.228Z" fill="#19191A"/>
<path d="M259.924 102.243L256.123 96.1904L262.956 94.0938L259.157 88.0372L265.99 85.9395L262.194 79.8749L269.027 77.777L265.233 71.7087L272.071 69.5964" stroke="#D9D6CD" stroke-width="8.211" stroke-miterlimit="10"/>
<path d="M266.323 99.2744L286.081 99.9317L308.376 108.25" stroke="#D9D6CD" stroke-width="8.211" stroke-miterlimit="10"/>
<path d="M273.749 79.3134L289.118 91.766L311.413 100.086" stroke="#D9D6CD" stroke-width="8.211" stroke-miterlimit="10"/>
<path d="M315.88 95.036L309.695 111.667L312.455 112.696L318.641 96.0655L315.88 95.036Z" fill="#A2AAB0"/>
<path d="M319.131 101.554L314.678 113.527L317.437 114.556L321.89 102.584L319.131 101.554Z" fill="#A2AAB0"/>
<path d="M97.2604 191.584C97.4287 191.384 97.3056 190.859 97.3056 190.859C97.3056 190.859 94.3819 190.537 93.4403 190.756C93.074 190.875 92.7232 191.038 92.3954 191.241C92.3297 191.278 92.2142 191.499 92.1485 191.535C92.0315 191.604 91.9694 191.488 91.8699 191.55C91.7129 191.639 91.5634 191.741 91.4226 191.854C91.1661 193.176 91.507 193.709 91.507 193.709C91.507 193.709 93.9144 194.446 94.4637 193.956C95.859 192.714 96.895 192.02 97.2604 191.584Z" fill="#5987E1"/>
<path d="M106.511 192.675L106.929 194.822H109.152C109.152 194.822 109.277 194.518 109.465 194.518C109.624 194.518 109.828 194.822 110.044 194.822H115.695C115.695 194.822 115.795 194.371 115.672 194.215C115.463 194.08 115.232 193.983 114.99 193.927C113.843 193.609 110.558 192.617 109.985 191.536C109.289 190.221 106.511 192.675 106.511 192.675Z" fill="#5987E1"/>
<path d="M108.278 120.306L108.811 117.705C108.811 117.705 110.688 117.847 111.051 116.851C111.787 114.856 111.171 111.668 110.726 110.773C109.462 108.228 108.927 103.773 103.014 107.315C100.765 108.664 104.238 115.197 104.496 116.611C104.598 117.653 104.422 118.703 103.987 119.654L105.37 120.677L108.278 120.306Z" fill="#0A0909"/>
<path d="M97.7637 144.928L97.5682 153.131C97.5682 153.131 94.4316 149.722 94.1269 145.844C93.8222 141.967 97.566 144.625 97.7637 144.928Z" fill="#E2C59C"/>
<path d="M101.287 161.832C101.287 161.832 102.153 162.204 99.6044 174.131C97.7655 182.719 96.195 189.001 95.461 191.845C95.1757 192.95 94.8574 192.751 94.8574 192.751L92.4267 193.018L91.2688 192.03L94.7419 172.57L101.287 161.832Z" fill="#C4C4C4"/>
<path d="M117.19 139.584L112.215 148.983C112.215 148.983 121.709 142.216 121.114 138.493C120.518 134.77 117.19 139.584 117.19 139.584Z" fill="#0A0909"/>
<path d="M97.7095 122.842C97.7095 122.842 95.6923 124.057 94.2407 133.928C92.7891 143.798 93.714 143.422 93.714 143.422L93.9785 145.67L97.7473 146.069L99.7857 137.548L97.7095 122.842Z" fill="#D9D6CD"/>
<path d="M106.973 148.477C106.973 148.477 101.408 171.184 97.0404 181.364C94.4801 187.325 94.4576 175.88 94.4576 175.88L98.4342 142.906L110.048 142.352C110.048 142.352 108.733 142.752 106.973 148.477Z" fill="#C4C4C4"/>
<path d="M102.921 142.415C102.921 142.415 107.126 171.814 107.567 173.141C109.064 177.629 111.369 171.745 111.896 170.25C112.423 168.756 113.305 157.679 113.129 149.599L112.953 141.516L102.921 142.415Z" fill="#C4C4C4"/>
<path d="M107.146 165.788C107.146 165.788 106.51 169.297 105.982 173.774C105.592 177.064 105.582 186.46 106.199 192.986C106.235 193.385 110.446 192.172 110.446 192.172C110.446 192.172 111.982 173.906 112.335 169.817C112.687 165.728 109.786 162.867 107.146 165.788Z" fill="#C4C4C4"/>
<path d="M97.5852 122.862L102.552 120.642L103.921 119.364L109.2 119.239L110.125 120.738L114.218 122.487C114.218 122.487 115.227 124.053 114.348 129.859C113.376 136.293 113.169 146.019 113.169 146.019L97.697 146.754C97.697 146.754 99.0368 125.984 97.5852 122.862Z" fill="#5987E1"/>
<path d="M112.902 122.498C112.902 122.498 113.822 121.487 116.065 124.235C119.89 128.92 121.741 134.729 122.134 135.855C122.528 136.981 123.039 138.571 121.474 140.439C120.278 141.869 119.891 142.351 119.891 142.351L116.457 140.242L116.998 139.23L117.383 138.728C117.383 138.728 115.534 134.729 113.555 131.106C111.576 127.483 112.902 122.498 112.902 122.498Z" fill="#5987E1"/>
<path d="M109.055 111.52C109.055 111.52 108.386 111.115 108.283 111.621C108.181 112.126 108.542 113.242 108.846 113.344C109.151 113.445 109.256 114.813 109.256 114.813L108.434 116.332H104.271C104.271 116.332 102.985 115.776 102.882 114.863C102.778 113.95 101.752 107.518 101.752 107.518L104.682 105.998C105.529 105.58 106.405 105.224 107.304 104.933C108.96 104.465 109.306 105.338 109.256 105.793C109.206 106.248 109.72 106.3 110.387 106.3C111.055 106.3 111.88 106.806 111.519 107.111C111.37 107.237 112.034 107.637 111.77 108.121C111.394 108.81 110.13 109.037 110.026 110.151C109.988 110.658 109.776 112.33 109.055 111.52Z" fill="#1D2022"/>
<path d="M83.1565 101.427C92.1615 101.427 99.4614 94.1171 99.4614 85.0994C99.4614 76.0817 92.1615 68.7714 83.1565 68.7714C74.1516 68.7714 66.8517 76.0817 66.8517 85.0994C66.8517 94.1171 74.1516 101.427 83.1565 101.427Z" fill="#EDF6F8"/>
<path d="M94.9133 94.0406C95.3068 94.7869 99.4324 103.166 99.4324 103.166L89.3291 96.854L94.9133 94.0406Z" fill="#EDF6F8"/>
<path d="M87.9215 93.854H80.4034V83.3713H81.8522V92.4035H87.9209L87.9215 93.854Z" fill="#C4C4C4"/>
<path d="M85.706 93.129H84.2578V84.0969H77.9227V82.6464H85.706V93.129Z" fill="#C4C4C4"/>
<path d="M83.1288 80.7309C82.3286 80.7299 81.5616 80.4111 80.9957 79.8444C80.4299 79.2778 80.112 78.5095 80.111 77.7082C80.1118 76.9067 80.4299 76.1383 80.9957 75.5716C81.5616 75.0048 82.3285 74.6859 83.1288 74.6849C83.9292 74.6859 84.6966 75.0048 85.2625 75.5716C85.8285 76.1383 86.1469 76.9066 86.1479 77.7082C86.1469 78.5096 85.8285 79.2781 85.2625 79.8447C84.6965 80.4114 83.9291 80.7301 83.1288 80.7309ZM83.1288 76.1356C82.7125 76.1361 82.3135 76.3019 82.0192 76.5968C81.7249 76.8917 81.5594 77.2913 81.5591 77.7082C81.5594 78.125 81.7249 78.5248 82.0192 78.8195C82.3135 79.1143 82.7126 79.2799 83.1288 79.2803C83.5451 79.2799 83.9446 79.1142 84.239 78.8195C84.5335 78.5248 84.6993 78.1251 84.6998 77.7082C84.6998 77.2909 84.5341 76.8907 84.2397 76.5954C83.9452 76.3002 83.5455 76.1341 83.1288 76.1336V76.1356Z" fill="#C4C4C4"/>
</svg>
