<svg width="40" height="40" viewBox="0 0 40 40" fill="none" xmlns="http://www.w3.org/2000/svg">
<path d="M30 30C29.6292 30 29.2666 30.11 28.9583 30.316C28.65 30.522 28.4096 30.8149 28.2677 31.1575C28.1258 31.5001 28.0887 31.8771 28.161 32.2408C28.2334 32.6045 28.412 32.9386 28.6742 33.2008C28.9364 33.463 29.2705 33.6416 29.6342 33.714C29.9979 33.7863 30.3749 33.7492 30.7175 33.6073C31.0601 33.4654 31.353 33.225 31.559 32.9167C31.765 32.6083 31.875 32.2458 31.875 31.875C31.8744 31.3779 31.6767 30.9013 31.3252 30.5498C30.9737 30.1983 30.4971 30.0006 30 30ZM30 33.125C29.7528 33.125 29.5111 33.0517 29.3055 32.9143C29.1 32.777 28.9398 32.5818 28.8452 32.3534C28.7505 32.1249 28.7258 31.8736 28.774 31.6311C28.8223 31.3887 28.9413 31.1659 29.1161 30.9911C29.2909 30.8163 29.5137 30.6972 29.7561 30.649C29.9986 30.6008 30.2499 30.6255 30.4784 30.7201C30.7068 30.8148 30.902 30.975 31.0393 31.1805C31.1767 31.3861 31.25 31.6278 31.25 31.875C31.2496 32.2064 31.1178 32.5241 30.8835 32.7585C30.6491 32.9928 30.3314 33.1246 30 33.125Z" fill="#5987E1"/>
<path d="M18.75 31.875C18.75 31.5042 18.64 31.1416 18.434 30.8333C18.228 30.525 17.9351 30.2846 17.5925 30.1427C17.2499 30.0008 16.8729 29.9637 16.5092 30.036C16.1455 30.1084 15.8114 30.287 15.5492 30.5492C15.287 30.8114 15.1084 31.1455 15.036 31.5092C14.9637 31.8729 15.0008 32.2499 15.1427 32.5925C15.2846 32.9351 15.525 33.228 15.8333 33.434C16.1416 33.64 16.5042 33.75 16.875 33.75C17.3721 33.7494 17.8487 33.5517 18.2002 33.2002C18.5517 32.8487 18.7494 32.3721 18.75 31.875ZM15.625 31.875C15.625 31.6278 15.6983 31.3861 15.8357 31.1805C15.973 30.975 16.1682 30.8148 16.3966 30.7202C16.6251 30.6255 16.8764 30.6008 17.1189 30.649C17.3613 30.6973 17.5841 30.8163 17.7589 30.9911C17.9337 31.1659 18.0528 31.3887 18.101 31.6311C18.1492 31.8736 18.1245 32.1249 18.0299 32.3534C17.9352 32.5818 17.775 32.777 17.5695 32.9143C17.3639 33.0517 17.1222 33.125 16.875 33.125C16.5436 33.1246 16.2259 32.9928 15.9915 32.7585C15.7572 32.5241 15.6254 32.2064 15.625 31.875Z" fill="#5987E1"/>
<path d="M38.75 32.5C38.7496 32.1686 38.6177 31.8509 38.3834 31.6166C38.1491 31.3823 37.8314 31.2505 37.5 31.25C37.4998 31.0287 37.441 30.8113 37.3294 30.6201C37.2178 30.4289 37.0575 30.2708 36.8648 30.1617C36.8718 30.1081 36.8752 30.0541 36.875 30C37.0389 30.0003 37.2011 29.9683 37.3526 29.9058C37.5041 29.8433 37.6418 29.7516 37.7578 29.6359C37.7584 29.6346 37.7595 29.6335 37.7609 29.6328C37.8967 29.4963 37.9992 29.3303 38.0603 29.1477C38.1214 28.9652 38.1396 28.7709 38.1133 28.5802C38.0871 28.3894 38.0172 28.2073 37.909 28.048C37.8009 27.8887 37.6574 27.7565 37.4898 27.6617C37.4968 27.6081 37.5002 27.5541 37.5 27.5C37.4996 27.1686 37.3677 26.8509 37.1334 26.6166C36.8991 26.3823 36.5814 26.2505 36.25 26.25C36.2496 25.9186 36.1177 25.6009 35.8834 25.3666C35.6491 25.1323 35.3314 25.0005 35 25H33.125C33.1248 24.7453 33.0468 24.4967 32.9016 24.2875C33.0629 23.8846 33.1386 23.4524 33.1237 23.0186C33.1088 22.5848 33.0038 22.1588 32.8152 21.7679C32.6267 21.3769 32.3587 21.0295 32.0285 20.7478C31.6983 20.4661 31.313 20.2562 30.8972 20.1316C30.4815 20.007 30.0443 19.9703 29.6135 20.024C29.1828 20.0776 28.768 20.2204 28.3955 20.4432C28.0229 20.666 27.7009 20.964 27.4499 21.3181C27.1989 21.6722 27.0244 22.0747 26.9375 22.5H25.9141C25.8578 22.3734 25.8 22.2477 25.7398 22.125C25.6648 21.9727 25.5867 21.8211 25.5055 21.6719C25.984 21.574 26.4231 21.3373 26.768 20.9914L33.125 14.6344L35.3656 16.875C35.4807 16.9913 35.6178 17.0836 35.7687 17.1466C35.9197 17.2096 36.0817 17.2421 36.2453 17.2422C36.5775 17.2424 36.8961 17.1109 37.1314 16.8764C37.3666 16.6418 37.4992 16.3236 37.5 15.9914V7.50002C37.4996 7.16863 37.3677 6.85095 37.1334 6.61662C36.8991 6.38229 36.5814 6.25046 36.25 6.25002H27.7586C27.5114 6.25011 27.2697 6.3235 27.0641 6.46092C26.8586 6.59833 26.6984 6.79361 26.6038 7.02206C26.5093 7.2505 26.4846 7.50186 26.5328 7.74435C26.5811 7.98684 26.7002 8.20958 26.875 8.3844L29.1156 10.625L25 14.7406L20.1789 9.92033C20.4773 8.90314 21.0609 6.51331 20.3156 5.48673C20.21 5.33549 20.0692 5.21218 19.9053 5.12739C19.7415 5.04261 19.5595 4.9989 19.375 5.00002H16.25C15.4891 5.00002 15.0586 5.35002 14.8313 5.64377C14.6926 5.82579 14.5876 6.0311 14.5211 6.25002H11.875C11.6862 6.24901 11.5001 6.29461 11.3331 6.38279C11.1662 6.47096 11.0236 6.59898 10.918 6.75549C10.4016 7.48675 10.5172 8.90471 10.8789 10.1125L3.125 17.8656C2.89086 18.1004 2.75938 18.4185 2.75938 18.75C2.75938 19.0816 2.89086 19.3996 3.125 19.6344L5.36562 21.875C5.42421 21.9329 5.48802 21.9852 5.55625 22.0313C5.182 22.7776 4.89319 23.5639 4.69531 24.375H2.8125C2.39823 24.3754 2.00104 24.5402 1.70811 24.8331C1.41517 25.1261 1.25042 25.5232 1.25 25.9375V28.75C1.24944 29.0883 1.35945 29.4175 1.56328 29.6875C1.35944 29.9575 1.24943 30.2867 1.25 30.625V33.4375C1.25042 33.8518 1.41517 34.249 1.70811 34.5419C2.00104 34.8349 2.39823 34.9996 2.8125 35H37.5C37.6639 35.0003 37.8261 34.9683 37.9776 34.9058C38.1291 34.8433 38.2668 34.7516 38.3828 34.6359C38.3834 34.6346 38.3845 34.6335 38.3859 34.6328C38.5796 34.4381 38.7039 34.185 38.7395 33.9126C38.775 33.6403 38.72 33.3638 38.5828 33.1258C38.6929 32.9357 38.7506 32.7197 38.75 32.5ZM37.1875 28.75C37.1875 28.7911 37.1794 28.8317 37.1637 28.8696C37.148 28.9075 37.125 28.942 37.096 28.971C37.067 29 37.0325 29.0231 36.9946 29.0388C36.9567 29.0545 36.916 29.0625 36.875 29.0625H35.2578C35.3307 28.8606 35.3307 28.6395 35.2578 28.4375H36.875C36.916 28.4375 36.9567 28.4456 36.9946 28.4613C37.0325 28.477 37.067 28.5 37.096 28.529C37.125 28.558 37.148 28.5925 37.1637 28.6304C37.1794 28.6683 37.1875 28.709 37.1875 28.75ZM32.3375 30.3125C32.1833 30.083 31.9964 29.8772 31.7828 29.7016C31.8126 29.6922 31.8437 29.6874 31.875 29.6875H35.625C35.7079 29.6875 35.7874 29.7204 35.846 29.7791C35.9046 29.8377 35.9375 29.9171 35.9375 30C35.9375 30.0829 35.9046 30.1624 35.846 30.221C35.7874 30.2796 35.7079 30.3125 35.625 30.3125H32.3375ZM34.0625 31.25C34.0625 31.2911 34.0544 31.3317 34.0387 31.3696C34.023 31.4075 34 31.442 33.971 31.471C33.942 31.5 33.9075 31.5231 33.8696 31.5388C33.8317 31.5545 33.791 31.5625 33.75 31.5625H32.7945C32.7708 31.3494 32.7228 31.1397 32.6516 30.9375H33.75C33.791 30.9375 33.8317 30.9456 33.8696 30.9613C33.9075 30.977 33.942 31 33.971 31.029C34 31.058 34.023 31.0925 34.0387 31.1304C34.0544 31.1683 34.0625 31.209 34.0625 31.25ZM29.7422 29.0625H26.25C26.1671 29.0625 26.0876 29.0296 26.029 28.971C25.9704 28.9124 25.9375 28.8329 25.9375 28.75C25.9375 28.6671 25.9704 28.5877 26.029 28.5291C26.0876 28.4704 26.1671 28.4375 26.25 28.4375H29.7422C29.6693 28.6395 29.6693 28.8606 29.7422 29.0625ZM27.2055 31.5625H25.2945C25.2708 31.3494 25.2228 31.1397 25.1516 30.9375H27.3484C27.2772 31.1397 27.2292 31.3494 27.2055 31.5625ZM27.3484 32.8125H25.1516C25.2228 32.6103 25.2708 32.4006 25.2945 32.1875H27.2055C27.2292 32.4006 27.2772 32.6103 27.3484 32.8125H27.3484ZM24.8375 30.3125C24.6791 30.0766 24.486 29.8659 24.2649 29.6875H27.5C27.5829 29.6875 27.6624 29.7204 27.721 29.7791C27.7796 29.8377 27.8125 29.9171 27.8125 30C27.8125 30.0829 27.7796 30.1624 27.721 30.221C27.6624 30.2796 27.5829 30.3125 27.5 30.3125H24.8375ZM29.375 22.8125H28.7914C28.84 22.623 28.9324 22.4475 29.0612 22.3003C29.1901 22.153 29.3517 22.0381 29.5331 21.9648C29.7144 21.8915 29.9105 21.8618 30.1055 21.8781C30.3004 21.8945 30.4888 21.9564 30.6555 22.0589C30.8221 22.1614 30.9624 22.3016 31.0649 22.4683C31.1674 22.6349 31.2293 22.8233 31.2456 23.0183C31.262 23.2132 31.2323 23.4093 31.159 23.5907C31.0856 23.7721 30.9707 23.9337 30.8234 24.0625H30.2578C30.294 23.9623 30.3125 23.8566 30.3125 23.75C30.3123 23.5014 30.2135 23.2631 30.0377 23.0873C29.8619 22.9116 29.6236 22.8127 29.375 22.8125ZM31.875 24.6875C31.9579 24.6875 32.0374 24.7204 32.096 24.7791C32.1546 24.8377 32.1875 24.9171 32.1875 25C32.1875 25.0829 32.1546 25.1624 32.096 25.221C32.0374 25.2796 31.9579 25.3125 31.875 25.3125H28.125C28.0421 25.3125 27.9626 25.2796 27.904 25.221C27.8454 25.1624 27.8125 25.0829 27.8125 25C27.8125 24.9171 27.8454 24.8377 27.904 24.7791C27.9626 24.7204 28.0421 24.6875 28.125 24.6875H31.875ZM30 25.9375C30.0829 25.9375 30.1624 25.9704 30.221 26.0291C30.2796 26.0877 30.3125 26.1671 30.3125 26.25C30.3125 26.3329 30.2796 26.4124 30.221 26.471C30.1624 26.5296 30.0829 26.5625 30 26.5625H26.25C26.1671 26.5625 26.0876 26.5296 26.029 26.471C25.9704 26.4124 25.9375 26.3329 25.9375 26.25C25.9375 26.1671 25.9704 26.0877 26.029 26.0291C26.0876 25.9704 26.1671 25.9375 26.25 25.9375H30ZM26.6172 27.8125H24.375C24.2921 27.8125 24.2126 27.7796 24.154 27.721C24.0954 27.6624 24.0625 27.5829 24.0625 27.5C24.0625 27.4171 24.0954 27.3377 24.154 27.2791C24.2126 27.2204 24.2921 27.1875 24.375 27.1875H26.6172C26.5443 27.3895 26.5443 27.6106 26.6172 27.8125ZM26.875 25.3125H24.893C24.3927 24.9078 23.7685 24.6872 23.125 24.6875H26.875C26.9579 24.6875 27.0374 24.7204 27.096 24.7791C27.1546 24.8377 27.1875 24.9171 27.1875 25C27.1875 25.0829 27.1546 25.1624 27.096 25.221C27.0374 25.2796 26.9579 25.3125 26.875 25.3125ZM25.1008 26.5625H24.7469C24.5273 26.1816 24.1808 25.89 23.768 25.7388C23.3552 25.5876 22.9023 25.5864 22.4887 25.7354C22.075 25.8844 21.7269 26.1741 21.5054 26.5538C21.2838 26.9335 21.2028 27.3791 21.2766 27.8125H20.9602C20.9456 27.709 20.938 27.6046 20.9375 27.5C20.9374 27.0034 21.1064 26.5215 21.4165 26.1337C21.7267 25.7458 22.1597 25.4751 22.6441 25.366C23.1286 25.2569 23.6359 25.3159 24.0823 25.5334C24.5288 25.7508 24.888 26.1138 25.1008 26.5625H25.1008ZM23.4922 27.8125H21.9164C21.8893 27.7106 21.8753 27.6055 21.875 27.5C21.875 27.251 21.9493 27.0077 22.0885 26.8012C22.2277 26.5947 22.4254 26.4345 22.6563 26.3412C22.8871 26.2478 23.1406 26.2256 23.3842 26.2772C23.6278 26.3289 23.8504 26.4522 24.0234 26.6313C23.8506 26.7016 23.7025 26.8217 23.5982 26.9764C23.4938 27.1311 23.4379 27.3134 23.4375 27.5C23.4375 27.6066 23.456 27.7123 23.4922 27.8125ZM21.25 28.4375H25C25.0829 28.4375 25.1624 28.4704 25.221 28.5291C25.2796 28.5877 25.3125 28.6671 25.3125 28.75C25.3125 28.8329 25.2796 28.9124 25.221 28.971C25.1624 29.0296 25.0829 29.0625 25 29.0625H21.25C21.1671 29.0625 21.0876 29.0296 21.029 28.971C20.9704 28.9124 20.9375 28.8329 20.9375 28.75C20.9375 28.6671 20.9704 28.5877 21.029 28.5291C21.0876 28.4704 21.1671 28.4375 21.25 28.4375ZM27.5 27.8125C27.4171 27.8125 27.3376 27.7796 27.279 27.721C27.2204 27.6624 27.1875 27.5829 27.1875 27.5C27.1875 27.4171 27.2204 27.3377 27.279 27.2791C27.3376 27.2204 27.4171 27.1875 27.5 27.1875H31.25C31.3329 27.1875 31.4124 27.2204 31.471 27.2791C31.5296 27.3377 31.5625 27.4171 31.5625 27.5C31.5625 27.5829 31.5296 27.6624 31.471 27.721C31.4124 27.7796 31.3329 27.8125 31.25 27.8125H27.5ZM30.625 28.4375H34.375C34.4579 28.4375 34.5374 28.4704 34.596 28.5291C34.6546 28.5877 34.6875 28.6671 34.6875 28.75C34.6875 28.8329 34.6546 28.9124 34.596 28.971C34.5374 29.0296 34.4579 29.0625 34.375 29.0625H30.625C30.5421 29.0625 30.4626 29.0296 30.404 28.971C30.3454 28.9124 30.3125 28.8329 30.3125 28.75C30.3125 28.6671 30.3454 28.5877 30.404 28.5291C30.4626 28.4704 30.5421 28.4375 30.625 28.4375ZM34.6328 30.9375H36.25C36.3329 30.9375 36.4124 30.9704 36.471 31.0291C36.5296 31.0877 36.5625 31.1671 36.5625 31.25C36.5625 31.3329 36.5296 31.4124 36.471 31.471C36.4124 31.5296 36.3329 31.5625 36.25 31.5625H34.6328C34.7057 31.3606 34.7057 31.1395 34.6328 30.9375ZM36.25 27.1875C36.3329 27.1875 36.4124 27.2204 36.471 27.2791C36.5296 27.3377 36.5625 27.4171 36.5625 27.5C36.5625 27.5829 36.5296 27.6624 36.471 27.721C36.4124 27.7796 36.3329 27.8125 36.25 27.8125H32.5C32.4171 27.8125 32.3376 27.7796 32.279 27.721C32.2204 27.6624 32.1875 27.5829 32.1875 27.5C32.1875 27.4171 32.2204 27.3377 32.279 27.2791C32.3376 27.2204 32.4171 27.1875 32.5 27.1875H36.25ZM35 25.9375C35.0829 25.9375 35.1624 25.9704 35.221 26.0291C35.2796 26.0877 35.3125 26.1671 35.3125 26.25C35.3125 26.3329 35.2796 26.4124 35.221 26.471C35.1624 26.5296 35.0829 26.5625 35 26.5625H31.25C31.1671 26.5625 31.0876 26.5296 31.029 26.471C30.9704 26.4124 30.9375 26.3329 30.9375 26.25C30.9375 26.1671 30.9704 26.0877 31.029 26.0291C31.0876 25.9704 31.1671 25.9375 31.25 25.9375H35ZM30 20.9375C30.3696 20.9374 30.7332 21.031 31.0568 21.2095C31.3804 21.3879 31.6535 21.6455 31.8506 21.9582C32.0477 22.2708 32.1623 22.6283 32.1838 22.9973C32.2053 23.3662 32.1329 23.7346 31.9734 24.068C31.9406 24.0641 31.6219 24.0625 31.6219 24.0625C31.7592 23.8251 31.8428 23.5603 31.8666 23.2871C31.8905 23.0138 31.854 22.7386 31.7599 22.4809C31.6657 22.2233 31.5162 21.9894 31.3218 21.7959C31.1273 21.6024 30.8928 21.4539 30.6347 21.3609C30.3766 21.268 30.1013 21.2328 29.8281 21.2579C29.5549 21.283 29.2906 21.3678 29.0538 21.5062C28.817 21.6446 28.6134 21.8334 28.4575 22.0591C28.3016 22.2848 28.1972 22.542 28.1516 22.8125H27.8352C27.911 22.2922 28.1714 21.8165 28.5688 21.4723C28.9662 21.1281 29.4742 20.9383 30 20.9375ZM25.5617 23.4438H25.5625C25.5831 23.4397 25.604 23.4376 25.625 23.4375H29.375C29.4579 23.4375 29.5374 23.4704 29.596 23.5291C29.6546 23.5877 29.6875 23.6671 29.6875 23.75C29.6875 23.8329 29.6546 23.9124 29.596 23.971C29.5374 24.0296 29.4579 24.0625 29.375 24.0625H25.625C25.5476 24.0625 25.473 24.0338 25.4156 23.9819C25.3581 23.93 25.322 23.8587 25.3141 23.7817C25.3063 23.7047 25.3272 23.6276 25.3729 23.5651C25.4187 23.5027 25.4859 23.4595 25.5617 23.4438ZM24.3367 15.4039C24.4238 15.4911 24.5272 15.5603 24.641 15.6074C24.7548 15.6546 24.8768 15.6789 25 15.6789C25.1232 15.6789 25.2452 15.6546 25.359 15.6074C25.4728 15.5603 25.5762 15.4911 25.6633 15.4039L29.7789 11.2883C29.9545 11.1122 30.0531 10.8737 30.0531 10.625C30.0531 10.3763 29.9545 10.1378 29.7789 9.96174L27.5383 7.72112C27.4946 7.67747 27.4647 7.62184 27.4526 7.56125C27.4405 7.50066 27.4466 7.43784 27.4702 7.38073C27.4938 7.32362 27.5338 7.27479 27.5851 7.2404C27.6364 7.206 27.6968 7.1876 27.7586 7.18752H36.25C36.291 7.18751 36.3317 7.19559 36.3696 7.21129C36.4075 7.22699 36.442 7.25001 36.471 7.27903C36.5 7.30805 36.523 7.3425 36.5387 7.38042C36.5544 7.41834 36.5625 7.45898 36.5625 7.50002V15.9914C36.5624 16.0532 36.544 16.1136 36.5096 16.1649C36.4752 16.2162 36.4264 16.2562 36.3693 16.2798C36.3122 16.3034 36.2494 16.3095 36.1888 16.2974C36.1282 16.2853 36.0726 16.2555 36.0289 16.2117L33.7883 13.9711C33.7012 13.8839 33.5978 13.8148 33.484 13.7676C33.3702 13.7204 33.2482 13.6961 33.125 13.6961C33.0018 13.6961 32.8798 13.7204 32.766 13.7676C32.6522 13.8148 32.5488 13.8839 32.4617 13.9711L26.1047 20.3281C25.9027 20.5295 25.6495 20.6719 25.3725 20.7399C25.0955 20.808 24.8051 20.799 24.5328 20.7141C23.9245 19.8633 23.1964 19.105 22.3711 18.4625C21.3738 17.6875 20.529 16.7341 19.8797 15.6508L19.2242 14.5578C19.3442 14.4878 19.447 14.3919 19.5252 14.2772C19.6034 14.1624 19.6551 14.0316 19.6764 13.8944C19.6978 13.7571 19.6882 13.6169 19.6485 13.4838C19.6088 13.3507 19.5399 13.2281 19.4469 13.125C19.542 13.0195 19.6118 12.8937 19.6511 12.7572C19.6903 12.6207 19.698 12.4771 19.6734 12.3371C19.6489 12.1972 19.5928 12.0648 19.5094 11.9498C19.426 11.8348 19.3175 11.7403 19.1922 11.6735C19.3391 11.3539 19.4766 11.0164 19.6023 10.6688L24.3367 15.4039ZM11.6188 7.41799C11.7141 7.18752 11.8227 7.18752 11.875 7.18752H14.6922C14.6875 7.30705 14.6875 7.41408 14.6875 7.50002C14.6875 7.84376 14.7594 8.2547 14.9203 8.83362C14.9425 8.91339 14.9954 8.98109 15.0675 9.02182C15.1396 9.06255 15.2249 9.07297 15.3047 9.0508C15.3845 9.02863 15.4522 8.97568 15.4929 8.90359C15.5336 8.83151 15.544 8.74619 15.5219 8.66642C15.3774 8.14455 15.3125 7.78441 15.3125 7.50002C15.3125 6.53517 15.4695 5.93752 16.25 5.93752H19.375C19.4173 5.9369 19.4589 5.94871 19.4946 5.97148C19.5303 5.99426 19.5585 6.027 19.5758 6.06566C20.0359 6.81095 19.5219 9.53518 18.5547 11.5625H17.1328C17.0681 11.38 16.9485 11.222 16.7905 11.1101C16.6324 10.9982 16.4437 10.9379 16.25 10.9375C16.2328 10.9375 16.2164 10.9391 16.2 10.9399C16.1 10.568 15.9938 10.2149 15.8984 9.90783C15.8864 9.86861 15.8667 9.83216 15.8405 9.80056C15.8143 9.76895 15.7822 9.74281 15.7459 9.72364C15.7096 9.70446 15.6699 9.69262 15.629 9.6888C15.5882 9.68498 15.547 9.68924 15.5078 9.70135C15.4685 9.71347 15.4321 9.73319 15.4005 9.75939C15.3689 9.78559 15.3428 9.81775 15.3237 9.85405C15.3045 9.89035 15.2927 9.93006 15.2889 9.97092C15.2851 10.0118 15.2894 10.053 15.3016 10.0922C15.4 10.4117 15.5109 10.7813 15.6133 11.168C15.4983 11.0676 15.3604 10.9969 15.2118 10.9621C15.0631 10.9273 14.9082 10.9295 14.7606 10.9684C14.613 11.0073 14.4771 11.0818 14.365 11.1854C14.2528 11.289 14.1677 11.4185 14.1172 11.5625H12.6352L12.6344 11.5617C11.7523 10.5672 11.268 8.26565 11.6188 7.41799ZM18.75 12.8125H18.3594C18.1638 12.5712 17.9331 12.3605 17.675 12.1875H18.75C18.8329 12.1875 18.9124 12.2204 18.971 12.279C19.0296 12.3377 19.0625 12.4171 19.0625 12.5C19.0625 12.5829 19.0296 12.6624 18.971 12.721C18.9124 12.7796 18.8329 12.8125 18.75 12.8125ZM19.0625 13.75C19.0623 13.797 19.0514 13.8434 19.0307 13.8856C19.01 13.9278 18.98 13.9648 18.943 13.9938C18.8946 13.8028 18.829 13.6166 18.7469 13.4375H18.75C18.791 13.4375 18.8317 13.4456 18.8696 13.4613C18.9075 13.477 18.942 13.5 18.971 13.529C19 13.558 19.023 13.5925 19.0387 13.6304C19.0544 13.6683 19.0625 13.709 19.0625 13.75ZM17.1875 13.3805V12.6172C17.4829 12.7875 17.7396 13.0174 17.9414 13.2922C17.9453 13.2985 17.95 13.3047 17.9547 13.3109C18.2414 13.7133 18.4375 14.2594 18.4375 15V17.5C18.4375 17.5829 18.4046 17.6624 18.346 17.721C18.2874 17.7796 18.2079 17.8125 18.125 17.8125C18.0421 17.8125 17.9626 17.7796 17.904 17.721C17.8454 17.6624 17.8125 17.5829 17.8125 17.5V15C17.8125 14.3078 17.6016 13.7641 17.1875 13.3805ZM16.5625 11.875V14.375C16.5625 14.4579 16.5296 14.5374 16.471 14.596C16.4124 14.6546 16.3329 14.6875 16.25 14.6875C16.1671 14.6875 16.0876 14.6546 16.029 14.596C15.9704 14.5374 15.9375 14.4579 15.9375 14.375V11.875C15.9375 11.7921 15.9704 11.7127 16.029 11.654C16.0876 11.5954 16.1671 11.5625 16.25 11.5625C16.3329 11.5625 16.4124 11.5954 16.471 11.654C16.5296 11.7127 16.5625 11.7921 16.5625 11.875ZM15.3125 11.875V14.375C15.3125 14.4579 15.2796 14.5374 15.221 14.596C15.1624 14.6546 15.0829 14.6875 15 14.6875C14.9171 14.6875 14.8376 14.6546 14.779 14.596C14.7204 14.5374 14.6875 14.4579 14.6875 14.375V11.875C14.6875 11.7921 14.7204 11.7127 14.779 11.654C14.8376 11.5954 14.9171 11.5625 15 11.5625C15.0829 11.5625 15.1624 11.5954 15.221 11.654C15.2796 11.7127 15.3125 11.7921 15.3125 11.875ZM12.5 12.8125C12.4171 12.8125 12.3376 12.7796 12.279 12.721C12.2204 12.6624 12.1875 12.5829 12.1875 12.5C12.1875 12.4171 12.2204 12.3377 12.279 12.279C12.3376 12.2204 12.4171 12.1875 12.5 12.1875H13.575C13.3169 12.3605 13.0862 12.5712 12.8906 12.8125H12.5ZM12.5031 13.4375C12.421 13.6166 12.3554 13.8028 12.307 13.9938C12.2559 13.9538 12.2186 13.8989 12.2002 13.8366C12.1818 13.7744 12.1834 13.708 12.2047 13.6467C12.2259 13.5854 12.2659 13.5322 12.3188 13.4947C12.3718 13.4572 12.4351 13.4372 12.5 13.4375H12.5031ZM12.8125 15C12.8125 14.2594 13.0086 13.7141 13.2953 13.3109C13.3 13.3047 13.3047 13.2985 13.3086 13.2922C13.5106 13.0176 13.7673 12.7878 14.0625 12.6172V13.3805C13.6484 13.7641 13.4375 14.3078 13.4375 15V17.5C13.4375 17.5829 13.4046 17.6624 13.346 17.721C13.2874 17.7796 13.2079 17.8125 13.125 17.8125C13.0421 17.8125 12.9626 17.7796 12.904 17.721C12.8454 17.6624 12.8125 17.5829 12.8125 17.5V15ZM3.78828 18.9711C3.72975 18.9124 3.69687 18.8329 3.69687 18.75C3.69687 18.6671 3.72975 18.5876 3.78828 18.5289L11.4805 10.8367C11.6139 11.1489 11.7785 11.4468 11.9719 11.7258C11.8614 11.8008 11.7683 11.8987 11.6989 12.0128C11.6294 12.1268 11.5852 12.2544 11.5692 12.387C11.5532 12.5196 11.5658 12.6541 11.6062 12.7814C11.6465 12.9087 11.7137 13.0259 11.8031 13.125C11.7101 13.2281 11.6412 13.3507 11.6015 13.4838C11.5618 13.6169 11.5523 13.7571 11.5736 13.8944C11.5949 14.0316 11.6466 14.1624 11.7248 14.2772C11.803 14.3919 11.9058 14.4878 12.0258 14.5578L11.3703 15.6508C10.721 16.7341 9.87621 17.6875 8.87891 18.4625C7.86852 19.2481 7.00519 20.2064 6.32891 21.293C6.27616 21.3069 6.2207 21.3067 6.16806 21.2924C6.11542 21.2781 6.06744 21.2503 6.0289 21.2117L3.78828 18.9711ZM3.125 31.25H7.8125V31.875H3.125C3.04212 31.875 2.96264 31.9079 2.90403 31.9666C2.84543 32.0252 2.8125 32.1046 2.8125 32.1875C2.8125 32.2704 2.84543 32.3499 2.90403 32.4085C2.96264 32.4671 3.04212 32.5 3.125 32.5H7.8125V33.125H3.125C3.04212 33.125 2.96264 33.1579 2.90403 33.2166C2.84543 33.2752 2.8125 33.3546 2.8125 33.4375C2.8125 33.5204 2.84543 33.5999 2.90403 33.6585C2.96264 33.7171 3.04212 33.75 3.125 33.75H7.72812C7.67329 33.8449 7.59449 33.9237 7.49961 33.9786C7.40472 34.0334 7.2971 34.0624 7.1875 34.0625H2.8125C2.64681 34.0623 2.48797 33.9964 2.37081 33.8792C2.25364 33.7621 2.18772 33.6032 2.1875 33.4375V30.625C2.18772 30.4593 2.25364 30.3005 2.3708 30.1833C2.48796 30.0662 2.64681 30.0002 2.8125 30H7.1875C7.3532 30.0002 7.51204 30.0662 7.6292 30.1833C7.74637 30.3005 7.81228 30.4593 7.8125 30.625H3.125C3.04212 30.625 2.96264 30.6579 2.90403 30.7166C2.84543 30.7752 2.8125 30.8546 2.8125 30.9375C2.8125 31.0204 2.84543 31.0999 2.90403 31.1585C2.96264 31.2171 3.04212 31.25 3.125 31.25ZM3.125 26.5625H7.8125V27.1875H3.125C3.04212 27.1875 2.96264 27.2204 2.90403 27.2791C2.84543 27.3377 2.8125 27.4171 2.8125 27.5C2.8125 27.5829 2.84543 27.6624 2.90403 27.721C2.96264 27.7796 3.04212 27.8125 3.125 27.8125H7.8125V28.4375H3.125C3.04212 28.4375 2.96264 28.4704 2.90403 28.5291C2.84543 28.5877 2.8125 28.6671 2.8125 28.75C2.8125 28.8329 2.84543 28.9124 2.90403 28.971C2.96264 29.0296 3.04212 29.0625 3.125 29.0625H7.72812C7.67329 29.1574 7.59449 29.2362 7.49961 29.2911C7.40472 29.3459 7.2971 29.3749 7.1875 29.375H2.8125C2.64681 29.3748 2.48797 29.3089 2.37081 29.1917C2.25364 29.0746 2.18772 28.9157 2.1875 28.75V25.9375C2.18772 25.7718 2.25364 25.613 2.3708 25.4958C2.48796 25.3787 2.64681 25.3127 2.8125 25.3125H7.1875C7.3532 25.3127 7.51204 25.3787 7.6292 25.4958C7.74637 25.613 7.81228 25.7718 7.8125 25.9375H3.125C3.04212 25.9375 2.96264 25.9704 2.90403 26.0291C2.84543 26.0877 2.8125 26.1671 2.8125 26.25C2.8125 26.3329 2.84543 26.4124 2.90403 26.471C2.96264 26.5296 3.04212 26.5625 3.125 26.5625ZM5.58516 24.6875C6.12056 22.413 7.41824 20.3903 9.26251 18.9555C10.3211 18.1334 11.2176 17.1217 11.9063 15.9719L12.1875 15.5031V17.5C12.1875 17.7487 12.2863 17.9871 12.4621 18.1629C12.6379 18.3387 12.8764 18.4375 13.125 18.4375C13.3736 18.4375 13.6121 18.3387 13.7879 18.1629C13.9637 17.9871 14.0625 17.7487 14.0625 17.5V15C14.0621 14.8702 14.0725 14.7406 14.0938 14.6125C14.1341 14.768 14.2139 14.9105 14.3254 15.0262C14.4368 15.1419 14.5762 15.2269 14.7301 15.2731C14.884 15.3192 15.0472 15.325 15.2039 15.2897C15.3607 15.2545 15.5057 15.1795 15.625 15.0719C15.6979 15.1371 15.7804 15.1909 15.8695 15.2313C15.76 15.753 15.5838 16.2584 15.3453 16.7352C15.3082 16.8093 15.3021 16.8952 15.3283 16.9739C15.3546 17.0526 15.411 17.1176 15.4852 17.1547C15.5593 17.1918 15.6452 17.1979 15.7239 17.1717C15.8026 17.1454 15.8676 17.089 15.9047 17.0149C16.1793 16.4652 16.3787 15.881 16.4977 15.2781C16.656 15.2344 16.8002 15.15 16.9158 15.0332C17.0313 14.9164 17.1142 14.7714 17.1563 14.6125C17.1775 14.7406 17.1879 14.8702 17.1875 15V17.5C17.1875 17.7487 17.2863 17.9871 17.4621 18.1629C17.6379 18.3387 17.8764 18.4375 18.125 18.4375C18.3736 18.4375 18.6121 18.3387 18.7879 18.1629C18.9637 17.9871 19.0625 17.7487 19.0625 17.5V15.5031L19.3438 15.9719C20.0324 17.1217 20.9289 18.1334 21.9875 18.9555C23.3455 20.0129 24.4154 21.3952 25.0984 22.975C24.9719 23.0609 24.8683 23.1764 24.7967 23.3115C24.7251 23.4466 24.6876 23.5971 24.6875 23.75C24.6875 23.8566 24.706 23.9623 24.7422 24.0625H23.125C22.9037 24.063 22.6896 24.1416 22.5206 24.2846C22.3517 24.4275 22.2387 24.6256 22.2016 24.8438C21.6503 25.0362 21.1724 25.3952 20.834 25.871C20.4956 26.3469 20.3133 26.9161 20.3125 27.5C20.313 27.6044 20.319 27.7087 20.3305 27.8125H18.125C17.8764 27.8127 17.6381 27.9116 17.4623 28.0873C17.2865 28.2631 17.1877 28.5014 17.1875 28.75C17.1875 28.8566 17.206 28.9623 17.2422 29.0625H17.1469C17.1733 28.9604 17.187 28.8555 17.1875 28.75V25.9375C17.1871 25.6061 17.0552 25.2884 16.8209 25.0541C16.5866 24.8198 16.2689 24.688 15.9375 24.6875H15.4555C15.566 24.4978 15.6245 24.2822 15.625 24.0627C15.6255 23.8431 15.5681 23.6273 15.4584 23.437C15.3488 23.2468 15.1909 23.0888 15.0006 22.9792C14.8104 22.8695 14.5946 22.812 14.375 22.8125H8.125C8.04212 22.8125 7.96264 22.8454 7.90403 22.9041C7.84543 22.9627 7.8125 23.0421 7.8125 23.125C7.8125 23.2079 7.84543 23.2874 7.90403 23.346C7.96264 23.4046 8.04212 23.4375 8.125 23.4375C8.29076 23.4375 8.44973 23.5034 8.56694 23.6206C8.68415 23.7378 8.75 23.8968 8.75 24.0625C8.75 24.2283 8.68415 24.3873 8.56694 24.5045C8.44973 24.6217 8.29076 24.6875 8.125 24.6875H5.58516ZM20.3672 29.0625H18.125C18.0421 29.0625 17.9626 29.0296 17.904 28.971C17.8454 28.9124 17.8125 28.8329 17.8125 28.75C17.8125 28.6671 17.8454 28.5877 17.904 28.5291C17.9626 28.4704 18.0421 28.4375 18.125 28.4375H20.3672C20.2943 28.6395 20.2943 28.8606 20.3672 29.0625ZM20.625 29.6875C20.7079 29.6875 20.7874 29.7204 20.846 29.7791C20.9046 29.8377 20.9375 29.9171 20.9375 30C20.9375 30.0829 20.9046 30.1624 20.846 30.221C20.7874 30.2796 20.7079 30.3125 20.625 30.3125H19.2125C19.0541 30.0766 18.861 29.8659 18.6399 29.6875H20.625ZM15 26.5625H16.5625V27.1875H15C14.9171 27.1875 14.8376 27.2204 14.779 27.2791C14.7204 27.3377 14.6875 27.4171 14.6875 27.5C14.6875 27.5829 14.7204 27.6624 14.779 27.721C14.8376 27.7796 14.9171 27.8125 15 27.8125H16.5625V28.4375H15C14.9171 28.4375 14.8376 28.4704 14.779 28.5291C14.7204 28.5877 14.6875 28.6671 14.6875 28.75C14.6875 28.8329 14.7204 28.9124 14.779 28.971C14.8376 29.0296 14.9171 29.0625 15 29.0625H16.4766C16.4703 29.0727 16.4656 29.0836 16.4594 29.0938C16.1558 29.1391 15.8618 29.2341 15.5891 29.375H13.893C14.0039 29.1854 14.0624 28.9697 14.0625 28.75V25.9375C14.0624 25.7178 14.0039 25.5022 13.893 25.3125H15.9375C16.1032 25.3127 16.262 25.3787 16.3792 25.4958C16.4964 25.613 16.5623 25.7718 16.5625 25.9375H15C14.9171 25.9375 14.8376 25.9704 14.779 26.0291C14.7204 26.0877 14.6875 26.1671 14.6875 26.25C14.6875 26.3329 14.7204 26.4124 14.779 26.471C14.8376 26.5296 14.9171 26.5625 15 26.5625ZM9.20703 23.4375H14.375C14.5408 23.4375 14.6997 23.5034 14.8169 23.6206C14.9342 23.7378 15 23.8968 15 24.0625C15 24.2283 14.9342 24.3873 14.8169 24.5045C14.6997 24.6217 14.5408 24.6875 14.375 24.6875H9.20548C9.31623 24.4979 9.37473 24.2823 9.375 24.0627C9.37528 23.8431 9.31732 23.6274 9.20703 23.4375H9.20703ZM10.9375 33.4375C10.9373 33.6032 10.8714 33.7621 10.7542 33.8792C10.637 33.9964 10.4782 34.0623 10.3125 34.0625H8.26798C8.32498 33.9648 8.3681 33.8596 8.39609 33.75H10C10.0829 33.75 10.1624 33.7171 10.221 33.6585C10.2796 33.5999 10.3125 33.5204 10.3125 33.4375C10.3125 33.3546 10.2796 33.2752 10.221 33.2166C10.1624 33.1579 10.0829 33.125 10 33.125H8.4375V32.5H10C10.0829 32.5 10.1624 32.4671 10.221 32.4085C10.2796 32.3499 10.3125 32.2704 10.3125 32.1875C10.3125 32.1046 10.2796 32.0252 10.221 31.9666C10.1624 31.9079 10.0829 31.875 10 31.875H8.4375V31.25H10C10.0829 31.25 10.1624 31.2171 10.221 31.1585C10.2796 31.0999 10.3125 31.0204 10.3125 30.9375C10.3125 30.8546 10.2796 30.7752 10.221 30.7166C10.1624 30.6579 10.0829 30.625 10 30.625H8.4375C8.43738 30.4053 8.37887 30.1897 8.26798 30H10.3125C10.4782 30.0002 10.637 30.0662 10.7542 30.1833C10.8714 30.3005 10.9373 30.4593 10.9375 30.625V33.4375ZM10.9375 28.75C10.9373 28.9157 10.8714 29.0746 10.7542 29.1917C10.637 29.3089 10.4782 29.3748 10.3125 29.375H8.26798C8.32498 29.2773 8.3681 29.1721 8.39609 29.0625H10C10.0829 29.0625 10.1624 29.0296 10.221 28.971C10.2796 28.9124 10.3125 28.8329 10.3125 28.75C10.3125 28.6671 10.2796 28.5877 10.221 28.5291C10.1624 28.4704 10.0829 28.4375 10 28.4375H8.4375V27.8125H10C10.0829 27.8125 10.1624 27.7796 10.221 27.721C10.2796 27.6624 10.3125 27.5829 10.3125 27.5C10.3125 27.4171 10.2796 27.3377 10.221 27.2791C10.1624 27.2204 10.0829 27.1875 10 27.1875H8.4375V26.5625H10C10.0829 26.5625 10.1624 26.5296 10.221 26.471C10.2796 26.4124 10.3125 26.3329 10.3125 26.25C10.3125 26.1671 10.2796 26.0877 10.221 26.0291C10.1624 25.9704 10.0829 25.9375 10 25.9375H8.4375C8.43738 25.7178 8.37887 25.5022 8.26798 25.3125H10.3125C10.4782 25.3127 10.637 25.3787 10.7542 25.4958C10.8714 25.613 10.9373 25.7718 10.9375 25.9375V28.75ZM13.4375 33.4375C13.4373 33.6032 13.3714 33.7621 13.2542 33.8792C13.137 33.9964 12.9782 34.0623 12.8125 34.0625H11.393C11.5039 33.8729 11.5624 33.6572 11.5625 33.4375V30.625C11.5624 30.4053 11.5039 30.1897 11.393 30H12.8125C12.9782 30.0002 13.137 30.0662 13.2542 30.1833C13.3714 30.3005 13.4373 30.4593 13.4375 30.625V33.4375ZM13.4375 28.75C13.4373 28.9157 13.3714 29.0746 13.2542 29.1917C13.137 29.3089 12.9782 29.3748 12.8125 29.375H11.393C11.5039 29.1854 11.5624 28.9697 11.5625 28.75V25.9375C11.5624 25.7178 11.5039 25.5022 11.393 25.3125H12.8125C12.9782 25.3127 13.137 25.3787 13.2542 25.4958C13.3714 25.613 13.4373 25.7718 13.4375 25.9375V28.75ZM13.893 34.0625C14.0039 33.8729 14.0624 33.6572 14.0625 33.4375V30.625C14.0624 30.4053 14.0039 30.1897 13.893 30H14.7813C14.5263 30.2838 14.3319 30.6165 14.2099 30.9779C14.0879 31.3393 14.0409 31.7218 14.0717 32.102C14.1024 32.4822 14.2104 32.8522 14.389 33.1893C14.5675 33.5263 14.8129 33.8235 15.1102 34.0625H13.893ZM16.875 34.0625C16.7254 34.0626 16.5762 34.0474 16.4297 34.0172C16.394 34.001 16.3556 33.9917 16.3164 33.9899C15.7792 33.8479 15.3163 33.5067 15.0215 33.0357C14.7267 32.5647 14.6223 31.9992 14.7293 31.454C14.8364 30.9088 15.147 30.4248 15.5979 30.1003C16.0489 29.7757 16.6065 29.635 17.1575 29.7066C17.7085 29.7783 18.2115 30.057 18.5645 30.4861C18.9175 30.9152 19.0939 31.4625 19.0579 32.017C19.022 32.5714 18.7763 33.0914 18.3709 33.4713C17.9655 33.8513 17.4306 34.0626 16.875 34.0625ZM21.875 34.0625H18.6399C18.861 33.8841 19.0541 33.6734 19.2125 33.4375H21.875C21.9579 33.4375 22.0374 33.4704 22.096 33.5291C22.1546 33.5877 22.1875 33.6671 22.1875 33.75C22.1875 33.8329 22.1546 33.9124 22.096 33.971C22.0374 34.0296 21.9579 34.0625 21.875 34.0625ZM21.875 32.8125H19.5266C19.5978 32.6103 19.6458 32.4006 19.6695 32.1875H21.875C21.9579 32.1875 22.0374 32.2204 22.096 32.2791C22.1546 32.3377 22.1875 32.4171 22.1875 32.5C22.1875 32.5829 22.1546 32.6624 22.096 32.721C22.0374 32.7796 21.9579 32.8125 21.875 32.8125ZM21.875 31.5625H19.6695C19.6458 31.3494 19.5978 31.1397 19.5266 30.9375H21.875C21.9579 30.9375 22.0374 30.9704 22.096 31.0291C22.1546 31.0877 22.1875 31.1671 22.1875 31.25C22.1875 31.3329 22.1546 31.4124 22.096 31.471C22.0374 31.5296 21.9579 31.5625 21.875 31.5625ZM22.5719 31.875C22.7262 31.7044 22.8119 31.4827 22.8125 31.2526C22.8131 31.0225 22.7285 30.8003 22.575 30.6289C22.8928 30.6476 23.1915 30.787 23.4099 31.0187C23.6283 31.2503 23.75 31.5566 23.75 31.875C23.75 32.1934 23.6283 32.4997 23.4099 32.7314C23.1915 32.963 22.8928 33.1024 22.575 33.1211C22.7285 32.9497 22.8131 32.7275 22.8125 32.4975C22.8119 32.2674 22.7262 32.0457 22.5719 31.875ZM22.7641 34.0461C22.7961 33.9507 22.8125 33.8507 22.8125 33.75C22.8125 33.7414 22.8117 33.7328 22.8109 33.7235C23.0837 33.6778 23.343 33.5724 23.5703 33.4147C23.7975 33.257 23.987 33.051 24.1253 32.8114C24.2635 32.5719 24.347 32.3047 24.3698 32.029C24.3926 31.7534 24.3541 31.4761 24.2571 31.2171C24.1601 30.9581 24.007 30.7238 23.8087 30.5309C23.6104 30.3381 23.372 30.1915 23.1104 30.1016C22.8488 30.0118 22.5706 29.981 22.2957 30.0114C22.0208 30.0417 21.756 30.1326 21.5203 30.2774C21.5484 30.1876 21.5626 30.0941 21.5625 30C21.5627 29.9674 21.5608 29.9348 21.557 29.9024C21.8431 29.7655 22.1556 29.6925 22.4727 29.6885C22.7898 29.6844 23.1041 29.7494 23.3936 29.8789C23.6831 30.0084 23.941 30.1993 24.1493 30.4384C24.3577 30.6775 24.5116 30.9591 24.6002 31.2636C24.6889 31.5681 24.7104 31.8882 24.663 32.2018C24.6156 32.5154 24.5006 32.8149 24.3259 33.0797C24.1512 33.3444 23.9211 33.5679 23.6514 33.7348C23.3817 33.9017 23.0789 34.0079 22.7641 34.0461ZM26.6172 34.0625H24.2649C24.486 33.8841 24.6791 33.6734 24.8375 33.4375H26.6172C26.5443 33.6395 26.5443 33.8606 26.6172 34.0625ZM27.5 34.0625C27.4171 34.0625 27.3376 34.0296 27.279 33.971C27.2204 33.9124 27.1875 33.8329 27.1875 33.75C27.1875 33.6671 27.2204 33.5877 27.279 33.5291C27.3376 33.4704 27.4171 33.4375 27.5 33.4375H27.6625C27.8209 33.6734 28.014 33.8841 28.2352 34.0625H27.5ZM30 34.0625C29.5674 34.0625 29.1444 33.9342 28.7847 33.6939C28.425 33.4535 28.1446 33.1119 27.979 32.7121C27.8134 32.3124 27.7701 31.8726 27.8545 31.4483C27.9389 31.0239 28.1473 30.6342 28.4532 30.3282C28.7591 30.0223 29.1489 29.814 29.5732 29.7296C29.9976 29.6451 30.4374 29.6885 30.8371 29.854C31.2368 30.0196 31.5785 30.3 31.8188 30.6597C32.0592 31.0194 32.1875 31.4424 32.1875 31.875C32.1869 32.455 31.9562 33.011 31.5461 33.4211C31.136 33.8312 30.58 34.0619 30 34.0625ZM35 34.0625H31.7649C31.986 33.8841 32.1791 33.6734 32.3375 33.4375H35C35.0829 33.4375 35.1624 33.4704 35.221 33.5291C35.2796 33.5877 35.3125 33.6671 35.3125 33.75C35.3125 33.8329 35.2796 33.9124 35.221 33.971C35.1624 34.0296 35.0829 34.0625 35 34.0625ZM35 32.8125H32.6516C32.7228 32.6103 32.7708 32.4006 32.7945 32.1875H35C35.0829 32.1875 35.1624 32.2204 35.221 32.2791C35.2796 32.3377 35.3125 32.4171 35.3125 32.5C35.3125 32.5829 35.2796 32.6624 35.221 32.721C35.1624 32.7796 35.0829 32.8125 35 32.8125ZM37.5 34.0625H35.8828C35.9557 33.8606 35.9557 33.6395 35.8828 33.4375H37.5C37.5829 33.4375 37.6624 33.4704 37.721 33.5291C37.7796 33.5877 37.8125 33.6671 37.8125 33.75C37.8125 33.8329 37.7796 33.9124 37.721 33.971C37.6624 34.0296 37.5829 34.0625 37.5 34.0625ZM37.5 32.8125H35.8828C35.9557 32.6106 35.9557 32.3895 35.8828 32.1875H37.5C37.5829 32.1875 37.6624 32.2204 37.721 32.2791C37.7796 32.3377 37.8125 32.4171 37.8125 32.5C37.8125 32.5829 37.7796 32.6624 37.721 32.721C37.6624 32.7796 37.5829 32.8125 37.5 32.8125Z" fill="#5987E1"/>
</svg>
