<svg width="92" height="85" viewBox="0 0 92 85" fill="none" xmlns="http://www.w3.org/2000/svg">
<path d="M38.4792 18.7955C39.2234 18.7955 39.8268 18.2381 39.8268 17.5503V6.1547C39.8268 5.46689 39.2234 4.90958 38.4792 4.90958C37.7349 4.90958 37.1315 5.46689 37.1315 6.1547V17.5503C37.1315 18.238 37.7347 18.7955 38.4792 18.7955ZM58.1312 18.7955H63.2809C64.0252 18.7955 64.6286 18.2381 64.6286 17.5503C64.6286 16.8625 64.0252 16.3052 63.2809 16.3052H59.4789V13.1496H62.9012C63.6455 13.1496 64.2489 12.5923 64.2489 11.9045C64.2489 11.2167 63.6455 10.6594 62.9012 10.6594H59.4789V7.50374H63.2809C64.0252 7.50374 64.6286 6.94643 64.6286 6.25862C64.6286 5.57082 64.0252 5.01351 63.2809 5.01351H58.1312C57.387 5.01351 56.7836 5.57082 56.7836 6.25862V17.5503C56.7836 18.238 57.387 18.7955 58.1312 18.7955ZM46.8674 17.796C47.0975 18.3949 47.7122 18.7955 48.3994 18.7955H48.4107C49.1023 18.7911 49.7165 18.3816 49.942 17.7683L53.9693 6.56808C54.204 5.91547 53.8216 5.21073 53.1153 4.99408C52.4082 4.7766 51.646 5.13038 51.4115 5.78315L48.3773 14.2214L45.1932 5.74646C44.9492 5.09685 44.1812 4.7527 43.4781 4.97848C42.775 5.20393 42.4028 5.91331 42.6469 6.56293L46.8674 17.796ZM33.0382 16.2956H33.0305C32 16.3009 30.8919 16.3047 30.0667 16.3052V6.1547C30.0667 5.46689 29.4634 4.90958 28.7191 4.90958C27.9748 4.90958 27.3714 5.46689 27.3714 6.1547V17.5407C27.3714 18.1472 27.8446 18.6655 28.4916 18.7681C28.587 18.7832 31.6485 18.793 33.0456 18.7858C33.7899 18.782 34.3899 18.2215 34.3857 17.5337C34.3816 16.8484 33.7791 16.2956 33.0382 16.2956ZM40.6818 47.0196C41.4261 47.0196 42.0294 46.4623 42.0294 45.7745V43.7992C42.0294 43.1114 41.4261 42.5541 40.6818 42.5541C39.9375 42.5541 39.3341 43.1114 39.3341 43.7992V45.7745C39.3341 46.4621 39.9375 47.0196 40.6818 47.0196ZM88.8555 70.0586H87.957V13.8142C87.957 10.3813 84.9343 7.58857 81.2188 7.58857H70.2787V6.53936C70.2787 2.9335 67.1036 0 63.2008 0H28.7992C24.8964 0 21.7213 2.9335 21.7213 6.53936V7.58857H10.7812C7.06567 7.58857 4.04297 10.3813 4.04297 13.8142V25.46H2.60547C1.16887 25.46 0 26.5399 0 27.8672V38.2455C0 39.5728 1.16887 40.6527 2.60547 40.6527H4.04297V70.0586H3.14453C1.41073 70.0586 0 71.362 0 72.9639V78.7744C0 82.2073 3.0227 85 6.73828 85H85.2617C88.9773 85 92 82.2073 92 78.7744V72.9639C92 71.362 90.5893 70.0586 88.8555 70.0586ZM28.7992 23.705H34.9657C35.71 23.705 36.3134 23.1477 36.3134 22.4599C36.3134 21.7721 35.71 21.2148 34.9657 21.2148H28.7992C26.3826 21.2148 24.4167 19.3984 24.4167 17.1655V6.53936C24.4167 4.30678 26.3826 2.49023 28.7992 2.49023H63.2008C65.6174 2.49023 67.5833 4.30661 67.5833 6.53936V17.1657C67.5833 19.3984 65.6174 21.215 63.2008 21.215H41.2548C40.5105 21.215 39.9072 21.7723 39.9072 22.4601C39.9072 23.1479 40.5105 23.7052 41.2548 23.7052H63.2008C67.1036 23.7052 70.2787 20.7715 70.2787 17.1657V15.0593H79.8711V53.1464C79.8711 53.8342 80.4745 54.3915 81.2188 54.3915C81.963 54.3915 82.5664 53.8342 82.5664 53.1464V14.9763C82.5664 13.649 81.3975 12.569 79.9609 12.569H70.2787V10.0788H81.2188C83.4481 10.0788 85.2617 11.7546 85.2617 13.8142V70.0586H82.5664V58.957C82.5664 58.2692 81.963 57.7118 81.2188 57.7118C80.4745 57.7118 79.8711 58.2692 79.8711 58.957V70.0586H67.1552C66.9821 65.8438 63.6881 62.2009 59.1932 61.3215L52.8935 60.0899C52.1798 59.9501 51.662 59.3601 51.662 58.6865V57.5518C55.6417 55.6415 58.37 51.7869 58.37 47.3498V46.9007C60.5511 46.9006 62.3255 45.2612 62.3255 43.2338C62.3255 41.2185 60.5511 39.579 58.37 39.5788V32.0916C58.37 29.188 55.8133 26.8256 52.6705 26.8256H39.3295C36.1867 26.8256 33.63 29.1879 33.63 32.0916V39.5788C31.4489 39.579 29.6745 41.2184 29.6745 43.2459C29.6745 45.261 31.4489 46.9006 33.63 46.9007V47.3498C33.63 51.7871 36.3583 55.6416 40.3382 57.552V58.6865C40.3382 59.3601 39.8202 59.9501 39.1068 60.0897L32.8068 61.3217C28.3119 62.2009 25.0179 65.8438 24.8449 70.0586H12.1289V40.6527H17.0789L20.8479 44.1351C21.4441 44.6861 22.3323 44.8426 23.0997 44.5488C23.8747 44.2521 24.3753 43.5598 24.3753 42.7849V40.6527H27.2846C28.7213 40.6527 29.8901 39.5728 29.8901 38.2455V27.8672C29.8901 26.5399 28.7213 25.46 27.2846 25.46H12.1289V15.0593H21.7213V17.1657C21.7213 20.7714 24.8964 23.705 28.7992 23.705ZM36.2981 70.0586H27.5425C27.7136 67.0137 30.1086 64.3948 33.3647 63.758L37.7757 62.8954C39.7636 65.2051 42.7739 66.5613 46 66.5613C49.2261 66.5613 52.2362 65.2053 54.2241 62.8955L58.6349 63.7578C61.8912 64.3948 64.2863 67.0137 64.4573 70.0586H55.7017C53.9679 70.0586 52.5572 71.362 52.5572 72.9639V75.2182C52.5572 75.4471 52.3555 75.6332 52.1079 75.6332H39.8919C39.6443 75.6332 39.4427 75.4471 39.4427 75.2182V72.9639C39.4427 71.362 38.0321 70.0586 36.2981 70.0586ZM46.1369 39.4119C47.3421 38.8042 48.4939 38.0931 49.5722 37.2919C50.2818 38.251 51.1335 39.1045 52.1135 39.8368C53.192 40.6426 54.3862 41.2746 55.6746 41.7219V47.3495C55.6746 52.3067 51.3346 56.3397 45.9998 56.3397C40.6653 56.3397 36.3251 52.3067 36.3251 47.3495V42.0187C39.7995 41.8019 43.1669 40.9097 46.1369 39.4119ZM36.3251 39.5218V32.0918C36.3251 30.5612 37.6727 29.316 39.3293 29.316H52.6704C54.3269 29.316 55.6746 30.5612 55.6746 32.0918V39.0065C55.014 38.7027 54.3892 38.335 53.8085 37.9009C52.8267 37.1672 52.0071 36.2792 51.3721 35.2617C51.0945 34.8168 50.621 34.5135 50.0732 34.4296C49.5265 34.3455 48.9733 34.4916 48.5562 34.8292C47.414 35.754 46.1653 36.5606 44.8455 37.2262C42.2684 38.5259 39.3471 39.3098 36.3251 39.5218ZM43.0334 58.4943C43.9843 58.7123 44.9774 58.8303 45.9998 58.8303C47.0224 58.8303 48.0156 58.7124 48.9665 58.4943C48.8689 60.0249 49.8466 61.4977 51.2765 62.176C49.8516 63.3831 47.9803 64.0711 45.9998 64.0711C44.0193 64.0711 42.1479 63.3829 40.7231 62.176C42.1707 61.4841 43.1083 60.0457 43.0334 58.4943ZM58.3699 44.4105V42.069C59.0647 42.0692 59.63 42.5915 59.63 43.2459C59.63 43.8879 59.0647 44.4103 58.3699 44.4105ZM33.6298 42.069V44.4105C32.9349 44.4103 32.3696 43.8881 32.3696 43.2338C32.3696 42.5916 32.9349 42.0692 33.6298 42.069ZM6.73828 13.8142C6.73828 11.7546 8.55187 10.0788 10.7812 10.0788H21.7213V12.569H12.0391C10.6025 12.569 9.43359 13.649 9.43359 14.9763V25.46H6.73828V13.8142ZM2.69531 38.1625V27.9502H27.195V38.1625H24.2857C22.8491 38.1625 21.6802 39.2424 21.6802 40.5697V41.3822L18.9585 38.8674C18.4663 38.413 17.8122 38.1627 17.1163 38.1627H2.69531V38.1625ZM9.43359 40.6527V70.0586H6.73828V40.6527H9.43359ZM89.3047 78.7744C89.3047 80.834 87.4911 82.5098 85.2617 82.5098H6.73828C4.5089 82.5098 2.69531 80.834 2.69531 78.7744V72.9639C2.69531 72.7349 2.89692 72.5488 3.14453 72.5488H36.2981C36.5457 72.5488 36.7474 72.7349 36.7474 72.9639V75.2182C36.7474 76.8201 38.1581 78.1235 39.8919 78.1235H52.1079C53.8417 78.1235 55.2525 76.8201 55.2525 75.2182V72.9639C55.2525 72.7349 55.4541 72.5488 55.7017 72.5488H88.8555C89.1031 72.5488 89.3047 72.7349 89.3047 72.9639V78.7744ZM51.3179 47.0196C52.0621 47.0196 52.6655 46.4623 52.6655 45.7745V43.7992C52.6655 43.1114 52.0621 42.5541 51.3179 42.5541C50.5736 42.5541 49.9702 43.1114 49.9702 43.7992V45.7745C49.9702 46.4621 50.5736 47.0196 51.3179 47.0196ZM8.43579 34.3015H21.4543C22.1986 34.3015 22.802 33.7442 22.802 33.0564C22.802 32.3686 22.1986 31.8112 21.4543 31.8112H8.43579C7.69152 31.8112 7.08813 32.3686 7.08813 33.0564C7.08813 33.7442 7.69152 34.3015 8.43579 34.3015ZM43.2219 53.6526C44.0529 54.0761 44.9925 54.3047 45.9396 54.314C47.1522 54.3261 48.1787 53.9579 48.7778 53.6528C49.4295 53.3207 49.6667 52.5634 49.3075 51.9614C48.9481 51.3591 48.1286 51.1399 47.4767 51.472C47.1545 51.6362 46.6242 51.8326 45.968 51.8239C45.3328 51.8178 44.8319 51.6292 44.5235 51.4721C43.8716 51.14 43.0522 51.3591 42.6927 51.9612C42.3331 52.5632 42.5701 53.3206 43.2219 53.6526Z" fill="#5987E1"/>
</svg>
