<svg width="65" height="46" viewBox="0 0 65 46" fill="none" xmlns="http://www.w3.org/2000/svg">
<rect y="10" width="65" height="36" rx="1" fill="#0D0C0C"/>
<path d="M20.825 35.325H11.075L8.975 40H7.05L15.05 22.5H16.875L24.875 40H22.925L20.825 35.325ZM20.15 33.825L15.95 24.425L11.75 33.825H20.15ZM35.1258 40.15C33.3924 40.15 31.8258 39.7667 30.4258 39C29.0424 38.2333 27.9508 37.175 27.1508 35.825C26.3674 34.4583 25.9758 32.9333 25.9758 31.25C25.9758 29.5667 26.3674 28.05 27.1508 26.7C27.9508 25.3333 29.0508 24.2667 30.4508 23.5C31.8508 22.7333 33.4174 22.35 35.1508 22.35C36.4508 22.35 37.6508 22.5667 38.7508 23C39.8508 23.4333 40.7841 24.0667 41.5508 24.9L40.3758 26.075C39.0091 24.6917 37.2841 24 35.2008 24C33.8174 24 32.5591 24.3167 31.4258 24.95C30.2924 25.5833 29.4008 26.45 28.7508 27.55C28.1174 28.65 27.8008 29.8833 27.8008 31.25C27.8008 32.6167 28.1174 33.85 28.7508 34.95C29.4008 36.05 30.2924 36.9167 31.4258 37.55C32.5591 38.1833 33.8174 38.5 35.2008 38.5C37.3008 38.5 39.0258 37.8 40.3758 36.4L41.5508 37.575C40.7841 38.4083 39.8424 39.05 38.7258 39.5C37.6258 39.9333 36.4258 40.15 35.1258 40.15ZM50.2219 40.15C48.9219 40.15 47.6719 39.9417 46.4719 39.525C45.2885 39.1083 44.3719 38.5583 43.7219 37.875L44.4469 36.45C45.0802 37.0833 45.9219 37.6 46.9719 38C48.0219 38.3833 49.1052 38.575 50.2219 38.575C51.7885 38.575 52.9635 38.2917 53.7469 37.725C54.5302 37.1417 54.9219 36.3917 54.9219 35.475C54.9219 34.775 54.7052 34.2167 54.2719 33.8C53.8552 33.3833 53.3385 33.0667 52.7219 32.85C52.1052 32.6167 51.2469 32.3667 50.1469 32.1C48.8302 31.7667 47.7802 31.45 46.9969 31.15C46.2135 30.8333 45.5385 30.3583 44.9719 29.725C44.4219 29.0917 44.1469 28.2333 44.1469 27.15C44.1469 26.2667 44.3802 25.4667 44.8469 24.75C45.3135 24.0167 46.0302 23.4333 46.9969 23C47.9635 22.5667 49.1635 22.35 50.5969 22.35C51.5969 22.35 52.5719 22.4917 53.5219 22.775C54.4885 23.0417 55.3219 23.4167 56.0219 23.9L55.3969 25.375C54.6635 24.8917 53.8802 24.5333 53.0469 24.3C52.2135 24.05 51.3969 23.925 50.5969 23.925C49.0635 23.925 47.9052 24.225 47.1219 24.825C46.3552 25.4083 45.9719 26.1667 45.9719 27.1C45.9719 27.8 46.1802 28.3667 46.5969 28.8C47.0302 29.2167 47.5635 29.5417 48.1969 29.775C48.8469 29.9917 49.7135 30.2333 50.7969 30.5C52.0802 30.8167 53.1135 31.1333 53.8969 31.45C54.6969 31.75 55.3719 32.2167 55.9219 32.85C56.4719 33.4667 56.7469 34.3083 56.7469 35.375C56.7469 36.2583 56.5052 37.0667 56.0219 37.8C55.5552 38.5167 54.8302 39.0917 53.8469 39.525C52.8635 39.9417 51.6552 40.15 50.2219 40.15Z" fill="white"/>
<path d="M33 0L43.3923 17.25H22.6077L33 0Z" fill="#FC0606"/>
</svg>
