<svg width="43" height="30" viewBox="0 0 43 30" fill="none" xmlns="http://www.w3.org/2000/svg">
<rect y="6.52173" width="42.3913" height="23.4783" rx="1" fill="#0D0C0C"/>
<path d="M13.4132 23.4428H7.17319L5.82919 26.4348H4.59719L9.71719 15.2348H10.8852L16.0052 26.4348H14.7572L13.4132 23.4428ZM12.9812 22.4828L10.2932 16.4668L7.60519 22.4828H12.9812ZM22.5657 26.5308C21.4564 26.5308 20.4537 26.2855 19.5577 25.7948C18.6724 25.3041 17.9737 24.6268 17.4617 23.7628C16.9604 22.8881 16.7097 21.9121 16.7097 20.8348C16.7097 19.7575 16.9604 18.7868 17.4617 17.9228C17.9737 17.0481 18.6777 16.3655 19.5737 15.8748C20.4697 15.3841 21.4724 15.1388 22.5817 15.1388C23.4137 15.1388 24.1817 15.2775 24.8857 15.5548C25.5897 15.8321 26.187 16.2375 26.6777 16.7708L25.9257 17.5228C25.051 16.6375 23.947 16.1948 22.6137 16.1948C21.7284 16.1948 20.923 16.3975 20.1977 16.8028C19.4724 17.2081 18.9017 17.7628 18.4857 18.4668C18.0804 19.1708 17.8777 19.9601 17.8777 20.8348C17.8777 21.7095 18.0804 22.4988 18.4857 23.2028C18.9017 23.9068 19.4724 24.4615 20.1977 24.8668C20.923 25.2721 21.7284 25.4748 22.6137 25.4748C23.9577 25.4748 25.0617 25.0268 25.9257 24.1308L26.6777 24.8828C26.187 25.4161 25.5844 25.8268 24.8697 26.1148C24.1657 26.3921 23.3977 26.5308 22.5657 26.5308ZM32.2272 26.5308C31.3952 26.5308 30.5952 26.3975 29.8272 26.1308C29.0699 25.8641 28.4832 25.5121 28.0672 25.0748L28.5312 24.1628C28.9365 24.5681 29.4752 24.8988 30.1472 25.1548C30.8192 25.4001 31.5125 25.5228 32.2272 25.5228C33.2299 25.5228 33.9819 25.3415 34.4832 24.9788C34.9845 24.6055 35.2352 24.1255 35.2352 23.5388C35.2352 23.0908 35.0965 22.7335 34.8192 22.4668C34.5525 22.2001 34.2219 21.9975 33.8272 21.8588C33.4325 21.7095 32.8832 21.5495 32.1792 21.3788C31.3365 21.1655 30.6645 20.9628 30.1632 20.7708C29.6619 20.5681 29.2299 20.2641 28.8672 19.8588C28.5152 19.4535 28.3392 18.9041 28.3392 18.2108C28.3392 17.6455 28.4885 17.1335 28.7872 16.6748C29.0859 16.2055 29.5445 15.8321 30.1632 15.5548C30.7819 15.2775 31.5499 15.1388 32.4672 15.1388C33.1072 15.1388 33.7312 15.2295 34.3392 15.4108C34.9579 15.5815 35.4912 15.8215 35.9392 16.1308L35.5392 17.0748C35.0699 16.7655 34.5685 16.5361 34.0352 16.3868C33.5019 16.2268 32.9792 16.1468 32.4672 16.1468C31.4859 16.1468 30.7445 16.3388 30.2432 16.7228C29.7525 17.0961 29.5072 17.5815 29.5072 18.1788C29.5072 18.6268 29.6405 18.9895 29.9072 19.2668C30.1845 19.5335 30.5259 19.7415 30.9312 19.8908C31.3472 20.0295 31.9019 20.1841 32.5952 20.3548C33.4165 20.5575 34.0779 20.7601 34.5792 20.9628C35.0912 21.1548 35.5232 21.4535 35.8752 21.8588C36.2272 22.2535 36.4032 22.7921 36.4032 23.4748C36.4032 24.0401 36.2485 24.5575 35.9392 25.0268C35.6405 25.4855 35.1765 25.8535 34.5472 26.1308C33.9179 26.3975 33.1445 26.5308 32.2272 26.5308Z" fill="white"/>
<path d="M21.5218 0L28.2994 11.25H14.7442L21.5218 0Z" fill="#FC0606"/>
</svg>
