<svg width="102" height="102" viewBox="0 0 102 102" fill="none" xmlns="http://www.w3.org/2000/svg">
<path d="M49.4062 33.1755V36.6562H52.5938V33.4688H55.7812V28.6875C55.7812 26.0514 53.6361 23.9062 51 23.9062C50.1202 23.9062 49.4062 23.1907 49.4062 22.3125V20.7188H51C51.8797 20.7188 52.5938 21.4343 52.5938 22.3125V23.9062H55.7812V22.3125C55.7812 20.2374 54.4441 18.4843 52.5938 17.8245V14.3438H49.4062V17.5312H46.2188V22.3125C46.2188 24.9486 48.3639 27.0938 51 27.0938C51.8797 27.0938 52.5938 27.8093 52.5938 28.6875V30.2812H51C50.1202 30.2812 49.4062 29.5657 49.4062 28.6875V27.0938H46.2188V28.6875C46.2188 30.7626 47.5559 32.5157 49.4062 33.1755Z" fill="#5987E1"/>
<path d="M61.0171 57.8433L70.5778 48.2825L72.8314 50.5361L63.2707 60.0968L61.0171 57.8433Z" fill="#5987E1"/>
<path d="M70.125 58.9688C71.0052 58.9688 71.7188 58.2552 71.7188 57.375C71.7188 56.4948 71.0052 55.7812 70.125 55.7812C69.2448 55.7812 68.5312 56.4948 68.5312 57.375C68.5312 58.2552 69.2448 58.9688 70.125 58.9688Z" fill="#5987E1"/>
<path d="M63.75 52.5938C64.6302 52.5938 65.3438 51.8802 65.3438 51C65.3438 50.1198 64.6302 49.4062 63.75 49.4062C62.8698 49.4062 62.1562 50.1198 62.1562 51C62.1562 51.8802 62.8698 52.5938 63.75 52.5938Z" fill="#5987E1"/>
<path d="M93.5914 55.3621L66.9375 36.2913L40.2836 55.3621L41.3992 56.6817C42.0766 57.4834 42.7954 58.2404 43.5365 58.9687H7.96875V17.5312H38.3361C35.2442 22.644 33.4687 28.646 33.4687 35.0625C33.4687 40.6773 34.8967 46.2506 37.6013 51.1769L38.4492 52.7212L65.3437 34.2274V1.42798L63.5922 1.6017C59.5696 2.00013 55.794 3.11576 52.3467 4.78123H4.78125C3.02334 4.78123 1.59375 6.21082 1.59375 7.96873V14.3437C1.59375 16.1016 3.02334 17.5312 4.78125 17.5312V58.9687C4.78125 60.7266 6.21084 62.1562 7.96875 62.1562H21.1124L2.16431 94.2225C1.79138 94.8536 1.59375 95.5756 1.59375 96.3103C1.59375 98.5686 3.43134 100.406 5.68969 100.406H8.12334C9.57525 100.406 10.9315 99.6269 11.6615 98.3742L17.9137 87.6562H30.2812V96.3103C30.2812 98.5686 32.1188 100.406 34.3772 100.406H35.7462C38.0046 100.406 39.8422 98.5686 39.8422 96.3103V87.6562H52.2081L58.4603 98.3742C59.1935 99.6269 60.5482 100.406 62.0001 100.406H64.4337C66.6921 100.406 68.5297 98.5686 68.5297 96.3103C68.5297 95.5756 68.332 94.8536 67.9607 94.2241L50.0852 63.9715C55.139 66.9231 60.9322 68.5312 66.9375 68.5312C76.8012 68.5312 86.1087 64.2122 92.4741 56.6817L93.5914 55.3621ZM62.1562 32.5507L39.5919 48.0675C37.6667 44.0146 36.6562 39.5537 36.6562 35.0625C36.6562 20.1864 47.7217 7.3121 62.1562 4.99957V32.5507ZM4.78125 7.96873H47.0634C44.6027 9.7872 42.4081 11.9308 40.537 14.3437H4.78125V7.96873ZM36.6562 62.1562V84.4687H33.4687V62.1562H36.6562ZM8.90906 96.7677C8.7465 97.0466 8.44687 97.2187 8.12494 97.2187H5.68969C5.18925 97.2187 4.78125 96.8107 4.78125 96.3103C4.78125 96.1461 4.82428 95.9868 4.90875 95.8465L24.8163 62.1562H29.0987L8.90906 96.7677ZM19.7737 84.4687L30.2812 66.4578V84.4687H19.7737ZM36.6562 96.3103C36.6562 96.8107 36.2482 97.2187 35.7478 97.2187H34.3772C33.8767 97.2187 33.4687 96.8107 33.4687 96.3103V87.6562H36.6562V96.3103ZM39.8437 84.4687V66.4594L50.3497 84.4687H39.8437ZM65.3437 96.3103C65.3437 96.8107 64.9357 97.2187 64.4353 97.2187H62.0017C61.6797 97.2187 61.3785 97.0466 61.2175 96.7677L41.0263 62.1562H45.3087L65.2178 95.8481C65.3007 95.9868 65.3437 96.1461 65.3437 96.3103ZM66.9375 65.3437C58.5942 65.3437 50.6892 61.9267 44.99 55.9151L66.9375 40.2087L88.885 55.9135C83.1858 61.9267 75.2808 65.3437 66.9375 65.3437Z" fill="#5987E1"/>
<path d="M96.2705 51.1673C98.9767 46.2857 100.406 40.7171 100.406 35.0625C100.406 17.6858 87.4554 3.30063 70.2828 1.6017L68.5312 1.42798V34.2289L95.4194 52.7021L96.2705 51.1673ZM95.786 25.9988C96.3454 27.7631 96.747 29.5864 96.9749 31.459L86.0434 42.3905L82.1004 39.6844L95.786 25.9988ZM79.4293 37.8484L75.488 35.1406L92.1857 18.4429C93.0798 19.8071 93.8703 21.2383 94.5428 22.7348L79.4293 37.8484ZM71.7188 16.5973L80.4366 7.87788C81.8789 8.6126 83.2575 9.4541 84.558 10.404L71.7188 23.2464V16.5973ZM77.316 6.49132L71.7188 12.0902V4.99957C73.6536 5.31035 75.5214 5.82354 77.316 6.49132ZM71.7188 27.7535L87.0395 12.4328C88.2045 13.4863 89.2914 14.6194 90.2843 15.8371L72.8152 33.3046L71.7188 32.5507V27.7535ZM88.7145 44.2265L97.1996 35.7414C97.104 40.0286 96.1143 44.2409 94.2894 48.0579L88.7145 44.2265Z" fill="#5987E1"/>
<path d="M11.1562 55.7812H33.4688V52.5938H30.2812V33.4688H27.0938V52.5938H23.9062V39.8438H20.7188V52.5938H17.5312V46.2188H14.3438V52.5938H11.1562V55.7812Z" fill="#5987E1"/>
<path d="M11.1562 20.7188H17.5312V23.9062H11.1562V20.7188Z" fill="#5987E1"/>
<path d="M20.7188 20.7188H30.2812V23.9062H20.7188V20.7188Z" fill="#5987E1"/>
<path d="M11.1562 27.0938H30.2812V30.2812H11.1562V27.0938Z" fill="#5987E1"/>
<path d="M70.125 71.7188C67.4889 71.7188 65.3438 73.8639 65.3438 76.5C65.3438 79.1361 67.4889 81.2812 70.125 81.2812C72.7611 81.2812 74.9062 79.1361 74.9062 76.5C74.9062 73.8639 72.7611 71.7188 70.125 71.7188ZM70.125 78.0938C69.2452 78.0938 68.5312 77.3797 68.5312 76.5C68.5312 75.6202 69.2452 74.9062 70.125 74.9062C71.0047 74.9062 71.7188 75.6202 71.7188 76.5C71.7188 77.3797 71.0047 78.0938 70.125 78.0938Z" fill="#5987E1"/>
<path d="M82.875 71.7188C80.2389 71.7188 78.0938 73.8639 78.0938 76.5C78.0938 79.1361 80.2389 81.2812 82.875 81.2812C85.5111 81.2812 87.6562 79.1361 87.6562 76.5C87.6562 73.8639 85.5111 71.7188 82.875 71.7188ZM82.875 78.0938C81.9952 78.0938 81.2812 77.3797 81.2812 76.5C81.2812 75.6202 81.9952 74.9062 82.875 74.9062C83.7547 74.9062 84.4688 75.6202 84.4688 76.5C84.4688 77.3797 83.7547 78.0938 82.875 78.0938Z" fill="#5987E1"/>
<path d="M95.625 71.7188C92.9889 71.7188 90.8438 73.8639 90.8438 76.5C90.8438 79.1361 92.9889 81.2812 95.625 81.2812C98.2611 81.2812 100.406 79.1361 100.406 76.5C100.406 73.8639 98.2611 71.7188 95.625 71.7188ZM95.625 78.0938C94.7452 78.0938 94.0312 77.3797 94.0312 76.5C94.0312 75.6202 94.7452 74.9062 95.625 74.9062C96.5047 74.9062 97.2188 75.6202 97.2188 76.5C97.2188 77.3797 96.5047 78.0938 95.625 78.0938Z" fill="#5987E1"/>
</svg>
