<svg width="64" height="64" viewBox="0 0 64 64" fill="none" xmlns="http://www.w3.org/2000/svg">
<circle cx="32" cy="32" r="32" fill="#F6F9FF"/>
<path d="M50.6436 49.9203L46.1465 45.4232C47.141 44.0753 47.7503 42.4251 47.7503 40.6238C47.7503 36.1438 44.1063 32.4998 39.6263 32.4998C35.1438 32.4998 31.4998 36.1438 31.4998 40.6238C31.4998 45.1039 35.1438 48.7479 39.6238 48.7479C41.4251 48.7479 43.0728 48.1385 44.4232 47.144L48.9203 51.6411C49.3956 52.1165 50.1683 52.1165 50.6436 51.6411C51.1189 51.1658 51.1189 50.3956 50.6436 49.9203ZM33.9372 40.6238C33.9372 37.4892 36.4892 34.9372 39.6238 34.9372C42.7584 34.9372 45.3104 37.4892 45.3104 40.6238C45.3104 43.7584 42.7584 46.3104 39.6238 46.3104C36.4892 46.3104 33.9372 43.7608 33.9372 40.6238Z" fill="#1565D8" fill-opacity="0.4"/>
<path d="M24.999 13C20.0704 13 16.0608 17.0096 16.0608 21.9382V26.406C16.0608 27.9733 17.3356 29.2506 18.9053 29.2506H24.999C21.8522 29.2506 19.3124 26.7107 19.3124 23.564C23.1051 23.564 24.999 20.7194 24.999 17.8774C24.999 20.7219 26.8953 23.564 30.6856 23.564C30.6856 26.7107 28.1457 29.2506 24.999 29.2506H31.0926C32.6599 29.2506 33.9371 27.9758 33.9371 26.406V21.9382C33.9371 17.0096 29.9275 13 24.999 13Z" fill="#1565D8"/>
<path d="M29.0622 40.6238C29.0622 37.4064 30.5125 34.5277 32.7867 32.5875C32.4966 32.5461 18.0937 32.4998 18.0937 32.4998C14.7324 32.4998 12 35.2322 12 38.5934V44.28C12 44.9528 12.546 45.4987 13.2187 45.4987H30.2639C29.501 44.0387 29.0622 42.3837 29.0622 40.6238Z" fill="#1565D8"/>
</svg>
