<svg width="248" height="238" viewBox="0 0 248 238" fill="none" xmlns="http://www.w3.org/2000/svg">
<path d="M139.974 236.674C130.291 232.09 126.432 221.194 125.067 211.045C124.837 209.36 124.354 207.607 124.904 205.99C125.455 204.372 127.151 203.052 128.78 203.507C130.133 203.883 130.925 205.243 131.83 206.315C133.032 207.763 134.622 208.838 136.413 209.416C137.581 209.792 138.968 209.91 139.929 209.146C141.243 208.096 141.052 206.063 140.783 204.389C140.232 201.285 139.693 198.18 139.165 195.076C138.784 193.42 138.672 191.713 138.834 190.021C139.081 188.336 139.985 186.651 141.501 185.955C143.018 185.258 145.147 185.826 145.759 187.41C145.94 188.091 146.075 188.783 146.163 189.482C146.326 190.173 146.781 190.886 147.472 190.971C148.163 191.055 148.764 190.465 149.185 189.886C150.623 187.904 151.432 185.528 152.162 183.175C152.892 180.821 153.577 178.423 154.836 176.311C156.094 174.199 158.015 172.379 160.39 171.818C162.766 171.256 165.575 172.323 166.569 174.575C167.563 176.828 166.603 179.462 165.446 181.63C163.688 184.84 161.477 187.78 158.88 190.358C158.362 190.771 157.988 191.337 157.812 191.976C157.638 193.155 158.885 194.088 160.059 194.268C161.373 194.47 162.71 194.11 164.041 194.043C165.372 193.975 166.883 194.312 167.591 195.464C168.563 197.059 167.434 199.098 166.226 200.519C163.801 203.35 160.907 205.744 157.672 207.596C156.515 208.253 155.285 208.871 154.437 209.904C153.589 210.938 153.246 212.544 154.044 213.623C154.841 214.701 156.453 214.819 157.7 214.358C158.947 213.898 159.986 213.005 161.137 212.336C163.294 211.078 166.294 210.73 168.108 212.471C168.674 213.08 169.09 213.812 169.325 214.609C169.56 215.406 169.607 216.247 169.461 217.066C169.163 218.696 168.538 220.249 167.625 221.632C164.716 226.632 160.534 230.772 155.504 233.629C150.477 236.382 145.613 237.724 139.979 236.679" fill="#F2F7FF"/>
<path d="M141.507 229.9C142.252 224.12 143.328 218.387 144.731 212.73L145.809 208.276C146.163 206.81 146.517 205.361 146.933 203.968C147.773 201.294 148.759 198.669 149.887 196.104C150.949 193.644 152.044 191.341 153.083 189.201C154.122 187.061 155.139 185.084 156.139 183.326C157.699 180.538 159.48 177.878 161.463 175.373C162.165 174.486 162.733 173.817 163.12 173.368C163.306 173.154 163.457 172.986 163.564 172.857C163.671 172.728 163.721 172.688 163.727 172.694C163.686 172.759 163.641 172.821 163.592 172.879L163.165 173.407C162.794 173.868 162.244 174.531 161.559 175.446C159.619 177.976 157.871 180.648 156.33 183.439C155.347 185.202 154.347 187.179 153.313 189.319C152.28 191.459 151.202 193.762 150.151 196.222C149.033 198.787 148.058 201.412 147.23 204.086C146.798 205.473 146.45 206.894 146.107 208.377L145.029 212.836C143.629 218.482 142.547 224.201 141.788 229.967" fill="#E0E0E0"/>
<path d="M147.028 203.945C146.906 203.727 146.81 203.495 146.742 203.254C146.573 202.811 146.354 202.131 146.096 201.339C145.579 199.71 144.939 197.435 144.242 194.93C143.546 192.425 142.877 190.162 142.333 188.55C142.063 187.741 141.838 187.084 141.681 186.64C141.587 186.409 141.513 186.171 141.462 185.927C141.598 186.136 141.709 186.36 141.793 186.595C141.99 187.028 142.243 187.674 142.54 188.471C143.141 190.078 143.844 192.33 144.546 194.846C145.248 197.362 145.837 199.564 146.309 201.272C146.528 202.047 146.708 202.698 146.871 203.221C146.944 203.457 146.997 203.7 147.028 203.945Z" fill="#E0E0E0"/>
<path d="M167.894 196.273C167.623 196.386 167.34 196.471 167.052 196.526C166.49 196.666 165.72 196.868 164.754 197.149C162.817 197.711 160.171 198.542 157.29 199.609C154.408 200.676 151.842 201.76 149.988 202.592C149.067 203.002 148.331 203.356 147.82 203.597C147.563 203.737 147.294 203.853 147.017 203.945C147.249 203.766 147.5 203.612 147.764 203.485C148.258 203.21 148.983 202.828 149.893 202.361C151.707 201.474 154.268 200.356 157.155 199.283C159.619 198.362 162.129 197.569 164.676 196.908C165.653 196.649 166.451 196.481 167.007 196.374C167.299 196.313 167.596 196.279 167.894 196.273Z" fill="#E0E0E0"/>
<path d="M141.704 229.467C141.632 229.394 141.568 229.313 141.513 229.226L141.013 228.513C140.58 227.884 139.979 226.968 139.255 225.822C137.794 223.531 135.885 220.301 133.823 216.706C131.762 213.112 129.892 209.871 128.471 207.557L126.786 204.81L126.336 204.063C126.277 203.98 126.23 203.89 126.196 203.793C126.196 203.793 126.269 203.866 126.387 204.029C126.505 204.192 126.69 204.456 126.887 204.748C127.319 205.372 127.92 206.287 128.65 207.439C130.105 209.73 132.02 212.954 134.082 216.549C136.143 220.144 138.013 223.385 139.429 225.704L141.114 228.445C141.294 228.743 141.445 229.007 141.563 229.192C141.623 229.276 141.671 229.369 141.704 229.467Z" fill="#E0E0E0"/>
<path d="M168.765 215.397C168.686 215.467 168.597 215.523 168.501 215.566L167.72 215.982L164.822 217.492C162.373 218.773 159.014 220.576 155.307 222.548C151.6 224.519 148.225 226.322 145.759 227.546C144.523 228.159 143.512 228.67 142.816 228.967L141.973 229.338C141.881 229.387 141.783 229.425 141.681 229.45C141.761 229.383 141.85 229.326 141.945 229.282L142.731 228.866L145.63 227.35C148.073 226.075 151.432 224.272 155.139 222.295C158.846 220.318 162.227 218.526 164.687 217.302C165.923 216.689 166.934 216.178 167.63 215.881L168.439 215.51C168.541 215.456 168.651 215.418 168.765 215.397Z" fill="#E0E0E0"/>
<path d="M69.7422 116.111C69.7422 116.111 63.0696 117.038 66.8159 131.653C70.5623 146.267 73.7413 153.805 73.7413 153.805C73.7413 153.805 74.2412 157.113 71.5733 157.012C68.9053 156.911 63.4627 154.765 61.6148 157.624C59.7052 160.612 61.3789 164.207 65.5465 167.976C69.7141 171.745 78.5998 180.333 79.3973 181.113C80.1949 181.894 80.779 183.5 78.948 183.72C77.117 183.939 64.1311 182.416 63.7829 188.623C63.4347 194.829 76.8193 203.412 78.2628 204.378C79.7063 205.344 79.9478 206.097 79.6108 206.939C79.2738 207.782 74.9714 206.855 71.2587 206.568C67.5461 206.282 63.1875 206.613 63.283 210.208C63.3785 213.803 70.4106 222.902 90.9116 229.664L100.623 232.175L107.795 225.109C122.23 209.051 123.809 197.666 122.107 194.498C120.405 191.33 116.49 193.212 113.378 195.301C110.267 197.391 107.009 200.356 106.313 199.795C105.616 199.233 105.436 198.458 106.211 196.902C106.987 195.346 114.339 181.248 110.946 176.036C107.554 170.824 97.0394 178.586 95.3544 179.299C93.6694 180.013 93.3661 178.316 93.6694 177.26C93.9727 176.204 97.3989 164.342 99.1625 158.978C100.926 153.614 100.589 149.671 97.4438 148.031C94.4108 146.453 90.7655 151.036 88.4964 152.451C86.2272 153.867 85.0253 150.766 85.0253 150.766C85.0253 150.766 84.0367 142.65 80.0264 128.103C76.0161 113.556 69.6186 116.162 69.6186 116.162" fill="#F2F7FF"/>
<path d="M100.617 234.59C97.7134 223.918 92.8661 204.821 88.6255 188.426C84.3849 172.031 80.5319 157.248 77.6786 146.542C76.2519 141.195 75.0949 136.87 74.3085 133.865C73.9154 132.377 73.6065 131.214 73.393 130.417L73.1571 129.518C73.1066 129.316 73.0897 129.209 73.0897 129.209C73.0897 129.209 73.129 129.304 73.1908 129.507C73.2526 129.709 73.3369 130.018 73.4492 130.4C73.6795 131.197 74.0109 132.349 74.4265 133.832C75.269 136.814 76.4597 141.133 77.9089 146.48C80.8127 157.152 84.7051 171.986 88.9457 188.347C93.1863 204.709 97.9942 223.822 100.847 234.528" fill="#E0E0E0"/>
<path d="M69.1078 160.96C69.3321 161.053 69.5467 161.168 69.7481 161.303C70.1469 161.539 70.7198 161.898 71.4331 162.348C72.8317 163.252 74.7357 164.55 76.8083 166.015L82.0992 169.79L83.7112 170.913C83.9145 171.04 84.1029 171.188 84.2729 171.357C84.0463 171.265 83.8298 171.151 83.627 171.014C83.2282 170.778 82.6553 170.419 81.942 169.964C80.5546 169.049 78.6674 167.717 76.5949 166.257L71.2758 162.522L69.6582 161.399C69.4596 161.273 69.2751 161.126 69.1078 160.96Z" fill="#E0E0E0"/>
<path d="M85.0871 170.891C85.0141 170.846 87.5135 166.807 90.6645 161.87C93.8155 156.933 96.4385 152.968 96.5115 153.013C96.5845 153.058 94.0851 157.102 90.9285 162.039C87.7719 166.976 85.1601 170.924 85.0871 170.891Z" fill="#E0E0E0"/>
<path d="M90.4677 196.323C90.6231 196.129 90.8024 195.956 91.0012 195.806L92.5121 194.481C93.7871 193.358 95.5451 191.807 97.4211 190.021C99.2971 188.235 100.948 186.567 102.128 185.348C102.69 184.786 103.15 184.287 103.526 183.905C103.697 183.716 103.885 183.545 104.088 183.394C103.964 183.608 103.813 183.806 103.639 183.983C103.336 184.348 102.881 184.865 102.308 185.494C101.184 186.758 99.5442 188.46 97.657 190.246C95.7698 192.032 93.9949 193.571 92.6806 194.649C92.0179 195.211 91.4787 195.615 91.0967 195.902C90.9032 196.065 90.6922 196.206 90.4677 196.323Z" fill="#E0E0E0"/>
<path d="M74.0389 190.521C74.2657 190.549 74.4882 190.603 74.7017 190.684L76.4822 191.246C77.9762 191.723 80.0376 192.403 82.3067 193.167C84.5759 193.931 86.626 194.65 88.1032 195.183L89.85 195.824C90.0675 195.892 90.2766 195.984 90.4734 196.099C90.2465 196.076 90.0237 196.023 89.8106 195.942L88.0302 195.38C86.5361 194.903 84.4748 194.223 82.2056 193.453C79.9365 192.684 77.8864 191.971 76.4092 191.443L74.6624 190.797C74.4432 190.733 74.2335 190.641 74.0389 190.521Z" fill="#E0E0E0"/>
<path d="M75.9377 213.578C76.2268 213.621 76.5108 213.692 76.7859 213.791L79.0663 214.488C80.9872 215.089 83.6326 215.937 86.5533 216.897C89.474 217.858 92.1082 218.734 94.0123 219.391L96.259 220.177C96.5385 220.267 96.8108 220.378 97.0734 220.509C96.7825 220.466 96.4965 220.394 96.2197 220.295L93.9393 219.599C92.0184 218.998 89.3729 218.15 86.4522 217.189C83.5315 216.229 80.8973 215.347 78.9989 214.695L76.7522 213.903C76.4714 213.82 76.1988 213.711 75.9377 213.578Z" fill="#E0E0E0"/>
<path d="M96.6124 220.2C96.8102 219.957 97.0302 219.733 97.2696 219.532L99.1287 217.785C100.696 216.308 102.853 214.257 105.172 211.927C107.492 209.596 109.542 207.433 111.014 205.861L112.755 203.996C112.96 203.758 113.183 203.536 113.423 203.333C113.26 203.597 113.072 203.845 112.862 204.074C112.48 204.541 111.907 205.198 111.177 206.007C109.744 207.624 107.722 209.815 105.391 212.146C103.06 214.477 100.898 216.51 99.2804 217.948C98.4716 218.661 97.8144 219.24 97.3482 219.633C97.1191 219.842 96.873 220.032 96.6124 220.2Z" fill="#E0E0E0"/>
<path d="M40.7602 28.957L35.2783 27.272C35.2783 27.272 33.8404 31.8777 29.0325 30.4679C28.1017 30.2116 27.2736 29.6723 26.6628 28.9246C26.052 28.1769 25.6886 27.2579 25.6231 26.2947C25.5512 25.4824 25.6742 24.6647 25.9819 23.9095C26.2896 23.1544 26.7732 22.4836 27.3924 21.9529C28.8022 20.706 31.2735 19.9478 34.7615 21.7508L38.6202 9.394L33.2001 7.70898L30.9534 14.9489C30.9534 14.9489 22.7305 14.5389 20.1188 22.9134C17.6193 30.9284 24.2246 35.0343 27.3025 35.9947C29.6391 36.7249 37.8451 38.657 40.7602 28.957Z" fill="#F2F7FF"/>
<path d="M33.934 5.13645L39.4352 6.85303L41.038 1.71649L35.5368 -8.93134e-05L33.934 5.13645Z" fill="#F2F7FF"/>
<path d="M55.8858 15.0047L58.082 14.4431C58.0149 14.1937 57.9987 13.9333 58.0343 13.6775C58.0699 13.4217 58.1565 13.1757 58.2891 12.9541C58.4217 12.7324 58.5974 12.5397 58.806 12.3873C59.0145 12.235 59.2515 12.1261 59.503 12.0672C59.8689 11.9567 60.2601 11.9628 60.6224 12.0846C60.9847 12.2064 61.3001 12.4378 61.525 12.7468C61.7159 13.0034 61.8435 13.3016 61.8971 13.6169C61.9508 13.9322 61.9292 14.2557 61.8339 14.561C61.6261 15.2743 60.9577 16.0495 59.4075 16.1786L60.7162 21.127L62.8843 20.5653L62.1204 17.6671C62.9426 17.1712 63.5788 16.4186 63.931 15.5254C64.2832 14.6322 64.3318 13.6479 64.0694 12.7244C63.2269 9.51161 60.1377 9.52846 58.9189 9.84861C57.9753 10.0677 54.8243 11.1405 55.8858 15.0047Z" fill="#F2F7FF"/>
<path d="M63.6492 21.287L61.4373 21.8799L61.9907 23.9448L64.2027 23.3519L63.6492 21.287Z" fill="#F2F7FF"/>
<path d="M237.199 71.8514L239.333 72.6209C239.423 72.3792 239.56 72.1579 239.736 71.97C239.913 71.782 240.125 71.6313 240.36 71.5266C240.596 71.4219 240.85 71.3654 241.108 71.3605C241.365 71.3555 241.621 71.4021 241.861 71.4976C242.22 71.6132 242.535 71.8372 242.763 72.1389C242.99 72.4405 243.118 72.8051 243.13 73.1826C243.144 73.5047 243.08 73.8254 242.945 74.1183C242.811 74.4112 242.608 74.668 242.355 74.8676C241.793 75.3338 240.788 75.5865 239.44 74.8114L237.693 79.6249L239.805 80.3888L240.827 77.5804C241.786 77.6398 242.738 77.383 243.536 76.8493C244.335 76.3156 244.936 75.5345 245.248 74.6261C246.371 71.5032 243.838 69.7676 242.642 69.3351C241.726 68.9757 238.525 68.0714 237.199 71.8514Z" fill="#F2F7FF"/>
<path d="M239.489 81.3649L237.345 80.5884L236.62 82.5899L238.764 83.3664L239.489 81.3649Z" fill="#F2F7FF"/>
<path d="M10.6884 96.2951L15.1818 94.5539C15.1818 94.5539 13.7214 90.7627 17.6363 89.1731C18.3855 88.8561 19.2147 88.7793 20.0094 88.9534C20.8041 89.1274 21.5253 89.5437 22.0735 90.1448C22.5399 90.6446 22.8816 91.2475 23.071 91.9043C23.2603 92.5612 23.2919 93.2535 23.1631 93.9249C22.8823 95.4863 21.6466 97.2949 18.3945 97.9183L22.3262 108.101L26.8196 106.383L24.5167 100.418C24.5167 100.418 30.1334 96.385 27.4992 89.4764C24.9436 82.8712 18.4058 83.6238 15.8951 84.5955C13.9573 85.3425 7.53181 88.3587 10.6884 96.2951Z" fill="#F2F7FF"/>
<path d="M27.6706 108.456L23.137 110.203L24.7685 114.438L29.3021 112.691L27.6706 108.456Z" fill="#F2F7FF"/>
<path d="M238.957 113.432L235.755 114.662C235.755 114.662 236.789 117.352 234.014 118.476C233.483 118.698 232.896 118.751 232.334 118.628C231.771 118.506 231.26 118.213 230.869 117.79C230.538 117.436 230.296 117.009 230.163 116.543C230.029 116.078 230.007 115.587 230.099 115.111C230.302 113.988 231.178 112.73 233.469 112.303L230.717 105.063L227.549 106.282L229.178 110.511C228.025 111.393 227.194 112.629 226.813 114.03C226.431 115.43 226.52 116.917 227.066 118.262C228.869 122.941 233.486 122.413 235.284 121.722C236.643 121.189 241.192 119.054 238.957 113.432Z" fill="#F2F7FF"/>
<path d="M226.923 104.815L230.135 103.577L228.98 100.579L225.768 101.817L226.923 104.815Z" fill="#F2F7FF"/>
<path d="M248 237.634C248 237.718 192.479 237.78 124.006 237.78C55.5324 237.78 0 237.718 0 237.634C0 237.55 55.5099 237.488 124.006 237.488C192.501 237.488 248 237.555 248 237.634Z" fill="#263238"/>
<path d="M35.6156 223.047C36.1773 220.98 34.7899 218.907 33.2734 217.43C31.7569 215.953 29.9427 214.594 29.1508 212.611C27.8702 209.398 29.5889 205.242 27.4096 202.563C26.1234 200.99 23.8205 200.462 22.6803 198.777C22.1531 197.849 21.8045 196.829 21.6525 195.772C20.4405 190.436 17.8157 185.524 14.0531 181.551C13.7994 186.304 14.8296 191.038 17.0355 195.256C17.9174 196.941 19.007 198.581 19.2822 200.462C19.7596 203.512 18.0522 206.641 18.8048 209.651C19.6642 213.077 23.5116 215.375 23.6913 218.902C23.8486 221.884 21.2481 224.519 21.4447 227.484C21.6022 228.754 22.0626 229.968 22.787 231.023C25.0899 234.859 28.4824 237.499 33.6161 237.415L39.9068 237.634L35.6156 223.047Z" fill="#C5DDFF"/>
<g opacity="0.3">
<path opacity="0.3" d="M35.6156 223.047C36.1773 220.98 34.7899 218.907 33.2734 217.43C31.7569 215.953 29.9427 214.594 29.1508 212.611C27.8702 209.398 29.5889 205.242 27.4096 202.563C26.1234 200.99 23.8205 200.462 22.6803 198.777C22.1531 197.849 21.8045 196.829 21.6525 195.772C20.4405 190.436 17.8157 185.524 14.0531 181.551C13.7994 186.304 14.8296 191.038 17.0355 195.256C17.9174 196.941 19.007 198.581 19.2822 200.462C19.7596 203.512 18.0522 206.641 18.8048 209.651C19.6642 213.077 23.5116 215.375 23.6913 218.902C23.8486 221.884 21.2481 224.519 21.4447 227.484C21.6022 228.754 22.0626 229.968 22.787 231.023C25.0899 234.859 28.4824 237.499 33.6161 237.415L39.9068 237.634L35.6156 223.047Z" fill="black"/>
</g>
<path d="M41.1763 237.763C41.7524 237.852 42.3396 237.84 42.9118 237.729C43.6066 237.623 44.2895 237.45 44.9507 237.212C45.8639 236.895 46.718 236.428 47.4782 235.831C47.9356 235.463 48.293 234.986 48.5173 234.443C48.7052 233.836 48.8036 233.204 48.8094 232.567C48.822 231.887 48.8726 231.209 48.961 230.534C49.0794 229.816 49.339 229.129 49.7249 228.512C50.4663 227.209 51.702 225.973 52.0951 224.204C52.4883 222.435 52.2187 220.581 51.9266 218.694C51.6346 216.807 51.365 214.762 52.0727 212.785C52.7804 210.808 54.1284 209.039 54.8192 206.826C55.5101 204.613 55.1843 202.175 55.3304 199.8C55.3735 198.593 55.652 197.406 56.1504 196.306C56.6559 195.183 57.3636 194.143 57.914 192.975C59.0374 190.605 59.2284 187.92 59.5317 185.286C59.6833 183.96 59.8293 182.618 59.981 181.27C60.0766 179.907 60.3119 178.558 60.6831 177.243C61.1092 175.917 61.6118 174.618 62.1884 173.35C62.4853 172.695 62.7294 172.017 62.9185 171.323C63.0243 170.604 63.0918 169.881 63.1207 169.155C63.1877 167.702 63.1313 166.245 62.9522 164.802C62.7837 163.353 62.5197 161.915 62.3625 160.46C62.3625 160.37 62.3625 160.286 62.3625 160.207L62.3288 159.921L62.076 160.044C60.748 160.726 59.5948 161.704 58.706 162.903C57.8342 164.078 57.1327 165.369 56.6222 166.74C55.5719 169.441 55.1956 172.272 54.6676 174.974C54.1396 177.675 53.4656 180.332 52.0839 182.579C51.393 183.702 50.5562 184.724 49.8372 185.814C49.0565 186.877 48.5231 188.102 48.2758 189.397C47.8995 192.06 49.3654 194.396 49.0621 196.755C48.9253 197.911 48.5422 199.024 47.9388 200.019C47.3771 201.024 46.6975 201.956 46.0572 202.889C45.4082 203.803 44.8442 204.775 44.3722 205.793C43.9279 206.788 43.6654 207.855 43.5971 208.944C43.4454 211.067 43.7431 213.077 43.5971 214.976C43.4217 216.785 42.8931 218.543 42.0412 220.149C41.283 221.693 40.4349 223.092 39.7271 224.451C39.3733 225.125 39.0419 225.788 38.7723 226.456C38.5172 227.098 38.329 227.764 38.2106 228.445C38.0226 229.633 38.0075 230.842 38.1657 232.034C38.3307 233.696 38.9528 235.281 39.963 236.611C40.1175 236.813 40.2885 237 40.4742 237.173C40.5982 237.303 40.7356 237.42 40.8842 237.521C41.1201 237.695 41.2437 237.774 41.2437 237.774C40.7946 237.419 40.3859 237.016 40.0248 236.572C39.0605 235.237 38.478 233.664 38.3398 232.023C38.1968 230.845 38.2233 229.654 38.4185 228.484C38.5367 227.82 38.725 227.171 38.9801 226.546C39.2647 225.871 39.5853 225.211 39.9406 224.569C40.6539 223.221 41.5076 221.828 42.2827 220.272C43.1601 218.641 43.706 216.853 43.8891 215.01C44.0576 213.072 43.7656 211.05 43.9228 208.983C43.9952 207.93 44.2518 206.897 44.6811 205.933C45.156 204.937 45.72 203.986 46.3661 203.091C47.0064 202.159 47.686 201.226 48.2702 200.198C48.9113 199.166 49.3213 198.006 49.4721 196.8C49.7754 194.29 48.3207 191.942 48.697 189.465C48.9432 188.226 49.459 187.056 50.2079 186.039C50.9212 184.966 51.7638 183.944 52.4546 182.792C53.8869 180.484 54.5777 177.776 55.1001 175.064C55.6224 172.351 56.01 169.542 57.0434 166.891C57.5405 165.559 58.2231 164.303 59.0711 163.162C59.9261 162.011 61.0352 161.073 62.3119 160.421L62.0255 160.258C62.0255 160.342 62.0255 160.426 62.0536 160.516C62.2108 161.988 62.4748 163.426 62.6152 164.864C62.7926 166.285 62.8471 167.719 62.7781 169.149C62.7497 169.852 62.686 170.553 62.5871 171.25C62.4056 171.922 62.1689 172.577 61.8794 173.21C61.2998 174.491 60.7935 175.803 60.3629 177.142C59.9886 178.477 59.7514 179.847 59.6552 181.231C59.5092 182.584 59.3575 183.927 59.2115 185.252C58.9082 187.898 58.7116 190.538 57.6388 192.824C57.0772 193.947 56.4031 195.02 55.8808 196.165C55.3667 197.307 55.0805 198.537 55.0383 199.788C54.8979 202.215 55.2124 204.591 54.5553 206.736C53.8981 208.882 52.5332 210.668 51.8424 212.695C51.1515 214.723 51.4043 216.869 51.7076 218.75C52.0109 220.632 52.3142 222.485 51.9098 224.154C51.5054 225.822 50.3483 227.069 49.5957 228.405C49.1989 229.049 48.9335 229.765 48.815 230.512C48.7301 231.194 48.6851 231.88 48.6802 232.567C48.6811 233.188 48.5902 233.805 48.4106 234.398C48.2025 234.913 47.8684 235.367 47.4389 235.718C46.699 236.315 45.866 236.785 44.9732 237.111C44.3206 237.363 43.6454 237.551 42.9568 237.673C42.5359 237.749 42.1094 237.791 41.6818 237.797C41.3279 237.763 41.1763 237.763 41.1763 237.763Z" fill="#263238"/>
<path d="M61.0478 163.679C61.0178 163.739 60.997 163.803 60.986 163.87L60.8512 164.431C60.7277 164.931 60.576 165.678 60.3401 166.611C60.1042 167.543 59.5257 168.599 59.037 169.896C58.4647 171.357 57.9661 172.845 57.543 174.356C57.06 176.041 56.6387 177.895 56.1894 179.894C55.8075 182.024 55.1307 184.09 54.1786 186.033C53.6619 187.055 53.0553 188.089 52.6228 189.223C52.1692 190.382 51.8654 191.594 51.7185 192.829C51.399 195.388 50.9453 197.929 50.3592 200.44C49.1011 205.591 47.8991 210.5 46.8039 214.97C45.7086 219.441 44.6751 223.44 43.8214 226.822C42.9676 230.203 42.3217 232.899 41.8499 234.826C41.6309 235.747 41.4568 236.471 41.3332 237.005C41.2826 237.235 41.2377 237.42 41.204 237.566C41.1978 237.632 41.1978 237.698 41.204 237.763C41.2366 237.705 41.2612 237.643 41.277 237.578C41.3163 237.426 41.3725 237.246 41.4399 237.016C41.5803 236.494 41.7769 235.769 42.0297 234.854C42.5352 232.944 43.2485 230.231 44.1303 226.889C45.0121 223.547 46.04 219.503 47.1914 215.06C48.3428 210.618 49.5111 205.675 50.7805 200.519C51.3628 198.001 51.8053 195.452 52.106 192.886C52.2495 191.68 52.5439 190.496 52.9822 189.364C53.426 188.241 53.9932 187.235 54.51 186.202C55.6333 184.152 56.077 181.95 56.5208 179.967C56.9645 177.984 57.3576 176.108 57.8182 174.435C58.2788 172.761 58.7618 171.267 59.2449 169.975C59.7279 168.683 60.2615 167.616 60.4918 166.65C60.7221 165.684 60.8288 164.965 60.9299 164.448C60.9673 164.216 61.001 164.029 61.031 163.887C61.0478 163.746 61.0591 163.679 61.0478 163.679Z" fill="#263238"/>
<path d="M42.2881 237.791C46.3939 235.348 47.5734 227.934 45.8604 223.474C44.1473 219.014 41.1479 214.937 40.6874 210.179C40.3279 206.523 41.5299 202.771 40.6874 199.199C39.5359 194.374 34.8291 190.639 34.8853 185.679C34.9134 182.899 36.4973 180.282 36.3681 177.501C36.2165 174.098 33.5991 171.39 31.9815 168.391C29.4989 163.791 29.336 158.36 28.4879 153.226C27.6398 148.092 25.6795 142.554 21.1075 140.021C20.4335 144.396 19.2821 147.396 19.6416 153.321C19.7764 155.45 22.2477 159.5 22.5847 164.19C22.7869 166.998 22.9217 169.773 23.0958 172.559C23.27 175.344 23.4385 178.04 24.4102 180.579C25.1572 182.528 26.3535 184.297 26.9096 186.308C27.9487 190.088 26.5782 194.172 27.4207 198.013C28.134 201.26 30.3807 204.051 30.8413 207.343C31.4816 211.965 28.4935 216.773 30.0212 221.182C30.7851 223.373 32.5825 225.114 33.0936 227.389C33.4924 229.141 33.0599 231 33.4194 232.758C33.981 235.6 39.4068 237.813 42.2994 237.628" fill="#C5DDFF"/>
<path d="M22.2308 144.34C22.2232 144.423 22.2232 144.505 22.2308 144.587C22.2308 144.773 22.287 145.009 22.3207 145.306C22.4162 145.941 22.5229 146.868 22.7363 148.07C22.9498 149.272 23.5901 150.631 24.0844 152.271C24.5786 153.911 25.1291 155.787 25.5896 157.888C26.0502 159.988 26.4546 162.331 26.8646 164.841C27.2746 167.352 27.724 170.087 28.9709 172.705C29.5326 174.013 30.1953 175.328 30.6559 176.732C31.1278 178.169 31.4184 179.66 31.5209 181.169C31.7505 184.371 32.1536 187.559 32.7285 190.717C33.9866 197.199 35.183 203.372 36.2726 208.994C37.3623 214.617 38.4575 219.632 39.3337 223.878C40.2099 228.125 40.9289 231.517 41.4287 233.91L41.9904 236.634C42.0578 236.926 42.1084 237.156 42.1533 237.336C42.1685 237.418 42.1911 237.499 42.2207 237.578C42.2306 237.496 42.2306 237.413 42.2207 237.331C42.187 237.145 42.1477 236.915 42.0971 236.617C41.9736 235.966 41.7995 235.045 41.5804 233.876C41.1086 231.478 40.4571 228.052 39.6089 223.822C38.7608 219.593 37.7554 214.521 36.6377 208.921C35.52 203.321 34.391 197.126 33.1273 190.65C32.5521 187.491 32.1471 184.304 31.914 181.102C31.8071 179.561 31.5071 178.04 31.021 176.575C30.5211 175.148 29.864 173.828 29.2854 172.525C28.0498 169.947 27.6004 167.256 27.1735 164.757C26.7467 162.258 26.3367 159.91 25.848 157.798C25.3594 155.686 24.8258 153.799 24.2753 152.181C23.7249 150.564 23.1127 149.193 22.8655 148.019C22.6184 146.845 22.5004 145.902 22.3825 145.278C22.3263 144.986 22.2814 144.75 22.2477 144.565C22.2465 144.49 22.2409 144.415 22.2308 144.34Z" fill="#263238"/>
<path d="M211.935 21.0106H214.182C214.18 20.7558 214.23 20.5033 214.327 20.268C214.425 20.0327 214.569 19.8194 214.751 19.6408C214.933 19.4622 215.149 19.3219 215.386 19.2282C215.623 19.1345 215.876 19.0893 216.131 19.0953C216.507 19.0818 216.878 19.186 217.192 19.3934C217.506 19.6009 217.748 19.9011 217.883 20.2524C218.001 20.5448 218.049 20.8612 218.022 21.1755C217.994 21.4899 217.893 21.7933 217.726 22.0609C217.344 22.69 216.513 23.2573 215.007 22.9933V28.0483H217.215V25.094C218.12 24.8273 218.914 24.2708 219.473 23.5098C220.032 22.7489 220.326 21.8255 220.309 20.8814C220.309 17.6125 217.378 16.8542 216.119 16.8542C215.159 16.8318 211.89 17.0621 211.935 21.0106Z" fill="#1565D8"/>
<path d="M217.232 29.0703H214.991V31.1653H217.232V29.0703Z" fill="#1565D8"/>
<path d="M232.56 24.0195C232.567 23.9242 232.567 23.8284 232.56 23.733C232.56 23.5308 232.56 23.2556 232.56 22.9018C232.56 22.722 232.56 22.5142 232.532 22.2896C232.503 22.0649 232.47 21.8178 232.43 21.5594C232.391 21.301 232.352 20.9977 232.307 20.7L232.071 19.7452C231.654 18.1008 230.971 16.5356 230.049 15.1114C228.71 13.0022 226.906 11.228 224.775 9.92522C222.643 8.62241 220.241 7.82567 217.754 7.59626C217.007 7.53028 216.256 7.51527 215.507 7.55132C215.131 7.55132 214.743 7.55132 214.384 7.62434L213.227 7.79846C211.639 8.09352 210.103 8.6176 208.666 9.35428C207.166 10.1481 205.787 11.1524 204.572 12.3368C203.327 13.5982 202.287 15.0459 201.488 16.6279C200.629 18.2588 200.066 20.0294 199.825 21.8571C199.755 22.3201 199.716 22.7873 199.708 23.2556C199.67 23.7246 199.661 24.1954 199.679 24.6654C199.802 27.6785 200.743 30.6011 202.404 33.1186V32.9444C201.623 34.8934 200.853 36.8087 200.101 38.6735L199.966 39.0161L200.32 38.915L206.442 37.23L206.296 37.1963C208.358 38.7572 210.76 39.8081 213.306 40.263C214.486 40.4831 215.69 40.5567 216.889 40.4821C217.467 40.4734 218.044 40.419 218.613 40.3192L219.45 40.19C219.725 40.1394 220.012 40.0552 220.259 39.9934C224.032 39.0374 227.341 36.7695 229.594 33.596C230.434 32.4269 231.109 31.1473 231.599 29.7935C231.706 29.4958 231.807 29.2318 231.902 28.9397C231.998 28.6477 232.049 28.3781 232.11 28.1253C232.172 27.8726 232.239 27.6142 232.296 27.3783C232.352 27.1424 232.369 26.9121 232.402 26.6931C232.453 26.2606 232.532 25.8786 232.548 25.5697C232.565 25.2608 232.548 24.9631 232.548 24.7272C232.548 24.4913 232.548 24.3453 232.548 24.2161C232.548 24.0869 232.548 24.042 232.548 24.042C232.54 24.0997 232.54 24.1584 232.548 24.2161C232.548 24.3453 232.548 24.5138 232.509 24.7272C232.47 24.9406 232.475 25.2383 232.453 25.5641C232.43 25.8899 232.346 26.2718 232.279 26.6874C231.743 29.7961 230.316 32.6822 228.171 34.9954C226.027 37.3086 223.257 38.9493 220.197 39.7182C219.933 39.78 219.669 39.8586 219.4 39.9092L218.574 40.0327C218.017 40.1257 217.454 40.1764 216.889 40.1844C215.712 40.2464 214.532 40.1691 213.373 39.9541C210.887 39.4966 208.542 38.4636 206.526 36.9379L206.459 36.8818H206.375L200.247 38.5668L200.46 38.8083L202.769 33.0849L202.802 32.995L202.752 32.9107C201.646 31.2374 200.861 29.3727 200.438 27.412C200.244 26.5023 200.127 25.5779 200.089 24.6486C200.071 24.1897 200.08 23.7302 200.118 23.2725C200.121 22.8154 200.159 22.3591 200.23 21.9076C200.445 20.1228 200.976 18.3903 201.797 16.7908C202.578 15.2448 203.591 13.8278 204.802 12.5895C205.991 11.4268 207.342 10.4413 208.812 9.6632C210.217 8.93249 211.721 8.41207 213.277 8.11861L214.401 7.94449C214.777 7.88833 215.153 7.89394 215.524 7.86586C216.256 7.83102 216.99 7.84416 217.72 7.90517C220.167 8.11935 222.533 8.88823 224.638 10.1534C226.743 11.4186 228.532 13.1469 229.869 15.2069C230.796 16.6063 231.49 18.1464 231.925 19.7677L232.178 20.7113C232.228 21.0089 232.273 21.2729 232.318 21.5538C232.363 21.8346 232.397 22.0593 232.436 22.2839C232.475 22.5086 232.464 22.7108 232.481 22.8905C232.481 23.2388 232.526 23.514 232.543 23.7162C232.532 23.8176 232.538 23.92 232.56 24.0195Z" fill="#263238"/>
<path d="M65.0638 90.2571H97.5002C97.5002 90.2571 97.5002 63.0217 125.803 62.5387C140.502 62.2803 148.124 71.913 151.224 79.2877C154.819 87.8532 153.729 97.615 148.91 105.563C143.411 114.634 131.56 123.75 109.7 119.896L109.492 192.167H141.569V149.322C141.569 149.322 186.553 137.696 186.553 88.1003C186.553 40.6672 148.197 30.4224 127.578 29.7596C116.108 29.3945 111.952 28.9002 97.7642 30.9166C79.6841 33.5003 64.6818 54.4956 65.0638 90.2571Z" fill="#70ABFF"/>
<path d="M141.956 207.231H109.402V237.634H141.956V207.231Z" fill="#70ABFF"/>
<path opacity="0.1" d="M141.956 207.231H109.402V237.634H141.956V207.231Z" fill="black"/>
<path opacity="0.1" d="M65.0638 90.2571H97.5002C97.5002 90.2571 97.5002 63.0217 125.803 62.5387C140.502 62.2803 148.124 71.913 151.224 79.2877C154.819 87.8532 153.729 97.615 148.91 105.563C143.411 114.634 131.56 123.75 109.7 119.896L109.492 192.167H141.569V149.322C141.569 149.322 186.553 137.696 186.553 88.1003C186.553 40.6672 148.197 30.4224 127.578 29.7596C116.108 29.3945 111.952 28.9002 97.7642 30.9166C79.6841 33.5003 64.6818 54.4956 65.0638 90.2571Z" fill="black"/>
<path d="M51.6231 90.2581H84.0651C84.0651 90.2581 84.0651 63.0227 112.368 62.5396C127.067 62.2812 134.689 71.9139 137.783 79.2886C141.384 87.8541 140.294 97.6159 135.475 105.564C129.976 114.635 117.917 122.88 96.0568 119.044V192.168H128.134V149.323C128.134 149.323 173.118 137.697 173.118 88.1012C173.118 40.6682 130.577 29.6538 112.373 29.6538C98.4495 29.6707 51.0108 33.0351 51.6231 90.2581Z" fill="#70ABFF"/>
<path opacity="0.3" d="M51.6231 90.2581H84.0651C84.0651 90.2581 84.0651 63.0227 112.368 62.5396C127.067 62.2812 134.689 71.9139 137.783 79.2886C141.384 87.8541 140.294 97.6159 135.475 105.564C129.976 114.635 117.917 122.88 96.0568 119.044V192.168H128.134V149.323C128.134 149.323 173.118 137.697 173.118 88.1012C173.118 40.6682 130.577 29.6538 112.373 29.6538C98.4495 29.6707 51.0108 33.0351 51.6231 90.2581Z" fill="black"/>
<path d="M128.521 207.231H95.9668V237.634H128.521V207.231Z" fill="#70ABFF"/>
<path opacity="0.3" d="M128.521 207.231H95.9668V237.634H128.521V207.231Z" fill="black"/>
<path d="M116.03 62.6848C115.869 62.6987 115.707 62.6987 115.547 62.6848C115.226 62.6848 114.766 62.5781 114.165 62.5725C112.466 62.489 110.762 62.5605 109.076 62.7859C106.576 63.1025 104.115 63.6804 101.735 64.5103C100.332 65.0007 98.9657 65.59 97.6462 66.2739C96.2199 66.9866 94.8768 67.855 93.6415 68.8632C92.4147 69.8805 91.3152 71.0422 90.3669 72.3231C89.4681 73.5074 88.6482 74.7495 87.9125 76.0414C86.6841 78.2417 85.7099 80.5745 85.0086 82.9948C84.5331 84.6283 84.206 86.3014 84.0313 87.9937C83.9639 88.5891 83.9471 89.0609 83.9302 89.3754C83.9306 89.5375 83.9155 89.6992 83.8853 89.8585C83.8708 89.6978 83.8708 89.5361 83.8853 89.3754C83.8853 89.0553 83.8853 88.5835 83.9358 87.9825C84.065 86.272 84.3641 84.5786 84.8289 82.9274C85.5044 80.4791 86.4658 78.1188 87.6934 75.8953C88.4306 74.5892 89.2544 73.3339 90.1591 72.1378C91.1153 70.8359 92.2283 69.6569 93.473 68.6273C94.7233 67.6053 96.0834 66.7255 97.5282 66.0043C98.856 65.3078 100.232 64.7072 101.645 64.207C104.047 63.3803 106.531 62.8153 109.054 62.522C110.751 62.3134 112.465 62.2739 114.171 62.404C114.634 62.4336 115.095 62.4899 115.552 62.5725C115.714 62.5987 115.873 62.6362 116.03 62.6848Z" fill="#263238"/>
<path d="M164.906 56.905C164.906 56.905 164.867 56.8657 164.799 56.7815C164.732 56.6972 164.631 56.5512 164.519 56.3883L163.446 54.8718C163.215 54.546 162.968 54.1697 162.676 53.7821L161.665 52.5521L160.508 51.1311C160.087 50.6368 159.593 50.1594 159.098 49.637C158.604 49.1147 158.099 48.5586 157.526 48.025C156.953 47.4914 156.341 46.9466 155.712 46.3849C155.397 46.1041 155.088 45.8233 154.751 45.5256L153.706 44.6999C152.993 44.1383 152.285 43.5766 151.516 43.0149C148.162 40.6153 144.604 38.5141 140.883 36.7354L137.923 35.3987L134.986 34.2753C134.025 33.8765 133.048 33.5957 132.105 33.2812C131.161 32.9666 130.24 32.6465 129.296 32.4274L126.611 31.7253C125.741 31.4951 124.876 31.3546 124.05 31.1637C123.225 30.9727 122.427 30.8042 121.646 30.7087L119.4 30.3829C117.978 30.1414 116.675 30.0909 115.541 29.9785C114.979 29.9336 114.418 29.8718 113.951 29.8494L112.615 29.8157L110.761 29.7539H110.278H110.115C110.169 29.7455 110.224 29.7455 110.278 29.7539H110.761H112.615H113.957C114.446 29.7539 114.979 29.8213 115.552 29.8606C116.675 29.9561 118.001 29.9954 119.422 30.2257L121.669 30.529C122.449 30.6188 123.247 30.8211 124.078 30.9727C124.91 31.1244 125.763 31.2816 126.656 31.5344L129.352 32.2308C130.285 32.4443 131.206 32.7925 132.161 33.079C133.116 33.3654 134.087 33.6406 135.048 34.0675L138.002 35.1908L140.979 36.5332C144.719 38.3159 148.291 40.4326 151.651 42.8576C152.426 43.4193 153.133 44.0203 153.847 44.5764L154.891 45.3346C155.228 45.6155 155.537 45.8963 155.852 46.1996L157.661 47.8846C158.222 48.4463 158.728 49.0079 159.228 49.5191C159.727 50.0302 160.205 50.5301 160.626 51.03L161.749 52.4622L162.749 53.7091C163.036 54.1023 163.277 54.4842 163.502 54.8325C163.94 55.4896 164.283 56.0064 164.524 56.3771L164.788 56.7871C164.832 56.8211 164.872 56.8608 164.906 56.905Z" fill="#263238"/>
<path d="M161.525 126.552C161.459 126.674 161.378 126.787 161.284 126.889L160.509 127.805C160.189 128.215 159.784 128.703 159.284 129.248C158.784 129.793 158.251 130.433 157.599 131.096C156.948 131.759 156.251 132.5 155.459 133.247C154.667 133.994 153.808 134.781 152.893 135.601C148.877 139.106 144.475 142.141 139.772 144.649C138.682 145.211 137.654 145.773 136.66 146.205C135.666 146.638 134.739 147.081 133.886 147.441C133.032 147.8 132.246 148.098 131.56 148.362C130.875 148.626 130.274 148.839 129.78 148.997L128.656 149.362C128.526 149.413 128.391 149.451 128.252 149.474C128.373 149.405 128.501 149.348 128.634 149.306L129.757 148.89C130.246 148.716 130.836 148.491 131.515 148.21C132.195 147.929 132.981 147.649 133.824 147.25C134.666 146.851 135.599 146.475 136.57 145.986C137.542 145.497 138.581 144.981 139.665 144.413C141.805 143.234 144.114 141.852 146.445 140.257C148.776 138.662 150.871 136.982 152.735 135.399C153.651 134.59 154.527 133.831 155.308 133.068C156.088 132.304 156.819 131.613 157.465 130.95C158.11 130.287 158.678 129.675 159.183 129.136C159.689 128.597 160.104 128.125 160.441 127.732L161.228 126.839C161.319 126.735 161.419 126.64 161.525 126.552Z" fill="#263238"/>
<path d="M127.566 189.616C127.482 189.616 127.415 180.596 127.415 169.469C127.415 158.342 127.482 149.316 127.566 149.316C127.651 149.316 127.712 158.337 127.712 169.469C127.712 180.601 127.645 189.616 127.566 189.616Z" fill="#263238"/>
<path d="M128.802 235.573C128.718 235.573 128.656 229.243 128.656 221.435C128.656 213.628 128.718 207.292 128.802 207.292C128.886 207.292 128.948 213.623 128.948 221.435C128.948 229.248 128.881 235.573 128.802 235.573Z" fill="#263238"/>
<path d="M160.734 85.9491C160.172 87.0724 162.267 87.9935 163.474 88.3586C164.707 88.661 165.982 88.7484 167.243 88.617C168.928 88.5271 170.653 88.3699 172.107 87.5386C173.381 86.7493 174.4 85.6081 175.039 84.2528C175.67 82.9018 176.168 81.4929 176.528 80.0459C176.528 80.0459 163.255 80.9109 160.734 85.9491Z" fill="#7FB3FF"/>
<g opacity="0.4">
<path opacity="0.4" d="M160.734 85.9491C160.172 87.0724 162.267 87.9935 163.474 88.3586C164.707 88.661 165.982 88.7484 167.243 88.617C168.928 88.5271 170.653 88.3699 172.107 87.5386C173.381 86.7493 174.4 85.6081 175.039 84.2528C175.67 82.9018 176.168 81.4929 176.528 80.0459C176.528 80.0459 163.255 80.9109 160.734 85.9491Z" fill="black"/>
</g>
<path d="M198.219 82.3542C200.407 83.9062 203.03 84.7278 205.712 84.702C206.998 84.7736 208.266 84.3743 209.279 83.5786C209.711 83.1799 210.037 82.6743 210.481 82.2924C210.784 82.034 211.138 81.8375 211.424 81.5622C211.575 81.4321 211.692 81.2665 211.764 81.0802C211.835 80.894 211.859 80.693 211.834 80.4951C211.723 80.0072 211.45 79.5716 211.059 79.2594C209.537 78.3944 207.717 78.4281 205.965 78.4674C204.211 78.5434 202.479 78.8823 200.825 79.4728C199.466 79.9334 198.045 80.5962 197.354 81.8318" fill="#7FB3FF"/>
<g opacity="0.4">
<path opacity="0.4" d="M211.834 80.4955C211.636 80.0217 211.286 79.6268 210.84 79.3722C209.318 78.5072 207.717 78.4286 205.965 78.4679C204.211 78.5438 202.479 78.8827 200.825 79.4733C199.466 79.9338 198.045 80.5966 197.354 81.8323L198.219 82.3546C200.407 83.9066 203.03 84.7283 205.712 84.7024C206.998 84.774 208.266 84.3747 209.279 83.5791C209.711 83.1803 210.037 82.6748 210.481 82.2928C210.784 82.0345 211.138 81.8379 211.424 81.5627C211.575 81.4325 211.692 81.2669 211.764 81.0807C211.835 80.8945 211.859 80.6934 211.834 80.4955Z" fill="black"/>
</g>
<path d="M172.304 102.513L200.303 102.884C200.36 102.883 200.416 102.87 200.467 102.844C200.518 102.818 200.562 102.781 200.596 102.735C200.63 102.689 200.653 102.636 200.662 102.58C200.672 102.524 200.668 102.466 200.651 102.412L197.366 92.1669C197.366 92.1669 197.849 87.0444 198.517 80.8885C199.534 71.5367 200.887 59.7809 200.904 59.8146C198.989 54.4451 187.688 53.5352 187.688 53.5352L174.809 54.299L174.36 53.5408L170.653 55.2651C169.844 55.6413 169.067 56.0807 168.327 56.5794C165.878 58.2139 159.981 61.9714 158.902 66.1559C156.414 75.8447 160.627 86.6569 160.627 86.6569L163.334 84.5394C164.016 84.0139 164.733 83.5354 165.48 83.1071L170.905 97.6488C170.583 97.8523 170.309 98.1254 170.105 98.4479C169.901 98.7705 169.771 99.1345 169.726 99.5135C169.681 100.693 170.288 102.108 172.304 102.513Z" fill="#7FB3FF"/>
<g opacity="0.3">
<path opacity="0.3" d="M184.318 85.3705C185.206 80.5963 184.74 75.6873 184.262 70.8569C182.712 74.7886 182.768 79.282 181.122 83.18C180.921 83.5916 180.773 84.0278 180.684 84.4774C180.641 84.7033 180.653 84.936 180.717 85.1567C180.782 85.3773 180.897 85.5796 181.055 85.7468C181.504 86.1568 182.178 85.9322 182.774 85.8648C183.307 85.7631 183.825 85.5971 184.318 85.3705Z" fill="black"/>
</g>
<g opacity="0.4">
<path opacity="0.4" d="M173.989 96.4245C176.236 97.2053 178.628 95.7505 181.004 95.4922C182.577 95.3237 184.149 95.6831 185.711 95.9359C188.868 96.4467 192.081 96.526 195.259 96.1718C195.747 96.145 196.224 96.0208 196.664 95.8067C196.89 95.652 197.076 95.4443 197.204 95.2015C197.332 94.9587 197.399 94.6883 197.399 94.4138C192.108 93.8521 186.823 93.5488 181.532 93.004C180.215 92.7792 178.866 92.8232 177.567 93.1332C175.972 93.6274 174.758 94.88 173.635 96.1212" fill="black"/>
</g>
<path d="M211.026 78.6533C208.74 73.5028 200.68 59.2588 200.68 59.2588L194.44 67.0829L195.894 82.4446C195.894 82.4446 199.191 78.7656 208.408 78.6926C209.078 78.7194 209.734 78.8957 210.326 79.2087C210.919 79.5216 211.435 79.9632 211.835 80.5012L211.026 78.6533Z" fill="#7FB3FF"/>
<path d="M173.557 75.9293C173.112 74.8373 172.758 73.71 172.501 72.5592C172.152 71.4383 171.896 70.2905 171.737 69.1274C172.176 70.2212 172.527 71.3481 172.787 72.4975C173.136 73.6187 173.394 74.7664 173.557 75.9293Z" fill="#263238"/>
<path d="M193.968 66.0435C194.171 66.1871 194.359 66.3508 194.529 66.5321C195.025 67.0113 195.491 67.5216 195.922 68.0599C197.375 69.8352 198.395 71.9231 198.905 74.1596C199.169 75.3959 199.228 76.6673 199.079 77.9228C198.938 79.0742 198.719 80.0852 198.573 80.939C198.427 81.7927 198.337 82.4892 198.292 82.9722C198.291 83.2232 198.265 83.4735 198.214 83.7192C198.174 83.4686 198.163 83.2142 198.18 82.961C198.205 82.2727 198.269 81.5863 198.371 80.9053C198.489 80.0459 198.686 79.0237 198.815 77.8947C198.945 76.6676 198.878 75.4276 198.618 74.2214C198.115 72.0267 197.14 69.9681 195.759 68.189C194.731 66.8073 193.923 66.0884 193.968 66.0435Z" fill="#263238"/>
<path d="M188.25 101.277C188.055 101.364 187.849 101.424 187.638 101.457C187.398 101.52 187.154 101.567 186.907 101.597C186.621 101.636 186.295 101.698 185.93 101.715C185.074 101.794 184.213 101.794 183.358 101.715C182.311 101.607 181.276 101.401 180.268 101.097C179.266 100.775 178.295 100.359 177.37 99.856C176.62 99.4374 175.908 98.9544 175.242 98.4125C174.949 98.1878 174.714 97.9519 174.5 97.7553C174.316 97.5895 174.142 97.4132 173.978 97.2273C173.822 97.0828 173.687 96.9163 173.579 96.7331C173.618 96.6938 174.219 97.3678 175.371 98.2496C176.043 98.7614 176.755 99.2196 177.499 99.6201C178.414 100.101 179.369 100.501 180.353 100.816C181.343 101.115 182.358 101.325 183.386 101.445C184.225 101.536 185.07 101.562 185.913 101.524C187.357 101.445 188.239 101.232 188.25 101.277Z" fill="#263238"/>
<path d="M196.894 98.0869C197.026 98.3409 197.101 98.6209 197.113 98.9069C197.202 99.5916 197.151 100.287 196.961 100.951C196.768 101.631 196.377 102.237 195.838 102.693C195.428 103.035 195.113 103.142 195.096 103.114C195.079 103.086 195.343 102.9 195.697 102.552C196.152 102.078 196.482 101.5 196.658 100.867C197.107 99.3844 196.787 98.0925 196.894 98.0869Z" fill="#263238"/>
<path d="M195.372 100.064C195.494 100.642 195.445 101.242 195.232 101.793C195.018 102.343 194.649 102.82 194.17 103.164C194.108 103.103 194.63 102.547 194.956 101.687C195.282 100.828 195.288 100.07 195.372 100.064Z" fill="#263238"/>
<path d="M190.361 81.585C190.064 82.0881 189.73 82.5687 189.362 83.0228C189.071 83.5301 188.743 84.0146 188.379 84.4719C188.487 83.8792 188.742 83.323 189.12 82.8543C189.42 82.3327 189.847 81.8959 190.361 81.585Z" fill="#263238"/>
<path d="M171.141 67.9812C170.713 67.7299 170.299 67.4561 169.9 67.1611C167.902 65.8488 165.635 65.0022 163.267 64.6841C162.771 64.648 162.277 64.5824 161.789 64.4876C162.287 64.4189 162.792 64.4189 163.289 64.4876C165.722 64.6952 168.053 65.5633 170.029 66.9982C170.444 67.2727 170.818 67.6035 171.141 67.9812Z" fill="#263238"/>
<path d="M200.679 59.0732C199.674 59.8828 198.735 60.7711 197.871 61.7299C197.075 62.7532 196.364 63.8389 195.742 64.9764C195.809 64.5938 195.94 64.2254 196.13 63.8868C196.537 63.0446 197.046 62.256 197.646 61.539C198.249 60.8234 198.939 60.1874 199.702 59.6461C199.992 59.4003 200.323 59.2065 200.679 59.0732Z" fill="#263238"/>
<path d="M189.12 54.4453C189.172 54.5263 189.213 54.613 189.244 54.7037C189.354 54.9581 189.442 55.2211 189.508 55.49C189.745 56.491 189.745 57.5333 189.508 58.5343C189.158 60.0285 188.359 61.3793 187.216 62.4042C185.775 63.6254 183.938 64.2803 182.049 64.2465C180.158 64.253 178.316 63.6481 176.797 62.5221C175.587 61.5982 174.605 60.4087 173.927 59.0454C173.471 58.1326 173.149 57.1582 172.972 56.1528C172.921 55.8819 172.887 55.608 172.871 55.3328C172.856 55.236 172.856 55.1374 172.871 55.0407C172.871 55.0407 172.933 55.4339 173.09 56.1303C173.309 57.1073 173.654 58.0515 174.118 58.9387C174.803 60.2609 175.777 61.4126 176.966 62.3087C178.429 63.3925 180.2 63.9826 182.021 63.9937C183.842 64.0272 185.614 63.4052 187.014 62.2413C188.118 61.254 188.9 59.959 189.261 58.523C189.511 57.5538 189.545 56.5415 189.362 55.5574C189.255 54.816 189.087 54.4565 189.12 54.4453Z" fill="#263238"/>
<g opacity="0.3">
<path opacity="0.3" d="M191.086 82.5788C191.086 82.298 191.041 81.9666 190.794 81.8262C190.716 81.7867 190.629 81.7661 190.541 81.7661C190.453 81.7661 190.367 81.7867 190.288 81.8262C190.131 81.9111 189.992 82.0255 189.878 82.1632C189.218 82.8504 188.707 83.667 188.379 84.5615L191.131 84.32C191.114 83.7527 191.103 83.1574 191.086 82.5788Z" fill="black"/>
</g>
<g opacity="0.3">
<path opacity="0.3" d="M200.225 76.7882C199.948 75.2133 199.258 73.7402 198.225 72.5195C199.416 76.4063 199.017 78.6024 198.349 81.2647L198.495 80.894C199.264 79.3382 200.433 78.3609 200.225 76.7882Z" fill="black"/>
</g>
<path d="M194.726 207.355L193.046 232.545L182.094 232.416L180.37 206.226L194.726 207.355Z" fill="#FFBE9D"/>
<path d="M193.355 229.231V229.961C193.355 229.961 205.712 234.927 205.83 237.263L181.291 237.128L181.673 228.967C185.329 230.68 189.154 230.894 193.355 229.231Z" fill="#7FB3FF"/>
<path d="M184.161 231.585C183.928 231.655 183.728 231.808 183.6 232.015C183.472 232.222 183.424 232.468 183.464 232.708C183.524 232.948 183.675 233.155 183.884 233.286C184.094 233.416 184.346 233.461 184.587 233.41C184.837 233.335 185.051 233.17 185.186 232.947C185.321 232.724 185.368 232.459 185.318 232.203C185.229 231.96 185.049 231.762 184.816 231.649C184.583 231.537 184.316 231.52 184.071 231.602" fill="white"/>
<path d="M181.291 237.128L181.381 235.168L204.881 236.022C204.881 236.022 205.97 236.505 205.841 237.269L181.291 237.128Z" fill="#263238"/>
<path d="M193.445 230.029C193.445 230.147 192.838 230.198 192.249 230.591C191.659 230.984 191.339 231.473 191.232 231.428C191.125 231.383 191.305 230.686 192.03 230.237C192.754 229.788 193.473 229.9 193.445 230.029Z" fill="#263238"/>
<path d="M196.012 231.108C196.04 231.225 195.518 231.422 195.108 231.928C194.698 232.433 194.58 232.967 194.456 232.961C194.333 232.955 194.265 232.276 194.788 231.664C195.31 231.051 196.006 231.023 196.012 231.108Z" fill="#263238"/>
<path d="M197.456 234.196C197.343 234.196 197.18 233.635 197.495 232.966C197.809 232.298 198.366 232.056 198.416 232.152C198.467 232.247 198.118 232.601 197.854 233.146C197.59 233.691 197.579 234.185 197.456 234.196Z" fill="#263238"/>
<path d="M192.726 23.1207C193.361 21.548 192.592 19.6439 191.227 18.6273C189.788 17.6804 188.034 17.3393 186.346 17.6781C184.68 18.0273 183.067 18.5939 181.549 19.3631C180.843 18.6511 179.953 18.1493 178.979 17.9138C178.004 17.6784 176.983 17.7184 176.03 18.0295C175.077 18.3407 174.229 18.9106 173.581 19.6757C172.933 20.4408 172.51 21.371 172.36 22.3624C171.753 22.2095 171.115 22.2249 170.516 22.4069C169.917 22.5889 169.379 22.9306 168.959 23.3953C168.539 23.8601 168.254 24.4303 168.134 25.0449C168.014 25.6595 168.063 26.2952 168.277 26.8839L175.871 29.5518L184.161 44.1552C185.386 45.2005 186.95 45.7644 188.56 45.7415C190.17 45.7187 191.718 45.1108 192.913 44.0312C194.108 42.9516 194.869 41.4741 195.055 39.8743C195.241 38.2746 194.838 36.6618 193.923 35.337C194.387 34.9239 194.782 34.4383 195.091 33.8991C195.753 33.5074 196.331 32.9878 196.791 32.3707C197.251 31.7536 197.584 31.0512 197.77 30.3044C198.506 27.0524 195.99 23.5026 192.726 23.1207Z" fill="#263238"/>
<path d="M187.699 53.5352C187.227 51.1593 186.902 49.5304 186.907 49.5473C186.913 49.5641 191.401 47.8061 191.075 41.5547C190.918 38.4431 189.732 33.5397 188.632 29.5631C187.643 25.9796 184.301 22.0311 180.768 23.1713L170.057 28.3948C168.984 28.743 168.799 29.754 169.052 30.8493V31.411L173.214 48.6318L174.972 56.3267C175.346 57.9067 176.299 59.2892 177.642 60.2019C178.985 61.1146 180.622 61.4914 182.229 61.2581C183.106 61.1347 183.949 60.8332 184.706 60.3721C185.463 59.9111 186.118 59.3002 186.63 58.577C187.142 57.8538 187.502 57.0335 187.685 56.1665C187.869 55.2995 187.874 54.404 187.699 53.5352Z" fill="#FFBE9D"/>
<path d="M188.592 33.7192C188.637 33.9185 188.604 34.1275 188.5 34.3031C188.395 34.4787 188.227 34.6075 188.03 34.6629C187.931 34.6906 187.827 34.6979 187.725 34.6845C187.623 34.671 187.525 34.637 187.436 34.5845C187.347 34.5321 187.27 34.4622 187.209 34.3791C187.148 34.2961 187.105 34.2015 187.081 34.1012C187.036 33.9026 187.07 33.6944 187.174 33.5197C187.279 33.3451 187.447 33.2174 187.643 33.1632C187.742 33.1346 187.845 33.1264 187.948 33.1391C188.05 33.1519 188.148 33.1853 188.237 33.2373C188.326 33.2893 188.403 33.3589 188.464 33.4417C188.525 33.5246 188.569 33.619 188.592 33.7192Z" fill="#263238"/>
<path d="M188.104 32.5233C188.025 32.6468 187.346 32.3379 186.514 32.5233C185.683 32.7086 185.155 33.2478 185.043 33.1636C184.931 33.0793 185.043 32.922 185.273 32.6749C185.582 32.3484 185.984 32.1248 186.425 32.0346C186.859 31.9409 187.312 31.9902 187.716 32.175C188.031 32.3042 188.138 32.4727 188.104 32.5233Z" fill="#263238"/>
<path d="M180.437 35.5617C180.482 35.7602 180.448 35.9685 180.344 36.1431C180.239 36.3178 180.071 36.4455 179.875 36.4996C179.778 36.5279 179.677 36.5366 179.576 36.5253C179.476 36.514 179.379 36.4829 179.29 36.4338C179.202 36.3847 179.124 36.3186 179.062 36.2392C178.999 36.1599 178.953 36.069 178.926 35.9717C178.881 35.7724 178.914 35.5634 179.019 35.3878C179.123 35.2122 179.291 35.0835 179.488 35.0281C179.585 34.9999 179.687 34.9915 179.788 35.0031C179.888 35.0148 179.986 35.0464 180.074 35.096C180.162 35.1457 180.24 35.2124 180.302 35.2924C180.365 35.3723 180.41 35.4639 180.437 35.5617Z" fill="#263238"/>
<path d="M180.027 34.5059C179.954 34.6295 179.269 34.3149 178.437 34.5059C177.606 34.6969 177.078 35.2248 176.966 35.1462C176.854 35.0676 176.966 34.9047 177.196 34.6519C177.507 34.3283 177.908 34.1069 178.348 34.0172C178.782 33.925 179.234 33.9721 179.639 34.152C179.937 34.2868 180.066 34.4385 180.027 34.5059Z" fill="#263238"/>
<path d="M184.257 39.7854C184.668 39.5583 185.106 39.381 185.56 39.2575C185.767 39.1901 185.964 39.1058 185.97 38.9542C185.94 38.7308 185.844 38.5214 185.694 38.3532L184.723 36.8591C183.363 34.7304 182.33 32.9668 182.414 32.9274C182.498 32.8881 183.672 34.5563 185.032 36.685L185.981 38.1903C186.167 38.4207 186.268 38.7083 186.267 39.0047C186.251 39.0855 186.216 39.1616 186.167 39.2276C186.117 39.2936 186.054 39.3479 185.981 39.3867C185.871 39.4448 185.754 39.4883 185.633 39.5158C185.188 39.6679 184.725 39.7587 184.257 39.7854Z" fill="#263238"/>
<path d="M186.908 49.5475C184.067 50.1895 181.103 50.0301 178.348 49.0869C178.348 49.0869 181.291 52.9287 187.228 51.0921L186.908 49.5475Z" fill="#EB996E"/>
<path d="M180.168 33.3152C180.111 33.5567 179.252 33.5511 178.275 33.7926C177.297 34.0341 176.522 34.3992 176.365 34.2083C176.298 34.1184 176.41 33.8825 176.708 33.6466C177.103 33.3134 177.573 33.0803 178.078 32.967C178.579 32.8482 179.1 32.8482 179.6 32.967C179.999 33.04 180.207 33.2029 180.168 33.3152Z" fill="#263238"/>
<path d="M187.783 29.8718C187.649 30.0965 186.93 30.0403 186.098 30.2032C185.267 30.3661 184.61 30.6469 184.413 30.4841C184.323 30.3998 184.413 30.1864 184.655 29.9224C185.026 29.6105 185.474 29.4048 185.952 29.327C186.423 29.2322 186.91 29.2672 187.362 29.4281C187.705 29.5854 187.839 29.7595 187.783 29.8718Z" fill="#263238"/>
<path d="M172.702 24.373C172.827 24.9815 173.084 25.5551 173.454 26.0531C173.825 26.5511 174.302 26.9614 174.849 27.2546C175.396 27.5479 176.002 27.717 176.622 27.75C177.242 27.7829 177.862 27.6789 178.437 27.4454C179.325 27.0859 180.246 26.4119 181.144 26.7376C182.043 27.0634 182.414 28.344 183.273 28.8214C184.537 29.5291 186.081 28.3047 187.491 28.4283C188.615 28.5238 189.463 29.3831 190.333 30.1133C191.204 30.8435 192.406 31.3939 193.389 30.8659C193.164 29.9279 192.83 29.0194 192.395 28.1587C191.955 27.2922 191.229 26.6052 190.339 26.2153C189.845 26.0187 189.311 25.9513 188.839 25.7098C187.823 25.1931 187.368 24.0248 186.632 23.143C186.149 22.5873 185.54 22.1547 184.856 21.8812C184.172 21.6077 183.433 21.5011 182.7 21.5703C181.487 21.6938 180.336 22.3061 179.111 22.2555C178.207 22.2162 177.342 21.8118 176.438 21.8286C174.68 21.8286 173.36 23.4013 172.382 24.8673" fill="#263238"/>
<path d="M178.623 25.6595C177.814 25.5977 176.163 25.4292 175.618 24.8563C175.064 24.2372 174.358 23.7744 173.569 23.5142C172.781 23.2539 171.938 23.2054 171.125 23.3735C170.318 23.6141 169.609 24.1074 169.104 24.7808C168.598 25.4542 168.322 26.2721 168.316 27.1142C167.333 27.354 166.434 27.8548 165.712 28.5637C164.99 29.2725 164.473 30.1631 164.216 31.1414C163.955 32.1655 163.946 33.2378 164.19 34.2661C164.435 35.2943 164.926 36.2478 165.62 37.0445C165.958 37.4664 166.265 37.9112 166.541 38.3757C166.16 38.8482 165.826 39.356 165.542 39.8922C164.255 42.7343 167.743 43.8239 167.743 43.8239C167.743 45.7336 169.513 45.7224 170.641 45.7167C171.77 45.7111 172.394 48.7273 173.276 48.6093L172.383 39.3025C172.513 39.3533 172.652 39.38 172.793 39.3811C174.921 39.4204 174.365 35.3876 173.68 34.3261C174.314 33.5365 174.85 32.6727 175.275 31.7536C175.661 30.3486 175.688 28.8693 175.354 27.4512C176.067 27.3613 178.971 25.6819 178.623 25.6595Z" fill="#263238"/>
<path d="M172.664 39.7968C172.591 39.5011 172.445 39.2286 172.239 39.0046C172.032 38.7807 171.773 38.6127 171.484 38.5162C171.195 38.4197 170.886 38.398 170.587 38.453C170.287 38.508 170.007 38.638 169.771 38.8308C169.209 39.3138 168.912 40.1226 169.249 41.4762C170.159 45.0934 173.602 43.4364 173.579 43.3353C173.557 43.2342 173.057 41.2909 172.664 39.7968Z" fill="#FFBE9D"/>
<path d="M172.13 42.2401C172.13 42.2401 172.079 42.3019 171.984 42.3749C171.851 42.4768 171.684 42.5231 171.518 42.5041C171.102 42.4592 170.625 41.9425 170.445 41.2853C170.359 40.9782 170.342 40.6561 170.394 40.3417C170.4 40.2195 170.435 40.1006 170.497 39.995C170.558 39.8893 170.645 39.8002 170.748 39.7351C170.816 39.6983 170.895 39.6866 170.971 39.702C171.047 39.7174 171.115 39.7589 171.164 39.8193C171.237 39.9036 171.231 39.9822 171.254 39.9878C171.276 39.9935 171.315 39.9036 171.254 39.7632C171.211 39.6799 171.142 39.6129 171.057 39.5722C170.938 39.5241 170.805 39.5241 170.686 39.5722C170.545 39.6392 170.423 39.7407 170.332 39.8674C170.241 39.9941 170.183 40.1418 170.164 40.2968C170.091 40.6505 170.105 41.0165 170.203 41.3639C170.266 41.6901 170.424 41.9905 170.656 42.2273C170.889 42.4641 171.187 42.6269 171.512 42.6951C171.618 42.6994 171.723 42.6799 171.82 42.6381C171.917 42.5963 172.004 42.5333 172.074 42.4536C172.147 42.33 172.147 42.2458 172.13 42.2401Z" fill="#EB996E"/>
<path d="M192.058 34.7471C192.058 34.7471 192.389 34.4944 192.85 33.9327C193.485 33.1234 193.875 32.1487 193.973 31.1243C194.047 30.4251 193.979 29.718 193.771 29.0462C193.531 28.2755 193.086 27.5845 192.485 27.0466C191.79 26.4398 190.948 26.0252 190.044 25.8439C189.139 25.6626 188.203 25.721 187.328 26.0131C187.16 26.0693 187.003 26.1536 186.845 26.221C186.688 26.2884 186.548 26.3895 186.402 26.4737L186.177 26.5973V26.3501C186.172 25.915 186.011 25.4963 185.722 25.1706C185.426 24.8546 185.064 24.6089 184.66 24.4517C183.898 24.1338 183.052 24.0708 182.251 24.272C180.701 24.6258 179.386 25.3335 178.145 25.4795C177.172 25.6487 176.17 25.4484 175.337 24.9179C175.117 24.7665 174.926 24.5762 174.775 24.3562C174.685 24.2046 174.64 24.1203 174.651 24.1147C174.855 24.392 175.104 24.6332 175.387 24.828C176.207 25.3014 177.171 25.4629 178.1 25.283C178.747 25.1613 179.379 24.973 179.987 24.7213C180.701 24.4359 181.433 24.1977 182.178 24.008C182.593 23.9075 183.02 23.864 183.447 23.8788C183.898 23.9026 184.341 24.0052 184.756 24.1821C185.185 24.3656 185.569 24.6418 185.879 24.9909C186.211 25.3711 186.398 25.8566 186.407 26.3614L186.183 26.2378L186.649 25.9682C186.823 25.9008 186.986 25.8109 187.165 25.7491C188.088 25.4333 189.077 25.3673 190.033 25.5577C190.989 25.7481 191.877 26.1881 192.608 26.8332C193.24 27.4051 193.702 28.1395 193.945 28.9563C194.197 29.822 194.231 30.7366 194.044 31.6186C193.857 32.5006 193.454 33.3226 192.872 34.0113C192.687 34.2224 192.478 34.411 192.249 34.573C192.192 34.6386 192.128 34.697 192.058 34.7471Z" fill="#455A64"/>
<path d="M191.328 22.0479C190.959 21.8607 190.566 21.7264 190.16 21.6491C189.695 21.5856 189.222 21.6298 188.778 21.7783C188.202 21.9544 187.702 22.3182 187.357 22.8117L187.216 23.0083L187.132 22.7837C186.839 22.0932 186.367 21.4935 185.765 21.0462C185.162 20.599 184.452 20.3204 183.706 20.2393C182.535 20.1952 181.38 20.5301 180.415 21.1941C179.592 21.7305 178.717 22.1822 177.803 22.5421C177.173 22.7805 176.494 22.8614 175.826 22.778C175.648 22.7451 175.473 22.6963 175.303 22.632C175.191 22.5815 175.129 22.5534 175.135 22.5421C175.14 22.5309 175.388 22.6152 175.843 22.6601C176.489 22.7005 177.136 22.5949 177.735 22.3512C178.623 21.9639 179.475 21.4977 180.28 20.9582C180.777 20.6496 181.304 20.3918 181.852 20.1887C182.456 19.9688 183.1 19.8863 183.74 19.9472C184.536 20.0342 185.294 20.3356 185.933 20.8192C186.572 21.3029 187.068 21.9507 187.368 22.6938H187.149C187.535 22.166 188.087 21.7824 188.716 21.6041C189.194 21.4655 189.698 21.4405 190.188 21.5311C190.498 21.59 190.794 21.7041 191.064 21.8681C191.16 21.9152 191.249 21.9757 191.328 22.0479Z" fill="#455A64"/>
<path d="M184.211 43.1949C184.166 43.1949 184.116 43.0264 183.964 42.7961C183.781 42.4874 183.508 42.2421 183.182 42.0935C182.856 41.9448 182.491 41.8999 182.139 41.9648C181.863 42.0042 181.695 42.0828 181.678 42.0435C181.661 42.0042 181.79 41.8694 182.094 41.7626C182.491 41.6349 182.921 41.6589 183.301 41.83C183.685 42.0009 183.989 42.3125 184.149 42.7006C184.267 42.9927 184.251 43.1893 184.211 43.1949Z" fill="#263238"/>
<path d="M172.748 43.8913C172.748 43.8913 172.911 44.1721 172.697 44.599C172.576 44.8544 172.364 45.0549 172.102 45.1606C171.938 45.2192 171.763 45.239 171.591 45.2185C171.418 45.1981 171.253 45.1379 171.108 45.0427C170.96 44.9528 170.835 44.83 170.742 44.6839C170.65 44.5378 170.592 44.3722 170.574 44.2002C170.557 43.9227 170.639 43.6482 170.804 43.4251C171.096 43.0544 171.422 43.0431 171.422 43.0768C171.422 43.1105 171.175 43.206 170.979 43.543C170.865 43.7318 170.817 43.9532 170.844 44.1721C170.865 44.3003 170.913 44.4224 170.986 44.53C171.059 44.6377 171.154 44.7282 171.265 44.7955C171.375 44.8657 171.498 44.9119 171.626 44.9313C171.755 44.9506 171.887 44.9427 172.012 44.9079C172.219 44.8337 172.398 44.6961 172.523 44.5147C172.742 44.1665 172.703 43.8913 172.748 43.8913Z" fill="#7FB3FF"/>
<path d="M170.855 43.6719C170.883 43.6719 170.855 43.8629 170.591 43.9864C170.461 44.0403 170.319 44.056 170.18 44.0315C170.042 44.0071 169.914 43.9435 169.81 43.8484C169.707 43.7534 169.633 43.6307 169.597 43.4949C169.561 43.3591 169.565 43.2159 169.608 43.0821C169.663 42.9302 169.768 42.8015 169.906 42.7171C170.136 42.5766 170.31 42.6328 170.304 42.6665C170.299 42.7002 170.169 42.7395 170.029 42.8799C169.96 42.9663 169.918 43.071 169.908 43.1812C169.898 43.2913 169.921 43.4019 169.974 43.4991C170.027 43.5962 170.107 43.6756 170.205 43.7274C170.302 43.7791 170.413 43.8008 170.523 43.7898C170.714 43.7505 170.815 43.6494 170.855 43.6719Z" fill="#7FB3FF"/>
<path d="M177.027 93.5542C177.027 93.5542 190.934 94.363 199.157 94.436C205.521 94.4978 208.363 92.8072 209.632 88.7126C210.7 85.2808 208.408 78.6924 208.408 78.6924C204.1 78.6924 201.443 79.3102 198.674 80.6077L199.41 83.6182L176.988 85.5504L177.027 93.5542Z" fill="#FFBE9D"/>
<path d="M204.083 86.8307C203.48 86.0465 202.776 85.3458 201.988 84.7469C201.144 84.23 200.233 83.8294 199.281 83.5561C199.581 83.513 199.886 83.5399 200.174 83.6347C200.881 83.8017 201.551 84.0968 202.151 84.5053C202.753 84.9151 203.273 85.4332 203.685 86.0331C203.999 86.4937 204.117 86.8138 204.083 86.8307Z" fill="#EB996E"/>
<path d="M171.939 80.5851C171.939 80.5851 167.636 81.6186 164.474 83.7305L167.844 92.8632C168.967 95.8626 172.399 97.3566 175.146 95.7839C179.375 93.3631 180.869 86.3085 180.869 86.3085L185.514 66.1558L177.814 61.3311L171.967 80.5851" fill="#FFBE9D"/>
<path d="M177.786 61.331L178.1 54.7033L176.376 47.9633C176.281 47.5926 176.236 47.1264 176.539 46.9017C176.689 46.7864 176.875 46.7267 177.065 46.7329C177.254 46.739 177.435 46.8106 177.578 46.9354C178.044 47.4184 180.291 53.3104 180.291 53.3104C180.291 53.3104 183.7 51.2659 184.307 51.1648C184.913 51.0637 185.672 52.9003 185.722 53.0408C185.745 53.4524 185.745 53.8649 185.722 54.2764C185.722 54.2764 187.829 54.3382 188.02 54.6247C188.173 55.2099 188.254 55.8116 188.261 56.4164C188.261 56.4164 189.154 56.7029 189.294 57.3769C189.435 58.0509 189.727 59.163 189.294 59.4101C188.862 59.6573 187.986 60.1403 187.986 60.1403C187.986 60.1403 187.632 63.5777 187.536 63.8922C187.441 64.2068 185.47 66.1389 185.47 66.1389L177.786 61.331Z" fill="#FFBE9D"/>
<path d="M170.619 95.9191C170.619 95.9191 170.827 96.0426 171.265 96.183C171.906 96.3841 172.583 96.4378 173.248 96.3403C174.315 96.1881 175.315 95.7274 176.124 95.0148C177.193 94.0448 178.096 92.9065 178.797 91.6448C179.21 90.9031 179.558 90.127 179.836 89.3251C180.128 88.4427 180.37 87.5444 180.561 86.6347C180.999 84.7418 181.476 82.703 181.982 80.5349C182.993 76.2044 184.127 71.3628 185.352 66.1449V66.1056H185.38C185.767 65.7237 186.155 65.3361 186.543 64.9317C186.733 64.7295 186.924 64.5273 187.104 64.3195C187.194 64.2128 187.29 64.1061 187.363 63.9993C187.419 63.8936 187.452 63.7766 187.458 63.6567C187.61 62.5334 187.728 61.3707 187.851 60.1968V60.1238L187.919 60.0901L188.991 59.4891C189.07 59.4386 189.194 59.3824 189.244 59.3375C189.298 59.2889 189.333 59.2236 189.345 59.1521C189.371 58.9658 189.371 58.7768 189.345 58.5904C189.291 58.1785 189.206 57.7712 189.092 57.3716C188.901 57.0222 188.581 56.762 188.199 56.6471L188.104 56.6134V56.5179C188.104 56.1921 188.07 55.8551 188.031 55.5237C188.016 55.3577 187.991 55.1927 187.958 55.0295C187.945 54.9575 187.922 54.8876 187.891 54.8216C187.891 54.7823 187.891 54.8216 187.857 54.7879C187.826 54.7719 187.794 54.7588 187.761 54.7486C187.086 54.6014 186.397 54.5242 185.706 54.5183H185.56V54.3723C185.56 54.0241 185.56 53.6365 185.56 53.249C185.536 53.1168 185.491 52.9895 185.425 52.8726C185.369 52.7378 185.301 52.6087 185.234 52.4739C185.102 52.2137 184.948 51.9656 184.773 51.7324C184.694 51.6238 184.597 51.5289 184.487 51.4516C184.446 51.4172 184.396 51.3956 184.343 51.3896C184.29 51.3836 184.236 51.3935 184.189 51.4179C183.917 51.522 183.653 51.644 183.397 51.783C182.352 52.3447 181.33 52.9063 180.33 53.5129L180.184 53.6028L180.123 53.4455C179.595 52.1144 179.067 50.8001 178.55 49.5138C178.292 48.8679 178.039 48.222 177.78 47.5873C177.741 47.4451 177.661 47.317 177.552 47.2177C177.443 47.1184 177.308 47.0518 177.163 47.0256C177.028 46.9811 176.883 46.9835 176.75 47.0325C176.618 47.0815 176.506 47.1741 176.432 47.2952C176.362 47.4157 176.333 47.5555 176.348 47.694C176.348 47.8176 176.427 48.0086 176.461 48.1602C176.55 48.486 176.635 48.8061 176.719 49.1263C176.887 49.7722 177.05 50.4069 177.219 51.036C177.548 52.3016 177.872 53.5373 178.19 54.743V54.7823C178.078 57.0889 177.971 59.2982 177.87 61.41V61.3988L172.753 78.0467L171.31 82.6805C171.142 83.2028 171.012 83.6129 170.922 83.8993C170.833 84.1858 170.776 84.3093 170.776 84.3093C170.776 84.3093 170.804 84.1633 170.883 83.8881L171.237 82.658C171.563 81.574 172.029 80.0069 172.619 78.0074C173.832 73.9858 175.556 68.2456 177.64 61.3258V61.3539C177.737 59.2495 177.837 57.0402 177.938 54.7261V54.7655C177.618 53.5579 177.286 52.3222 176.955 51.0641L176.449 49.1544C176.365 48.8342 176.281 48.5085 176.191 48.1883C176.143 48.0201 176.103 47.8495 176.073 47.6772C176.052 47.4822 176.094 47.2857 176.191 47.1155C176.295 46.9403 176.455 46.8056 176.646 46.7336C176.834 46.6784 177.034 46.6722 177.225 46.7154C177.417 46.7586 177.595 46.8499 177.741 46.9807C177.882 47.113 177.987 47.2793 178.044 47.4638L178.814 49.3903C179.336 50.6821 179.859 51.9964 180.392 53.322L180.184 53.249C181.19 52.6536 182.201 52.0582 183.268 51.5022C183.538 51.3612 183.815 51.2355 184.099 51.1258C184.188 51.0889 184.285 51.0754 184.38 51.0865C184.476 51.1004 184.568 51.1349 184.65 51.1876C184.785 51.2847 184.904 51.4021 185.004 51.5359C185.191 51.7816 185.355 52.045 185.492 52.3222C185.565 52.4626 185.633 52.5974 185.694 52.7378C185.774 52.8866 185.828 53.0481 185.852 53.2153C185.852 53.614 185.852 53.9847 185.852 54.3386L185.711 54.1869C186.433 54.1918 187.153 54.2746 187.857 54.4341C187.905 54.451 187.952 54.4716 187.997 54.4959C188.059 54.5295 188.11 54.5802 188.143 54.6419C188.187 54.7331 188.219 54.8293 188.239 54.9283C188.272 55.1081 188.295 55.2766 188.317 55.4507C188.351 55.7933 188.374 56.1303 188.39 56.4673L188.289 56.3325C188.519 56.3999 188.733 56.5133 188.917 56.6659C189.101 56.8185 189.253 57.007 189.362 57.22C189.485 57.6468 189.575 58.0824 189.632 58.523C189.671 58.7479 189.671 58.9778 189.632 59.2027C189.607 59.3389 189.536 59.4621 189.429 59.5509C189.337 59.6126 189.242 59.6688 189.143 59.7194L188.076 60.2755L188.149 60.1687C188.02 61.3426 187.902 62.4941 187.744 63.6342L187.711 63.8533C187.698 63.942 187.661 64.0255 187.604 64.0948C187.521 64.2178 187.429 64.3342 187.329 64.4431C187.138 64.6565 186.947 64.8643 186.767 65.0665C186.38 65.4709 185.992 65.8585 185.599 66.2404L185.638 66.173C184.403 71.3853 183.257 76.2269 182.229 80.5574C181.718 82.7198 181.229 84.7587 180.78 86.6459C180.588 87.5625 180.34 88.4665 180.038 89.3531C179.749 90.1626 179.392 90.9461 178.971 91.6953C178.254 92.9732 177.329 94.1233 176.236 95.099C175.403 95.8163 174.377 96.2732 173.287 96.4133C172.608 96.5045 171.918 96.4352 171.271 96.2111C171.106 96.1507 170.946 96.0774 170.793 95.9921L170.619 95.9191Z" fill="#EB996E"/>
<path d="M185.728 54.2936C185.728 54.3329 185.537 54.3554 185.239 54.3666C184.861 54.3738 184.485 54.419 184.116 54.5014C183.76 54.589 183.431 54.7648 183.161 55.0126C182.959 55.2035 182.869 55.3664 182.824 55.3496C182.779 55.3327 182.824 55.1305 183.009 54.8721C183.271 54.5451 183.635 54.3156 184.043 54.2206C184.436 54.1237 184.844 54.1046 185.245 54.1644C185.548 54.2038 185.728 54.2543 185.728 54.2936Z" fill="#EB996E"/>
<path d="M184.099 54.3554C184.026 54.3273 184.021 54.1531 184.099 53.9677C184.178 53.7822 184.29 53.653 184.363 53.6811C184.436 53.7092 184.448 53.8834 184.363 54.0688C184.279 54.2543 184.155 54.3835 184.099 54.3554Z" fill="#EB996E"/>
<path d="M188.356 56.3938C187.811 56.5625 187.242 56.6403 186.671 56.6241C186.492 56.6181 186.313 56.6553 186.151 56.7325C185.989 56.8097 185.847 56.9247 185.739 57.0678C185.593 57.2981 185.643 57.4891 185.598 57.5003C185.553 57.5116 185.419 57.315 185.559 56.978C185.636 56.7882 185.777 56.6313 185.958 56.5342C186.166 56.4202 186.395 56.3513 186.632 56.332C187.205 56.2442 187.79 56.2652 188.356 56.3938Z" fill="#EB996E"/>
<path d="M187.986 58.4161C188.064 58.4161 188.109 58.8317 188.087 59.3428C188.064 59.8539 187.98 60.2584 187.902 60.2584C187.823 60.2584 187.772 59.8371 187.795 59.326C187.817 58.8149 187.902 58.4105 187.986 58.4161Z" fill="#EB996E"/>
<path d="M161.071 63.6455C161.071 63.6455 160.863 63.8589 160.571 64.3139C160.179 64.9618 159.921 65.6819 159.812 66.4314C159.652 67.5474 159.618 68.6778 159.711 69.8014C159.773 71.0764 159.874 72.4694 160.031 73.9297C160.298 76.4237 160.693 78.9021 161.217 81.355C161.413 82.2986 161.593 83.04 161.717 83.6017C161.773 83.8376 161.823 84.0342 161.863 84.2027C161.902 84.3712 161.907 84.4161 161.907 84.4161C161.907 84.4161 161.879 84.3487 161.84 84.2139C161.801 84.0791 161.739 83.8432 161.677 83.6129C161.537 83.0905 161.346 82.3379 161.116 81.3943C160.57 78.9423 160.163 76.4613 159.897 73.9634C159.739 72.503 159.644 71.1045 159.588 69.8295C159.503 68.7051 159.544 67.5746 159.711 66.4595C159.832 65.7002 160.107 64.9737 160.52 64.3251C160.672 64.0749 160.857 63.8463 161.071 63.6455Z" fill="white"/>
<path d="M172.894 55.9952L172.765 56.0626L172.394 56.2423C172.074 56.394 171.608 56.6186 171.052 56.9276C169.602 57.736 168.194 58.6171 166.834 59.5674C165.227 60.6908 163.806 61.713 162.767 62.4544L161.537 63.325L161.194 63.5553C161.156 63.5858 161.115 63.6122 161.071 63.6339C161.103 63.5962 161.141 63.5639 161.183 63.5384L161.509 63.2913L162.716 62.387C163.744 61.6287 165.16 60.5728 166.766 59.4719C168.129 58.5175 169.547 57.6436 171.012 56.8545C171.574 56.5569 172.046 56.3434 172.377 56.203L172.754 56.0457C172.866 56.0064 172.866 55.9896 172.894 55.9952Z" fill="white"/>
<path d="M199.68 59.6518C199.645 59.6323 199.613 59.6077 199.584 59.5788L199.332 59.3598C199.019 59.0955 198.691 58.8498 198.349 58.624C197.209 57.897 195.999 57.2855 194.737 56.7985C193.48 56.3004 192.195 55.8728 190.89 55.5179C190.384 55.3775 189.98 55.2764 189.693 55.209L189.373 55.1248C189.334 55.1167 189.297 55.1035 189.261 55.0854H189.379L189.705 55.1472C189.991 55.2034 190.401 55.2933 190.907 55.4225C192.224 55.7551 193.519 56.1735 194.782 56.675C196.051 57.1618 197.262 57.7872 198.394 58.5397C198.865 58.8586 199.296 59.2319 199.68 59.6518Z" fill="white"/>
<path d="M173.051 102.524C172.975 102.51 172.901 102.486 172.832 102.451C172.637 102.365 172.449 102.264 172.271 102.148C171.968 101.966 171.704 101.727 171.494 101.444C171.284 101.16 171.132 100.838 171.046 100.496C170.892 99.8055 170.969 99.0832 171.265 98.4405C171.351 98.2409 171.46 98.0523 171.591 97.8788C171.681 97.7609 171.743 97.7047 171.748 97.7103C171.595 97.9499 171.458 98.1995 171.338 98.4574C171.077 99.0884 171.016 99.7845 171.164 100.451C171.325 101.11 171.725 101.684 172.287 102.063C172.754 102.4 173.062 102.501 173.051 102.524Z" fill="white"/>
<path d="M171.265 96.4409C171.384 96.6639 171.473 96.9019 171.529 97.1486C171.617 97.3849 171.67 97.6328 171.686 97.8844C171.558 97.6667 171.467 97.4295 171.416 97.1823C171.324 96.9455 171.273 96.6948 171.265 96.4409Z" fill="white"/>
<path d="M178.859 222.373L195.99 222.289L195.681 163.061L195.518 102.81L172.304 102.513L168.131 110.376C166.423 113.537 165.335 116.995 164.924 120.565C164.643 123.295 166.687 132.169 167.395 134.416L173.781 154.669L178.859 222.373Z" fill="#263238"/>
<path d="M200.545 102.884L219.372 154.204C220.487 157.51 220.858 161.023 220.457 164.489C220.056 167.956 218.893 171.291 217.052 174.255L195.192 216.942L182.903 201.564L201.191 163.37L185.071 137.224L187.784 102.962L195.377 102.839L200.545 102.884Z" fill="#263238"/>
<path d="M193.956 120.076C193.956 120.076 193.956 120.166 193.956 120.34C193.956 120.514 193.985 120.784 194.007 121.115C194.046 121.806 194.097 122.8 194.164 124.086C194.293 126.687 194.473 130.422 194.726 135.033C194.979 139.645 195.192 145.144 195.473 151.266C195.608 154.321 195.754 157.528 195.9 160.853C196.007 162.538 195.962 164.223 195.978 165.908C195.995 167.594 195.978 169.368 195.978 171.132C195.978 185.247 196.023 198.025 196.04 207.287C196.04 211.904 196.04 215.644 196.04 218.245C196.04 219.531 196.04 220.531 196.04 221.227C196.04 221.553 196.04 221.789 196.04 222.003C196.04 222.216 196.04 222.267 196.04 222.267C196.04 222.267 196.04 222.177 196.04 222.003V221.227C196.04 220.531 196.04 219.542 196.007 218.245C196.007 215.644 195.962 211.909 195.928 207.292C195.889 198.03 195.838 185.252 195.782 171.138C195.782 169.374 195.782 167.633 195.782 165.914C195.782 164.195 195.816 162.499 195.709 160.859C195.568 157.54 195.428 154.332 195.299 151.277C195.04 145.166 194.805 139.667 194.614 135.039C194.423 130.411 194.282 126.693 194.175 124.092C194.131 122.812 194.097 121.812 194.074 121.115C194.074 120.784 194.074 120.554 194.074 120.34C194.074 120.127 193.956 120.076 193.956 120.076Z" fill="#455A64"/>
<path d="M193.524 103.895C193.59 104.075 193.629 104.264 193.642 104.456C193.704 104.816 193.771 105.338 193.85 105.99C193.996 107.287 194.153 109.09 194.243 111.084C194.333 113.078 194.338 114.886 194.31 116.195C194.31 116.847 194.271 117.38 194.243 117.745C194.249 117.935 194.226 118.124 194.175 118.307C194.105 117.605 194.08 116.9 194.102 116.195C194.102 114.886 194.041 113.089 193.951 111.095C193.861 109.101 193.737 107.309 193.642 106.04C193.562 105.328 193.523 104.611 193.524 103.895Z" fill="#455A64"/>
<path d="M189.749 105.051C189.778 105.091 189.457 105.237 189.367 105.692C189.342 105.815 189.349 105.943 189.388 106.063C189.426 106.183 189.494 106.291 189.587 106.377C189.698 106.48 189.836 106.55 189.986 106.576C190.135 106.603 190.289 106.587 190.429 106.529C190.564 106.459 190.676 106.354 190.753 106.223C190.831 106.093 190.87 105.944 190.867 105.793C190.862 105.667 190.825 105.545 190.759 105.438C190.693 105.33 190.601 105.242 190.491 105.181C190.262 105.07 190.008 105.025 189.755 105.051C189.755 105.051 189.811 104.978 189.957 104.933C190.168 104.882 190.39 104.904 190.586 104.995C190.743 105.061 190.879 105.168 190.978 105.306C191.077 105.444 191.136 105.607 191.148 105.776C191.17 105.985 191.126 106.196 191.023 106.379C190.919 106.562 190.76 106.707 190.569 106.796C190.378 106.884 190.164 106.91 189.958 106.87C189.751 106.83 189.563 106.726 189.418 106.574C189.299 106.455 189.214 106.306 189.173 106.142C189.133 105.979 189.138 105.808 189.188 105.647C189.244 105.437 189.371 105.252 189.547 105.124C189.66 105.046 189.744 105.035 189.749 105.051Z" fill="#455A64"/>
<path d="M180.762 104.035C180.845 104.212 180.897 104.402 180.914 104.597C181.005 105.101 181.022 105.616 180.965 106.125C180.884 106.882 180.665 107.619 180.319 108.298C179.9 109.143 179.281 109.872 178.515 110.421C177.75 110.971 176.861 111.324 175.927 111.449C175.179 111.561 174.417 111.532 173.68 111.365C173.181 111.257 172.701 111.077 172.253 110.831C172.084 110.751 171.929 110.645 171.793 110.517C172.413 110.796 173.061 111.013 173.725 111.163C174.524 111.329 175.348 111.328 176.147 111.159C176.945 110.99 177.7 110.658 178.363 110.183C179.026 109.708 179.584 109.101 180.001 108.399C180.418 107.698 180.685 106.917 180.785 106.108C180.851 105.418 180.843 104.723 180.762 104.035Z" fill="#455A64"/>
<path d="M202.803 108.955C202.436 108.997 202.065 108.953 201.718 108.826C200.87 108.559 200.108 108.07 199.511 107.41C198.909 106.754 198.495 105.946 198.315 105.074C198.226 104.718 198.226 104.346 198.315 103.99C198.365 103.99 198.371 104.4 198.539 105.029C198.767 105.842 199.181 106.59 199.748 107.215C200.316 107.84 201.021 108.324 201.808 108.629C202.393 108.859 202.808 108.899 202.803 108.955Z" fill="#455A64"/>
<path d="M209.492 164.28C209.211 164.601 208.874 164.869 208.498 165.071C208.104 165.322 207.674 165.511 207.223 165.633C206.656 165.783 206.057 165.768 205.499 165.588C204.518 165.218 203.677 164.55 203.095 163.679C202.827 163.351 202.606 162.988 202.438 162.6C202.741 162.889 203.016 163.207 203.258 163.549C203.854 164.34 204.66 164.949 205.583 165.307C206.055 165.433 206.547 165.462 207.029 165.391C207.512 165.321 207.976 165.153 208.391 164.897C208.746 164.67 209.114 164.464 209.492 164.28Z" fill="#455A64"/>
<path d="M205.201 167.554C204.537 166.867 203.944 166.114 203.432 165.308C202.841 164.557 202.326 163.75 201.893 162.898C202.561 163.583 203.156 164.336 203.668 165.145C204.263 165.891 204.777 166.699 205.201 167.554Z" fill="#455A64"/>
<path d="M176.421 122.059C176.342 122.087 176.146 121.767 175.972 121.334C175.798 120.902 175.725 120.537 175.798 120.503C175.871 120.469 176.073 120.795 176.241 121.227C176.41 121.66 176.494 122.059 176.421 122.059Z" fill="#FAFAFA"/>
<path d="M187.295 123.62C187.211 123.62 187.149 123.345 187.149 123.002C187.149 122.66 187.211 122.379 187.295 122.379C187.379 122.379 187.441 122.66 187.441 123.002C187.441 123.345 187.374 123.62 187.295 123.62Z" fill="#FAFAFA"/>
<path d="M182.824 129.53C182.746 129.53 182.656 129.193 182.628 128.76C182.6 128.328 182.628 127.979 182.718 127.974C182.807 127.968 182.892 128.311 182.92 128.743C182.948 129.176 182.903 129.524 182.824 129.53Z" fill="#FAFAFA"/>
<path d="M174.657 133.854C174.59 133.905 174.36 133.697 174.056 133.483C173.753 133.27 173.495 133.107 173.495 133.028C173.495 132.95 173.865 132.995 174.208 133.242C174.551 133.489 174.725 133.854 174.657 133.854Z" fill="#FAFAFA"/>
<path d="M189.053 139.365C188.986 139.32 189.053 139.078 189.244 138.803C189.435 138.527 189.609 138.37 189.677 138.415C189.744 138.46 189.677 138.707 189.486 138.977C189.295 139.247 189.12 139.41 189.053 139.365Z" fill="#FAFAFA"/>
<path d="M180.167 140.92C180.089 140.92 180.021 140.454 180.021 139.887C180.021 139.319 180.089 138.848 180.167 138.848C180.246 138.848 180.313 139.314 180.313 139.887C180.313 140.46 180.229 140.92 180.167 140.92Z" fill="#FAFAFA"/>
<path d="M177.258 147.222C177.213 147.283 176.921 147.154 176.606 146.924C176.292 146.694 176.045 146.458 176.118 146.39C176.191 146.323 176.46 146.458 176.775 146.688C177.089 146.918 177.308 147.154 177.258 147.222Z" fill="#FAFAFA"/>
<path d="M186.257 149.412C186.29 149.485 186.11 149.637 185.852 149.755C185.593 149.873 185.357 149.901 185.324 149.828C185.29 149.755 185.475 149.603 185.734 149.485C185.992 149.367 186.228 149.339 186.257 149.412Z" fill="#FAFAFA"/>
<path d="M180.168 159.691C180.1 159.725 179.808 159.292 179.522 158.719C179.235 158.146 179.061 157.652 179.134 157.596C179.207 157.54 179.499 157.995 179.78 158.568C180.061 159.141 180.218 159.629 180.168 159.691Z" fill="#FAFAFA"/>
<path d="M190.092 158.736C190.019 158.697 190.148 158.32 190.373 157.888C190.598 157.455 190.85 157.141 190.935 157.18C191.019 157.219 190.878 157.596 190.648 158.028C190.418 158.461 190.16 158.775 190.092 158.736Z" fill="#FAFAFA"/>
<path d="M185.739 167.436C185.655 167.436 185.666 166.981 185.576 166.453C185.486 165.925 185.352 165.504 185.43 165.465C185.509 165.425 185.778 165.824 185.868 166.408C185.958 166.992 185.818 167.453 185.739 167.436Z" fill="#FAFAFA"/>
<path d="M181.077 172.407C181.021 172.463 180.74 172.25 180.454 171.935C180.168 171.621 179.982 171.323 180.044 171.267C180.106 171.211 180.381 171.424 180.667 171.739C180.954 172.053 181.139 172.351 181.077 172.407Z" fill="#FAFAFA"/>
<path d="M192.389 174.294C192.333 174.238 192.541 173.935 192.855 173.615C193.17 173.295 193.462 173.087 193.524 173.143C193.585 173.199 193.372 173.508 193.063 173.823C192.754 174.137 192.451 174.351 192.389 174.294Z" fill="#FAFAFA"/>
<path d="M185.885 181.736C185.807 181.736 185.807 181.293 185.885 180.776C185.964 180.259 186.087 179.855 186.172 179.866C186.256 179.877 186.25 180.304 186.172 180.821C186.093 181.338 185.964 181.748 185.885 181.736Z" fill="#FAFAFA"/>
<path d="M181.51 185.348C181.437 185.387 181.19 185.095 180.948 184.696C180.707 184.298 180.583 183.944 180.65 183.904C180.718 183.865 180.965 184.152 181.212 184.55C181.459 184.949 181.577 185.303 181.51 185.348Z" fill="#FAFAFA"/>
<path d="M192.053 189.903C192.103 189.97 191.817 190.257 191.412 190.543C191.008 190.83 190.654 191.01 190.603 190.942C190.553 190.875 190.845 190.588 191.244 190.302C191.643 190.015 192.008 189.841 192.053 189.903Z" fill="#FAFAFA"/>
<path d="M183.268 195.817C183.189 195.789 183.268 195.34 183.341 194.778C183.414 194.217 183.369 193.756 183.453 193.745C183.537 193.734 183.683 194.205 183.627 194.806C183.571 195.407 183.341 195.851 183.268 195.817Z" fill="#FAFAFA"/>
<path d="M186.778 204.31C186.711 204.36 186.475 204.169 186.244 203.883C186.014 203.597 185.885 203.321 185.947 203.271C186.009 203.22 186.244 203.411 186.475 203.698C186.705 203.984 186.84 204.259 186.778 204.31Z" fill="#FAFAFA"/>
<path d="M182.942 210.005C182.875 210.05 182.566 209.718 182.251 209.258C181.937 208.797 181.74 208.393 181.802 208.348C181.864 208.303 182.178 208.634 182.493 209.095C182.807 209.555 183.01 209.96 182.942 210.005Z" fill="#FAFAFA"/>
<path d="M193.507 202.856C193.434 202.828 193.44 202.62 193.507 202.395C193.575 202.17 193.726 202.002 193.805 202.03C193.884 202.058 193.872 202.266 193.805 202.496C193.738 202.727 193.586 202.89 193.507 202.856Z" fill="#FAFAFA"/>
<path d="M188.845 216.419C188.772 216.38 188.913 215.981 189.025 215.481C189.137 214.982 189.176 214.56 189.261 214.555C189.345 214.549 189.429 215.004 189.311 215.543C189.193 216.082 188.913 216.464 188.845 216.419Z" fill="#FAFAFA"/>
<path d="M191.878 129.619C191.805 129.653 191.626 129.428 191.48 129.113C191.334 128.799 191.272 128.518 191.345 128.484C191.418 128.451 191.598 128.675 191.744 128.99C191.89 129.304 191.963 129.585 191.878 129.619Z" fill="#FAFAFA"/>
<path d="M184.099 112.128C184.144 112.196 183.751 112.51 183.33 112.96C182.908 113.409 182.622 113.825 182.549 113.785C182.476 113.746 182.667 113.224 183.111 112.763C183.554 112.302 184.043 112.055 184.099 112.128Z" fill="#FAFAFA"/>
<path d="M191.025 111.949C190.94 111.949 190.811 111.629 190.615 111.247C190.418 110.865 190.238 110.55 190.3 110.494C190.362 110.438 190.665 110.685 190.862 111.112C191.058 111.539 191.098 111.904 191.025 111.949Z" fill="#FAFAFA"/>
<path d="M169.4 117.628C169.327 117.594 169.4 117.223 169.574 116.796C169.749 116.369 169.94 116.038 170.018 116.072C170.097 116.105 170.018 116.47 169.844 116.903C169.67 117.335 169.496 117.656 169.4 117.628Z" fill="#FAFAFA"/>
<path d="M170.102 126.108C170.046 126.17 169.726 125.99 169.383 125.704C169.041 125.418 168.822 125.142 168.855 125.075C168.889 125.007 169.232 125.193 169.574 125.479C169.917 125.766 170.153 126.047 170.102 126.108Z" fill="#FAFAFA"/>
<path d="M184.29 105.394C184.217 105.394 184.06 105.214 183.947 104.928C183.835 104.641 183.801 104.366 183.874 104.366C183.947 104.366 184.105 104.546 184.217 104.832C184.329 105.119 184.363 105.366 184.29 105.394Z" fill="#FAFAFA"/>
<path d="M197.877 109.539C197.798 109.539 197.804 109.185 197.877 108.786C197.95 108.388 198.096 108.073 198.175 108.09C198.253 108.107 198.248 108.449 198.175 108.848C198.102 109.247 197.955 109.556 197.877 109.539Z" fill="#FAFAFA"/>
<path d="M201.067 115.959C200.994 115.925 201.095 115.51 201.298 115.021C201.5 114.532 201.719 114.167 201.792 114.195C201.865 114.223 201.792 114.645 201.567 115.133C201.343 115.622 201.146 115.987 201.067 115.959Z" fill="#FAFAFA"/>
<path d="M198.792 121.138C198.719 121.171 198.45 120.784 198.191 120.273C197.933 119.762 197.787 119.307 197.86 119.273C197.933 119.239 198.197 119.627 198.455 120.138C198.714 120.649 198.865 121.098 198.792 121.138Z" fill="#FAFAFA"/>
<path d="M203.657 126.316C203.584 126.288 203.657 125.962 203.78 125.592C203.904 125.221 204.1 124.94 204.179 124.968C204.258 124.996 204.179 125.322 204.055 125.693C203.932 126.064 203.758 126.344 203.657 126.316Z" fill="#FAFAFA"/>
<path d="M199.309 131.389C199.242 131.434 199.068 131.282 198.927 131.057C198.787 130.832 198.719 130.608 198.793 130.563C198.866 130.518 199.029 130.669 199.175 130.9C199.321 131.13 199.377 131.349 199.309 131.389Z" fill="#FAFAFA"/>
<path d="M200.236 141.857C200.179 141.908 199.826 141.633 199.455 141.228C199.084 140.824 198.831 140.459 198.893 140.403C198.955 140.346 199.303 140.627 199.674 141.032C200.045 141.436 200.297 141.801 200.236 141.857Z" fill="#FAFAFA"/>
<path d="M205.937 135.842C205.875 135.893 205.566 135.612 205.251 135.207C204.937 134.803 204.735 134.444 204.796 134.393C204.858 134.342 205.167 134.629 205.482 135.028C205.796 135.426 206.004 135.797 205.937 135.842Z" fill="#FAFAFA"/>
<path d="M209.065 144.138C208.992 144.104 209.121 143.683 209.352 143.2C209.582 142.717 209.824 142.346 209.913 142.38C210.003 142.414 209.863 142.841 209.633 143.324C209.402 143.807 209.138 144.177 209.065 144.138Z" fill="#FAFAFA"/>
<path d="M202.415 150.968C202.342 151.008 202.084 150.699 201.724 150.367C201.365 150.036 201.034 149.806 201.067 149.721C201.101 149.637 201.528 149.789 201.921 150.154C202.314 150.519 202.483 150.929 202.415 150.968Z" fill="#FAFAFA"/>
<path d="M202.831 158.006C202.831 158.085 202.55 158.152 202.207 158.152C201.865 158.152 201.589 158.085 201.589 158.006C201.589 157.927 201.865 157.86 202.207 157.86C202.55 157.86 202.831 157.927 202.831 158.006Z" fill="#FAFAFA"/>
<path d="M209.666 156.04C209.593 156 209.739 155.647 209.846 155.209C209.953 154.77 209.998 154.388 210.082 154.383C210.166 154.377 210.256 154.787 210.132 155.276C210.009 155.765 209.728 156.085 209.666 156.04Z" fill="#FAFAFA"/>
<path d="M216.457 158.405C216.384 158.433 216.176 158.034 215.996 157.523C215.817 157.012 215.732 156.574 215.805 156.551C215.879 156.529 216.092 156.916 216.272 157.427C216.451 157.939 216.536 158.377 216.457 158.405Z" fill="#FAFAFA"/>
<path d="M215.373 168.065C215.306 168.026 215.48 167.554 215.761 167.009C216.041 166.465 216.322 166.055 216.406 166.094C216.491 166.133 216.305 166.605 216.019 167.144C215.732 167.683 215.446 168.116 215.373 168.065Z" fill="#FAFAFA"/>
<path d="M209.177 173.732C209.104 173.761 208.874 173.373 208.661 172.862C208.447 172.351 208.341 171.913 208.419 171.879C208.498 171.845 208.723 172.238 208.93 172.75C209.138 173.261 209.25 173.732 209.177 173.732Z" fill="#FAFAFA"/>
<path d="M202.314 175.929C202.314 176.007 202.078 176.075 201.792 176.075C201.505 176.075 201.275 176.007 201.275 175.929C201.275 175.85 201.511 175.783 201.792 175.783C202.072 175.783 202.314 175.85 202.314 175.929Z" fill="#FAFAFA"/>
<path d="M206.246 184.966C206.173 184.966 206.015 184.657 205.897 184.23C205.779 183.803 205.757 183.433 205.836 183.416C205.914 183.399 206.066 183.725 206.184 184.151C206.302 184.578 206.324 184.921 206.246 184.966Z" fill="#FAFAFA"/>
<path d="M201.275 181.933C201.208 181.894 201.275 181.63 201.46 181.343C201.646 181.057 201.831 180.86 201.898 180.9C201.966 180.939 201.898 181.208 201.713 181.495C201.528 181.781 201.348 181.978 201.275 181.933Z" fill="#FAFAFA"/>
<path d="M201.174 191.881C201.095 191.881 200.983 191.504 200.927 191.016C200.87 190.527 200.887 190.128 200.966 190.117C201.045 190.106 201.157 190.493 201.213 190.982C201.269 191.471 201.252 191.869 201.174 191.881Z" fill="#FAFAFA"/>
</svg>
