<svg width="80" height="68" viewBox="0 0 80 68" fill="none" xmlns="http://www.w3.org/2000/svg">
<path fill-rule="evenodd" clip-rule="evenodd" d="M-0.000228882 57.3796C11.9294 51.4794 17.8942 44.5467 17.8942 36.5813C12.8094 35.9913 8.60474 33.9017 5.28008 30.3124C1.95542 26.723 0.293121 22.5684 0.293121 17.8482C0.293121 12.833 1.90653 8.6045 5.13341 5.16269C8.36028 1.72088 12.4183 0 17.3075 0C22.7834 0 27.5258 2.23714 31.535 6.7115C35.5441 11.1859 37.5487 16.6189 37.5487 23.0108C37.5487 42.1866 26.8904 57.1829 5.57343 68L-0.000228882 57.3796ZM42.1 57.3796C54.1275 51.4794 60.1411 44.5467 60.1411 36.5813C54.9586 35.9913 50.705 33.9017 47.3804 30.3124C44.0557 26.723 42.3934 22.5684 42.3934 17.8482C42.3934 12.833 44.0312 8.6045 47.307 5.16269C50.5828 1.72088 54.6652 0 59.5544 0C65.0303 0 69.7483 2.23714 73.7086 6.7115C77.6688 11.1859 79.6489 16.6189 79.6489 23.0108C79.6489 42.1866 69.0395 57.1829 47.8204 68L42.1 57.3796Z" fill="#5987E1" fill-opacity="0.2"/>
</svg>
