<svg width="43" height="43" viewBox="0 0 43 43" fill="none" xmlns="http://www.w3.org/2000/svg">
<path d="M38.7113 22.5491C39.0912 21.9858 39.3133 21.3075 39.3133 20.5784V19.9047C39.3133 17.956 37.7278 16.3706 35.7791 16.3706C34.8068 16.3706 33.925 16.7654 33.2854 17.403C31.6304 12.4809 26.9727 8.92554 21.5 8.92554C16.0273 8.92554 11.3696 12.4808 9.71464 17.403C9.07502 16.7654 8.19326 16.3706 7.22089 16.3706C5.2722 16.3706 3.68675 17.956 3.68675 19.9047V20.5784C3.68675 21.3075 3.9088 21.9858 4.28875 22.5491C1.84237 23.0646 0 25.2394 0 27.8369V29.5278C0 29.9916 0.376082 30.3677 0.839844 30.3677H5.20703C5.67079 30.3677 6.04688 29.9916 6.04688 29.5278C6.04688 29.0641 5.67079 28.688 5.20703 28.688H1.67969V27.8369C1.67969 25.7832 3.35047 24.1124 5.40414 24.1124H9.37904C9.70137 25.5302 10.2663 26.8568 11.0286 28.0455L1.44604 37.628C0.219031 38.8551 0.219031 40.8519 1.44613 42.079C2.05972 42.6926 2.86555 42.9993 3.67154 42.9993C4.47754 42.9993 5.28354 42.6926 5.89713 42.079L11.18 36.7961C11.508 36.4681 11.508 35.9363 11.18 35.6083C10.852 35.2804 10.3203 35.2804 9.99221 35.6083L4.70942 40.8913C4.13707 41.4635 3.20602 41.4634 2.63375 40.8913C2.06156 40.3191 2.06156 39.3879 2.63375 38.8157L12.0406 29.4089C14.3222 32.0848 17.7161 33.7849 21.5 33.7849C27.4065 33.7849 32.3634 29.6436 33.621 24.1124H37.5959C39.6495 24.1124 41.3203 25.7832 41.3203 27.8369V28.688H33.4258C32.962 28.688 32.5859 29.0641 32.5859 29.5278C32.5859 29.9916 32.962 30.3677 33.4258 30.3677H42.1602C42.6239 30.3677 43 29.9916 43 29.5278V27.8369C43 25.2394 41.1576 23.0646 38.7113 22.5491ZM9.07535 20.5785C9.07535 21.601 8.24349 22.4328 7.22089 22.4328C6.1983 22.4328 5.36643 21.601 5.36643 20.5785V19.9048C5.36643 18.8822 6.1983 18.0504 7.22089 18.0504C8.24349 18.0504 9.07535 18.8822 9.07535 19.9048V20.5785ZM21.5 32.1052C15.5725 32.1052 10.75 27.2828 10.75 21.3552C10.75 15.4277 15.5725 10.6052 21.5 10.6052C27.4275 10.6052 32.25 15.4277 32.25 21.3552C32.25 27.2828 27.4275 32.1052 21.5 32.1052ZM37.6335 20.5785C37.6335 21.601 36.8016 22.4328 35.779 22.4328C34.7564 22.4328 33.9246 21.601 33.9246 20.5785V19.9048C33.9246 18.8822 34.7564 18.0504 35.779 18.0504C36.8016 18.0504 37.6335 18.8822 37.6335 19.9048V20.5785Z" fill="#5987E1"/>
<path d="M21.5 12.2849C16.4986 12.2849 12.4297 16.3538 12.4297 21.3552C12.4297 23.9512 13.5262 26.2956 15.2799 27.9505C15.3099 27.9829 15.3421 28.0135 15.3774 28.0412C16.9921 29.5211 19.1423 30.4255 21.5 30.4255C23.8577 30.4255 26.0079 29.521 27.6226 28.0412C27.6579 28.0136 27.6901 27.9829 27.7201 27.9505C29.4738 26.2956 30.5703 23.9512 30.5703 21.3552C30.5703 16.3539 26.5014 12.2849 21.5 12.2849ZM21.5 28.7458C19.773 28.7458 18.1827 28.1503 16.9231 27.154C17.8154 25.4656 19.5544 24.4033 21.5 24.4033C23.4456 24.4033 25.1846 25.4656 26.0769 27.154C24.8173 28.1503 23.227 28.7458 21.5 28.7458ZM19.7302 20.9538V20.3013C19.7302 19.3254 20.5241 18.5315 21.5 18.5315C22.4759 18.5315 23.2698 19.3254 23.2698 20.3013V20.9538C23.2698 21.9297 22.4759 22.7236 21.5 22.7236C20.5241 22.7236 19.7302 21.9297 19.7302 20.9538ZM27.3054 25.9239C26.536 24.6963 25.4099 23.7601 24.0918 23.2263C24.6251 22.6189 24.9495 21.8238 24.9495 20.9539V20.3014C24.9495 18.3994 23.402 16.8519 21.5 16.8519C19.598 16.8519 18.0505 18.3994 18.0505 20.3014V20.9539C18.0505 21.8238 18.3749 22.6189 18.9082 23.2263C17.5901 23.7602 16.464 24.6963 15.6946 25.9239C14.7022 24.6656 14.1094 23.0784 14.1094 21.3552C14.1094 17.2801 17.4248 13.9646 21.5 13.9646C25.5752 13.9646 28.8906 17.2801 28.8906 21.3552C28.8906 23.0784 28.2978 24.6656 27.3054 25.9239Z" fill="#5987E1"/>
<path d="M13.4265 33.3618C13.2703 33.2056 13.0536 33.1157 12.8328 33.1157C12.6119 33.1157 12.3952 33.2056 12.239 33.3618C12.0829 33.518 11.9929 33.7347 11.9929 33.9556C11.9929 34.1764 12.0828 34.3931 12.239 34.5493C12.3952 34.7055 12.6119 34.7954 12.8328 34.7954C13.0536 34.7954 13.2703 34.7055 13.4265 34.5493C13.5827 34.3931 13.6726 34.1764 13.6726 33.9556C13.6726 33.7347 13.5827 33.518 13.4265 33.3618Z" fill="#5987E1"/>
<path d="M21.5171 0.000732422C21.0533 0.000732422 20.6772 0.376814 20.6772 0.840576V3.69806C20.6772 4.16191 21.0533 4.5379 21.5171 4.5379C21.9809 4.5379 22.3569 4.16182 22.3569 3.69806V0.840576C22.3569 0.376814 21.9809 0.000732422 21.5171 0.000732422Z" fill="#5987E1"/>
<path d="M22.1105 5.87376C21.9544 5.71755 21.7385 5.62769 21.5168 5.62769C21.2959 5.62769 21.0793 5.71746 20.9231 5.87376C20.7669 6.03005 20.677 6.24665 20.677 6.46753C20.677 6.68841 20.7668 6.90509 20.9231 7.06122C21.0793 7.21743 21.2959 7.30737 21.5168 7.30737C21.7386 7.30737 21.9544 7.21751 22.1105 7.06122C22.2667 6.90509 22.3567 6.68841 22.3567 6.46753C22.3567 6.24665 22.2668 6.02997 22.1105 5.87376Z" fill="#5987E1"/>
<path d="M28.6369 3.29522C28.3089 2.96735 27.7773 2.96735 27.4491 3.29522L25.973 4.77133C25.6451 5.09929 25.6451 5.63108 25.973 5.95912C26.1371 6.12306 26.352 6.20511 26.567 6.20511C26.782 6.20511 26.9968 6.12306 27.1608 5.95912L28.6369 4.48301C28.9649 4.15505 28.9649 3.62327 28.6369 3.29522Z" fill="#5987E1"/>
<path d="M17.041 4.78138L15.5507 3.29107C15.2227 2.9632 14.691 2.9632 14.3629 3.29107C14.035 3.61903 14.035 4.15082 14.3629 4.47886L15.8533 5.96917C16.0173 6.13311 16.2322 6.21516 16.4472 6.21516C16.6621 6.21516 16.877 6.13311 17.041 5.96917C17.369 5.64121 17.369 5.10942 17.041 4.78138Z" fill="#5987E1"/>
</svg>
