<svg width="41" height="41" viewBox="0 0 41 41" fill="none" xmlns="http://www.w3.org/2000/svg">
<path d="M20.5 12.8125C16.261 12.8125 12.8125 16.261 12.8125 20.5C12.8125 24.739 16.261 28.1875 20.5 28.1875C24.739 28.1875 28.1875 24.739 28.1875 20.5C28.1875 16.261 24.739 12.8125 20.5 12.8125ZM19.2188 19.2188V17.9375C19.2188 17.2309 19.7934 16.6562 20.5 16.6562C21.2066 16.6562 21.7812 17.2309 21.7812 17.9375V19.2188C21.7812 19.9254 21.2066 20.5 20.5 20.5C19.7934 20.5 19.2188 19.9254 19.2188 19.2188ZM22.4219 21.7812C23.4815 21.7812 24.3438 22.6435 24.3438 23.7031V24.3438H16.6562V23.7031C16.6562 22.6435 17.5185 21.7812 18.5781 21.7812H22.4219ZM16.6729 25.625H24.3271C23.2579 26.4258 21.9356 26.9062 20.5 26.9062C19.0644 26.9062 17.7421 26.4258 16.6729 25.625ZM25.625 24.3271V23.7031C25.625 22.0292 24.3297 20.6666 22.6916 20.5275C22.9216 20.1432 23.0625 19.6986 23.0625 19.2188V17.9375C23.0625 16.5243 21.9132 15.375 20.5 15.375C19.0868 15.375 17.9375 16.5243 17.9375 17.9375V19.2188C17.9375 19.6986 18.0784 20.1432 18.3084 20.5275C16.6703 20.6666 15.375 22.0292 15.375 23.7031V24.3271C14.5742 23.2579 14.0938 21.9356 14.0938 20.5C14.0938 16.9676 16.9676 14.0938 20.5 14.0938C24.0324 14.0938 26.9062 16.9676 26.9062 20.5C26.9062 21.9356 26.4258 23.2579 25.625 24.3271Z" fill="#5987E1"/>
<path d="M34.5938 26.2656C37.7732 26.2656 40.3594 23.6794 40.3594 20.5C40.3594 17.3212 37.7732 14.7344 34.5938 14.7344C34.5053 14.7344 34.4195 14.744 34.3324 14.7478L32.3983 11.3634C34.0928 10.3576 35.2344 8.51519 35.2344 6.40625C35.2344 3.22747 32.6482 0.640625 29.4688 0.640625C26.5059 0.640625 24.0606 2.8873 23.7409 5.76562H17.2591C16.9394 2.8873 14.4941 0.640625 11.5312 0.640625C8.35183 0.640625 5.76562 3.22747 5.76562 6.40625C5.76562 8.31531 6.70222 10.0059 8.13658 11.0559L6.02316 14.7536C3.02247 14.9522 0.640625 17.45 0.640625 20.5C0.640625 23.55 3.02247 26.0478 6.02316 26.2464L8.13594 29.9441C6.70222 30.9934 5.76562 32.684 5.76562 34.5938C5.76562 37.7732 8.35183 40.3594 11.5312 40.3594C14.4941 40.3594 16.9394 38.1127 17.2591 35.2344H23.7409C24.0606 38.1127 26.5059 40.3594 29.4688 40.3594C32.6482 40.3594 35.2344 37.7732 35.2344 34.5938C35.2344 32.4848 34.0928 30.6417 32.3983 29.6366L34.3324 26.2522C34.4195 26.256 34.5053 26.2656 34.5938 26.2656ZM31.4617 23.7031H37.7264C36.9173 24.4943 35.8122 24.9844 34.5944 24.9844C33.3766 24.9844 32.2708 24.4943 31.4617 23.7031ZM39.0781 20.5C39.0781 21.188 38.9173 21.8383 38.6393 22.4219H37.7969V18.5781H36.5156V22.4219H35.2344V19.8594H33.9531V22.4219H32.6719V21.1406H31.3906V22.4219H30.5482C30.2702 21.8383 30.1094 21.188 30.1094 20.5C30.1094 18.0272 32.1216 16.0156 34.5938 16.0156C37.0659 16.0156 39.0781 18.0272 39.0781 20.5ZM32.6008 9.60938C31.7917 10.4005 30.6866 10.8906 29.4688 10.8906C28.2509 10.8906 27.1452 10.4005 26.3367 9.60938H32.6008ZM29.4688 1.92188C31.9409 1.92188 33.9531 3.93344 33.9531 6.40625C33.9531 7.09492 33.7923 7.74452 33.5143 8.32812H32.6719V4.48438H31.3906V8.32812H30.1094V5.76562H28.8281V8.32812H27.5469V7.04688H26.2656V8.32812H25.4232C25.1452 7.74452 24.9844 7.09492 24.9844 6.40625C24.9844 3.93344 26.9966 1.92188 29.4688 1.92188ZM11.5312 1.92188C14.0034 1.92188 16.0156 3.93344 16.0156 6.40625C16.0156 7.09492 15.8548 7.74452 15.5768 8.32812H14.7344V4.48438H13.4531V8.32812H12.1719V5.76562H10.8906V8.32812H9.60938V7.04688H8.32812V8.32812H7.4857C7.20767 7.74452 7.04688 7.09492 7.04688 6.40625C7.04688 3.93344 9.05908 1.92188 11.5312 1.92188ZM14.6633 9.60938C13.8542 10.4005 12.7491 10.8906 11.5312 10.8906C10.3134 10.8906 9.2077 10.4005 8.39923 9.60938H14.6633ZM6.40625 16.0156C8.87842 16.0156 10.8906 18.0272 10.8906 20.5C10.8906 21.188 10.7298 21.8383 10.4518 22.4219H9.60938V18.5781H8.32812V22.4219H7.04688V19.8594H5.76562V22.4219H4.48438V21.1406H3.20312V22.4219H2.3607C2.08267 21.8383 1.92188 21.188 1.92188 20.5C1.92188 18.0272 3.93408 16.0156 6.40625 16.0156ZM6.40625 24.9844C5.18778 24.9844 4.08334 24.4943 3.27423 23.7031H9.53891C8.72916 24.4943 7.62472 24.9844 6.40625 24.9844ZM8.39923 37.7969H14.6639C13.8548 38.588 12.7497 39.0781 11.5319 39.0781C10.3141 39.0781 9.20834 38.588 8.39923 37.7969ZM15.5768 36.5156H14.7344V32.6719H13.4531V36.5156H12.1719V33.9531H10.8906V36.5156H9.60938V35.2344H8.32812V36.5156H7.4857C7.20767 35.932 7.04688 35.2818 7.04688 34.5938C7.04688 32.1216 9.05908 30.1094 11.5312 30.1094C14.0034 30.1094 16.0156 32.1216 16.0156 34.5938C16.0156 35.2818 15.8548 35.932 15.5768 36.5156ZM26.3367 37.7969H32.6014C31.7923 38.588 30.6872 39.0781 29.4694 39.0781C28.2516 39.0781 27.1458 38.588 26.3367 37.7969ZM33.9531 34.5938C33.9531 35.2818 33.7923 35.932 33.5143 36.5156H32.6719V32.6719H31.3906V36.5156H30.1094V33.9531H28.8281V36.5156H27.5469V35.2344H26.2656V36.5156H25.4232C25.1452 35.932 24.9844 35.2818 24.9844 34.5938C24.9844 32.1216 26.9966 30.1094 29.4688 30.1094C31.9409 30.1094 33.9531 32.1216 33.9531 34.5938ZM31.2273 29.1042C30.6725 28.9261 30.0818 28.8281 29.4688 28.8281C26.5059 28.8281 24.0606 31.0748 23.7409 33.9531H17.2591C16.9394 31.0748 14.4941 28.8281 11.5312 28.8281C10.7196 28.8281 9.94698 28.9985 9.2455 29.3028L7.45303 26.1657C10.1334 25.6711 12.1719 23.3213 12.1719 20.5C12.1719 17.6787 10.1334 15.3289 7.45303 14.8343L9.2455 11.6972C9.94698 12.0015 10.7196 12.1719 11.5312 12.1719C14.4941 12.1719 16.9394 9.9252 17.2591 7.04688H23.7409C24.0606 9.9252 26.5059 12.1719 29.4688 12.1719C30.0818 12.1719 30.6725 12.0739 31.2273 11.8958L32.9826 14.9682C30.586 15.6671 28.8281 17.8805 28.8281 20.5C28.8281 23.1195 30.586 25.3329 32.9826 26.0324L31.2273 29.1042Z" fill="#5987E1"/>
</svg>
