<svg width="40" height="40" viewBox="0 0 40 40" fill="none" xmlns="http://www.w3.org/2000/svg">
<path fill-rule="evenodd" clip-rule="evenodd" d="M6.3829 0C3.79783 0 1.70215 2.0957 1.70215 4.68085C1.70215 7.266 3.79783 9.36175 6.3829 9.36175C8.96816 9.36175 11.0639 7.266 11.0639 4.68085C11.0639 2.0957 8.96816 0 6.3829 0Z" fill="#1565D8"/>
<path fill-rule="evenodd" clip-rule="evenodd" d="M33.6168 0C31.0315 0 28.936 2.0957 28.936 4.68085C28.936 7.266 31.0315 9.36175 33.6168 9.36175C36.2021 9.36175 38.2976 7.266 38.2976 4.68085C38.2976 2.0957 36.2021 0 33.6168 0Z" fill="#1565D8"/>
<path fill-rule="evenodd" clip-rule="evenodd" d="M20.0001 22.1277C17.4151 22.1277 15.3193 24.2232 15.3193 26.8084C15.3193 29.3937 17.4151 31.4894 20.0001 31.4894C22.5854 31.4894 24.6811 29.3937 24.6811 26.8084C24.6811 24.2232 22.5854 22.1277 20.0001 22.1277Z" fill="#1565D8"/>
<path fill-rule="evenodd" clip-rule="evenodd" d="M0 14.8934C0 12.3084 2.09571 10.2126 4.68087 10.2126H8.08504C10.6703 10.2126 12.7661 12.3084 12.7661 14.8934V16.5956C12.7661 17.3006 12.1946 17.8721 11.4893 17.8721C10.7843 17.8721 10.2128 17.3006 10.2128 16.5956V14.8934C10.2128 13.7184 9.2603 12.7659 8.08504 12.7659H4.68087C3.50579 12.7659 2.55321 13.7184 2.55321 14.8934V16.5956C2.55321 17.3006 1.98166 17.8721 1.27661 17.8721C0.571553 17.8721 0 17.3006 0 16.5956V14.8934Z" fill="#1565D8"/>
<path fill-rule="evenodd" clip-rule="evenodd" d="M27.2339 14.8934C27.2339 12.3084 29.3294 10.2126 31.9147 10.2126H35.3189C37.9042 10.2126 39.9997 12.3084 39.9997 14.8934V16.5956C39.9997 17.3006 39.4282 17.8721 38.7232 17.8721C38.0182 17.8721 37.4467 17.3006 37.4467 16.5956V14.8934C37.4467 13.7184 36.4939 12.7659 35.3189 12.7659H31.9147C30.7397 12.7659 29.7869 13.7184 29.7869 14.8934V16.5956C29.7869 17.3006 29.2154 17.8721 28.5104 17.8721C27.8054 17.8721 27.2339 17.3006 27.2339 16.5956V14.8934Z" fill="#1565D8"/>
<path fill-rule="evenodd" clip-rule="evenodd" d="M13.6172 37.0213C13.6172 34.4361 15.7129 32.3406 18.298 32.3406H21.7022C24.2875 32.3406 26.3833 34.4361 26.3833 37.0213V38.7233C26.3833 39.4286 25.8115 40.0001 25.1065 40.0001C24.4015 40.0001 23.83 39.4286 23.83 38.7233V37.0213C23.83 35.8463 22.8772 34.8936 21.7022 34.8936H18.298C17.123 34.8936 16.1704 35.8463 16.1704 37.0213V38.7233C16.1704 39.4286 15.5987 40.0001 14.8937 40.0001C14.1887 40.0001 13.6172 39.4286 13.6172 38.7233V37.0213Z" fill="#1565D8"/>
<path fill-rule="evenodd" clip-rule="evenodd" d="M33.6167 18.7236C34.3219 18.7236 34.8934 19.2951 34.8934 20.0001V23.4044C34.8934 25.9896 32.7977 28.0854 30.2124 28.0854H28.5104C27.8054 28.0854 27.2339 27.5136 27.2339 26.8086C27.2339 26.1036 27.8054 25.5321 28.5104 25.5321H30.2124C31.3877 25.5321 32.3402 24.5794 32.3402 23.4044V20.0001C32.3402 19.2951 32.9117 18.7236 33.6167 18.7236Z" fill="#9CBEEF"/>
<path fill-rule="evenodd" clip-rule="evenodd" d="M6.38295 18.7236C5.67795 18.7236 5.10645 19.2951 5.10645 20.0001V23.4044C5.10645 25.9896 7.20221 28.0854 9.78722 28.0854H11.4895C12.1945 28.0854 12.766 27.5136 12.766 26.8086C12.766 26.1036 12.1945 25.5321 11.4895 25.5321H9.78722C8.61221 25.5321 7.65971 24.5794 7.65971 23.4044V20.0001C7.65971 19.2951 7.08796 18.7236 6.38295 18.7236Z" fill="#9CBEEF"/>
<path fill-rule="evenodd" clip-rule="evenodd" d="M32.7148 19.0973C33.2133 18.5988 34.0216 18.5988 34.5201 19.0973L36.2223 20.7995C36.7208 21.298 36.7208 22.1063 36.2223 22.6048C35.7238 23.1035 34.9156 23.1035 34.4168 22.6048L33.6176 21.8055L32.8181 22.6048C32.3196 23.1035 31.5113 23.1035 31.0125 22.6048C30.514 22.1063 30.514 21.298 31.0125 20.7995L32.7148 19.0973Z" fill="#9CBEEF"/>
<path fill-rule="evenodd" clip-rule="evenodd" d="M7.28568 19.0973C6.78718 18.5988 5.97893 18.5988 5.48042 19.0973L3.77819 20.7995C3.27966 21.298 3.27966 22.1063 3.77819 22.6048C4.27675 23.1035 5.08492 23.1035 5.58368 22.6048L6.38293 21.8055L7.18243 22.6048C7.68094 23.1035 8.48919 23.1035 8.98795 22.6048C9.48645 22.1063 9.48645 21.298 8.98795 20.7995L7.28568 19.0973Z" fill="#9CBEEF"/>
</svg>
