<svg width="34" height="34" viewBox="0 0 34 34" fill="none" xmlns="http://www.w3.org/2000/svg">
<path d="M14.3438 23.9062V22.3125C14.3438 21.4338 13.6287 20.7188 12.75 20.7188C12.4568 20.7188 12.2188 20.4808 12.2188 20.1875V19.6562H12.75C13.0432 19.6562 13.2812 19.8942 13.2812 20.1875V20.7188H14.3438V20.1875C14.3438 19.4958 13.898 18.9114 13.2812 18.6915V17.5312H12.2188V18.5938H11.1562V20.1875C11.1562 21.0662 11.8713 21.7812 12.75 21.7812C13.0432 21.7812 13.2812 22.0192 13.2812 22.3125V22.8438H12.75C12.4568 22.8438 12.2188 22.6058 12.2188 22.3125V21.7812H11.1562V22.3125C11.1562 23.0042 11.602 23.5886 12.2188 23.8085V24.9688H13.2812V23.9062H14.3438Z" fill="#5987E1"/>
<path d="M32.4062 3.71875H24.9688V2.125C24.9688 1.24631 24.2537 0.53125 23.375 0.53125H2.125C1.24631 0.53125 0.53125 1.24631 0.53125 2.125V29.75C0.53125 30.4783 1.02531 31.0877 1.69362 31.2768L2.04053 32.6634C2.15847 33.1378 2.58241 33.4688 3.07116 33.4688H22.4288C22.9176 33.4688 23.3415 33.1378 23.4595 32.6634L23.8064 31.2768C24.4747 31.0877 24.9688 30.4783 24.9688 29.75V28.1562H32.4062C32.9922 28.1562 33.4688 27.6797 33.4688 27.0938V4.78125C33.4688 4.19528 32.9922 3.71875 32.4062 3.71875ZM12.2363 3.72991C14.0973 3.80959 15.0482 4.284 15.3993 4.50819C15.3531 5.35341 15.0833 6.16675 14.6115 6.87491L14.5908 6.90625H13.0826C12.5986 5.91653 12.308 4.83012 12.2363 3.72991ZM17 9.03125H11.1562V10.0938H17C17.2932 10.0938 17.5312 10.3317 17.5312 10.625C17.5312 10.9183 17.2932 11.1562 17 11.1562H11.1562V12.2188H17C17.2932 12.2188 17.5312 12.4567 17.5312 12.75C17.5312 13.0433 17.2932 13.2812 17 13.2812H11.1562V14.3438H15.9375C16.2308 14.3438 16.4688 14.5817 16.4688 14.875C16.4688 15.1683 16.2308 15.4062 15.9375 15.4062H9.81325C8.44953 15.4062 7.08475 15.104 5.84375 14.5361V7.67019C6.79734 6.77556 8.00063 6.17472 9.28678 5.94947L10.2967 7.96875H17C17.2932 7.96875 17.5312 8.20675 17.5312 8.5C17.5312 8.79325 17.2932 9.03125 17 9.03125ZM4.78125 14.3438H3.71875V7.96875H4.78125V14.3438ZM10.9533 6.90625L10.1687 5.33747C10.4284 4.9895 10.8359 4.78125 11.2816 4.78125H11.2928C11.4171 5.51013 11.6248 6.22519 11.9128 6.90625H10.9533ZM9.19806 4.8875C7.66647 5.13666 6.22731 5.84003 5.09734 6.90625H4.78125V4.78125H9.26075C9.23737 4.81472 9.21931 4.85244 9.19806 4.8875ZM2.65625 14.3438H1.59375V7.96875H2.65625V14.3438ZM4.78125 15.4062H5.18925C6.29425 15.9417 7.49541 16.2807 8.71781 16.4087L7.16709 18.3472C6.31444 19.414 5.84428 20.7528 5.84428 22.1191C5.84428 24.182 6.88553 26.0047 8.46812 27.0938H4.78125V15.4062ZM6.90625 22.1191C6.90625 20.9939 7.29353 19.89 7.99691 19.0113L10.0311 16.4688H15.4695L17.5036 19.0113C18.2065 19.8895 18.5938 20.9939 18.5938 22.1191C18.5938 24.862 16.362 27.0938 13.6191 27.0938H11.8814C9.13803 27.0938 6.90625 24.862 6.90625 22.1191ZM19.6562 22.1191C19.6562 20.7533 19.1861 19.414 18.3334 18.3472L16.6781 16.278C17.1827 16.0103 17.5312 15.4854 17.5312 14.875C17.5312 14.6652 17.4882 14.4659 17.4144 14.2821C18.0917 14.0983 18.5938 13.4847 18.5938 12.75C18.5938 12.3404 18.4338 11.9701 18.1794 11.6875C18.4344 11.4049 18.5938 11.0346 18.5938 10.625C18.5938 10.2154 18.4338 9.84513 18.1794 9.5625C18.4344 9.27987 18.5938 8.90959 18.5938 8.5C18.5938 7.62131 17.8787 6.90625 17 6.90625H15.8201C16.1627 6.24378 16.3737 5.525 16.4417 4.78125H20.7188V27.0938H17.0324C18.615 26.0042 19.6562 24.182 19.6562 22.1191ZM21.7812 4.78125H30.2812V27.0938H21.7812V4.78125ZM2.125 1.59375H23.375C23.6682 1.59375 23.9062 1.83175 23.9062 2.125V3.71875H16.1277C15.6761 3.38247 14.3873 2.65625 11.6875 2.65625H11.1562V3.1875C11.1562 3.36441 11.1621 3.54184 11.1717 3.71875H3.71875V6.90625H1.59375V2.125C1.59375 1.83175 1.83175 1.59375 2.125 1.59375ZM3.07063 32.4062L2.805 31.3438H22.6945L22.4283 32.4062H3.07063ZM23.9062 29.75C23.9062 30.0432 23.6682 30.2812 23.375 30.2812H2.125C1.83175 30.2812 1.59375 30.0432 1.59375 29.75V15.4062H3.71875V28.1562H23.9062V29.75ZM32.4062 27.0938H31.3438V4.78125H32.4062V27.0938Z" fill="#5987E1"/>
</svg>
