<svg width="43" height="30" viewBox="0 0 43 30" fill="none" xmlns="http://www.w3.org/2000/svg">
<path d="M12.343 10.2938C19.1055 8.24807 25.5352 6.28837 32.6162 5.35468C33.8174 5.19628 35.128 4.94983 36.3578 4.91971C36.5903 4.91401 35.92 5.06348 35.7022 5.13811C34.3669 5.5956 33.0525 6.10431 31.7158 6.55897C25.0883 8.81338 18.301 10.6922 11.5437 12.5688C9.39958 13.1642 7.29249 13.8061 5.26335 14.6961C4.99775 14.8126 1.80582 16.1277 3.57542 15.3604C8.67661 13.1483 14.0123 11.395 19.2555 9.51745C24.7754 7.54081 30.2827 5.46092 35.9303 3.82297C37.7447 3.29674 39.6276 2.77571 41.4943 2.42257C43.5389 2.03574 37.6171 3.86571 35.6603 4.5412C28.6765 6.95191 21.6773 9.35152 14.7497 11.9037C12.9753 12.5573 10.3096 13.8296 14.7629 12.9946C21.9639 11.6445 28.8743 9.39567 35.8716 7.37113C37.5158 6.89541 39.1564 6.36952 40.8336 6.00139C42.3271 5.67358 37.8768 6.76822 36.4151 7.20321C26.8112 10.0612 17.5394 13.5194 8.29045 17.2387C7.6938 17.4787 7.11645 17.8759 8.31086 17.5952C12.6822 16.5679 16.9176 14.8495 21.0093 13.1053C25.6279 11.1365 30.1032 8.87601 34.7206 6.90824C36.5013 6.1494 42.0463 4.34511 40.2296 5.02265C36.5635 6.38991 32.6048 7.23199 28.8648 8.41128C24.0395 9.93275 19.2156 11.4954 14.4814 13.2562C12.9957 13.8087 11.0583 14.2437 9.69835 15.0648C6.45188 17.0251 16.8741 12.4307 20.3694 10.9111C24.3823 9.16664 28.4032 7.42551 32.523 5.91625C33.8248 5.43933 37.8523 4.35458 36.5577 4.84888C33.8682 5.8758 30.9493 6.56833 28.2087 7.46564C21.3515 9.71071 14.6365 12.2985 7.80625 14.6088C5.78166 15.2936 3.74403 16.0279 1.66702 16.5666C-0.575172 17.1482 6.03822 15.071 8.22732 14.3324C13.3478 12.6047 18.3853 10.7015 23.4342 8.79895C24.6122 8.35505 25.7948 7.93283 26.946 7.42837C27.3646 7.24493 28.5095 6.56987 28.2181 6.91294C28.0088 7.15922 27.6349 7.21089 27.3372 7.34831C25.8116 8.05261 24.2903 8.76016 22.7897 9.51272C19.6912 11.0666 16.6052 12.6719 13.5625 14.3245C13.2911 14.4719 10.3964 16.3101 11.3454 16.1317C13.9995 15.6327 16.7377 14.3897 19.2284 13.5036C24.277 11.7076 29.3104 9.87317 34.4207 8.23651C39.7137 6.54135 55.9139 2.42569 50.4903 3.70953C41.4702 5.84476 32.7611 9.141 24.1714 12.4504C22.2309 13.198 20.3104 13.9783 18.4185 14.8308C18.2502 14.9066 17.742 15.043 17.9259 15.0815C18.4744 15.1964 20.6136 14.3671 20.8543 14.2914C26.0002 12.6714 31.0449 10.7768 36.1616 9.07827C38.238 8.389 40.3248 7.72922 42.4322 7.12855C43.1155 6.93381 44.4645 6.35376 45.2403 6.4118C45.7351 6.44881 44.2999 6.69474 43.8219 6.81031C40.0225 7.72904 36.1909 8.54283 32.3772 9.40743C26.1747 10.8136 19.977 12.2381 13.7763 13.6508C13.5985 13.6914 11.5295 14.132 11.9387 14.1324C16.1301 14.1366 20.4912 12.605 24.4359 11.4845C26.7974 10.8137 29.1336 10.0632 31.5083 9.43326C31.7238 9.3761 32.3652 9.20116 32.1632 9.29217C31.1108 9.76634 29.9426 10.087 28.8681 10.5074C25.5061 11.8228 22.2558 13.3642 19.0074 14.9118C17.8766 15.4506 16.7514 15.9976 15.6363 16.5654C15.3034 16.7349 14.3 17.1624 14.6784 17.1414C15.2735 17.1083 15.823 16.8355 16.3845 16.6517C19.633 15.5881 22.8412 14.4125 26.0132 13.1601C31.1463 11.1334 36.1531 8.84551 41.237 6.71449C41.6538 6.53978 44.8979 4.89235 44.8449 4.88685C41.8129 4.57252 38.1624 5.57617 35.2151 6.05037C30.891 6.74609 18.1926 9.98824 22.4979 9.20157C26.265 8.51326 29.7177 6.55219 33.5571 6.10463C34.1283 6.03805 32.5564 6.63963 32.0512 6.89861C29.7993 8.05302 27.5883 9.30401 25.4404 10.6277C24.459 11.2326 23.5224 11.9173 22.5018 12.4617C20.2727 13.6507 27.1845 10.5149 29.5387 9.57018C32.6607 8.31736 42.3597 5.5222 39.0121 6.06193C31.3147 7.30298 23.8314 9.52448 16.5796 12.1953C16.0045 12.4071 14.0284 13.2607 16.1064 12.5047C20.5222 10.8984 24.8906 9.11697 29.2104 7.29332C32.8231 5.76821 36.3182 4.01276 39.92 2.46796C40.4786 2.22836 44.0981 0.81685 41.2845 1.46828C33.1367 3.35468 25.2409 6.86394 17.7529 10.3773C17.1397 10.665 15.9124 11.2572 15.2549 11.5798C14.9365 11.736 14.0265 12.2666 14.3647 12.1541C18.3386 10.8322 22.1607 8.96768 25.9673 7.27274C27.8828 6.41985 29.849 5.65541 31.7415 4.7577C31.7812 4.73886 31.9045 4.69135 31.8654 4.71147C30.3961 5.46891 28.884 6.15283 27.3976 6.87848C19.8813 10.5478 12.4122 14.717 4.49413 17.5636C3.62234 17.8771 2.43207 18.4598 4.31728 17.7203C8.77992 15.9699 13.1182 13.9813 17.6379 12.3535C21.2414 11.0558 24.8888 9.67073 28.6071 8.68132C29.0209 8.57121 30.9262 8.03222 29.4365 8.61553C24.0543 10.7231 18.7847 13.1001 13.3323 15.044C12.4021 15.3757 11.2434 15.812 13.0379 15.0035C15.719 13.7955 18.3672 12.5347 21.0037 11.2412C21.5843 10.9563 23.1808 10.2602 22.545 10.0848C20.16 9.42682 16.8584 10.5072 14.5987 11.048C12.2563 11.6085 10.08 12.4269 7.84334 13.2642C4.3884 14.5576 10.8454 11.7593 11.0584 11.6712C16.1529 9.56501 21.3559 7.76214 26.6476 6.15795C30.1999 5.0811 19.5399 8.35974 16.1721 9.87719C15.9861 9.96098 14.2144 10.7481 15.6251 10.393C18.9606 9.55365 22.1523 8.10476 25.3495 6.89682C27.2847 6.16564 29.2266 5.4578 31.1094 4.60949C34.2261 3.20524 24.9188 7.50258 21.8309 8.96328C19.7377 9.9534 17.639 10.9429 15.5776 11.9925C15.4619 12.0514 13.5115 12.9864 14.8356 12.4904C17.9603 11.3199 21.0856 10.1535 24.2055 8.97103C25.7517 8.38501 27.3087 7.83608 28.8873 7.33307C29.5057 7.13601 30.9976 6.27587 30.7844 6.87281C30.6389 7.27995 30.0874 7.40379 29.7092 7.62668C28.4574 8.36447 27.1556 9.02364 25.8913 9.74139C24.6831 10.4273 23.0955 11.1138 22.0399 12.0252C21.9405 12.111 22.2955 12.15 22.4293 12.1384C24.0885 11.9941 25.7512 11.5944 27.3667 11.2512C30.8685 10.5075 34.3565 9.69913 37.8294 8.84643C39.8598 8.34788 38.1769 9.02332 37.2783 9.37375C34.2535 10.5534 31.1803 11.6185 28.1563 12.8006C26.8526 13.3103 25.5855 13.9005 24.2797 14.403C23.4945 14.7052 26.0042 14.2772 26.2259 14.2189C26.7754 14.0742 28.2788 13.2711 28.8549 13.477C29.0534 13.5479 28.4573 13.599 28.2556 13.6508C27.0084 13.971 25.7725 14.3153 24.5477 14.7056C22.0006 15.5174 19.519 16.4943 16.999 17.3755C15.5481 17.8829 13.7873 18.2514 12.5152 19.136C10.3607 20.634 17.4493 17.1961 20.0003 16.4562C20.4941 16.313 21.3925 16.1379 20.2523 16.3523C18.7556 16.6337 17.3461 17.0765 15.8826 17.4552C11.1545 18.6784 25.0041 14.0659 29.5397 12.312C30.7989 11.8251 32.4874 11.2187 30.1477 11.6628C29.2267 11.8377 28.3114 12.0268 27.3855 12.1761" stroke="#5987E1" stroke-opacity="0.62" stroke-linecap="round" stroke-linejoin="round"/>
</svg>
