<svg width="40" height="40" viewBox="0 0 40 40" fill="none" xmlns="http://www.w3.org/2000/svg">
<path d="M4.89153 17.5531C4.47332 17.5531 4.05755 17.3941 3.73961 17.0762C3.10372 16.4403 3.10372 15.4082 3.73961 14.7699L14.9996 3.50987C15.6355 2.87399 16.6676 2.87399 17.3059 3.50987C17.9418 4.14575 17.9418 5.17784 17.3059 5.81617L6.04591 17.0762C5.72552 17.3941 5.30975 17.5531 4.89153 17.5531Z" fill="#1565D8" fill-opacity="0.4"/>
<path d="M18.3429 9.40154C18.0249 9.40154 17.7119 9.2768 17.4771 9.04446L11.7712 3.33863C11.4215 2.9889 11.3163 2.46307 11.5071 2.00572C11.6954 1.54838 12.143 1.25 12.637 1.25H18.3429C19.0179 1.25 19.5657 1.79784 19.5657 2.47285V8.17868C19.5657 8.67272 19.2673 9.11783 18.81 9.3086C18.6608 9.36974 18.4994 9.40154 18.3429 9.40154Z" fill="#9CBEEF"/>
<path d="M11.4142 24.4816V33.856H1.63135V24.4816C1.63135 23.3566 2.5436 22.4443 3.66862 22.4443H9.37445C10.4995 22.4443 11.4142 23.3566 11.4142 24.4816Z" fill="#1565D8"/>
<path d="M24.4566 17.9614V33.8584H14.6738V17.9614C14.6738 16.8363 15.5861 15.9241 16.7111 15.9241H22.4169C23.5444 15.9216 24.4566 16.8363 24.4566 17.9614Z" fill="#1565D8"/>
<path d="M37.5001 11.4386V33.8584H27.7173V11.4386C27.7173 10.3136 28.6295 9.40137 29.7546 9.40137H35.4628C36.5879 9.40137 37.5001 10.3136 37.5001 11.4386Z" fill="#1565D8"/>
<path d="M37.9084 38.7499H1.22285C0.547838 38.7499 0 38.2021 0 37.5271C0 36.852 0.547838 36.3042 1.22285 36.3042H37.9084C38.5834 36.3042 39.1313 36.852 39.1313 37.5271C39.1313 38.2021 38.5834 38.7499 37.9084 38.7499Z" fill="#1565D8" fill-opacity="0.4"/>
</svg>
