<svg width="64" height="64" viewBox="0 0 64 64" fill="none" xmlns="http://www.w3.org/2000/svg">
<circle cx="32" cy="32" r="32" fill="#F6F9FF"/>
<path d="M26.1675 16.5825C26.1675 14.8325 26.8175 13.2325 27.885 12H16.585C14.05 12 12 14.05 12 16.5825V25.75C12 28.2825 14.05 30.3325 16.5825 30.3325H18.665V34.0825C18.665 34.5825 18.965 35.0325 19.415 35.2325C19.5825 35.3 19.7475 35.3325 19.915 35.3325C20.2325 35.3325 20.5325 35.215 20.765 35L25.815 30.3325H27.8825C26.815 29.1 26.165 27.5 26.165 25.75V16.5825H26.1675Z" fill="#1565D8" fill-opacity="0.4"/>
<path d="M18.6675 43.665C20.508 43.665 22 42.173 22 40.3325C22 38.492 20.508 37 18.6675 37C16.827 37 15.335 38.492 15.335 40.3325C15.335 42.173 16.827 43.665 18.6675 43.665Z" fill="#1565D8"/>
<path d="M20.75 45.3325H16.5825C14.055 45.3325 12 47.39 12 49.9175V50.75C12 51.44 12.56 52 13.25 52H24.0825C24.7725 52 25.3325 51.44 25.3325 50.75V49.9175C25.3325 47.39 23.2775 45.3325 20.75 45.3325Z" fill="#1565D8"/>
<path d="M45.3325 43.665C47.173 43.665 48.665 42.173 48.665 40.3325C48.665 38.492 47.173 37 45.3325 37C43.492 37 42 38.492 42 40.3325C42 42.173 43.492 43.665 45.3325 43.665Z" fill="#1565D8"/>
<path d="M47.4175 45.3325H43.25C40.7225 45.3325 38.6675 47.3875 38.6675 49.915V50.75C38.6675 51.44 39.2275 52 39.9175 52H50.75C51.44 52 52 51.44 52 50.75V49.9175C52 47.39 49.945 45.3325 47.4175 45.3325Z" fill="#1565D8"/>
<path d="M44.0825 35.3325C43.775 35.3325 43.47 35.2175 43.235 35.0025L38.1775 30.3325H33.25C30.7225 30.3325 28.6675 28.2775 28.6675 25.75V16.5825C28.6675 14.055 30.7225 12 33.25 12H47.4175C49.945 12 52 14.055 52 16.5825V25.75C52 28.2775 49.945 30.3325 47.4175 30.3325H45.335V34.0825C45.335 34.58 45.04 35.0275 44.5875 35.2275C44.4225 35.3 44.2525 35.3325 44.0825 35.3325Z" fill="#1565D8" fill-opacity="0.4"/>
</svg>
