<svg width="64" height="64" viewBox="0 0 64 64" fill="none" xmlns="http://www.w3.org/2000/svg">
<circle cx="32" cy="32" r="32" fill="#F6F9FF"/>
<path d="M36.1675 29.8325C36.1675 32.1342 34.3016 34 32 34C29.6984 34 27.8325 32.1342 27.8325 29.8325C27.8325 27.5309 29.6984 25.665 32 25.665C34.3016 25.665 36.1675 27.5309 36.1675 29.8325Z" fill="#1565D8"/>
<path d="M35.75 35.665H28.25C25.7225 35.665 23.6675 37.7201 23.6675 40.2476V42.7476C23.6675 43.4373 24.2278 43.9976 24.9175 43.9976H39.085C39.7753 43.9976 40.335 43.4373 40.335 42.7476V40.2476C40.3325 37.7225 38.2775 35.665 35.75 35.665Z" fill="#1565D8"/>
<path d="M47 14H17C14.2424 14 12 16.2424 12 19V45.6675C12 48.425 14.2424 50.6675 17 50.6675H47C49.7576 50.6675 52 48.425 52 45.6675V19C52 16.2424 49.7576 14 47 14ZM47 47.3325H17C16.0802 47.3325 15.3325 46.5848 15.3325 45.665V22.3325H48.665V45.665C48.6675 46.5848 47.9198 47.3325 47 47.3325Z" fill="#1565D8" fill-opacity="0.4"/>
</svg>
