<svg width="34" height="34" viewBox="0 0 34 34" fill="none" xmlns="http://www.w3.org/2000/svg">
<path d="M31.2581 25.2258H28.5161V24.129H32.3548V15.4102L33.8799 13.5035L33.0233 12.8185L30.9943 15.3548H28.5161V0H0V34H28.5161V30.7097H31.2581C32.77 30.7097 34 29.4796 34 27.9677C34 26.4558 32.77 25.2258 31.2581 25.2258ZM30.1169 16.4516L26.8255 20.5662L25.6135 19.3542L24.8381 20.1296L26.9165 22.208L31.2581 16.7812V23.0323H23.5806V16.4516H30.1169ZM27.4194 32.9032H1.09677V1.09677H27.4194V15.3548H22.4839V24.129H27.4194V25.2258H13.6104L12.0645 25.8055V23.0323H2.19355V31.8065H12.0645V30.13L13.6104 30.7097H27.4194V32.9032ZM26.3226 28.5161V29.6129H14.2581V28.5161H24.129V27.4194H14.2581V26.3226H26.3226V27.4194H25.2258V28.5161H26.3226ZM9.64339 29.2225L10.9677 29.7187V30.7097H3.29032V24.129H10.9677V26.2167L9.64284 26.7136C9.12352 26.9088 8.77419 27.4128 8.77419 27.9677C8.77419 28.5227 9.12352 29.0267 9.64339 29.2225ZM10.0295 28.1959C9.93458 28.1602 9.87097 28.0686 9.87097 27.9677C9.87097 27.8668 9.93458 27.7753 10.0289 27.7402L13.1613 26.5655V29.37L10.0295 28.1959ZM28.5161 29.6129H27.4194V26.3226H28.5161V29.6129ZM31.2581 29.6129H29.6129V26.3226H31.2581C32.1651 26.3226 32.9032 27.0607 32.9032 27.9677C32.9032 28.8748 32.1651 29.6129 31.2581 29.6129Z" fill="#5987E1"/>
<path d="M19.1753 19.3269C18.7783 17.9383 17.653 16.9002 16.2371 16.6173L13.1612 16.002V15.8578C14.1757 15.2688 14.9314 14.2861 15.2209 13.1191C16.2327 12.9244 16.9999 12.0355 16.9999 10.9678V6.03231C16.9999 4.88838 16.1197 3.9457 15.0005 3.84754L14.3676 3.37264C13.3542 2.61257 12.0978 2.1936 10.8305 2.1936C7.57968 2.1936 4.93536 4.83793 4.93536 8.08877V10.9678C4.93536 12.0355 5.70255 12.9244 6.71433 13.1197C7.00387 14.2866 7.75955 15.2693 8.77407 15.8583V16.0025L5.69871 16.6178C4.28278 16.9008 3.15694 17.9389 2.76045 19.3274L2.01465 21.9355H19.9206L19.1753 19.3269ZM15.3547 11.9121V10.0235C15.681 10.2138 15.9031 10.5636 15.9031 10.9678C15.9031 11.372 15.681 11.7218 15.3547 11.9121ZM6.58052 11.9121C6.25423 11.7218 6.03213 11.372 6.03213 10.9678C6.03213 10.5636 6.25423 10.2138 6.58052 10.0235V11.9121ZM6.03213 9.07915V8.08877C6.03213 5.4428 8.18455 3.29038 10.8305 3.29038C11.862 3.29038 12.8848 3.63147 13.7096 4.25006L14.6237 4.93554H14.8063C15.4112 4.93554 15.9031 5.42744 15.9031 6.03231V9.07915C15.579 8.89051 15.2077 8.77425 14.8063 8.77425H10.4192C9.81436 8.77425 9.32246 8.28235 9.32246 7.67747H8.22568C8.22568 8.28235 7.73378 8.77425 7.12891 8.77425C6.72749 8.77425 6.35623 8.89051 6.03213 9.07915ZM7.67729 12.0646V9.7948C8.10723 9.68293 8.48891 9.45041 8.77407 9.12686C9.17604 9.58312 9.765 9.87102 10.4192 9.87102H14.2579V12.0646C14.2579 13.8792 12.7822 15.3549 10.9676 15.3549C9.153 15.3549 7.67729 13.8792 7.67729 12.0646ZM12.0644 16.3074V16.4517C12.0644 17.0565 11.5725 17.5484 10.9676 17.5484C10.3627 17.5484 9.87084 17.0565 9.87084 16.4517V16.3074C10.2224 16.3985 10.5881 16.4517 10.9676 16.4517C11.3471 16.4517 11.7129 16.3985 12.0644 16.3074ZM15.783 20.8388L15.3383 19.0609L14.2744 19.3263L14.6522 20.8388H7.283L7.66084 19.3263L6.59697 19.0609L6.15223 20.8388H3.46897L3.815 19.6279C4.09852 18.6359 4.90246 17.895 5.91368 17.6927L8.88265 17.0988C9.16068 17.9915 9.98491 18.6452 10.9676 18.6452C11.9503 18.6452 12.7746 17.9915 13.0526 17.0988L16.0216 17.6927C17.0328 17.895 17.8367 18.637 18.1202 19.6279L18.4663 20.8388H15.783Z" fill="#5987E1"/>
<path d="M26.3225 2.1936H18.0967V3.29038H26.3225V2.1936Z" fill="#5987E1"/>
<path d="M26.3225 4.38696H18.0967V5.48374H26.3225V4.38696Z" fill="#5987E1"/>
<path d="M26.3225 6.58057H18.0967V7.67734H26.3225V6.58057Z" fill="#5987E1"/>
<path d="M26.3225 8.77417H18.0967V9.87094H26.3225V8.77417Z" fill="#5987E1"/>
<path d="M26.3226 10.9678H25.2258V12.0645H26.3226V10.9678Z" fill="#5987E1"/>
<path d="M24.1289 10.9678H18.0967V12.0645H24.1289V10.9678Z" fill="#5987E1"/>
<path d="M26.3225 13.1611H18.0967V14.2579H26.3225V13.1611Z" fill="#5987E1"/>
</svg>
